<?xml version="1.0" standalone="no"?>
<!DOCTYPE svg PUBLIC "-//W3C//DTD SVG 1.1//EN" "http://www.w3.org/Graphics/SVG/1.1/DTD/svg11.dtd">
<svg width="24.507436859305265in" height="29.09036076168065in"
 viewBox="0 0 24.507436859305265 29.09036076168065"
 xmlns="http://www.w3.org/2000/svg" version="1.1"
 xmlns:xlink="http://www.w3.org/1999/xlink">
<desc>Output from Flights of Ideas SVG Sketchup Plugin</desc>

  <path id="face0-cut"
 style="fill:none;stroke:#0000FF;stroke-width:.05;stroke-miterlimit:4;stroke-dasharray:none;stroke-linejoin:round;stroke-linecap:round"
        d="M 24.50333499467207,0.8530997174475582 L 24.50254109723512,0.3982932553483833 L 24.49206345981325,0.34432289728714244 L 24.47520180331868,0.2919944635683524 L 24.45219852533945,0.2420602104207054 L 24.423384313379852,0.19523797612572252 L 24.389173391005823,0.15220086161378826 L 24.350057563104723,0.11356755418593018 L 24.30659914586054,0.07989343347209305 L 24.259422883083612,0.051662587477178494 L 24.209206965099735,0.029280853490579458 L 24.156673279311274,0.013069983906295931 L 24.10257703258257,0.003263020814829594 L 24.047695894636473,9.458699252133086e-07 L 20.50659673990715,0.0021829631994622583 L 20.136864199130155,0.09246281124076877 L 19.774858679222216,0.20995581625772736 L 19.422580141058273,0.35401286822250794 L 19.081974807153397,0.5238380995259432 L 18.754924409426263,0.7184932818831268 L 18.443235793252978,0.9369030097338714 L 18.148630935241766,1.1778606415032784 L 17.8727374298832,1.440034965899698 L 17.617079497626644,1.7219775564145585 L 17.383069564067608,2.022130773401471 L 17.17200045676155,2.338836369519889 L 16.985038262779806,2.6703446510051223 L 16.483451935020963,3.56468735257883 L 15.920894148385837,4.421989194842488 L 15.300087995841675,5.238100359461524 L 14.624038524884337,6.009070413918816 L 13.89601819143429,6.731167433810321 L 13.119551019329474,7.400896067434531 L 12.298395542085228,8.015014455243072 L 11.4365266095006,8.570549922245132 L 10.538116147170523,9.064813367412565 L 9.60751296204408,9.495412280421641 L 8.649221691775903,9.860262322741024 L 7.882517214110533,10.091722248890981 L 7.667880999771524,10.157597416984764 L 4.025900080874732,11.124112470711657 L 3.785650378953943,11.193049119940529 L 3.548353953900215,11.271551269825771 L 3.314391487177016,11.359492983732494 L 3.084138311764843,11.456733181657635 L 2.857963810033152,11.563115866555895 L 2.6362308211624677,11.678470374602131 L 2.419295059061295,11.802611648969108 L 2.2075045417135013,11.935340536711351 L 2.0011990328729152,12.07644410825508 L 1.8007094969996273,12.225695998980756 L 1.6063575683105114,12.382856772377364 L 1.4184550348017069,12.547674304154611 L 9.458699252133086e-07,13.96837729587315 L 7.546685795142008,13.962399549624518 L 7.636863109591485,13.878570249654013 L 7.746629766203665,13.82279766973499 L 7.867507261220379,13.79938974857091 L 7.990158876848665,13.810154541114242 L 8.105110860164114,13.854260562320968 L 8.203484186765063,13.928301011997133 L 8.277680386905427,14.026556920010636 L 8.321968460105847,14.141438886162682 L 8.332927544269165,14.26407329425844 L 8.309711147034573,14.38498772050353 L 8.254112529828955,14.494842594495088 L 8.170426194275006,14.585152598460452 L 8.176688757303378,22.49140816231418 L 8.181915801928948,29.090359815810725 L 8.667492163984218,27.567495490381766 L 9.21566014671826,26.066025537383684 L 9.825480977352623,24.588521320274094 L 10.495910298657986,23.13751315965468 L 11.225799957483087,21.71548599993118 L 12.013899971040484,20.32487515369095 L 12.85886066758199,18.968062131070614 L 13.759234997798199,17.64737056127155 L 14.71348101298302,16.36506221319172 L 15.719964505719286,15.123333122005121 L 16.776961808564334,13.924309828306832 L 17.882662745940006,12.770045736282759 L 24.433806225786622,6.208515677879141 L 24.445063565530386,6.196477240461436 L 24.45550945096745,6.183728313016305 L 24.465099151212893,6.170323488408837 L 24.473791601697666,6.156320168154501 L 24.481549580014626,6.141778316622092 L 24.488339865309296,6.1267602042512594 L 24.4941333805378,6.111330140905488 L 24.498905316978504,6.095554200484334 L 24.50263524046694,6.0794999379872685 L 24.50530717889792,6.063236100230073 L 24.506909690621267,6.04683233146372 L 24.50743591343534,6.030358875144234 L 24.50707720897226,5.577507679339009 L 23.95589628008487,5.577944271007582 L 23.932847846560275,5.595658979823921 L 23.905999865343187,5.6068047010194775 L 23.877181981985228,5.610621872112566 L 23.848358087613416,5.606850359202704 L 23.821492482995364,5.595747184661509 L 23.798416014688552,5.578069011484584 L 23.78070130587197,5.5550205779601605 L 23.769555584676947,5.528172596742505 L 23.76573841358346,5.499354713384686 L 23.76950992649368,5.470530819013086 L 23.78061310103497,5.443665214395089 L 23.79829127421176,5.420588746087952 L 23.794798540864928,1.0111413149891122 L 23.77708383204843,0.988092881464689 L 23.765938110853323,0.9612449002470336 L 23.762120939759978,0.9324270168890424 L 23.765892452670027,0.9036031225174418 L 23.776995627211488,0.8767375178994448 L 23.794673578072103,0.8530997174475584 L 23.81772223391287,0.8359463407760278 L 23.844570215129846,0.8248006195812103 L 23.87338809848786,0.8209834484876662 L 23.9022119928597,0.8247549613971313 L 23.929077597477697,0.8358581359386982 L 23.952153892872087,0.8530997174475583 L 24.50333499467207,0.8530997174475582 M 22.050124964175506,1.740607456764326 L 21.964639133748232,1.7052773717148335 L 21.89121026123264,1.649025769119563 L 21.83484240294366,1.575686102735334 L 21.799376935271493,1.4902563496264731 L 21.78723077122849,1.3985584062880698 L 21.799231651821696,1.3068413360205986 L 21.83456173687109,1.2213555055934473 L 21.89081333946633,1.1479266330776725 L 21.96415300585063,1.0915587747888216 L 22.049582758959485,1.0560933071167016 L 22.141280702297774,1.0439471430736886 L 22.23299777256518,1.0559480236667782 L 22.318483602992483,1.0912781087162673 L 22.391912475508132,1.1475297113115432 L 22.448280333797083,1.2208693776957722 L 22.483745801469222,1.3062991308046343 L 22.495891965512282,1.397997074142893 L 22.483891084919048,1.4897141444105082 L 22.448560999869596,1.5751999748378036 L 22.392309397274413,1.6486288473532926 L 22.318969730890114,1.704996705642145 L 22.23353997778126,1.7404621733144061 L 22.141842034442885,1.7526083373574155 L 22.050124964175506,1.740607456764326 "
  />
  <path id="face0-interior"
 style="fill:none;stroke:#FF0000;stroke-width:.05;stroke-miterlimit:4;stroke-dasharray:none;stroke-linejoin:round;stroke-linecap:round"
        d="M 24.50333499467207,0.8530997174475582 M 24.50254109723512,0.3982932553483833 M 24.49206345981325,0.34432289728714244 M 24.47520180331868,0.2919944635683524 M 24.45219852533945,0.2420602104207054 M 24.423384313379852,0.19523797612572252 M 24.389173391005823,0.15220086161378826 M 24.350057563104723,0.11356755418593018 M 24.30659914586054,0.07989343347209305 M 24.259422883083612,0.051662587477178494 M 24.209206965099735,0.029280853490579458 M 24.156673279311274,0.013069983906295931 M 24.10257703258257,0.003263020814829594 M 24.047695894636473,9.458699252133086e-07 M 20.50659673990715,0.0021829631994622583 M 20.136864199130155,0.09246281124076877 M 19.774858679222216,0.20995581625772736 M 19.422580141058273,0.35401286822250794 M 19.081974807153397,0.5238380995259432 M 18.754924409426263,0.7184932818831268 M 18.443235793252978,0.9369030097338714 M 18.148630935241766,1.1778606415032784 M 17.8727374298832,1.440034965899698 M 17.617079497626644,1.7219775564145585 M 17.383069564067608,2.022130773401471 M 17.17200045676155,2.338836369519889 M 16.985038262779806,2.6703446510051223 M 16.483451935020963,3.56468735257883 M 15.920894148385837,4.421989194842488 M 15.300087995841675,5.238100359461524 M 14.624038524884337,6.009070413918816 M 13.89601819143429,6.731167433810321 M 13.119551019329474,7.400896067434531 M 12.298395542085228,8.015014455243072 M 11.4365266095006,8.570549922245132 M 10.538116147170523,9.064813367412565 M 9.60751296204408,9.495412280421641 M 8.649221691775903,9.860262322741024 M 7.882517214110533,10.091722248890981 M 7.667880999771524,10.157597416984764 M 4.025900080874732,11.124112470711657 M 3.785650378953943,11.193049119940529 M 3.548353953900215,11.271551269825771 M 3.314391487177016,11.359492983732494 M 3.084138311764843,11.456733181657635 M 2.857963810033152,11.563115866555895 M 2.6362308211624677,11.678470374602131 M 2.419295059061295,11.802611648969108 M 2.2075045417135013,11.935340536711351 M 2.0011990328729152,12.07644410825508 M 1.8007094969996273,12.225695998980756 M 1.6063575683105114,12.382856772377364 M 1.4184550348017069,12.547674304154611 M 9.458699252133086e-07,13.96837729587315 M 7.546685795142008,13.962399549624518 M 7.636863109591485,13.878570249654013 M 7.746629766203665,13.82279766973499 M 7.867507261220379,13.79938974857091 M 7.990158876848665,13.810154541114242 M 8.105110860164114,13.854260562320968 M 8.203484186765063,13.928301011997133 M 8.277680386905427,14.026556920010636 M 8.321968460105847,14.141438886162682 M 8.332927544269165,14.26407329425844 M 8.309711147034573,14.38498772050353 M 8.254112529828955,14.494842594495088 M 8.170426194275006,14.585152598460452 M 8.176688757303378,22.49140816231418 M 8.181915801928948,29.090359815810725 M 8.667492163984218,27.567495490381766 M 9.21566014671826,26.066025537383684 M 9.825480977352623,24.588521320274094 M 10.495910298657986,23.13751315965468 M 11.225799957483087,21.71548599993118 M 12.013899971040484,20.32487515369095 M 12.85886066758199,18.968062131070614 M 13.759234997798199,17.64737056127155 M 14.71348101298302,16.36506221319172 M 15.719964505719286,15.123333122005121 M 16.776961808564334,13.924309828306832 M 17.882662745940006,12.770045736282759 M 24.433806225786622,6.208515677879141 M 24.445063565530386,6.196477240461436 M 24.45550945096745,6.183728313016305 M 24.465099151212893,6.170323488408837 M 24.473791601697666,6.156320168154501 M 24.481549580014626,6.141778316622092 M 24.488339865309296,6.1267602042512594 M 24.4941333805378,6.111330140905488 M 24.498905316978504,6.095554200484334 M 24.50263524046694,6.0794999379872685 M 24.50530717889792,6.063236100230073 M 24.506909690621267,6.04683233146372 M 24.50743591343534,6.030358875144234 M 24.50707720897226,5.577507679339009 M 23.95589628008487,5.577944271007582 M 23.932847846560275,5.595658979823921 M 23.905999865343187,5.6068047010194775 M 23.877181981985228,5.610621872112566 M 23.848358087613416,5.606850359202704 M 23.821492482995364,5.595747184661509 M 23.798416014688552,5.578069011484584 M 23.78070130587197,5.5550205779601605 M 23.769555584676947,5.528172596742505 M 23.76573841358346,5.499354713384686 M 23.76950992649368,5.470530819013086 M 23.78061310103497,5.443665214395089 M 23.79829127421176,5.420588746087952 M 23.794798540864928,1.0111413149891122 M 23.77708383204843,0.988092881464689 M 23.765938110853323,0.9612449002470336 M 23.762120939759978,0.9324270168890424 M 23.765892452670027,0.9036031225174418 M 23.776995627211488,0.8767375178994448 M 23.794673578072103,0.8530997174475584 M 23.81772223391287,0.8359463407760278 M 23.844570215129846,0.8248006195812103 M 23.87338809848786,0.8209834484876662 M 23.9022119928597,0.8247549613971313 M 23.929077597477697,0.8358581359386982 M 23.952153892872087,0.8530997174475583 M 22.050124964175506,1.740607456764326 M 21.964639133748232,1.7052773717148335 M 21.89121026123264,1.649025769119563 M 21.83484240294366,1.575686102735334 M 21.799376935271493,1.4902563496264731 M 21.78723077122849,1.3985584062880698 M 21.799231651821696,1.3068413360205986 M 21.83456173687109,1.2213555055934473 M 21.89081333946633,1.1479266330776725 M 21.96415300585063,1.0915587747888216 M 22.049582758959485,1.0560933071167016 M 22.141280702297774,1.0439471430736886 M 22.23299777256518,1.0559480236667782 M 22.318483602992483,1.0912781087162673 M 22.391912475508132,1.1475297113115432 M 22.448280333797083,1.2208693776957722 M 22.483745801469222,1.3062991308046343 M 22.495891965512282,1.397997074142893 M 22.483891084919048,1.4897141444105082 M 22.448560999869596,1.5751999748378036 M 22.392309397274413,1.6486288473532926 M 22.318969730890114,1.704996705642145 M 22.23353997778126,1.7404621733144061 M 22.141842034442885,1.7526083373574155 "
  />
  <path id="face0-interior"
 style="fill:none;stroke:#00FF00;stroke-width:.05;stroke-miterlimit:4;stroke-dasharray:none;stroke-linejoin:round;stroke-linecap:round"
        d="M 24.50333499467207,0.8530997174475582 M 24.50254109723512,0.3982932553483833 M 24.49206345981325,0.34432289728714244 M 24.47520180331868,0.2919944635683524 M 24.45219852533945,0.2420602104207054 M 24.423384313379852,0.19523797612572252 M 24.389173391005823,0.15220086161378826 M 24.350057563104723,0.11356755418593018 M 24.30659914586054,0.07989343347209305 M 24.259422883083612,0.051662587477178494 M 24.209206965099735,0.029280853490579458 M 24.156673279311274,0.013069983906295931 M 24.10257703258257,0.003263020814829594 M 24.047695894636473,9.458699252133086e-07 M 20.50659673990715,0.0021829631994622583 M 20.136864199130155,0.09246281124076877 M 19.774858679222216,0.20995581625772736 M 19.422580141058273,0.35401286822250794 M 19.081974807153397,0.5238380995259432 M 18.754924409426263,0.7184932818831268 M 18.443235793252978,0.9369030097338714 M 18.148630935241766,1.1778606415032784 M 17.8727374298832,1.440034965899698 M 17.617079497626644,1.7219775564145585 M 17.383069564067608,2.022130773401471 M 17.17200045676155,2.338836369519889 M 16.985038262779806,2.6703446510051223 M 16.483451935020963,3.56468735257883 M 15.920894148385837,4.421989194842488 M 15.300087995841675,5.238100359461524 M 14.624038524884337,6.009070413918816 M 13.89601819143429,6.731167433810321 M 13.119551019329474,7.400896067434531 M 12.298395542085228,8.015014455243072 M 11.4365266095006,8.570549922245132 M 10.538116147170523,9.064813367412565 M 9.60751296204408,9.495412280421641 M 8.649221691775903,9.860262322741024 M 7.882517214110533,10.091722248890981 M 7.667880999771524,10.157597416984764 M 4.025900080874732,11.124112470711657 M 3.785650378953943,11.193049119940529 M 3.548353953900215,11.271551269825771 M 3.314391487177016,11.359492983732494 M 3.084138311764843,11.456733181657635 M 2.857963810033152,11.563115866555895 M 2.6362308211624677,11.678470374602131 M 2.419295059061295,11.802611648969108 M 2.2075045417135013,11.935340536711351 M 2.0011990328729152,12.07644410825508 M 1.8007094969996273,12.225695998980756 M 1.6063575683105114,12.382856772377364 M 1.4184550348017069,12.547674304154611 M 9.458699252133086e-07,13.96837729587315 M 7.546685795142008,13.962399549624518 M 7.636863109591485,13.878570249654013 M 7.746629766203665,13.82279766973499 M 7.867507261220379,13.79938974857091 M 7.990158876848665,13.810154541114242 M 8.105110860164114,13.854260562320968 M 8.203484186765063,13.928301011997133 M 8.277680386905427,14.026556920010636 M 8.321968460105847,14.141438886162682 M 8.332927544269165,14.26407329425844 M 8.309711147034573,14.38498772050353 M 8.254112529828955,14.494842594495088 M 8.170426194275006,14.585152598460452 M 8.176688757303378,22.49140816231418 M 8.181915801928948,29.090359815810725 M 8.667492163984218,27.567495490381766 M 9.21566014671826,26.066025537383684 M 9.825480977352623,24.588521320274094 M 10.495910298657986,23.13751315965468 M 11.225799957483087,21.71548599993118 M 12.013899971040484,20.32487515369095 M 12.85886066758199,18.968062131070614 M 13.759234997798199,17.64737056127155 M 14.71348101298302,16.36506221319172 M 15.719964505719286,15.123333122005121 M 16.776961808564334,13.924309828306832 M 17.882662745940006,12.770045736282759 M 24.433806225786622,6.208515677879141 M 24.445063565530386,6.196477240461436 M 24.45550945096745,6.183728313016305 M 24.465099151212893,6.170323488408837 M 24.473791601697666,6.156320168154501 M 24.481549580014626,6.141778316622092 M 24.488339865309296,6.1267602042512594 M 24.4941333805378,6.111330140905488 M 24.498905316978504,6.095554200484334 M 24.50263524046694,6.0794999379872685 M 24.50530717889792,6.063236100230073 M 24.506909690621267,6.04683233146372 M 24.50743591343534,6.030358875144234 M 24.50707720897226,5.577507679339009 M 23.95589628008487,5.577944271007582 M 23.932847846560275,5.595658979823921 M 23.905999865343187,5.6068047010194775 M 23.877181981985228,5.610621872112566 M 23.848358087613416,5.606850359202704 M 23.821492482995364,5.595747184661509 M 23.798416014688552,5.578069011484584 M 23.78070130587197,5.5550205779601605 M 23.769555584676947,5.528172596742505 M 23.76573841358346,5.499354713384686 M 23.76950992649368,5.470530819013086 M 23.78061310103497,5.443665214395089 M 23.79829127421176,5.420588746087952 M 23.794798540864928,1.0111413149891122 M 23.77708383204843,0.988092881464689 M 23.765938110853323,0.9612449002470336 M 23.762120939759978,0.9324270168890424 M 23.765892452670027,0.9036031225174418 M 23.776995627211488,0.8767375178994448 M 23.794673578072103,0.8530997174475584 M 23.81772223391287,0.8359463407760278 M 23.844570215129846,0.8248006195812103 M 23.87338809848786,0.8209834484876662 M 23.9022119928597,0.8247549613971313 M 23.929077597477697,0.8358581359386982 M 23.952153892872087,0.8530997174475583 M 22.050124964175506,1.740607456764326 M 21.964639133748232,1.7052773717148335 M 21.89121026123264,1.649025769119563 M 21.83484240294366,1.575686102735334 M 21.799376935271493,1.4902563496264731 M 21.78723077122849,1.3985584062880698 M 21.799231651821696,1.3068413360205986 M 21.83456173687109,1.2213555055934473 M 21.89081333946633,1.1479266330776725 M 21.96415300585063,1.0915587747888216 M 22.049582758959485,1.0560933071167016 M 22.141280702297774,1.0439471430736886 M 22.23299777256518,1.0559480236667782 M 22.318483602992483,1.0912781087162673 M 22.391912475508132,1.1475297113115432 M 22.448280333797083,1.2208693776957722 M 22.483745801469222,1.3062991308046343 M 22.495891965512282,1.397997074142893 M 22.483891084919048,1.4897141444105082 M 22.448560999869596,1.5751999748378036 M 22.392309397274413,1.6486288473532926 M 22.318969730890114,1.704996705642145 M 22.23353997778126,1.7404621733144061 M 22.141842034442885,1.7526083373574155 "
  />
</svg>
