<?xml version="1.0" standalone="no"?>
<!DOCTYPE svg PUBLIC "-//W3C//DTD SVG 1.1//EN" "http://www.w3.org/Graphics/SVG/1.1/DTD/svg11.dtd">
<svg width="24.507483017757615in" height="29.090406920133in"
 viewBox="0 0 24.507483017757615 29.090406920133"
 xmlns="http://www.w3.org/2000/svg" version="1.1"
 xmlns:xlink="http://www.w3.org/1999/xlink">
<desc>Output from Flights of Ideas SVG Sketchup Plugin</desc>

  <path id="face0-cut"
 style="fill:none;stroke:#0000FF;stroke-width:1;stroke-miterlimit:4;stroke-dasharray:none;stroke-linejoin:round;stroke-linecap:round"
        d="M 24.503358073898244,0.8531227966737335 L 24.502564176461295,0.39831633457455845 L 24.492086539039423,0.3443459765133176 L 24.475224882544854,0.2920175427945276 L 24.452221604565626,0.24208328964688058 L 24.423407392606027,0.1952610553518977 L 24.389196470231997,0.15222394083996343 L 24.350080642330898,0.11359063341210535 L 24.306622225086716,0.07991651269826822 L 24.259445962309787,0.05168566670335368 L 24.20923004432591,0.029303932716754636 L 24.15669635853745,0.013093063132471109 L 24.102600111808744,0.0032861000410047726 L 24.047718973862647,2.402509610039209e-05 L 20.506619819133324,0.002206042425637437 L 20.13688727835633,0.09248589046694394 L 19.77488175844839,0.20997889548390253 L 19.422603220284447,0.3540359474486831 L 19.081997886379572,0.5238611787521185 L 18.754947488652437,0.7185163611093021 L 18.443258872479152,0.9369260889600467 L 18.14865401446794,1.1778837207294535 L 17.872760509109373,1.440058045125873 L 17.61710257685282,1.7220006356407336 L 17.383092643293782,2.0221538526276466 L 17.172023535987723,2.3388594487460646 L 16.98506134200598,2.670367730231298 L 16.483475014247137,3.5647104318050054 L 15.920917227612014,4.4220122740686625 L 15.300111075067852,5.2381234386876985 L 14.624061604110514,6.009093493144991 L 13.896041270660467,6.731190513036496 L 13.11957409855565,7.400919146660706 L 12.298418621311404,8.015037534469249 L 11.436549688726776,8.570573001471308 L 10.5381392263967,9.064836446638742 L 9.607536041270256,9.495435359647818 L 8.64924477100208,9.8602854019672 L 7.8825402933367075,10.091745328117158 L 7.667904078997698,10.15762049621094 L 4.0259231601009065,11.124135549937833 L 3.7856734581801184,11.193072199166705 L 3.5483770331263904,11.271574349051948 L 3.3144145664031917,11.35951606295867 L 3.0841613909910186,11.456756260883811 L 2.8579868892593274,11.563138945782072 L 2.636253900388643,11.678493453828308 L 2.4193181382874704,11.802634728195285 L 2.207527620939677,11.935363615937527 L 2.0012221120990907,12.076467187481256 L 1.8007325762258024,12.225719078206932 L 1.6063806475366864,12.38287985160354 L 1.418478114027882,12.547697383380788 L 2.402509610039209e-05,13.968400375099327 L 7.546708874368183,13.962422628850694 L 7.63688618881766,13.87859332888019 L 7.74665284542984,13.822820748961167 L 7.867530340446554,13.799412827797086 L 7.9901819560748395,13.810177620340419 L 8.10513393939029,13.854283641547145 L 8.20350726599124,13.92832409122331 L 8.277703466131603,14.026579999236812 L 8.321991539332023,14.141461965388858 L 8.332950623495341,14.264096373484616 L 8.30973422626075,14.385010799729706 L 8.254135609055131,14.494865673721264 L 8.170449273501182,14.585175677686628 L 8.176711836529554,22.491431241540354 L 8.181938881155125,29.0903828950369 L 8.667515243210394,27.56751856960794 L 9.215683225944437,26.06604861660986 L 9.825504056578799,24.588544399500268 L 10.495933377884162,23.137536238880855 L 11.225823036709263,21.715509079157354 L 12.01392305026666,20.324898232917125 L 12.858883746808166,18.96808521029679 L 13.759258077024375,17.647393640497725 L 14.713504092209197,16.365085292417895 L 15.719987584945462,15.123356201231298 L 16.77698488779051,13.924332907533008 L 17.88268582516618,12.770068815508935 L 24.433829305012797,6.208538757105315 L 24.44508664475656,6.196500319687611 L 24.455532530193626,6.183751392242479 L 24.465122230439068,6.170346567635011 L 24.47381468092384,6.156343247380676 L 24.4815726592408,6.141801395848266 L 24.48836294453547,6.126783283477434 L 24.494156459763975,6.1113532201316625 L 24.49892839620468,6.0955772797105086 L 24.502658319693115,6.079523017213443 L 24.505330258124093,6.063259179456248 L 24.50693276984744,6.046855410689894 L 24.507458992661515,6.030381954370409 L 24.507100288198433,5.577530758565183 L 23.955919359311043,5.577967350233757 L 23.93287092578645,5.5956820590500955 L 23.90602294456936,5.606827780245652 L 23.877205061211402,5.610644951338741 L 23.84838116683959,5.606873438428878 L 23.82151556222154,5.595770263887684 L 23.798439093914727,5.578092090710759 L 23.780724385098143,5.555043657186335 L 23.769578663903122,5.5281956759686794 L 23.765761492809634,5.4993777926108605 L 23.769533005719854,5.4705538982392605 L 23.780636180261144,5.443688293621264 L 23.798314353437934,5.420611825314126 L 23.794821620091103,1.0111643942152873 L 23.777106911274604,0.9881159606908643 L 23.765961190079498,0.9612679794732089 L 23.762144018986152,0.9324500961152177 L 23.7659155318962,0.9036262017436171 L 23.777018706437662,0.87676059712562 L 23.794696657298278,0.8531227966737337 L 23.817745313139046,0.8359694200022031 L 23.84459329435602,0.8248236988073856 L 23.873411177714036,0.8210065277138415 L 23.902235072085876,0.8247780406233066 L 23.92910067670387,0.8358812151648735 L 23.95217697209826,0.8531227966737336 L 24.503358073898244,0.8531227966737335 M 22.05014804340168,1.740630535990501 L 21.964662212974407,1.7053004509410086 L 21.891233340458815,1.649048848345738 L 21.834865482169835,1.575709181961509 L 21.799400014497667,1.4902794288526482 L 21.787253850454665,1.3985814855142449 L 21.79925473104787,1.3068644152467737 L 21.834584816097266,1.2213785848196224 L 21.890836418692505,1.1479497123038476 L 21.964176085076804,1.0915818540149966 L 22.04960583818566,1.0561163863428766 L 22.14130378152395,1.0439702222998637 L 22.233020851791355,1.0559711028929533 L 22.318506682218658,1.0913011879424424 L 22.391935554734307,1.1475527905377183 L 22.448303413023257,1.2208924569219473 L 22.483768880695397,1.3063222100308094 L 22.495915044738457,1.3980201533690682 L 22.483914164145222,1.4897372236366833 L 22.44858407909577,1.5752230540639787 L 22.392332476500588,1.6486519265794677 L 22.31899281011629,1.70501978486832 L 22.233563057007434,1.7404852525405812 L 22.14186511366906,1.7526314165835906 L 22.05014804340168,1.740630535990501 "
  />
  <path id="face0-interior"
 style="fill:none;stroke:#FF0000;stroke-width:1;stroke-miterlimit:4;stroke-dasharray:none;stroke-linejoin:round;stroke-linecap:round"
        d="M 24.503358073898244,0.8531227966737335 M 24.502564176461295,0.39831633457455845 M 24.492086539039423,0.3443459765133176 M 24.475224882544854,0.2920175427945276 M 24.452221604565626,0.24208328964688058 M 24.423407392606027,0.1952610553518977 M 24.389196470231997,0.15222394083996343 M 24.350080642330898,0.11359063341210535 M 24.306622225086716,0.07991651269826822 M 24.259445962309787,0.05168566670335368 M 24.20923004432591,0.029303932716754636 M 24.15669635853745,0.013093063132471109 M 24.102600111808744,0.0032861000410047726 M 24.047718973862647,2.402509610039209e-05 M 20.506619819133324,0.002206042425637437 M 20.13688727835633,0.09248589046694394 M 19.77488175844839,0.20997889548390253 M 19.422603220284447,0.3540359474486831 M 19.081997886379572,0.5238611787521185 M 18.754947488652437,0.7185163611093021 M 18.443258872479152,0.9369260889600467 M 18.14865401446794,1.1778837207294535 M 17.872760509109373,1.440058045125873 M 17.61710257685282,1.7220006356407336 M 17.383092643293782,2.0221538526276466 M 17.172023535987723,2.3388594487460646 M 16.98506134200598,2.670367730231298 M 16.483475014247137,3.5647104318050054 M 15.920917227612014,4.4220122740686625 M 15.300111075067852,5.2381234386876985 M 14.624061604110514,6.009093493144991 M 13.896041270660467,6.731190513036496 M 13.11957409855565,7.400919146660706 M 12.298418621311404,8.015037534469249 M 11.436549688726776,8.570573001471308 M 10.5381392263967,9.064836446638742 M 9.607536041270256,9.495435359647818 M 8.64924477100208,9.8602854019672 M 7.8825402933367075,10.091745328117158 M 7.667904078997698,10.15762049621094 M 4.0259231601009065,11.124135549937833 M 3.7856734581801184,11.193072199166705 M 3.5483770331263904,11.271574349051948 M 3.3144145664031917,11.35951606295867 M 3.0841613909910186,11.456756260883811 M 2.8579868892593274,11.563138945782072 M 2.636253900388643,11.678493453828308 M 2.4193181382874704,11.802634728195285 M 2.207527620939677,11.935363615937527 M 2.0012221120990907,12.076467187481256 M 1.8007325762258024,12.225719078206932 M 1.6063806475366864,12.38287985160354 M 1.418478114027882,12.547697383380788 M 2.402509610039209e-05,13.968400375099327 M 7.546708874368183,13.962422628850694 M 7.63688618881766,13.87859332888019 M 7.74665284542984,13.822820748961167 M 7.867530340446554,13.799412827797086 M 7.9901819560748395,13.810177620340419 M 8.10513393939029,13.854283641547145 M 8.20350726599124,13.92832409122331 M 8.277703466131603,14.026579999236812 M 8.321991539332023,14.141461965388858 M 8.332950623495341,14.264096373484616 M 8.30973422626075,14.385010799729706 M 8.254135609055131,14.494865673721264 M 8.170449273501182,14.585175677686628 M 8.176711836529554,22.491431241540354 M 8.181938881155125,29.0903828950369 M 8.667515243210394,27.56751856960794 M 9.215683225944437,26.06604861660986 M 9.825504056578799,24.588544399500268 M 10.495933377884162,23.137536238880855 M 11.225823036709263,21.715509079157354 M 12.01392305026666,20.324898232917125 M 12.858883746808166,18.96808521029679 M 13.759258077024375,17.647393640497725 M 14.713504092209197,16.365085292417895 M 15.719987584945462,15.123356201231298 M 16.77698488779051,13.924332907533008 M 17.88268582516618,12.770068815508935 M 24.433829305012797,6.208538757105315 M 24.44508664475656,6.196500319687611 M 24.455532530193626,6.183751392242479 M 24.465122230439068,6.170346567635011 M 24.47381468092384,6.156343247380676 M 24.4815726592408,6.141801395848266 M 24.48836294453547,6.126783283477434 M 24.494156459763975,6.1113532201316625 M 24.49892839620468,6.0955772797105086 M 24.502658319693115,6.079523017213443 M 24.505330258124093,6.063259179456248 M 24.50693276984744,6.046855410689894 M 24.507458992661515,6.030381954370409 M 24.507100288198433,5.577530758565183 M 23.955919359311043,5.577967350233757 M 23.93287092578645,5.5956820590500955 M 23.90602294456936,5.606827780245652 M 23.877205061211402,5.610644951338741 M 23.84838116683959,5.606873438428878 M 23.82151556222154,5.595770263887684 M 23.798439093914727,5.578092090710759 M 23.780724385098143,5.555043657186335 M 23.769578663903122,5.5281956759686794 M 23.765761492809634,5.4993777926108605 M 23.769533005719854,5.4705538982392605 M 23.780636180261144,5.443688293621264 M 23.798314353437934,5.420611825314126 M 23.794821620091103,1.0111643942152873 M 23.777106911274604,0.9881159606908643 M 23.765961190079498,0.9612679794732089 M 23.762144018986152,0.9324500961152177 M 23.7659155318962,0.9036262017436171 M 23.777018706437662,0.87676059712562 M 23.794696657298278,0.8531227966737337 M 23.817745313139046,0.8359694200022031 M 23.84459329435602,0.8248236988073856 M 23.873411177714036,0.8210065277138415 M 23.902235072085876,0.8247780406233066 M 23.92910067670387,0.8358812151648735 M 23.95217697209826,0.8531227966737336 M 22.05014804340168,1.740630535990501 M 21.964662212974407,1.7053004509410086 M 21.891233340458815,1.649048848345738 M 21.834865482169835,1.575709181961509 M 21.799400014497667,1.4902794288526482 M 21.787253850454665,1.3985814855142449 M 21.79925473104787,1.3068644152467737 M 21.834584816097266,1.2213785848196224 M 21.890836418692505,1.1479497123038476 M 21.964176085076804,1.0915818540149966 M 22.04960583818566,1.0561163863428766 M 22.14130378152395,1.0439702222998637 M 22.233020851791355,1.0559711028929533 M 22.318506682218658,1.0913011879424424 M 22.391935554734307,1.1475527905377183 M 22.448303413023257,1.2208924569219473 M 22.483768880695397,1.3063222100308094 M 22.495915044738457,1.3980201533690682 M 22.483914164145222,1.4897372236366833 M 22.44858407909577,1.5752230540639787 M 22.392332476500588,1.6486519265794677 M 22.31899281011629,1.70501978486832 M 22.233563057007434,1.7404852525405812 M 22.14186511366906,1.7526314165835906 "
  />
  <path id="face0-interior"
 style="fill:none;stroke:#00FF00;stroke-width:1;stroke-miterlimit:4;stroke-dasharray:none;stroke-linejoin:round;stroke-linecap:round"
        d="M 24.503358073898244,0.8531227966737335 M 24.502564176461295,0.39831633457455845 M 24.492086539039423,0.3443459765133176 M 24.475224882544854,0.2920175427945276 M 24.452221604565626,0.24208328964688058 M 24.423407392606027,0.1952610553518977 M 24.389196470231997,0.15222394083996343 M 24.350080642330898,0.11359063341210535 M 24.306622225086716,0.07991651269826822 M 24.259445962309787,0.05168566670335368 M 24.20923004432591,0.029303932716754636 M 24.15669635853745,0.013093063132471109 M 24.102600111808744,0.0032861000410047726 M 24.047718973862647,2.402509610039209e-05 M 20.506619819133324,0.002206042425637437 M 20.13688727835633,0.09248589046694394 M 19.77488175844839,0.20997889548390253 M 19.422603220284447,0.3540359474486831 M 19.081997886379572,0.5238611787521185 M 18.754947488652437,0.7185163611093021 M 18.443258872479152,0.9369260889600467 M 18.14865401446794,1.1778837207294535 M 17.872760509109373,1.440058045125873 M 17.61710257685282,1.7220006356407336 M 17.383092643293782,2.0221538526276466 M 17.172023535987723,2.3388594487460646 M 16.98506134200598,2.670367730231298 M 16.483475014247137,3.5647104318050054 M 15.920917227612014,4.4220122740686625 M 15.300111075067852,5.2381234386876985 M 14.624061604110514,6.009093493144991 M 13.896041270660467,6.731190513036496 M 13.11957409855565,7.400919146660706 M 12.298418621311404,8.015037534469249 M 11.436549688726776,8.570573001471308 M 10.5381392263967,9.064836446638742 M 9.607536041270256,9.495435359647818 M 8.64924477100208,9.8602854019672 M 7.8825402933367075,10.091745328117158 M 7.667904078997698,10.15762049621094 M 4.0259231601009065,11.124135549937833 M 3.7856734581801184,11.193072199166705 M 3.5483770331263904,11.271574349051948 M 3.3144145664031917,11.35951606295867 M 3.0841613909910186,11.456756260883811 M 2.8579868892593274,11.563138945782072 M 2.636253900388643,11.678493453828308 M 2.4193181382874704,11.802634728195285 M 2.207527620939677,11.935363615937527 M 2.0012221120990907,12.076467187481256 M 1.8007325762258024,12.225719078206932 M 1.6063806475366864,12.38287985160354 M 1.418478114027882,12.547697383380788 M 2.402509610039209e-05,13.968400375099327 M 7.546708874368183,13.962422628850694 M 7.63688618881766,13.87859332888019 M 7.74665284542984,13.822820748961167 M 7.867530340446554,13.799412827797086 M 7.9901819560748395,13.810177620340419 M 8.10513393939029,13.854283641547145 M 8.20350726599124,13.92832409122331 M 8.277703466131603,14.026579999236812 M 8.321991539332023,14.141461965388858 M 8.332950623495341,14.264096373484616 M 8.30973422626075,14.385010799729706 M 8.254135609055131,14.494865673721264 M 8.170449273501182,14.585175677686628 M 8.176711836529554,22.491431241540354 M 8.181938881155125,29.0903828950369 M 8.667515243210394,27.56751856960794 M 9.215683225944437,26.06604861660986 M 9.825504056578799,24.588544399500268 M 10.495933377884162,23.137536238880855 M 11.225823036709263,21.715509079157354 M 12.01392305026666,20.324898232917125 M 12.858883746808166,18.96808521029679 M 13.759258077024375,17.647393640497725 M 14.713504092209197,16.365085292417895 M 15.719987584945462,15.123356201231298 M 16.77698488779051,13.924332907533008 M 17.88268582516618,12.770068815508935 M 24.433829305012797,6.208538757105315 M 24.44508664475656,6.196500319687611 M 24.455532530193626,6.183751392242479 M 24.465122230439068,6.170346567635011 M 24.47381468092384,6.156343247380676 M 24.4815726592408,6.141801395848266 M 24.48836294453547,6.126783283477434 M 24.494156459763975,6.1113532201316625 M 24.49892839620468,6.0955772797105086 M 24.502658319693115,6.079523017213443 M 24.505330258124093,6.063259179456248 M 24.50693276984744,6.046855410689894 M 24.507458992661515,6.030381954370409 M 24.507100288198433,5.577530758565183 M 23.955919359311043,5.577967350233757 M 23.93287092578645,5.5956820590500955 M 23.90602294456936,5.606827780245652 M 23.877205061211402,5.610644951338741 M 23.84838116683959,5.606873438428878 M 23.82151556222154,5.595770263887684 M 23.798439093914727,5.578092090710759 M 23.780724385098143,5.555043657186335 M 23.769578663903122,5.5281956759686794 M 23.765761492809634,5.4993777926108605 M 23.769533005719854,5.4705538982392605 M 23.780636180261144,5.443688293621264 M 23.798314353437934,5.420611825314126 M 23.794821620091103,1.0111643942152873 M 23.777106911274604,0.9881159606908643 M 23.765961190079498,0.9612679794732089 M 23.762144018986152,0.9324500961152177 M 23.7659155318962,0.9036262017436171 M 23.777018706437662,0.87676059712562 M 23.794696657298278,0.8531227966737337 M 23.817745313139046,0.8359694200022031 M 23.84459329435602,0.8248236988073856 M 23.873411177714036,0.8210065277138415 M 23.902235072085876,0.8247780406233066 M 23.92910067670387,0.8358812151648735 M 23.95217697209826,0.8531227966737336 M 22.05014804340168,1.740630535990501 M 21.964662212974407,1.7053004509410086 M 21.891233340458815,1.649048848345738 M 21.834865482169835,1.575709181961509 M 21.799400014497667,1.4902794288526482 M 21.787253850454665,1.3985814855142449 M 21.79925473104787,1.3068644152467737 M 21.834584816097266,1.2213785848196224 M 21.890836418692505,1.1479497123038476 M 21.964176085076804,1.0915818540149966 M 22.04960583818566,1.0561163863428766 M 22.14130378152395,1.0439702222998637 M 22.233020851791355,1.0559711028929533 M 22.318506682218658,1.0913011879424424 M 22.391935554734307,1.1475527905377183 M 22.448303413023257,1.2208924569219473 M 22.483768880695397,1.3063222100308094 M 22.495915044738457,1.3980201533690682 M 22.483914164145222,1.4897372236366833 M 22.44858407909577,1.5752230540639787 M 22.392332476500588,1.6486519265794677 M 22.31899281011629,1.70501978486832 M 22.233563057007434,1.7404852525405812 M 22.14186511366906,1.7526314165835906 "
  />
</svg>
