<?xml version="1.0" encoding="UTF-8" standalone="no"?>
<svg
   xmlns:dc="http://purl.org/dc/elements/1.1/"
   xmlns:cc="http://creativecommons.org/ns#"
   xmlns:rdf="http://www.w3.org/1999/02/22-rdf-syntax-ns#"
   xmlns:svg="http://www.w3.org/2000/svg"
   xmlns="http://www.w3.org/2000/svg"
   xmlns:sodipodi="http://sodipodi.sourceforge.net/DTD/sodipodi-0.dtd"
   xmlns:inkscape="http://www.inkscape.org/namespaces/inkscape"
   width="24.507076337580166in"
   height="29.090358944418817in"
   viewBox="0 0 24.507076337580166 29.090358944418817"
   version="1.1"
   id="svg2"
   inkscape:version="0.91 r13725"
   sodipodi:docname="Arm_Back.svg">
  <metadata
     id="metadata14">
    <rdf:RDF>
      <cc:Work
         rdf:about="">
        <dc:format>image/svg+xml</dc:format>
        <dc:type
           rdf:resource="http://purl.org/dc/dcmitype/StillImage" />
      </cc:Work>
    </rdf:RDF>
  </metadata>
  <defs
     id="defs12" />
  <sodipodi:namedview
     pagecolor="#ffffff"
     bordercolor="#666666"
     borderopacity="1"
     objecttolerance="10"
     gridtolerance="10"
     guidetolerance="10"
     inkscape:pageopacity="0"
     inkscape:pageshadow="2"
     inkscape:window-width="664"
     inkscape:window-height="480"
     id="namedview10"
     showgrid="false"
     inkscape:zoom="0.090140594"
     inkscape:cx="1102.8184"
     inkscape:cy="1309.0661"
     inkscape:window-x="20"
     inkscape:window-y="43"
     inkscape:window-maximized="0"
     inkscape:current-layer="svg2" />
  <desc
     id="desc4">Output from Flights of Ideas SVG Sketchup Plugin</desc>
  <path
     id="face0-cut"
     style="fill:none;stroke:#0000FF;stroke-width:0.02;stroke-miterlimit:4;stroke-dasharray:none;stroke-linejoin:round;stroke-linecap:round"
     d="M 0.10814749866869697,13.641344229696783 L 3.7238973433635045e-08,15.121982557176786 L 1.4184541261704993,16.542685548895065 L 1.6063566596794743,16.70750308067152 L 1.8007085883685903,16.864663854068095 L 2.001198124241935,17.013915744794907 L 2.2075036330822937,17.155019316337675 L 2.419294150430201,17.287748204080057 L 2.6362299125314306,17.411889478448398 L 2.8579629014022,17.52724398649328 L 3.084137403133863,17.63362667139145 L 3.3143905785460928,17.730866869317342 L 3.5483530452692063,17.818808583224165 L 3.785649470322849,17.89731073310909 L 4.0258991722436095,17.966247382336835 L 7.6678800911404865,18.93276243606469 L 7.882516305479325,18.998637604158898 L 8.649220783144894,19.230097530308576 L 9.607512053413071,19.59494757262735 L 10.538115238539515,20.025546485636713 L 11.43652570086962,20.519809930804147 L 12.298394633454361,21.0753453978068 L 13.119550110698551,21.689463785614894 L 13.896017282803339,22.35919241923919 L 14.624037616253357,23.081289439130554 L 15.300087087210809,23.85225949358841 L 15.920893239754943,24.668370658206943 L 16.483451026389982,25.52567250047023 L 16.98503735414891,26.420015202044013 L 17.17199954813051,26.751523483529674 L 17.3830686554366,27.06822907964855 L 17.617078588995806,27.368382296634724 L 17.87273652125216,27.65032488714995 L 18.14863002661073,27.91249921154615 L 18.443234884621997,28.15345684331553 L 18.754923500795368,28.371866571166297 L 19.081973898522417,28.566521753522967 L 19.422579232427235,28.736346984826493 L 19.774857770591236,28.88040403679204 L 20.136863290499118,28.997897041808653 L 20.506595831276197,29.088176889850555 L 24.047694986005464,29.090358907179844 L 24.10257612395156,29.087096832234675 L 24.156672370680266,29.077289869143495 L 24.209206056468755,29.061078999559125 L 24.259421974452547,29.038697265572583 L 24.306598237229533,29.010466419577273 L 24.350056654473686,28.976792298863582 L 24.38917248237487,28.93815899143578 L 24.4233834047489,28.895121876923874 L 24.452197616708528,28.848299642628863 L 24.475200894687642,28.7983653894813 L 24.49206255118224,28.746036955762566 L 24.50254018860414,28.6920665977013 L 24.503334086040947,28.237260135601893 L 23.952153157153585,28.236823543933777 L 23.929076688846546,28.25450171711055 L 23.90221108422855,28.265604891651897 L 23.873387189856796,28.269376404562184 L 23.84456930649878,28.265559233468558 L 23.81772132528172,28.254413512273473 L 23.794672891757298,28.23669880345717 L 23.776994718580365,28.213622335149978 L 23.765891544038904,28.186756730531975 L 23.762120031128884,28.15793283616036 L 23.76593720222223,28.129114952802297 L 23.777082923417307,28.102266971585337 L 23.794797632233834,28.07921853806057 L 23.798290365580694,23.66977110696133 L 23.780612192404018,23.646694638654562 L 23.76950901786253,23.61982903403606 L 23.76573750495245,23.59100513966455 L 23.76955467604574,23.562187256306668 L 23.78070039724096,23.535339275089427 L 23.798415106057373,23.512290841565086 L 23.82149157436427,23.494612668388267 L 23.84835717898238,23.48350949384655 L 23.877181073354105,23.47973798093663 L 23.90599895671212,23.483555152030178 L 23.932846937929295,23.494700873225494 L 23.955895371453718,23.512415582041466 L 24.507076300341193,23.51285217371044 L 24.50690878199023,23.043527521586157 L 24.50530627026694,23.027123752819637 L 24.502634331836045,23.010859915062582 L 24.49890440834761,22.99480565256489 L 24.49413247190685,22.9790297121443 L 24.488338956678344,22.96359964879817 L 24.481548671383504,22.948581536427078 L 24.473790693066658,22.934039684894813 L 24.4650982425818,22.92003636464089 L 24.45550854233647,22.906631540033256 L 24.445062656899406,22.89388261258805 L 17.882661837309083,16.32031411676708 L 16.776960899933297,15.166050024742546 L 15.719963597088306,13.967026731044797 L 14.713480104351898,12.72529763985781 L 13.75923408916719,11.442989291778384 L 12.85885975895101,10.12229772197865 L 12.013899062409475,8.765484699358913 L 11.225799048852135,7.374873853117859 L 10.49590939002692,5.952846693394837 L 9.82548006872167,4.501838532775135 L 9.215659238087252,3.024334315665801 L 8.667491255353209,1.5228643626675138 L 8.181914893297854,3.7238973433635045e-08 L 7.0016811195806925,0.900574281591507 L 5.894137936967579,1.8891762383272812 L 4.865834566169892,2.95996002033965 L 3.9228516601497714,4.106593775803244 L 3.070765347473181,5.322297130229733 L 2.3146142590620653,6.599881280769058 L 1.6588697333227145,7.931791505663217 L 1.107409375839265,9.310151837484627 L 0.6634941299785708,10.726811635991723 L 0.3297489939963867,12.17339378520519 L 0.10814749866869697,13.641344229696783 M 22.0506502783586,27.366225852604728 L 22.14236734862595,27.35422497201135 L 22.234065291964296,27.36637113605433 L 22.31949504507318,27.401836603726423 L 22.392834711457535,27.458204462015445 L 22.44908631405269,27.53163333453119 L 22.484416399102084,27.61711916495849 L 22.49641727969529,27.708836235225675 L 22.484271115652287,27.800534178564106 L 22.44880564798012,27.885963931672887 L 22.392437789691225,27.95930359805722 L 22.319008917175577,28.015555200652383 L 22.233523086748303,28.050885285701845 L 22.141806016480952,28.062886166295076 L 22.050108073142606,28.05074000225195 L 21.96467832003378,28.015274534579866 L 21.89133865364948,27.958906676290844 L 21.83508705105424,27.885477803775384 L 21.799756966004903,27.79999197334808 L 21.78775608541167,27.70827490308053 L 21.799902249454643,27.616576959742517 L 21.83536771712681,27.531147206633552 L 21.89173557541579,27.457807540249195 L 21.965164447931325,27.401555937654052 L 22.0506502783586,27.366225852604728 " />
  <path
     id="face0-interior"
     style="fill:none;stroke:#FF0000;stroke-width:.05;stroke-miterlimit:4;stroke-dasharray:none;stroke-linejoin:round;stroke-linecap:round"
     d="M 0.10814749866869697,13.641344229696783 M 3.7238973433635045e-08,15.121982557176786 M 1.4184541261704993,16.542685548895065 M 1.6063566596794743,16.70750308067152 M 1.8007085883685903,16.864663854068095 M 2.001198124241935,17.013915744794907 M 2.2075036330822937,17.155019316337675 M 2.419294150430201,17.287748204080057 M 2.6362299125314306,17.411889478448398 M 2.8579629014022,17.52724398649328 M 3.084137403133863,17.63362667139145 M 3.3143905785460928,17.730866869317342 M 3.5483530452692063,17.818808583224165 M 3.785649470322849,17.89731073310909 M 4.0258991722436095,17.966247382336835 M 7.6678800911404865,18.93276243606469 M 7.882516305479325,18.998637604158898 M 8.649220783144894,19.230097530308576 M 9.607512053413071,19.59494757262735 M 10.538115238539515,20.025546485636713 M 11.43652570086962,20.519809930804147 M 12.298394633454361,21.0753453978068 M 13.119550110698551,21.689463785614894 M 13.896017282803339,22.35919241923919 M 14.624037616253357,23.081289439130554 M 15.300087087210809,23.85225949358841 M 15.920893239754943,24.668370658206943 M 16.483451026389982,25.52567250047023 M 16.98503735414891,26.420015202044013 M 17.17199954813051,26.751523483529674 M 17.3830686554366,27.06822907964855 M 17.617078588995806,27.368382296634724 M 17.87273652125216,27.65032488714995 M 18.14863002661073,27.91249921154615 M 18.443234884621997,28.15345684331553 M 18.754923500795368,28.371866571166297 M 19.081973898522417,28.566521753522967 M 19.422579232427235,28.736346984826493 M 19.774857770591236,28.88040403679204 M 20.136863290499118,28.997897041808653 M 20.506595831276197,29.088176889850555 M 24.047694986005464,29.090358907179844 M 24.10257612395156,29.087096832234675 M 24.156672370680266,29.077289869143495 M 24.209206056468755,29.061078999559125 M 24.259421974452547,29.038697265572583 M 24.306598237229533,29.010466419577273 M 24.350056654473686,28.976792298863582 M 24.38917248237487,28.93815899143578 M 24.4233834047489,28.895121876923874 M 24.452197616708528,28.848299642628863 M 24.475200894687642,28.7983653894813 M 24.49206255118224,28.746036955762566 M 24.50254018860414,28.6920665977013 M 24.503334086040947,28.237260135601893 M 23.952153157153585,28.236823543933777 M 23.929076688846546,28.25450171711055 M 23.90221108422855,28.265604891651897 M 23.873387189856796,28.269376404562184 M 23.84456930649878,28.265559233468558 M 23.81772132528172,28.254413512273473 M 23.794672891757298,28.23669880345717 M 23.776994718580365,28.213622335149978 M 23.765891544038904,28.186756730531975 M 23.762120031128884,28.15793283616036 M 23.76593720222223,28.129114952802297 M 23.777082923417307,28.102266971585337 M 23.794797632233834,28.07921853806057 M 23.798290365580694,23.66977110696133 M 23.780612192404018,23.646694638654562 M 23.76950901786253,23.61982903403606 M 23.76573750495245,23.59100513966455 M 23.76955467604574,23.562187256306668 M 23.78070039724096,23.535339275089427 M 23.798415106057373,23.512290841565086 M 23.82149157436427,23.494612668388267 M 23.84835717898238,23.48350949384655 M 23.877181073354105,23.47973798093663 M 23.90599895671212,23.483555152030178 M 23.932846937929295,23.494700873225494 M 23.955895371453718,23.512415582041466 M 24.507076300341193,23.51285217371044 M 24.50690878199023,23.043527521586157 M 24.50530627026694,23.027123752819637 M 24.502634331836045,23.010859915062582 M 24.49890440834761,22.99480565256489 M 24.49413247190685,22.9790297121443 M 24.488338956678344,22.96359964879817 M 24.481548671383504,22.948581536427078 M 24.473790693066658,22.934039684894813 M 24.4650982425818,22.92003636464089 M 24.45550854233647,22.906631540033256 M 24.445062656899406,22.89388261258805 M 17.882661837309083,16.32031411676708 M 16.776960899933297,15.166050024742546 M 15.719963597088306,13.967026731044797 M 14.713480104351898,12.72529763985781 M 13.75923408916719,11.442989291778384 M 12.85885975895101,10.12229772197865 M 12.013899062409475,8.765484699358913 M 11.225799048852135,7.374873853117859 M 10.49590939002692,5.952846693394837 M 9.82548006872167,4.501838532775135 M 9.215659238087252,3.024334315665801 M 8.667491255353209,1.5228643626675138 M 8.181914893297854,3.7238973433635045e-08 M 7.0016811195806925,0.900574281591507 M 5.894137936967579,1.8891762383272812 M 4.865834566169892,2.95996002033965 M 3.9228516601497714,4.106593775803244 M 3.070765347473181,5.322297130229733 M 2.3146142590620653,6.599881280769058 M 1.6588697333227145,7.931791505663217 M 1.107409375839265,9.310151837484627 M 0.6634941299785708,10.726811635991723 M 0.3297489939963867,12.17339378520519 M 22.0506502783586,27.366225852604728 M 22.14236734862595,27.35422497201135 M 22.234065291964296,27.36637113605433 M 22.31949504507318,27.401836603726423 M 22.392834711457535,27.458204462015445 M 22.44908631405269,27.53163333453119 M 22.484416399102084,27.61711916495849 M 22.49641727969529,27.708836235225675 M 22.484271115652287,27.800534178564106 M 22.44880564798012,27.885963931672887 M 22.392437789691225,27.95930359805722 M 22.319008917175577,28.015555200652383 M 22.233523086748303,28.050885285701845 M 22.141806016480952,28.062886166295076 M 22.050108073142606,28.05074000225195 M 21.96467832003378,28.015274534579866 M 21.89133865364948,27.958906676290844 M 21.83508705105424,27.885477803775384 M 21.799756966004903,27.79999197334808 M 21.78775608541167,27.70827490308053 M 21.799902249454643,27.616576959742517 M 21.83536771712681,27.531147206633552 M 21.89173557541579,27.457807540249195 M 21.965164447931325,27.401555937654052 " />
  <path
     id="path8"
     style="fill:none;stroke:#00FF00;stroke-width:.05;stroke-miterlimit:4;stroke-dasharray:none;stroke-linejoin:round;stroke-linecap:round"
     d="M 0.10814749866869697,13.641344229696783 M 3.7238973433635045e-08,15.121982557176786 M 1.4184541261704993,16.542685548895065 M 1.6063566596794743,16.70750308067152 M 1.8007085883685903,16.864663854068095 M 2.001198124241935,17.013915744794907 M 2.2075036330822937,17.155019316337675 M 2.419294150430201,17.287748204080057 M 2.6362299125314306,17.411889478448398 M 2.8579629014022,17.52724398649328 M 3.084137403133863,17.63362667139145 M 3.3143905785460928,17.730866869317342 M 3.5483530452692063,17.818808583224165 M 3.785649470322849,17.89731073310909 M 4.0258991722436095,17.966247382336835 M 7.6678800911404865,18.93276243606469 M 7.882516305479325,18.998637604158898 M 8.649220783144894,19.230097530308576 M 9.607512053413071,19.59494757262735 M 10.538115238539515,20.025546485636713 M 11.43652570086962,20.519809930804147 M 12.298394633454361,21.0753453978068 M 13.119550110698551,21.689463785614894 M 13.896017282803339,22.35919241923919 M 14.624037616253357,23.081289439130554 M 15.300087087210809,23.85225949358841 M 15.920893239754943,24.668370658206943 M 16.483451026389982,25.52567250047023 M 16.98503735414891,26.420015202044013 M 17.17199954813051,26.751523483529674 M 17.3830686554366,27.06822907964855 M 17.617078588995806,27.368382296634724 M 17.87273652125216,27.65032488714995 M 18.14863002661073,27.91249921154615 M 18.443234884621997,28.15345684331553 M 18.754923500795368,28.371866571166297 M 19.081973898522417,28.566521753522967 M 19.422579232427235,28.736346984826493 M 19.774857770591236,28.88040403679204 M 20.136863290499118,28.997897041808653 M 20.506595831276197,29.088176889850555 M 24.047694986005464,29.090358907179844 M 24.10257612395156,29.087096832234675 M 24.156672370680266,29.077289869143495 M 24.209206056468755,29.061078999559125 M 24.259421974452547,29.038697265572583 M 24.306598237229533,29.010466419577273 M 24.350056654473686,28.976792298863582 M 24.38917248237487,28.93815899143578 M 24.4233834047489,28.895121876923874 M 24.452197616708528,28.848299642628863 M 24.475200894687642,28.7983653894813 M 24.49206255118224,28.746036955762566 M 24.50254018860414,28.6920665977013 M 24.503334086040947,28.237260135601893 M 23.952153157153585,28.236823543933777 M 23.929076688846546,28.25450171711055 M 23.90221108422855,28.265604891651897 M 23.873387189856796,28.269376404562184 M 23.84456930649878,28.265559233468558 M 23.81772132528172,28.254413512273473 M 23.794672891757298,28.23669880345717 M 23.776994718580365,28.213622335149978 M 23.765891544038904,28.186756730531975 M 23.762120031128884,28.15793283616036 M 23.76593720222223,28.129114952802297 M 23.777082923417307,28.102266971585337 M 23.794797632233834,28.07921853806057 M 23.798290365580694,23.66977110696133 M 23.780612192404018,23.646694638654562 M 23.76950901786253,23.61982903403606 M 23.76573750495245,23.59100513966455 M 23.76955467604574,23.562187256306668 M 23.78070039724096,23.535339275089427 M 23.798415106057373,23.512290841565086 M 23.82149157436427,23.494612668388267 M 23.84835717898238,23.48350949384655 M 23.877181073354105,23.47973798093663 M 23.90599895671212,23.483555152030178 M 23.932846937929295,23.494700873225494 M 23.955895371453718,23.512415582041466 M 24.507076300341193,23.51285217371044 M 24.50690878199023,23.043527521586157 M 24.50530627026694,23.027123752819637 M 24.502634331836045,23.010859915062582 M 24.49890440834761,22.99480565256489 M 24.49413247190685,22.9790297121443 M 24.488338956678344,22.96359964879817 M 24.481548671383504,22.948581536427078 M 24.473790693066658,22.934039684894813 M 24.4650982425818,22.92003636464089 M 24.45550854233647,22.906631540033256 M 24.445062656899406,22.89388261258805 M 17.882661837309083,16.32031411676708 M 16.776960899933297,15.166050024742546 M 15.719963597088306,13.967026731044797 M 14.713480104351898,12.72529763985781 M 13.75923408916719,11.442989291778384 M 12.85885975895101,10.12229772197865 M 12.013899062409475,8.765484699358913 M 11.225799048852135,7.374873853117859 M 10.49590939002692,5.952846693394837 M 9.82548006872167,4.501838532775135 M 9.215659238087252,3.024334315665801 M 8.667491255353209,1.5228643626675138 M 8.181914893297854,3.7238973433635045e-08 M 7.0016811195806925,0.900574281591507 M 5.894137936967579,1.8891762383272812 M 4.865834566169892,2.95996002033965 M 3.9228516601497714,4.106593775803244 M 3.070765347473181,5.322297130229733 M 2.3146142590620653,6.599881280769058 M 1.6588697333227145,7.931791505663217 M 1.107409375839265,9.310151837484627 M 0.6634941299785708,10.726811635991723 M 0.3297489939963867,12.17339378520519 M 22.0506502783586,27.366225852604728 M 22.14236734862595,27.35422497201135 M 22.234065291964296,27.36637113605433 M 22.31949504507318,27.401836603726423 M 22.392834711457535,27.458204462015445 M 22.44908631405269,27.53163333453119 M 22.484416399102084,27.61711916495849 M 22.49641727969529,27.708836235225675 M 22.484271115652287,27.800534178564106 M 22.44880564798012,27.885963931672887 M 22.392437789691225,27.95930359805722 M 22.319008917175577,28.015555200652383 M 22.233523086748303,28.050885285701845 M 22.141806016480952,28.062886166295076 M 22.050108073142606,28.05074000225195 M 21.96467832003378,28.015274534579866 M 21.89133865364948,27.958906676290844 M 21.83508705105424,27.885477803775384 M 21.799756966004903,27.79999197334808 M 21.78775608541167,27.70827490308053 M 21.799902249454643,27.616576959742517 M 21.83536771712681,27.531147206633552 M 21.89173557541579,27.457807540249195 M 21.965164447931325,27.401555937654052 " />
</svg>
