<?xml version="1.0" standalone="no"?>
<!DOCTYPE svg PUBLIC "-//W3C//DTD SVG 1.1//EN" "http://www.w3.org/Graphics/SVG/1.1/DTD/svg11.dtd">
<svg width="24.507078154842098in" height="29.09036076168071in"
 viewBox="0 0 24.507078154842098 29.09036076168071"
 xmlns="http://www.w3.org/2000/svg" version="1.1"
 xmlns:xlink="http://www.w3.org/1999/xlink">
<desc>Output from Flights of Ideas SVG Sketchup Plugin</desc>

  <path id="face0-cut"
 style="fill:none;stroke:#0000FF;stroke-width:1;stroke-miterlimit:4;stroke-dasharray:none;stroke-linejoin:round;stroke-linecap:round"
        d="M 0.10814840729967717,13.641345138327765 L 9.458699252133086e-07,15.121983465807737 L 1.418455034801451,16.54268645752599 L 1.6063575683103977,16.7075039893025 L 1.800709496999542,16.864664762699046 L 2.0011990328728584,17.013916653425856 L 2.207504541713217,17.155020224968634 L 2.419295059061153,17.28774911271101 L 2.636230821162411,17.41189038707935 L 2.8579638100331235,17.52724489512423 L 3.0841383117647863,17.63362758002243 L 3.314391487177016,17.730867777948294 L 3.5483539539001296,17.81880949185512 L 3.7856503789537723,17.897311641740046 L 4.025900080874561,17.966248290967815 L 7.667880999771438,18.932763344695637 L 7.882517214110277,18.998638512789846 L 8.649221691775818,19.23009843893953 L 9.607512962044023,19.594948481258303 L 10.538116147170467,20.025547394267697 L 11.436526609500572,20.5198108394351 L 12.298395542085313,21.07534630643775 L 13.119551019329474,21.68946469424584 L 13.896018191434262,22.35919332787014 L 14.62403852488428,23.081290347761506 L 15.30008799584176,23.85226040221937 L 15.920894148385866,24.668371566837884 L 16.483451935020906,25.525673409101177 L 16.985038262779835,26.42001611067497 L 17.172000456761463,26.751524392160636 L 17.383069564067522,27.068229988279477 L 17.61707949762673,27.368383205265673 L 17.872737429883085,27.650325795780873 L 18.14863093524171,27.912500120177107 L 18.44323579325292,28.153457751946487 L 18.75492440942632,28.371867479797253 L 19.08197480715334,28.566522662153943 L 19.42258014105816,28.736347893457445 L 19.77485867922216,28.880404945423003 L 20.13686419913004,28.997897950439636 L 20.506596739907177,29.08817779848148 L 24.047695894636444,29.090359815810785 L 24.102577032582513,29.087097740865634 L 24.15667327931119,29.077290777774454 L 24.20920696509968,29.06107990819008 L 24.259422883083527,29.03869817420353 L 24.306599145860513,29.010467328208247 L 24.350057563104667,28.976793207494534 L 24.389173391005823,28.93815990006676 L 24.423384313379852,28.895122785554815 L 24.45219852533948,28.84830055125983 L 24.475201803318594,28.79836629811225 L 24.492063459813192,28.746037864393518 L 24.502541097235092,28.69206750633225 L 24.503334994671928,28.237261044232874 L 23.952154065784537,28.236824452564733 L 23.92907759747747,28.25450262574151 L 23.902211992859474,28.26560580028284 L 23.87338809848772,28.269377313193136 L 23.844570215129732,28.26556014209951 L 23.817722233912672,28.25441442090443 L 23.794673800388278,28.236699712088114 L 23.776995627211317,28.213623243780926 L 23.765892452669856,28.186757639162927 L 23.762120939759807,28.157933744791308 L 23.76593811085321,28.129115861433245 L 23.77708383204826,28.102267880216285 L 23.794798540864786,28.079219446691518 L 23.798291274211675,23.669772015592276 L 23.78061310103494,23.646695547285525 L 23.769509926493452,23.619829942667 L 23.765738413583403,23.59100604829549 L 23.76955558467672,23.562188164937623 L 23.78070130587191,23.535340183720386 L 23.798416014688325,23.51229175019606 L 23.82149248299522,23.494613577019198 L 23.848358087613303,23.483510402477524 L 23.87718198198503,23.479738889567567 L 23.905999865343073,23.483556060661112 L 23.932847846560218,23.49470178185645 L 23.955896280084698,23.512416490672454 L 24.507077208972174,23.51285308234139 L 24.506909690621153,23.043528430217084 L 24.50530717889789,23.027124661450546 L 24.50263524046697,23.01086082369349 L 24.498905316978533,22.994806561195865 L 24.49413338053777,22.979030620775227 L 24.488339865309268,22.963600557429118 L 24.481549580014455,22.94858244505806 L 24.473791601697638,22.934040593525754 L 24.46509915121275,22.92003727327186 L 24.455509450967394,22.906632448664208 L 24.44506356553033,22.893883521218992 L 17.882662745940006,16.320315025398045 L 16.77696180856425,15.166050933373484 L 15.71996450571923,13.967027639675695 L 14.71348101298285,12.725298548488766 L 13.759234997798142,11.442990200409309 L 12.858860667581961,10.1222986306096 L 12.013899971040399,8.76548560798986 L 11.225799957483058,7.374874761748838 L 10.495910298657872,5.9528476020257886 L 9.825480977352623,4.501839441406086 L 9.215660146718175,3.024335224296752 L 8.66749216398416,1.5228652712984843 L 8.181915801928834,9.458699252133086e-07 L 7.001682028211644,0.900575190222472 L 5.894138845598502,1.8891771469582321 L 4.865835474800815,2.959960928970602 L 3.9228525687806948,4.1065946844341985 L 3.070766256104133,5.322298038860685 L 2.3146151676929887,6.59988218940001 L 1.6588706419536379,7.931792414294141 L 1.1074102844702167,9.310152746115552 L 0.6634950386095225,10.726812544622703 L 0.32974990262731,12.173394693836142 L 0.10814840729967717,13.641345138327765 M 22.05065118698955,27.36622676123566 L 22.1423682572569,27.354225880642304 L 22.234066200595304,27.36637204468529 L 22.319495953704102,27.4018375123574 L 22.39283562008846,27.458205370646393 L 22.449087222683612,27.531634243162113 L 22.484417307733008,27.6171200735894 L 22.496418188326214,27.708837143856666 L 22.484272024283268,27.80053508719506 L 22.448806556611043,27.88596484030384 L 22.39243869832215,27.959304506688177 L 22.3190098258065,28.015556109283324 L 22.233523995379226,28.0508861943328 L 22.141806925111904,28.062887074926024 L 22.05010898177356,28.050740910882933 L 21.964679228664732,28.015275443210815 L 21.89133956228046,27.95890758492182 L 21.835087959685193,27.885478712406336 L 21.799757874635826,27.79999288197904 L 21.78775699404265,27.708275811711506 L 21.799903158085566,27.61657786837345 L 21.835368625757734,27.5311481152645 L 21.891736484046742,27.457808448880158 L 21.965165356562277,27.401556846285004 L 22.05065118698955,27.36622676123566 "
  />
  <path id="face0-interior"
 style="fill:none;stroke:#FF0000;stroke-width:1;stroke-miterlimit:4;stroke-dasharray:none;stroke-linejoin:round;stroke-linecap:round"
        d="M 0.10814840729967717,13.641345138327765 M 9.458699252133086e-07,15.121983465807737 M 1.418455034801451,16.54268645752599 M 1.6063575683103977,16.7075039893025 M 1.800709496999542,16.864664762699046 M 2.0011990328728584,17.013916653425856 M 2.207504541713217,17.155020224968634 M 2.419295059061153,17.28774911271101 M 2.636230821162411,17.41189038707935 M 2.8579638100331235,17.52724489512423 M 3.0841383117647863,17.63362758002243 M 3.314391487177016,17.730867777948294 M 3.5483539539001296,17.81880949185512 M 3.7856503789537723,17.897311641740046 M 4.025900080874561,17.966248290967815 M 7.667880999771438,18.932763344695637 M 7.882517214110277,18.998638512789846 M 8.649221691775818,19.23009843893953 M 9.607512962044023,19.594948481258303 M 10.538116147170467,20.025547394267697 M 11.436526609500572,20.5198108394351 M 12.298395542085313,21.07534630643775 M 13.119551019329474,21.68946469424584 M 13.896018191434262,22.35919332787014 M 14.62403852488428,23.081290347761506 M 15.30008799584176,23.85226040221937 M 15.920894148385866,24.668371566837884 M 16.483451935020906,25.525673409101177 M 16.985038262779835,26.42001611067497 M 17.172000456761463,26.751524392160636 M 17.383069564067522,27.068229988279477 M 17.61707949762673,27.368383205265673 M 17.872737429883085,27.650325795780873 M 18.14863093524171,27.912500120177107 M 18.44323579325292,28.153457751946487 M 18.75492440942632,28.371867479797253 M 19.08197480715334,28.566522662153943 M 19.42258014105816,28.736347893457445 M 19.77485867922216,28.880404945423003 M 20.13686419913004,28.997897950439636 M 20.506596739907177,29.08817779848148 M 24.047695894636444,29.090359815810785 M 24.102577032582513,29.087097740865634 M 24.15667327931119,29.077290777774454 M 24.20920696509968,29.06107990819008 M 24.259422883083527,29.03869817420353 M 24.306599145860513,29.010467328208247 M 24.350057563104667,28.976793207494534 M 24.389173391005823,28.93815990006676 M 24.423384313379852,28.895122785554815 M 24.45219852533948,28.84830055125983 M 24.475201803318594,28.79836629811225 M 24.492063459813192,28.746037864393518 M 24.502541097235092,28.69206750633225 M 24.503334994671928,28.237261044232874 M 23.952154065784537,28.236824452564733 M 23.92907759747747,28.25450262574151 M 23.902211992859474,28.26560580028284 M 23.87338809848772,28.269377313193136 M 23.844570215129732,28.26556014209951 M 23.817722233912672,28.25441442090443 M 23.794673800388278,28.236699712088114 M 23.776995627211317,28.213623243780926 M 23.765892452669856,28.186757639162927 M 23.762120939759807,28.157933744791308 M 23.76593811085321,28.129115861433245 M 23.77708383204826,28.102267880216285 M 23.794798540864786,28.079219446691518 M 23.798291274211675,23.669772015592276 M 23.78061310103494,23.646695547285525 M 23.769509926493452,23.619829942667 M 23.765738413583403,23.59100604829549 M 23.76955558467672,23.562188164937623 M 23.78070130587191,23.535340183720386 M 23.798416014688325,23.51229175019606 M 23.82149248299522,23.494613577019198 M 23.848358087613303,23.483510402477524 M 23.87718198198503,23.479738889567567 M 23.905999865343073,23.483556060661112 M 23.932847846560218,23.49470178185645 M 23.955896280084698,23.512416490672454 M 24.507077208972174,23.51285308234139 M 24.506909690621153,23.043528430217084 M 24.50530717889789,23.027124661450546 M 24.50263524046697,23.01086082369349 M 24.498905316978533,22.994806561195865 M 24.49413338053777,22.979030620775227 M 24.488339865309268,22.963600557429118 M 24.481549580014455,22.94858244505806 M 24.473791601697638,22.934040593525754 M 24.46509915121275,22.92003727327186 M 24.455509450967394,22.906632448664208 M 24.44506356553033,22.893883521218992 M 17.882662745940006,16.320315025398045 M 16.77696180856425,15.166050933373484 M 15.71996450571923,13.967027639675695 M 14.71348101298285,12.725298548488766 M 13.759234997798142,11.442990200409309 M 12.858860667581961,10.1222986306096 M 12.013899971040399,8.76548560798986 M 11.225799957483058,7.374874761748838 M 10.495910298657872,5.9528476020257886 M 9.825480977352623,4.501839441406086 M 9.215660146718175,3.024335224296752 M 8.66749216398416,1.5228652712984843 M 8.181915801928834,9.458699252133086e-07 M 7.001682028211644,0.900575190222472 M 5.894138845598502,1.8891771469582321 M 4.865835474800815,2.959960928970602 M 3.9228525687806948,4.1065946844341985 M 3.070766256104133,5.322298038860685 M 2.3146151676929887,6.59988218940001 M 1.6588706419536379,7.931792414294141 M 1.1074102844702167,9.310152746115552 M 0.6634950386095225,10.726812544622703 M 0.32974990262731,12.173394693836142 M 22.05065118698955,27.36622676123566 M 22.1423682572569,27.354225880642304 M 22.234066200595304,27.36637204468529 M 22.319495953704102,27.4018375123574 M 22.39283562008846,27.458205370646393 M 22.449087222683612,27.531634243162113 M 22.484417307733008,27.6171200735894 M 22.496418188326214,27.708837143856666 M 22.484272024283268,27.80053508719506 M 22.448806556611043,27.88596484030384 M 22.39243869832215,27.959304506688177 M 22.3190098258065,28.015556109283324 M 22.233523995379226,28.0508861943328 M 22.141806925111904,28.062887074926024 M 22.05010898177356,28.050740910882933 M 21.964679228664732,28.015275443210815 M 21.89133956228046,27.95890758492182 M 21.835087959685193,27.885478712406336 M 21.799757874635826,27.79999288197904 M 21.78775699404265,27.708275811711506 M 21.799903158085566,27.61657786837345 M 21.835368625757734,27.5311481152645 M 21.891736484046742,27.457808448880158 M 21.965165356562277,27.401556846285004 "
  />
  <path id="face0-interior"
 style="fill:none;stroke:#00FF00;stroke-width:1;stroke-miterlimit:4;stroke-dasharray:none;stroke-linejoin:round;stroke-linecap:round"
        d="M 0.10814840729967717,13.641345138327765 M 9.458699252133086e-07,15.121983465807737 M 1.418455034801451,16.54268645752599 M 1.6063575683103977,16.7075039893025 M 1.800709496999542,16.864664762699046 M 2.0011990328728584,17.013916653425856 M 2.207504541713217,17.155020224968634 M 2.419295059061153,17.28774911271101 M 2.636230821162411,17.41189038707935 M 2.8579638100331235,17.52724489512423 M 3.0841383117647863,17.63362758002243 M 3.314391487177016,17.730867777948294 M 3.5483539539001296,17.81880949185512 M 3.7856503789537723,17.897311641740046 M 4.025900080874561,17.966248290967815 M 7.667880999771438,18.932763344695637 M 7.882517214110277,18.998638512789846 M 8.649221691775818,19.23009843893953 M 9.607512962044023,19.594948481258303 M 10.538116147170467,20.025547394267697 M 11.436526609500572,20.5198108394351 M 12.298395542085313,21.07534630643775 M 13.119551019329474,21.68946469424584 M 13.896018191434262,22.35919332787014 M 14.62403852488428,23.081290347761506 M 15.30008799584176,23.85226040221937 M 15.920894148385866,24.668371566837884 M 16.483451935020906,25.525673409101177 M 16.985038262779835,26.42001611067497 M 17.172000456761463,26.751524392160636 M 17.383069564067522,27.068229988279477 M 17.61707949762673,27.368383205265673 M 17.872737429883085,27.650325795780873 M 18.14863093524171,27.912500120177107 M 18.44323579325292,28.153457751946487 M 18.75492440942632,28.371867479797253 M 19.08197480715334,28.566522662153943 M 19.42258014105816,28.736347893457445 M 19.77485867922216,28.880404945423003 M 20.13686419913004,28.997897950439636 M 20.506596739907177,29.08817779848148 M 24.047695894636444,29.090359815810785 M 24.102577032582513,29.087097740865634 M 24.15667327931119,29.077290777774454 M 24.20920696509968,29.06107990819008 M 24.259422883083527,29.03869817420353 M 24.306599145860513,29.010467328208247 M 24.350057563104667,28.976793207494534 M 24.389173391005823,28.93815990006676 M 24.423384313379852,28.895122785554815 M 24.45219852533948,28.84830055125983 M 24.475201803318594,28.79836629811225 M 24.492063459813192,28.746037864393518 M 24.502541097235092,28.69206750633225 M 24.503334994671928,28.237261044232874 M 23.952154065784537,28.236824452564733 M 23.92907759747747,28.25450262574151 M 23.902211992859474,28.26560580028284 M 23.87338809848772,28.269377313193136 M 23.844570215129732,28.26556014209951 M 23.817722233912672,28.25441442090443 M 23.794673800388278,28.236699712088114 M 23.776995627211317,28.213623243780926 M 23.765892452669856,28.186757639162927 M 23.762120939759807,28.157933744791308 M 23.76593811085321,28.129115861433245 M 23.77708383204826,28.102267880216285 M 23.794798540864786,28.079219446691518 M 23.798291274211675,23.669772015592276 M 23.78061310103494,23.646695547285525 M 23.769509926493452,23.619829942667 M 23.765738413583403,23.59100604829549 M 23.76955558467672,23.562188164937623 M 23.78070130587191,23.535340183720386 M 23.798416014688325,23.51229175019606 M 23.82149248299522,23.494613577019198 M 23.848358087613303,23.483510402477524 M 23.87718198198503,23.479738889567567 M 23.905999865343073,23.483556060661112 M 23.932847846560218,23.49470178185645 M 23.955896280084698,23.512416490672454 M 24.507077208972174,23.51285308234139 M 24.506909690621153,23.043528430217084 M 24.50530717889789,23.027124661450546 M 24.50263524046697,23.01086082369349 M 24.498905316978533,22.994806561195865 M 24.49413338053777,22.979030620775227 M 24.488339865309268,22.963600557429118 M 24.481549580014455,22.94858244505806 M 24.473791601697638,22.934040593525754 M 24.46509915121275,22.92003727327186 M 24.455509450967394,22.906632448664208 M 24.44506356553033,22.893883521218992 M 17.882662745940006,16.320315025398045 M 16.77696180856425,15.166050933373484 M 15.71996450571923,13.967027639675695 M 14.71348101298285,12.725298548488766 M 13.759234997798142,11.442990200409309 M 12.858860667581961,10.1222986306096 M 12.013899971040399,8.76548560798986 M 11.225799957483058,7.374874761748838 M 10.495910298657872,5.9528476020257886 M 9.825480977352623,4.501839441406086 M 9.215660146718175,3.024335224296752 M 8.66749216398416,1.5228652712984843 M 8.181915801928834,9.458699252133086e-07 M 7.001682028211644,0.900575190222472 M 5.894138845598502,1.8891771469582321 M 4.865835474800815,2.959960928970602 M 3.9228525687806948,4.1065946844341985 M 3.070766256104133,5.322298038860685 M 2.3146151676929887,6.59988218940001 M 1.6588706419536379,7.931792414294141 M 1.1074102844702167,9.310152746115552 M 0.6634950386095225,10.726812544622703 M 0.32974990262731,12.173394693836142 M 22.05065118698955,27.36622676123566 M 22.1423682572569,27.354225880642304 M 22.234066200595304,27.36637204468529 M 22.319495953704102,27.4018375123574 M 22.39283562008846,27.458205370646393 M 22.449087222683612,27.531634243162113 M 22.484417307733008,27.6171200735894 M 22.496418188326214,27.708837143856666 M 22.484272024283268,27.80053508719506 M 22.448806556611043,27.88596484030384 M 22.39243869832215,27.959304506688177 M 22.3190098258065,28.015556109283324 M 22.233523995379226,28.0508861943328 M 22.141806925111904,28.062887074926024 M 22.05010898177356,28.050740910882933 M 21.964679228664732,28.015275443210815 M 21.89133956228046,27.95890758492182 M 21.835087959685193,27.885478712406336 M 21.799757874635826,27.79999288197904 M 21.78775699404265,27.708275811711506 M 21.799903158085566,27.61657786837345 M 21.835368625757734,27.5311481152645 M 21.891736484046742,27.457808448880158 M 21.965165356562277,27.401556846285004 "
  />
</svg>
