<?xml version="1.0" standalone="no"?>
<!DOCTYPE svg PUBLIC "-//W3C//DTD SVG 1.1//EN" "http://www.w3.org/Graphics/SVG/1.1/DTD/svg11.dtd">
<svg width="6.75984440452981in" height="4.724883622597453in"
 viewBox="0 0 6.75984440452981 4.724883622597453"
 xmlns="http://www.w3.org/2000/svg" version="1.1"
 xmlns:xlink="http://www.w3.org/1999/xlink">
<desc>Output from Flights of Ideas SVG Sketchup Plugin</desc>

  <path id="face0-cut"
 style="fill:none;stroke:#0000FF;stroke-width:.05;stroke-miterlimit:4;stroke-dasharray:none;stroke-linejoin:round;stroke-linecap:round"
        d="M 6.739110494192016,4.34224795699167 L 6.759843458659884,4.195040890236569 L 6.739110494192016,4.047833823481467 L 6.678524682336911,3.9120798706103517 L 6.58279976556791,3.798341061807725 L 6.459383405179108,3.7154665886169322 L 6.317877732792607,3.669904312546595 L 6.169292278159884,3.66519910374562 L 5.657481255059918,3.6651991037456213 L 5.622100308391521,3.661301265251847 L 5.5874636556846555,3.6530971917917388 L 5.554093377222398,3.640710543842242 L 5.522492465155051,3.6243280260691875 L 5.4931372418701985,3.6041965731168304 L 5.466470180357828,3.5806196275477453 L 5.44289323478871,3.553952566035319 L 5.4227617818363685,3.524597342750508 L 5.4063792640633155,3.492996430683135 L 5.393992616113803,3.4596261522208667 L 5.385788542653711,3.424989499514003 L 5.381890704159912,3.3896085528456275 L 5.381890704159969,9.458699252133086e-07 L 9.458699252133086e-07,9.458699350110268e-07 L 9.458699252133086e-07,4.724882676727527 L 6.169292278159884,4.724882676727518 L 6.317877732792607,4.720177467926542 L 6.459383405179108,4.674615191856204 L 6.58279976556791,4.591740718665411 L 6.678524682336939,4.478001909862784 L 6.739110494192016,4.34224795699167 M 2.968676526805336,4.459521713812364 L 2.891598367335558,4.460329949463086 L 2.816937395681532,4.441161349519594 L 2.749781633678435,4.403322222390418 L 2.694707635526538,4.349391242057226 L 2.655468603185892,4.28304371570508 L 2.6347386118649294,4.2088011176097195 L 2.633930376214249,4.131722958139947 L 2.653098976157747,4.057061986485925 L 2.6909381032868507,3.9899062244828016 L 2.744869083619886,3.9348322263309465 L 2.8112166099723024,3.8955931939903103 L 2.8854592080676693,3.874863202669338 L 2.962537367537419,3.874054967018632 L 3.037198339191445,3.8932235669621043 L 3.1043541011945703,3.931062694091236 L 3.159428099346411,3.984993674424286 L 3.1986671316870567,4.0513412007766965 L 3.219397123008019,4.125583798872033 L 3.220205358658728,4.202661958341825 L 3.2010367587152584,4.277322929995799 L 3.1631969357947978,4.34224795699167 L 3.109266651253091,4.399552690150788 L 3.042919124900646,4.438791722491431 L 2.968676526805336,4.459521713812364 M 0.48556578091627206,3.878289324221309 L 0.5577769757971224,3.85132195048941 L 0.6345073037979431,3.843963100239339 L 0.710527719868321,3.8567142669545795 L 0.7806575582827519,3.888706479695778 L 0.8401175864483547,3.9377595220342902 L 0.8848557017079598,4.000530510198672 L 0.9118230754398949,4.0727417050795225 L 0.9191819256899235,4.149472033080338 L 0.9064307589747044,4.22549244915063 L 0.8744385462334888,4.295622287565132 L 0.8253855038949892,4.355082315730727 L 0.7626145157306153,4.399820430990193 L 0.6904033208497934,4.426787804722253 L 0.6136729928490011,4.434146654972162 L 0.5376525767786232,4.421395488257054 L 0.46752273836413555,4.389403275515692 L 0.40806242577839374,4.34224795699167 L 0.363324594938956,4.2775792450128804 L 0.3363572212070493,4.2053680501321695 L 0.3289983709569923,4.128637722131354 L 0.34174953767221145,4.052617306060996 L 0.373741750413427,3.98248746764652 L 0.4227947927519266,3.923027439480947 L 0.48556578091627206,3.878289324221309 M 6.397428386595732,3.9518208879881382 L 6.454673428376265,4.00344163094731 L 6.496607461258901,4.068119546794305 L 6.520372750201983,4.141446942449445 L 6.524349730038023,4.218426677078105 L 6.5082673761634,4.293812708980361 L 6.473221674417414,4.362467604663375 L 6.421600931458227,4.419712646443925 L 6.3569230156112555,4.461646679326563 L 6.2835956199561,4.485411968269648 L 6.206615885327449,4.489388948105668 L 6.13122985342518,4.473306594231049 L 6.062574957742197,4.438260892485054 L 6.005329915961608,4.386640149525885 L 5.963395883078943,4.321962233678892 L 5.939630594135889,4.248634838023751 L 5.935653614299906,4.17165510339509 L 5.951735968174501,4.096269071492833 L 5.986781669920487,4.027614175809819 L 6.038402412879674,3.9703691340292693 L 6.103080328726645,3.928435101146631 L 6.176407724381801,3.9046698122035455 L 6.253387459010452,3.9006928323675263 L 6.328773490912721,3.916775186242145 L 6.397428386595732,3.9518208879881382 "
  />
  <path id="face0-interior"
 style="fill:none;stroke:#FF0000;stroke-width:.05;stroke-miterlimit:4;stroke-dasharray:none;stroke-linejoin:round;stroke-linecap:round"
        d="M 6.739110494192016,4.34224795699167 M 6.759843458659884,4.195040890236569 M 6.739110494192016,4.047833823481467 M 6.678524682336911,3.9120798706103517 M 6.58279976556791,3.798341061807725 M 6.459383405179108,3.7154665886169322 M 6.317877732792607,3.669904312546595 M 6.169292278159884,3.66519910374562 M 5.657481255059918,3.6651991037456213 M 5.622100308391521,3.661301265251847 M 5.5874636556846555,3.6530971917917388 M 5.554093377222398,3.640710543842242 M 5.522492465155051,3.6243280260691875 M 5.4931372418701985,3.6041965731168304 M 5.466470180357828,3.5806196275477453 M 5.44289323478871,3.553952566035319 M 5.4227617818363685,3.524597342750508 M 5.4063792640633155,3.492996430683135 M 5.393992616113803,3.4596261522208667 M 5.385788542653711,3.424989499514003 M 5.381890704159912,3.3896085528456275 M 5.381890704159969,9.458699252133086e-07 M 9.458699252133086e-07,9.458699350110268e-07 M 9.458699252133086e-07,4.724882676727527 M 6.169292278159884,4.724882676727518 M 6.317877732792607,4.720177467926542 M 6.459383405179108,4.674615191856204 M 6.58279976556791,4.591740718665411 M 6.678524682336939,4.478001909862784 M 2.968676526805336,4.459521713812364 M 2.891598367335558,4.460329949463086 M 2.816937395681532,4.441161349519594 M 2.749781633678435,4.403322222390418 M 2.694707635526538,4.349391242057226 M 2.655468603185892,4.28304371570508 M 2.6347386118649294,4.2088011176097195 M 2.633930376214249,4.131722958139947 M 2.653098976157747,4.057061986485925 M 2.6909381032868507,3.9899062244828016 M 2.744869083619886,3.9348322263309465 M 2.8112166099723024,3.8955931939903103 M 2.8854592080676693,3.874863202669338 M 2.962537367537419,3.874054967018632 M 3.037198339191445,3.8932235669621043 M 3.1043541011945703,3.931062694091236 M 3.159428099346411,3.984993674424286 M 3.1986671316870567,4.0513412007766965 M 3.219397123008019,4.125583798872033 M 3.220205358658728,4.202661958341825 M 3.2010367587152584,4.277322929995799 M 3.1631969357947978,4.34224795699167 M 3.109266651253091,4.399552690150788 M 3.042919124900646,4.438791722491431 M 0.48556578091627206,3.878289324221309 M 0.5577769757971224,3.85132195048941 M 0.6345073037979431,3.843963100239339 M 0.710527719868321,3.8567142669545795 M 0.7806575582827519,3.888706479695778 M 0.8401175864483547,3.9377595220342902 M 0.8848557017079598,4.000530510198672 M 0.9118230754398949,4.0727417050795225 M 0.9191819256899235,4.149472033080338 M 0.9064307589747044,4.22549244915063 M 0.8744385462334888,4.295622287565132 M 0.8253855038949892,4.355082315730727 M 0.7626145157306153,4.399820430990193 M 0.6904033208497934,4.426787804722253 M 0.6136729928490011,4.434146654972162 M 0.5376525767786232,4.421395488257054 M 0.46752273836413555,4.389403275515692 M 0.40806242577839374,4.34224795699167 M 0.363324594938956,4.2775792450128804 M 0.3363572212070493,4.2053680501321695 M 0.3289983709569923,4.128637722131354 M 0.34174953767221145,4.052617306060996 M 0.373741750413427,3.98248746764652 M 0.4227947927519266,3.923027439480947 M 6.397428386595732,3.9518208879881382 M 6.454673428376265,4.00344163094731 M 6.496607461258901,4.068119546794305 M 6.520372750201983,4.141446942449445 M 6.524349730038023,4.218426677078105 M 6.5082673761634,4.293812708980361 M 6.473221674417414,4.362467604663375 M 6.421600931458227,4.419712646443925 M 6.3569230156112555,4.461646679326563 M 6.2835956199561,4.485411968269648 M 6.206615885327449,4.489388948105668 M 6.13122985342518,4.473306594231049 M 6.062574957742197,4.438260892485054 M 6.005329915961608,4.386640149525885 M 5.963395883078943,4.321962233678892 M 5.939630594135889,4.248634838023751 M 5.935653614299906,4.17165510339509 M 5.951735968174501,4.096269071492833 M 5.986781669920487,4.027614175809819 M 6.038402412879674,3.9703691340292693 M 6.103080328726645,3.928435101146631 M 6.176407724381801,3.9046698122035455 M 6.253387459010452,3.9006928323675263 M 6.328773490912721,3.916775186242145 "
  />
  <path id="face0-interior"
 style="fill:none;stroke:#00FF00;stroke-width:.05;stroke-miterlimit:4;stroke-dasharray:none;stroke-linejoin:round;stroke-linecap:round"
        d="M 6.739110494192016,4.34224795699167 M 6.759843458659884,4.195040890236569 M 6.739110494192016,4.047833823481467 M 6.678524682336911,3.9120798706103517 M 6.58279976556791,3.798341061807725 M 6.459383405179108,3.7154665886169322 M 6.317877732792607,3.669904312546595 M 6.169292278159884,3.66519910374562 M 5.657481255059918,3.6651991037456213 M 5.622100308391521,3.661301265251847 M 5.5874636556846555,3.6530971917917388 M 5.554093377222398,3.640710543842242 M 5.522492465155051,3.6243280260691875 M 5.4931372418701985,3.6041965731168304 M 5.466470180357828,3.5806196275477453 M 5.44289323478871,3.553952566035319 M 5.4227617818363685,3.524597342750508 M 5.4063792640633155,3.492996430683135 M 5.393992616113803,3.4596261522208667 M 5.385788542653711,3.424989499514003 M 5.381890704159912,3.3896085528456275 M 5.381890704159969,9.458699252133086e-07 M 9.458699252133086e-07,9.458699350110268e-07 M 9.458699252133086e-07,4.724882676727527 M 6.169292278159884,4.724882676727518 M 6.317877732792607,4.720177467926542 M 6.459383405179108,4.674615191856204 M 6.58279976556791,4.591740718665411 M 6.678524682336939,4.478001909862784 M 2.968676526805336,4.459521713812364 M 2.891598367335558,4.460329949463086 M 2.816937395681532,4.441161349519594 M 2.749781633678435,4.403322222390418 M 2.694707635526538,4.349391242057226 M 2.655468603185892,4.28304371570508 M 2.6347386118649294,4.2088011176097195 M 2.633930376214249,4.131722958139947 M 2.653098976157747,4.057061986485925 M 2.6909381032868507,3.9899062244828016 M 2.744869083619886,3.9348322263309465 M 2.8112166099723024,3.8955931939903103 M 2.8854592080676693,3.874863202669338 M 2.962537367537419,3.874054967018632 M 3.037198339191445,3.8932235669621043 M 3.1043541011945703,3.931062694091236 M 3.159428099346411,3.984993674424286 M 3.1986671316870567,4.0513412007766965 M 3.219397123008019,4.125583798872033 M 3.220205358658728,4.202661958341825 M 3.2010367587152584,4.277322929995799 M 3.1631969357947978,4.34224795699167 M 3.109266651253091,4.399552690150788 M 3.042919124900646,4.438791722491431 M 0.48556578091627206,3.878289324221309 M 0.5577769757971224,3.85132195048941 M 0.6345073037979431,3.843963100239339 M 0.710527719868321,3.8567142669545795 M 0.7806575582827519,3.888706479695778 M 0.8401175864483547,3.9377595220342902 M 0.8848557017079598,4.000530510198672 M 0.9118230754398949,4.0727417050795225 M 0.9191819256899235,4.149472033080338 M 0.9064307589747044,4.22549244915063 M 0.8744385462334888,4.295622287565132 M 0.8253855038949892,4.355082315730727 M 0.7626145157306153,4.399820430990193 M 0.6904033208497934,4.426787804722253 M 0.6136729928490011,4.434146654972162 M 0.5376525767786232,4.421395488257054 M 0.46752273836413555,4.389403275515692 M 0.40806242577839374,4.34224795699167 M 0.363324594938956,4.2775792450128804 M 0.3363572212070493,4.2053680501321695 M 0.3289983709569923,4.128637722131354 M 0.34174953767221145,4.052617306060996 M 0.373741750413427,3.98248746764652 M 0.4227947927519266,3.923027439480947 M 6.397428386595732,3.9518208879881382 M 6.454673428376265,4.00344163094731 M 6.496607461258901,4.068119546794305 M 6.520372750201983,4.141446942449445 M 6.524349730038023,4.218426677078105 M 6.5082673761634,4.293812708980361 M 6.473221674417414,4.362467604663375 M 6.421600931458227,4.419712646443925 M 6.3569230156112555,4.461646679326563 M 6.2835956199561,4.485411968269648 M 6.206615885327449,4.489388948105668 M 6.13122985342518,4.473306594231049 M 6.062574957742197,4.438260892485054 M 6.005329915961608,4.386640149525885 M 5.963395883078943,4.321962233678892 M 5.939630594135889,4.248634838023751 M 5.935653614299906,4.17165510339509 M 5.951735968174501,4.096269071492833 M 5.986781669920487,4.027614175809819 M 6.038402412879674,3.9703691340292693 M 6.103080328726645,3.928435101146631 M 6.176407724381801,3.9046698122035455 M 6.253387459010452,3.9006928323675263 M 6.328773490912721,3.916775186242145 "
  />
</svg>
