<?xml version="1.0" standalone="no"?>
<!DOCTYPE svg PUBLIC "-//W3C//DTD SVG 1.1//EN" "http://www.w3.org/Graphics/SVG/1.1/DTD/svg11.dtd">
<svg width="5.7756385954821585in" height="4.724929781049825in"
 viewBox="0 0 5.7756385954821585 4.724929781049825"
 xmlns="http://www.w3.org/2000/svg" version="1.1"
 xmlns:xlink="http://www.w3.org/1999/xlink">
<desc>Output from Flights of Ideas SVG Sketchup Plugin</desc>

  <path id="face0-cut"
 style="fill:none;stroke:#0000FF;stroke-width:1;stroke-miterlimit:4;stroke-dasharray:none;stroke-linejoin:round;stroke-linecap:round"
        d="M 5.754881605918219,4.342271036217882 L 5.775614570386058,4.195063969462781 L 5.75488160591819,4.04785690270768 L 5.694295794063113,3.9121029498365654 L 5.5985708772941125,3.798364141033938 L 5.47515451690531,3.715489667843144 L 5.333648844518781,3.6699273917728052 L 5.1850633898860865,3.6652221829718297 L 4.673252366786092,3.6652221829718266 L 4.637871420117723,3.6613243444780528 L 4.603234767410858,3.653120271017943 L 4.569864488948572,3.640733623068447 L 4.538263576881225,3.624351105295392 L 4.508908353596401,3.604219652343035 L 4.4822412920840025,3.5806427067739484 L 4.4586643465149125,3.5539756452615228 L 4.438532893562571,3.5246204219767123 L 4.4221503757894896,3.493019509909339 L 4.4097637278399775,3.45964923144707 L 4.401559654379857,3.425012578740206 L 4.397661815886086,3.3896316320718305 L 4.397661815886171,2.402509612792562e-05 L 2.402509615723551e-05,2.402509610039209e-05 L 2.402509610039209e-05,4.724905755953679 L 5.185063389886058,4.724905755953725 L 5.333648844518781,4.720200547152752 L 5.47515451690531,4.674638271082415 L 5.5985708772941125,4.591763797891622 L 5.694295794063113,4.478024989088996 L 5.754881605918219,4.342271036217882 M 0.43389689349429733,4.100153933067246 L 0.4535623309751505,4.052677367190959 L 0.484845524368031,4.011908315817896 L 0.5256145757411067,3.980625122425002 L 0.5730911416174157,3.9609596849441537 L 0.624039772491121,3.954252170440963 L 0.6749884033648547,3.960959684944149 L 0.7224649692411352,3.980625122425002 L 0.7632340206142393,4.011908315817911 L 0.7945172140070914,4.052677367190981 L 0.8141826514879446,4.100153933067251 L 0.8208901659910927,4.151102563940992 L 0.8141826514879446,4.202051194814674 L 0.7945172140070914,4.249527760691032 L 0.7632340206142393,4.290296812064062 L 0.7224649692411352,4.321580005457202 L 0.6749882998349696,4.342271036217882 L 0.624039772491121,4.34795295744075 L 0.5730910401233776,4.342271036217882 L 0.5256145757411067,4.32158000545701 L 0.484845524368031,4.290296812064118 L 0.4535623309751505,4.249527760691033 L 0.43389689349429733,4.202051194814752 L 0.4271893789911208,4.15110256394101 L 0.43389689349429733,4.100153933067246 M 2.659829512786833,4.077543122382453 L 2.691608447039035,4.037159300417335 L 2.7327566426037797,4.006376517234458 L 2.7804699179539702,3.987292568636862 L 2.8314966922243534,3.981207994183684 L 2.8823595750741524,3.9885374475687274 L 2.92959234509208,4.008781438656248 L 2.9699761670572307,4.0405603729084705 L 3.0007589502401024,4.0817085684732275 L 3.0198428988376995,4.129421843823378 L 3.0259274732908543,4.18044861809378 L 3.0185980199058142,4.231311500943603 L 2.998354028818303,4.278544270961538 L 2.9665750945660725,4.318928092926728 L 2.925426899001328,4.34971087610936 L 2.877713623651166,4.3687948247070905 L 2.8266868493807826,4.374879399160255 L 2.775823966530955,4.367549945775237 L 2.728591196513056,4.34730595468782 L 2.6882073745479054,4.315527020435604 L 2.657424591365062,4.274378824870774 L 2.6383406427674365,4.226665549520597 L 2.6322560683142817,4.175638775250199 L 2.6395855216992934,4.124775892400384 L 2.659829512786833,4.077543122382453 M 5.060536083008533,4.342271036217882 L 5.028908780892199,4.288712865280844 L 5.012060124811673,4.229393322362566 L 5.011138600219216,4.16773429077613 L 5.026207007492947,4.107937731627734 L 5.056238459578897,4.054078681604909 L 5.0991863626467095,4.009827545960368 L 5.152123888077104,3.9781999664598904 L 5.211443430995378,3.961351310379326 L 5.273102462581837,3.9604297857868724 L 5.332899021730204,3.9754981930606093 L 5.3867580717530545,4.005529645146566 L 5.43100920739757,4.04847754821437 L 5.462636786898078,4.101415073644769 L 5.479485442978633,4.160734616563047 L 5.480406967571118,4.222393648149482 L 5.46533856029733,4.282190207297878 L 5.43530710821138,4.336049257320705 L 5.392359205143568,4.3803003929652435 L 5.3394216797131735,4.4119279724657225 L 5.280102136794899,4.428776628546286 L 5.218443105208469,4.42969815313874 L 5.158646546060102,4.414629745865002 L 5.104787496037251,4.384598293779045 L 5.060536083008533,4.342271036217882 "
  />
  <path id="face0-interior"
 style="fill:none;stroke:#FF0000;stroke-width:1;stroke-miterlimit:4;stroke-dasharray:none;stroke-linejoin:round;stroke-linecap:round"
        d="M 5.754881605918219,4.342271036217882 M 5.775614570386058,4.195063969462781 M 5.75488160591819,4.04785690270768 M 5.694295794063113,3.9121029498365654 M 5.5985708772941125,3.798364141033938 M 5.47515451690531,3.715489667843144 M 5.333648844518781,3.6699273917728052 M 5.1850633898860865,3.6652221829718297 M 4.673252366786092,3.6652221829718266 M 4.637871420117723,3.6613243444780528 M 4.603234767410858,3.653120271017943 M 4.569864488948572,3.640733623068447 M 4.538263576881225,3.624351105295392 M 4.508908353596401,3.604219652343035 M 4.4822412920840025,3.5806427067739484 M 4.4586643465149125,3.5539756452615228 M 4.438532893562571,3.5246204219767123 M 4.4221503757894896,3.493019509909339 M 4.4097637278399775,3.45964923144707 M 4.401559654379857,3.425012578740206 M 4.397661815886086,3.3896316320718305 M 4.397661815886171,2.402509612792562e-05 M 2.402509615723551e-05,2.402509610039209e-05 M 2.402509610039209e-05,4.724905755953679 M 5.185063389886058,4.724905755953725 M 5.333648844518781,4.720200547152752 M 5.47515451690531,4.674638271082415 M 5.5985708772941125,4.591763797891622 M 5.694295794063113,4.478024989088996 M 0.43389689349429733,4.100153933067246 M 0.4535623309751505,4.052677367190959 M 0.484845524368031,4.011908315817896 M 0.5256145757411067,3.980625122425002 M 0.5730911416174157,3.9609596849441537 M 0.624039772491121,3.954252170440963 M 0.6749884033648547,3.960959684944149 M 0.7224649692411352,3.980625122425002 M 0.7632340206142393,4.011908315817911 M 0.7945172140070914,4.052677367190981 M 0.8141826514879446,4.100153933067251 M 0.8208901659910927,4.151102563940992 M 0.8141826514879446,4.202051194814674 M 0.7945172140070914,4.249527760691032 M 0.7632340206142393,4.290296812064062 M 0.7224649692411352,4.321580005457202 M 0.6749882998349696,4.342271036217882 M 0.624039772491121,4.34795295744075 M 0.5730910401233776,4.342271036217882 M 0.5256145757411067,4.32158000545701 M 0.484845524368031,4.290296812064118 M 0.4535623309751505,4.249527760691033 M 0.43389689349429733,4.202051194814752 M 0.4271893789911208,4.15110256394101 M 2.659829512786833,4.077543122382453 M 2.691608447039035,4.037159300417335 M 2.7327566426037797,4.006376517234458 M 2.7804699179539702,3.987292568636862 M 2.8314966922243534,3.981207994183684 M 2.8823595750741524,3.9885374475687274 M 2.92959234509208,4.008781438656248 M 2.9699761670572307,4.0405603729084705 M 3.0007589502401024,4.0817085684732275 M 3.0198428988376995,4.129421843823378 M 3.0259274732908543,4.18044861809378 M 3.0185980199058142,4.231311500943603 M 2.998354028818303,4.278544270961538 M 2.9665750945660725,4.318928092926728 M 2.925426899001328,4.34971087610936 M 2.877713623651166,4.3687948247070905 M 2.8266868493807826,4.374879399160255 M 2.775823966530955,4.367549945775237 M 2.728591196513056,4.34730595468782 M 2.6882073745479054,4.315527020435604 M 2.657424591365062,4.274378824870774 M 2.6383406427674365,4.226665549520597 M 2.6322560683142817,4.175638775250199 M 2.6395855216992934,4.124775892400384 M 5.060536083008533,4.342271036217882 M 5.028908780892199,4.288712865280844 M 5.012060124811673,4.229393322362566 M 5.011138600219216,4.16773429077613 M 5.026207007492947,4.107937731627734 M 5.056238459578897,4.054078681604909 M 5.0991863626467095,4.009827545960368 M 5.152123888077104,3.9781999664598904 M 5.211443430995378,3.961351310379326 M 5.273102462581837,3.9604297857868724 M 5.332899021730204,3.9754981930606093 M 5.3867580717530545,4.005529645146566 M 5.43100920739757,4.04847754821437 M 5.462636786898078,4.101415073644769 M 5.479485442978633,4.160734616563047 M 5.480406967571118,4.222393648149482 M 5.46533856029733,4.282190207297878 M 5.43530710821138,4.336049257320705 M 5.392359205143568,4.3803003929652435 M 5.3394216797131735,4.4119279724657225 M 5.280102136794899,4.428776628546286 M 5.218443105208469,4.42969815313874 M 5.158646546060102,4.414629745865002 M 5.104787496037251,4.384598293779045 "
  />
  <path id="face0-interior"
 style="fill:none;stroke:#00FF00;stroke-width:1;stroke-miterlimit:4;stroke-dasharray:none;stroke-linejoin:round;stroke-linecap:round"
        d="M 5.754881605918219,4.342271036217882 M 5.775614570386058,4.195063969462781 M 5.75488160591819,4.04785690270768 M 5.694295794063113,3.9121029498365654 M 5.5985708772941125,3.798364141033938 M 5.47515451690531,3.715489667843144 M 5.333648844518781,3.6699273917728052 M 5.1850633898860865,3.6652221829718297 M 4.673252366786092,3.6652221829718266 M 4.637871420117723,3.6613243444780528 M 4.603234767410858,3.653120271017943 M 4.569864488948572,3.640733623068447 M 4.538263576881225,3.624351105295392 M 4.508908353596401,3.604219652343035 M 4.4822412920840025,3.5806427067739484 M 4.4586643465149125,3.5539756452615228 M 4.438532893562571,3.5246204219767123 M 4.4221503757894896,3.493019509909339 M 4.4097637278399775,3.45964923144707 M 4.401559654379857,3.425012578740206 M 4.397661815886086,3.3896316320718305 M 4.397661815886171,2.402509612792562e-05 M 2.402509615723551e-05,2.402509610039209e-05 M 2.402509610039209e-05,4.724905755953679 M 5.185063389886058,4.724905755953725 M 5.333648844518781,4.720200547152752 M 5.47515451690531,4.674638271082415 M 5.5985708772941125,4.591763797891622 M 5.694295794063113,4.478024989088996 M 0.43389689349429733,4.100153933067246 M 0.4535623309751505,4.052677367190959 M 0.484845524368031,4.011908315817896 M 0.5256145757411067,3.980625122425002 M 0.5730911416174157,3.9609596849441537 M 0.624039772491121,3.954252170440963 M 0.6749884033648547,3.960959684944149 M 0.7224649692411352,3.980625122425002 M 0.7632340206142393,4.011908315817911 M 0.7945172140070914,4.052677367190981 M 0.8141826514879446,4.100153933067251 M 0.8208901659910927,4.151102563940992 M 0.8141826514879446,4.202051194814674 M 0.7945172140070914,4.249527760691032 M 0.7632340206142393,4.290296812064062 M 0.7224649692411352,4.321580005457202 M 0.6749882998349696,4.342271036217882 M 0.624039772491121,4.34795295744075 M 0.5730910401233776,4.342271036217882 M 0.5256145757411067,4.32158000545701 M 0.484845524368031,4.290296812064118 M 0.4535623309751505,4.249527760691033 M 0.43389689349429733,4.202051194814752 M 0.4271893789911208,4.15110256394101 M 2.659829512786833,4.077543122382453 M 2.691608447039035,4.037159300417335 M 2.7327566426037797,4.006376517234458 M 2.7804699179539702,3.987292568636862 M 2.8314966922243534,3.981207994183684 M 2.8823595750741524,3.9885374475687274 M 2.92959234509208,4.008781438656248 M 2.9699761670572307,4.0405603729084705 M 3.0007589502401024,4.0817085684732275 M 3.0198428988376995,4.129421843823378 M 3.0259274732908543,4.18044861809378 M 3.0185980199058142,4.231311500943603 M 2.998354028818303,4.278544270961538 M 2.9665750945660725,4.318928092926728 M 2.925426899001328,4.34971087610936 M 2.877713623651166,4.3687948247070905 M 2.8266868493807826,4.374879399160255 M 2.775823966530955,4.367549945775237 M 2.728591196513056,4.34730595468782 M 2.6882073745479054,4.315527020435604 M 2.657424591365062,4.274378824870774 M 2.6383406427674365,4.226665549520597 M 2.6322560683142817,4.175638775250199 M 2.6395855216992934,4.124775892400384 M 5.060536083008533,4.342271036217882 M 5.028908780892199,4.288712865280844 M 5.012060124811673,4.229393322362566 M 5.011138600219216,4.16773429077613 M 5.026207007492947,4.107937731627734 M 5.056238459578897,4.054078681604909 M 5.0991863626467095,4.009827545960368 M 5.152123888077104,3.9781999664598904 M 5.211443430995378,3.961351310379326 M 5.273102462581837,3.9604297857868724 M 5.332899021730204,3.9754981930606093 M 5.3867580717530545,4.005529645146566 M 5.43100920739757,4.04847754821437 M 5.462636786898078,4.101415073644769 M 5.479485442978633,4.160734616563047 M 5.480406967571118,4.222393648149482 M 5.46533856029733,4.282190207297878 M 5.43530710821138,4.336049257320705 M 5.392359205143568,4.3803003929652435 M 5.3394216797131735,4.4119279724657225 M 5.280102136794899,4.428776628546286 M 5.218443105208469,4.42969815313874 M 5.158646546060102,4.414629745865002 M 5.104787496037251,4.384598293779045 "
  />
</svg>
