  0
SECTION
  2
HEADER
  9
$ACADVER
  1
AC1015
  9
$ACADMAINTVER
 70
     6
  9
$DWGCODEPAGE
  3
ANSI_1252
  9
$INSBASE
 10
0.0
 20
0.0
 30
0.0
  9
$EXTMIN
 10
0.0
 20
0.0
 30
0.0
  9
$EXTMAX
 10
300.0
 20
349.0
 30
0.0
  9
$LIMMIN
 10
0.0
 20
0.0
  9
$LIMMAX
 10
300.0
 20
349.0
  9
$ORTHOMODE
 70
     0
  9
$REGENMODE
 70
     1
  9
$FILLMODE
 70
     1
  9
$QTEXTMODE
 70
     0
  9
$MIRRTEXT
 70
     1
  9
$LTSCALE
 40
1.0
  9
$ATTMODE
 70
     1
  9
$TEXTSIZE
 40
3.175
  9
$TRACEWID
 40
1.0
  9
$TEXTSTYLE
  7
Standard
  9
$CLAYER
  8
0
  9
$CELTYPE
  6
ByLayer
  9
$CECOLOR
 62
   256
  9
$CELTSCALE
 40
1.0
  9
$DISPSILH
 70
     0
  9
$DIMSCALE
 40
1.0
  9
$DIMASZ
 40
3.302
  9
$DIMEXO
 40
1.27
  9
$DIMDLI
 40
3.75
  9
$DIMRND
 40
0.0
  9
$DIMDLE
 40
0.0
  9
$DIMEXE
 40
3.175
  9
$DIMTP
 40
0.0
  9
$DIMTM
 40
0.0
  9
$DIMTXT
 40
3.175
  9
$DIMCEN
 40
2.5
  9
$DIMTSZ
 40
0.0
  9
$DIMTOL
 70
     0
  9
$DIMLIM
 70
     0
  9
$DIMTIH
 70
     1
  9
$DIMTOH
 70
     1
  9
$DIMSE1
 70
     0
  9
$DIMSE2
 70
     0
  9
$DIMTAD
 70
     0
  9
$DIMZIN
 70
     0
  9
$DIMBLK
  1

  9
$DIMASO
 70
     1
  9
$DIMSHO
 70
     1
  9
$DIMPOST
  1

  9
$DIMAPOST
  1

  9
$DIMALT
 70
     0
  9
$DIMALTD
 70
     3
  9
$DIMALTF
 40
0.0393700787
  9
$DIMLFAC
 40
1.0
  9
$DIMTOFL
 70
     1
  9
$DIMTVP
 40
0.0
  9
$DIMTIX
 70
     0
  9
$DIMSOXD
 70
     0
  9
$DIMSAH
 70
     0
  9
$DIMBLK1
  1

  9
$DIMBLK2
  1

  9
$DIMSTYLE
  2
ISO-25
  9
$DIMCLRD
 70
     0
  9
$DIMCLRE
 70
     0
  9
$DIMCLRT
 70
     0
  9
$DIMTFAC
 40
1.0
  9
$DIMGAP
 40
1.524
  9
$DIMJUST
 70
     0
  9
$DIMSD1
 70
     0
  9
$DIMSD2
 70
     0
  9
$DIMTOLJ
 70
     0
  9
$DIMTZIN
 70
     0
  9
$DIMALTZ
 70
     0
  9
$DIMALTTZ
 70
     0
  9
$DIMUPT
 70
     0
  9
$DIMDEC
 70
     3
  9
$DIMTDEC
 70
     3
  9
$DIMALTU
 70
     2
  9
$DIMALTTD
 70
     3
  9
$DIMTXSTY
  7
Standard
  9
$DIMAUNIT
 70
     0
  9
$DIMADEC
 70
     2
  9
$DIMALTRND
 40
0.0
  9
$DIMAZIN
 70
     0
  9
$DIMDSEP
 70
    44
  9
$DIMATFIT
 70
     3
  9
$DIMFRAC
 70
     0
  9
$DIMLDRBLK
  1

  9
$DIMLUNIT
 70
     2
  9
$DIMLWD
 70
    -2
  9
$DIMLWE
 70
    -2
  9
$DIMTMOVE
 70
     0
  9
$LUNITS
 70
     2
  9
$LUPREC
 70
     2
  9
$SKETCHINC
 40
1.0
  9
$FILLETRAD
 40
10.0
  9
$AUNITS
 70
     0
  9
$AUPREC
 70
     2
  9
$MENU
  1
.
  9
$ELEVATION
 40
0.0
  9
$PELEVATION
 40
0.0
  9
$THICKNESS
 40
0.0
  9
$LIMCHECK
 70
     0
  9
$CHAMFERA
 40
10.0
  9
$CHAMFERB
 40
10.0
  9
$CHAMFERC
 40
20.0
  9
$CHAMFERD
 40
0.0
  9
$SKPOLY
 70
     0
  9
$TDCREATE
 40
2456878.399701817
  9
$TDUCREATE
 40
2456878.691368484
  9
$TDUPDATE
 40
2456878.399701829
  9
$TDUUPDATE
 40
2456878.691368496
  9
$TDINDWG
 40
0.0000000116
  9
$TDUSRTIMER
 40
0.0000000116
  9
$USRTIMER
 70
     1
  9
$ANGBASE
 50
0.0
  9
$ANGDIR
 70
     0
  9
$PDMODE
 70
     0
  9
$PDSIZE
 40
-1.0
  9
$PLINEWID
 40
0.0
  9
$SPLFRAME
 70
     0
  9
$SPLINETYPE
 70
     6
  9
$SPLINESEGS
 70
     8
  9
$HANDSEED
  5
40E
  9
$SURFTAB1
 70
     6
  9
$SURFTAB2
 70
     6
  9
$SURFTYPE
 70
     6
  9
$SURFU
 70
     6
  9
$SURFV
 70
     6
  9
$UCSBASE
  2

  9
$UCSNAME
  2

  9
$UCSORG
 10
0.0
 20
0.0
 30
0.0
  9
$UCSXDIR
 10
1.0
 20
0.0
 30
0.0
  9
$UCSYDIR
 10
0.0
 20
1.0
 30
0.0
  9
$UCSORTHOREF
  2

  9
$UCSORTHOVIEW
 70
     0
  9
$UCSORGTOP
 10
0.0
 20
0.0
 30
0.0
  9
$UCSORGBOTTOM
 10
0.0
 20
0.0
 30
0.0
  9
$UCSORGLEFT
 10
0.0
 20
0.0
 30
0.0
  9
$UCSORGRIGHT
 10
0.0
 20
0.0
 30
0.0
  9
$UCSORGFRONT
 10
0.0
 20
0.0
 30
0.0
  9
$UCSORGBACK
 10
0.0
 20
0.0
 30
0.0
  9
$PUCSBASE
  2

  9
$PUCSNAME
  2

  9
$PUCSORG
 10
0.0
 20
0.0
 30
0.0
  9
$PUCSXDIR
 10
1.0
 20
0.0
 30
0.0
  9
$PUCSYDIR
 10
0.0
 20
1.0
 30
0.0
  9
$PUCSORTHOREF
  2

  9
$PUCSORTHOVIEW
 70
     0
  9
$PUCSORGTOP
 10
0.0
 20
0.0
 30
0.0
  9
$PUCSORGBOTTOM
 10
0.0
 20
0.0
 30
0.0
  9
$PUCSORGLEFT
 10
0.0
 20
0.0
 30
0.0
  9
$PUCSORGRIGHT
 10
0.0
 20
0.0
 30
0.0
  9
$PUCSORGFRONT
 10
0.0
 20
0.0
 30
0.0
  9
$PUCSORGBACK
 10
0.0
 20
0.0
 30
0.0
  9
$USERI1
 70
     0
  9
$USERI2
 70
     0
  9
$USERI3
 70
     0
  9
$USERI4
 70
     0
  9
$USERI5
 70
     0
  9
$USERR1
 40
0.0
  9
$USERR2
 40
0.0
  9
$USERR3
 40
0.0
  9
$USERR4
 40
0.0
  9
$USERR5
 40
0.0
  9
$WORLDVIEW
 70
     1
  9
$SHADEDGE
 70
     3
  9
$SHADEDIF
 70
    70
  9
$TILEMODE
 70
     1
  9
$MAXACTVP
 70
    64
  9
$PINSBASE
 10
0.0
 20
0.0
 30
0.0
  9
$PLIMCHECK
 70
     0
  9
$PEXTMIN
 10
1.0000000000E+20
 20
1.0000000000E+20
 30
1.0000000000E+20
  9
$PEXTMAX
 10
-1.0000000000E+20
 20
-1.0000000000E+20
 30
-1.0000000000E+20
  9
$PLIMMIN
 10
0.0
 20
0.0
  9
$PLIMMAX
 10
420.0
 20
297.0
  9
$UNITMODE
 70
     0
  9
$VISRETAIN
 70
     1
  9
$PLINEGEN
 70
     0
  9
$PSLTSCALE
 70
     1
  9
$TREEDEPTH
 70
  3020
  9
$CMLSTYLE
  2
Standard
  9
$CMLJUST
 70
     0
  9
$CMLSCALE
 40
20.0
  9
$PROXYGRAPHICS
 70
     1
  9
$MEASUREMENT
 70
     1
  9
$CELWEIGHT
370
    -1
  9
$ENDCAPS
280
     0
  9
$JOINSTYLE
280
     0
  9
$LWDISPLAY
290
     1
  9
$INSUNITS
 70
     4
  9
$HYPERLINKBASE
  1

  9
$STYLESHEET
  1

  9
$XEDIT
290
     1
  9
$CEPSNTYPE
380
     0
  9
$PSTYLEMODE
290
     1
  9
$FINGERPRINTGUID
  2
{EC5B5BBE-7E30-4D47-AAB3-8BF7E59DBF12}
  9
$VERSIONGUID
  2
{FAEB1C32-E019-11D5-929B-00C0DF256EC4}
  9
$EXTNAMES
290
     1
  9
$PSVPSCALE
 40
0.0
  9
$OLESTARTUP
290
     0
  0
ENDSEC
  0
SECTION
  2
CLASSES
  0
CLASS
  1
ACDBDICTIONARYWDFLT
  2
AcDbDictionaryWithDefault
  3
ObjectDBX Classes
 90
        0
280
     0
281
     0
  0
CLASS
  1
VISUALSTYLE
  2
AcDbVisualStyle
  3
ObjectDBX Classes
 90
     4095
280
     0
281
     0
  0
CLASS
  1
SCALE
  2
AcDbScale
  3
ObjectDBX Classes
 90
     1153
280
     0
281
     0
  0
CLASS
  1
DICTIONARYVAR
  2
AcDbDictionaryVar
  3
ObjectDBX Classes
 90
        0
280
     0
281
     0
  0
CLASS
  1
ACDBPLACEHOLDER
  2
AcDbPlaceHolder
  3
ObjectDBX Classes
 90
        0
280
     0
281
     0
  0
CLASS
  1
LAYOUT
  2
AcDbLayout
  3
ObjectDBX Classes
 90
        0
280
     0
281
     0
  0
ENDSEC
  0
SECTION
  2
TABLES
  0
TABLE
  2
VPORT
  5
8
330
0
100
AcDbSymbolTable
 70
     1
  0
VPORT
  5
29
330
8
100
AcDbSymbolTableRecord
100
AcDbViewportTableRecord
  2
*Active
 70
     0
 10
0.0
 20
0.0
 11
1.0
 21
1.0
 12
150.0
 22
174.5
 13
0.0
 23
0.0
 14
10.0
 24
10.0
 15
10.0
 25
10.0
 16
0.0
 26
0.0
 36
1.0
 17
0.0
 27
0.0
 37
0.0
 40
349.0
 41
0.8595988539
 42
50.0
 43
0.0
 44
0.0
 50
0.0
 51
0.0
 71
     0
 72
  2000
 73
     1
 74
     3
 75
     0
 76
     0
 77
     0
 78
     0
281
     0
 65
     1
110
0.0
120
0.0
130
0.0
111
1.0
121
0.0
131
0.0
112
0.0
122
1.0
132
0.0
 79
     0
146
0.0
  0
ENDTAB
  0
TABLE
  2
LTYPE
  5
5
330
0
100
AcDbSymbolTable
 70
     6
  0
LTYPE
  5
14
330
5
100
AcDbSymbolTableRecord
100
AcDbLinetypeTableRecord
  2
ByBlock
 70
     0
  3

 72
    65
 73
     0
 40
0.0
  0
LTYPE
  5
15
330
5
100
AcDbSymbolTableRecord
100
AcDbLinetypeTableRecord
  2
ByLayer
 70
     0
  3

 72
    65
 73
     0
 40
0.0
  0
LTYPE
  5
16
330
5
100
AcDbSymbolTableRecord
100
AcDbLinetypeTableRecord
  2
Continuous
 70
     0
  3
Solid line
 72
    65
 73
     0
 40
0.0
  0
LTYPE
  5
3B
330
5
100
AcDbSymbolTableRecord
100
AcDbLinetypeTableRecord
  2
HIDDEN
 70
     0
  3
Hidden __ __ __ __ __ __ __ __ __ __ __ __ __ __
 72
    65
 73
     2
 40
1.905
 49
1.27
 74
     0
 49
-0.635
 74
     0
  0
LTYPE
  5
3C
330
5
100
AcDbSymbolTableRecord
100
AcDbLinetypeTableRecord
  2
PHANTOM
 70
     0
  3
Phantom ______  __  __  ______  __  __  ______
 72
    65
 73
     6
 40
12.7
 49
6.35
 74
     0
 49
-1.27
 74
     0
 49
1.27
 74
     0
 49
-1.27
 74
     0
 49
1.27
 74
     0
 49
-1.27
 74
     0
  0
LTYPE
  5
3D
330
5
100
AcDbSymbolTableRecord
100
AcDbLinetypeTableRecord
  2
CENTER
 70
     0
  3
Center ____ _ ____ _ ____ _ ____ _ ____ _ ____
 72
    65
 73
     4
 40
10.16
 49
6.35
 74
     0
 49
-1.27
 74
     0
 49
1.27
 74
     0
 49
-1.27
 74
     0
  0
LTYPE
  5
3E
330
5
100
AcDbSymbolTableRecord
100
AcDbLinetypeTableRecord
  2
CENTERX2
 70
     0
  3
Center (2x) ________  __  ________  __  _____
 72
    65
 73
     4
 40
20.32
 49
12.7
 74
     0
 49
-2.54
 74
     0
 49
2.54
 74
     0
 49
-2.54
 74
     0
  0
LTYPE
  5
3F
330
5
100
AcDbSymbolTableRecord
100
AcDbLinetypeTableRecord
  2
DOT2
 70
     0
  3
Dot (.5x) ........................................
 72
    65
 73
     2
 40
0.635
 49
0.0
 74
     0
 49
-0.635
 74
     0
  0
ENDTAB
  0
TABLE
  2
LAYER
  5
2
330
0
100
AcDbSymbolTable
 70
     1
  0
LAYER
  5
10
330
2
100
AcDbSymbolTableRecord
100
AcDbLayerTableRecord
  2
0
 70
     0
 62
     7
  6
Continuous
370
    -3
390
F
  0
ENDTAB
  0
TABLE
  2
STYLE
  5
3
330
0
100
AcDbSymbolTable
 70
     2
  0
STYLE
  5
11
330
3
100
AcDbSymbolTableRecord
100
AcDbTextStyleTableRecord
  2
Standard
 70
     0
 40
0.0
 41
1.0
 50
0.0
 71
     0
 42
2.5
  3
txt
  4

  0
STYLE
  5
44
330
3
100
AcDbSymbolTableRecord
100
AcDbTextStyleTableRecord
  2
SLDTEXTSTYLE0
 70
     0
 40
0.0
 41
0.605
 50
0.0
 71
     0
 42
0.2
  3
TXT
  4

  0
ENDTAB
  0
TABLE
  2
VIEW
  5
6
330
0
100
AcDbSymbolTable
 70
     0
  0
ENDTAB
  0
TABLE
  2
UCS
  5
7
330
0
100
AcDbSymbolTable
 70
     0
  0
ENDTAB
  0
TABLE
  2
APPID
  5
9
330
0
100
AcDbSymbolTable
 70
     1
  0
APPID
  5
12
330
9
100
AcDbSymbolTableRecord
100
AcDbRegAppTableRecord
  2
ACAD
 70
     0
  0
ENDTAB
  0
TABLE
  2
DIMSTYLE
  5
A
330
0
100
AcDbSymbolTable
 70
     1
100
AcDbDimStyleTable
  0
DIMSTYLE
105
27
330
A
100
AcDbSymbolTableRecord
100
AcDbDimStyleTableRecord
  2
ISO-25
 70
     0
 41
2.5
 42
0.625
 43
3.75
 44
1.25
 73
     0
 74
     0
 77
     1
 78
     8
140
2.5
141
2.5
143
0.0393700787
147
0.625
171
     3
172
     1
271
     2
272
     2
274
     3
278
    44
283
     0
284
     8
340
11
  0
ENDTAB
  0
TABLE
  2
BLOCK_RECORD
  5
1
330
0
100
AcDbSymbolTable
 70
     1
  0
BLOCK_RECORD
  5
1F
330
1
100
AcDbSymbolTableRecord
100
AcDbBlockTableRecord
  2
*Model_Space
340
22
  0
BLOCK_RECORD
  5
1B
330
1
100
AcDbSymbolTableRecord
100
AcDbBlockTableRecord
  2
*Paper_Space
340
1E
  0
BLOCK_RECORD
  5
23
330
1
100
AcDbSymbolTableRecord
100
AcDbBlockTableRecord
  2
*Paper_Space0
340
26
  0
ENDTAB
  0
ENDSEC
  0
SECTION
  2
BLOCKS
  0
BLOCK
  5
20
330
1F
100
AcDbEntity
  8
0
100
AcDbBlockBegin
  2
*Model_Space
 70
     0
 10
0.0
 20
0.0
 30
0.0
  3
*Model_Space
  1

  0
ENDBLK
  5
21
330
1F
100
AcDbEntity
  8
0
100
AcDbBlockEnd
  0
BLOCK
  5
1C
330
1B
100
AcDbEntity
 67
     1
  8
0
100
AcDbBlockBegin
  2
*Paper_Space
 70
     0
 10
0.0
 20
0.0
 30
0.0
  3
*Paper_Space
  1

  0
ENDBLK
  5
1D
330
1B
100
AcDbEntity
 67
     1
  8
0
100
AcDbBlockEnd
  0
BLOCK
  5
24
330
23
100
AcDbEntity
  8
0
100
AcDbBlockBegin
  2
*Paper_Space0
 70
     0
 10
0.0
 20
0.0
 30
0.0
  3
*Paper_Space0
  1

  0
ENDBLK
  5
25
330
23
100
AcDbEntity
  8
0
100
AcDbBlockEnd
  0
ENDSEC
  0
SECTION
  2
ENTITIES
  0
LINE
  5
40
330
1F
100
AcDbEntity
  8
0
  6
Continuous
 62
     7
370
     0
100
AcDbLine
 10
0.5736294071
 20
347.4046101715
 30
0.0
 11
299.2948502322
 21
347.4046101715
 31
0.0
  0
LINE
  5
41
330
1F
100
AcDbEntity
  8
0
  6
Continuous
 62
     7
370
     0
100
AcDbLine
 10
0.5736294071
 20
347.4046101715
 30
0.0
 11
0.5736294071
 21
0.5888891513
 31
0.0
  0
LINE
  5
42
330
1F
100
AcDbEntity
  8
0
  6
Continuous
 62
     7
370
     0
100
AcDbLine
 10
0.5736294071
 20
0.5888891513
 30
0.0
 11
299.2948502322
 21
0.5888891513
 31
0.0
  0
LINE
  5
43
330
1F
100
AcDbEntity
  8
0
  6
Continuous
 62
     7
370
     0
100
AcDbLine
 10
299.2948502322
 20
347.4046101715
 30
0.0
 11
299.2948502322
 21
0.5888891513
 31
0.0
  0
MTEXT
  5
67
330
1F
100
AcDbEntity
  8
0
  6
Continuous
 62
     7
370
     0
100
AcDbMText
 10
126.4011955731
 20
209.0098040128
 30
0.0
 40
4.7625
 41
0.0
 71
     1
 72
     1
  1
A1
  7
SLDTEXTSTYLE0
 73
     1
 44
1.0
  0
MTEXT
  5
68
330
1F
100
AcDbEntity
  8
0
  6
Continuous
 62
     7
370
     0
100
AcDbMText
 10
157.7515283791
 20
141.6299842507
 30
0.0
 40
4.7625
 41
0.0
 71
     1
 72
     1
  1
A5
  7
SLDTEXTSTYLE0
 73
     1
 44
1.0
  0
MTEXT
  5
69
330
1F
100
AcDbEntity
  8
0
  6
Continuous
 62
     7
370
     0
100
AcDbMText
 10
146.7101018633
 20
123.0301623309
 30
0.0
 40
4.7625
 41
0.0
 71
     1
 72
     1
  1
A6
  7
SLDTEXTSTYLE0
 73
     1
 44
1.0
  0
MTEXT
  5
6A
330
1F
100
AcDbEntity
  8
0
  6
Continuous
 62
     7
370
     0
100
AcDbMText
 10
185.4952897212
 20
243.7454820129
 30
0.0
 40
4.7625
 41
0.0
 71
     1
 72
     1
  1
A2
  7
SLDTEXTSTYLE0
 73
     1
 44
1.0
  0
MTEXT
  5
6B
330
1F
100
AcDbEntity
  8
0
  6
Continuous
 62
     7
370
     0
100
AcDbMText
 10
200.2708179598
 20
91.8024666314
 30
0.0
 40
4.7625
 41
0.0
 71
     1
 72
     1
  1
A3
  7
SLDTEXTSTYLE0
 73
     1
 44
1.0
  0
MTEXT
  5
6C
330
1F
100
AcDbEntity
  8
0
  6
Continuous
 62
     7
370
     0
100
AcDbMText
 10
198.9089668319
 20
243.776392045
 30
0.0
 40
4.7625
 41
0.0
 71
     1
 72
     1
  1
A4
  7
SLDTEXTSTYLE0
 73
     1
 44
1.0
  0
MTEXT
  5
6D
330
1F
100
AcDbEntity
  8
0
  6
Continuous
 62
     7
370
     0
100
AcDbMText
 10
213.427422869
 20
243.776392045
 30
0.0
 40
4.7625
 41
0.0
 71
     1
 72
     1
  1
A7
  7
SLDTEXTSTYLE0
 73
     1
 44
1.0
  0
MTEXT
  5
6E
330
1F
100
AcDbEntity
  8
0
  6
Continuous
 62
     7
370
     0
100
AcDbMText
 10
213.427422869
 20
91.8024666314
 30
0.0
 40
4.7625
 41
0.0
 71
     1
 72
     1
  1
A8
  7
SLDTEXTSTYLE0
 73
     1
 44
1.0
  0
MTEXT
  5
6F
330
1F
100
AcDbEntity
  8
0
  6
Continuous
 62
     7
370
     0
100
AcDbMText
 10
227.5599433407
 20
243.776392045
 30
0.0
 40
4.7625
 41
0.0
 71
     1
 72
     1
  1
A9
  7
SLDTEXTSTYLE0
 73
     1
 44
1.0
  0
MTEXT
  5
70
330
1F
100
AcDbEntity
  8
0
  6
Continuous
 62
     7
370
     0
100
AcDbMText
 10
146.1410923457
 20
90.0151619066
 30
0.0
 40
4.7625
 41
0.0
 71
     1
 72
     1
  1
B6
  7
SLDTEXTSTYLE0
 73
     1
 44
1.0
  0
MTEXT
  5
71
330
1F
100
AcDbEntity
  8
0
  6
Continuous
 62
     7
370
     0
100
AcDbMText
 10
157.7515283791
 20
107.6001855506
 30
0.0
 40
4.7625
 41
0.0
 71
     1
 72
     1
  1
B5
  7
SLDTEXTSTYLE0
 73
     1
 44
1.0
  0
MTEXT
  5
72
330
1F
100
AcDbEntity
  8
0
  6
Continuous
 62
     7
370
     0
100
AcDbMText
 10
272.2890271324
 20
143.1061359436
 30
0.0
 40
4.7625
 41
0.0
 71
     1
 72
     1
  1
B2
  7
SLDTEXTSTYLE0
 73
     1
 44
1.0
  0
MTEXT
  5
73
330
1F
100
AcDbEntity
  8
0
  6
Continuous
 62
     7
370
     0
100
AcDbMText
 10
209.772473329
 20
32.7432296306
 30
0.0
 40
4.7625
 41
0.0
 71
     1
 72
     1
  1
B3
  7
SLDTEXTSTYLE0
 11
-3.491481338843133E-15
 21
1.0
 31
0.0
 73
     1
 44
1.0
  0
MTEXT
  5
74
330
1F
100
AcDbEntity
  8
0
  6
Continuous
 62
     7
370
     0
100
AcDbMText
 10
287.3505931646
 20
143.1061359436
 30
0.0
 40
4.7625
 41
0.0
 71
     1
 72
     1
  1
B4
  7
SLDTEXTSTYLE0
 73
     1
 44
1.0
  0
MTEXT
  5
75
330
1F
100
AcDbEntity
  8
0
  6
Continuous
 62
     7
370
     0
100
AcDbMText
 10
272.2890271324
 20
112.5762028539
 30
0.0
 40
4.7625
 41
0.0
 71
     1
 72
     1
  1
B7
  7
SLDTEXTSTYLE0
 73
     1
 44
1.0
  0
MTEXT
  5
76
330
1F
100
AcDbEntity
  8
0
  6
Continuous
 62
     7
370
     0
100
AcDbMText
 10
280.1689395131
 20
32.5145057783
 30
0.0
 40
4.7625
 41
0.0
 71
     1
 72
     1
  1
B8
  7
SLDTEXTSTYLE0
 11
-3.491481338843133E-15
 21
1.0
 31
0.0
 73
     1
 44
1.0
  0
MTEXT
  5
77
330
1F
100
AcDbEntity
  8
0
  6
Continuous
 62
     7
370
     0
100
AcDbMText
 10
286.377576806
 20
112.5762028539
 30
0.0
 40
4.7625
 41
0.0
 71
     1
 72
     1
  1
B9
  7
SLDTEXTSTYLE0
 73
     1
 44
1.0
  0
MTEXT
  5
78
330
1F
100
AcDbEntity
  8
0
  6
Continuous
 62
     7
370
     0
100
AcDbMText
 10
269.4882872453
 20
243.776392045
 30
0.0
 40
4.7625
 41
0.0
 71
     1
 72
     1
  1
C7
  7
SLDTEXTSTYLE0
 73
     1
 44
1.0
  0
MTEXT
  5
79
330
1F
100
AcDbEntity
  8
0
  6
Continuous
 62
     7
370
     0
100
AcDbMText
 10
283.8935300278
 20
242.6651416742
 30
0.0
 40
4.7625
 41
0.0
 71
     1
 72
     1
  1
C9
  7
SLDTEXTSTYLE0
 73
     1
 44
1.0
  0
MTEXT
  5
7A
330
1F
100
AcDbEntity
  8
0
  6
Continuous
 62
     7
370
     0
100
AcDbMText
 10
252.2740892609
 20
91.8024666314
 30
0.0
 40
4.7625
 41
0.0
 71
     1
 72
     1
  1
C8
  7
SLDTEXTSTYLE0
 73
     1
 44
1.0
  0
MTEXT
  5
7B
330
1F
100
AcDbEntity
  8
0
  6
Continuous
 62
     7
370
     0
100
AcDbMText
 10
255.3757560318
 20
243.776392045
 30
0.0
 40
4.7625
 41
0.0
 71
     1
 72
     1
  1
C4
  7
SLDTEXTSTYLE0
 73
     1
 44
1.0
  0
MTEXT
  5
7C
330
1F
100
AcDbEntity
  8
0
  6
Continuous
 62
     7
370
     0
100
AcDbMText
 10
144.1921965778
 20
55.9948119997
 30
0.0
 40
4.7625
 41
0.0
 71
     1
 72
     1
  1
C6
  7
SLDTEXTSTYLE0
 73
     1
 44
1.0
  0
MTEXT
  5
7D
330
1F
100
AcDbEntity
  8
0
  6
Continuous
 62
     7
370
     0
100
AcDbMText
 10
152.9249600543
 20
75.0874793865
 30
0.0
 40
4.7625
 41
0.0
 71
     1
 72
     1
  1
C5
  7
SLDTEXTSTYLE0
 73
     1
 44
1.0
  0
MTEXT
  5
7E
330
1F
100
AcDbEntity
  8
0
  6
Continuous
 62
     7
370
     0
100
AcDbMText
 10
241.6111932124
 20
243.776392045
 30
0.0
 40
4.7625
 41
0.0
 71
     1
 72
     1
  1
C2
  7
SLDTEXTSTYLE0
 73
     1
 44
1.0
  0
MTEXT
  5
7F
330
1F
100
AcDbEntity
  8
0
  6
Continuous
 62
     7
370
     0
100
AcDbMText
 10
237.9905309607
 20
91.8024666314
 30
0.0
 40
4.7625
 41
0.0
 71
     1
 72
     1
  1
C3
  7
SLDTEXTSTYLE0
 73
     1
 44
1.0
  0
MTEXT
  5
80
330
1F
100
AcDbEntity
  8
0
  6
Continuous
 62
     7
370
     0
100
AcDbMText
 10
9.7117606141
 20
298.0826373859
 30
0.0
 40
3.175
 41
0.0
 71
     1
 72
     1
  1
C12
  7
SLDTEXTSTYLE0
 11
0.7071067811865464
 21
0.7071067811865488
 31
0.0
 73
     1
 44
1.0
  0
MTEXT
  5
81
330
1F
100
AcDbEntity
  8
0
  6
Continuous
 62
     7
370
     0
100
AcDbMText
 10
9.9787054136
 20
277.0094674934
 30
0.0
 40
3.175
 41
0.0
 71
     1
 72
     1
  1
C13
  7
SLDTEXTSTYLE0
 11
0.7071067811865464
 21
0.7071067811865488
 31
0.0
 73
     1
 44
1.0
  0
MTEXT
  5
82
330
1F
100
AcDbEntity
  8
0
  6
Continuous
 62
     7
370
     0
100
AcDbMText
 10
10.9045150875
 20
256.2592015741
 30
0.0
 40
3.175
 41
0.0
 71
     1
 72
     1
  1
C14
  7
SLDTEXTSTYLE0
 11
0.7071067811865464
 21
0.7071067811865488
 31
0.0
 73
     1
 44
1.0
  0
MTEXT
  5
83
330
1F
100
AcDbEntity
  8
0
  6
Continuous
 62
     7
370
     0
100
AcDbMText
 10
9.80938152
 20
235.1679468011
 30
0.0
 40
3.175
 41
0.0
 71
     1
 72
     1
  1
C15
  7
SLDTEXTSTYLE0
 11
0.7071067811865464
 21
0.7071067811865488
 31
0.0
 73
     1
 44
1.0
  0
MTEXT
  5
84
330
1F
100
AcDbEntity
  8
0
  6
Continuous
 62
     7
370
     0
100
AcDbMText
 10
36.6132050831
 20
162.1981606559
 30
0.0
 40
4.7625
 41
0.0
 71
     1
 72
     1
  1
E7
  7
SLDTEXTSTYLE0
 11
-1.0
 21
-6.982962677686267E-15
 31
0.0
 73
     1
 44
1.0
  0
MTEXT
  5
85
330
1F
100
AcDbEntity
  8
0
  6
Continuous
 62
     7
370
     0
100
AcDbMText
 10
97.3472859125
 20
107.6001855506
 30
0.0
 40
4.7625
 41
0.0
 71
     1
 72
     1
  1
E8
  7
SLDTEXTSTYLE0
 73
     1
 44
1.0
  0
MTEXT
  5
86
330
1F
100
AcDbEntity
  8
0
  6
Continuous
 62
     7
370
     0
100
AcDbMText
 10
188.237226273
 20
18.5600730655
 30
0.0
 40
4.7625
 41
0.0
 71
     1
 72
     1
  1
E9
  7
SLDTEXTSTYLE0
 73
     1
 44
1.0
  0
MTEXT
  5
87
330
1F
100
AcDbEntity
  8
0
  6
Continuous
 62
     7
370
     0
100
AcDbMText
 10
37.1958564256
 20
62.7103639819
 30
0.0
 40
4.7625
 41
0.0
 71
     1
 72
     1
  1
E10
  7
SLDTEXTSTYLE0
 73
     1
 44
1.0
  0
MTEXT
  5
88
330
1F
100
AcDbEntity
  8
0
  6
Continuous
 62
     7
370
     0
100
AcDbMText
 10
92.7995551295
 20
65.5010041363
 30
0.0
 40
4.7625
 41
0.0
 71
     1
 72
     1
  1
D18
  7
SLDTEXTSTYLE0
 11
-3.491481338843133E-15
 21
1.0
 31
0.0
 73
     1
 44
1.0
  0
MTEXT
  5
89
330
1F
100
AcDbEntity
  8
0
  6
Continuous
 62
     7
370
     0
100
AcDbMText
 10
225.1156389098
 20
15.2121620122
 30
0.0
 40
4.7625
 41
0.0
 71
     1
 72
     1
  1
E12
  7
SLDTEXTSTYLE0
 73
     1
 44
1.0
  0
MTEXT
  5
8A
330
1F
100
AcDbEntity
  8
0
  6
Continuous
 62
     7
370
     0
100
AcDbMText
 10
15.7371691183
 20
318.7055223581
 30
0.0
 40
4.7625
 41
0.0
 71
     1
 72
     1
  1
E14
  7
SLDTEXTSTYLE0
 11
-3.491481338843133E-15
 21
1.0
 31
0.0
 73
     1
 44
1.0
  0
MTEXT
  5
8B
330
1F
100
AcDbEntity
  8
0
  6
Continuous
 62
     7
370
     0
100
AcDbMText
 10
68.3683917955
 20
325.3928874239
 30
0.0
 40
4.7625
 41
0.0
 71
     1
 72
     1
  1
E15
  7
SLDTEXTSTYLE0
 11
-3.491481338843133E-15
 21
1.0
 31
0.0
 73
     1
 44
1.0
  0
MTEXT
  5
8C
330
1F
100
AcDbEntity
  8
0
  6
Continuous
 62
     7
370
     0
100
AcDbMText
 10
91.8421730667
 20
128.9594639835
 30
0.0
 40
4.7625
 41
0.0
 71
     1
 72
     1
  1
E17
  7
SLDTEXTSTYLE0
 73
     1
 44
1.0
  0
MTEXT
  5
8D
330
1F
100
AcDbEntity
  8
0
  6
Continuous
 62
     7
370
     0
100
AcDbMText
 10
93.8195077117
 20
141.6299842507
 30
0.0
 40
4.7625
 41
0.0
 71
     1
 72
     1
  1
E16
  7
SLDTEXTSTYLE0
 73
     1
 44
1.0
  0
MTEXT
  5
8E
330
1F
100
AcDbEntity
  8
0
  6
Continuous
 62
     7
370
     0
100
AcDbMText
 10
36.2687514359
 20
34.1310117351
 30
0.0
 40
4.7625
 41
0.0
 71
     1
 72
     1
  1
D22
  7
SLDTEXTSTYLE0
 11
-3.491481338843133E-15
 21
1.0
 31
0.0
 73
     1
 44
1.0
  0
MTEXT
  5
8F
330
1F
100
AcDbEntity
  8
0
  6
Continuous
 62
     7
370
     0
100
AcDbMText
 10
121.1979255207
 20
24.6662049415
 30
0.0
 40
4.7625
 41
0.0
 71
     1
 72
     1
  1
D23
  7
SLDTEXTSTYLE0
 11
-3.491481338843133E-15
 21
1.0
 31
0.0
 73
     1
 44
1.0
  0
MTEXT
  5
90
330
1F
100
AcDbEntity
  8
0
  6
Continuous
 62
     7
370
     0
100
AcDbMText
 10
15.8449521478
 20
18.5600730655
 30
0.0
 40
4.7625
 41
0.0
 71
     1
 72
     1
  1
F3
  7
SLDTEXTSTYLE0
 73
     1
 44
1.0
  0
MTEXT
  5
91
330
1F
100
AcDbEntity
  8
0
  6
Continuous
 62
     7
370
     0
100
AcDbMText
 10
187.8483942571
 20
163.5719845891
 30
0.0
 40
2.6458333333
 41
0.0
 71
     1
 72
     1
  1
F5
  7
SLDTEXTSTYLE0
 11
-3.491481338843133E-15
 21
-1.0
 31
0.0
 73
     1
 44
1.0
  0
MTEXT
  5
92
330
1F
100
AcDbEntity
  8
0
  6
Continuous
 62
     7
370
     0
100
AcDbMText
 10
10.0974794687
 20
49.8837615305
 30
0.0
 40
2.6458333333
 41
0.0
 71
     1
 72
     1
  1
F4
  7
SLDTEXTSTYLE0
 11
-3.491481338843133E-15
 21
-1.0
 31
0.0
 73
     1
 44
1.0
  0
MTEXT
  5
93
330
1F
100
AcDbEntity
  8
0
  6
Continuous
 62
     7
370
     0
100
AcDbMText
 10
23.4620807222
 20
32.6412873211
 30
0.0
 40
2.9104166667
 41
0.0
 71
     1
 72
     1
  1
B13
  7
SLDTEXTSTYLE0
 73
     1
 44
1.0
  0
MTEXT
  5
94
330
1F
100
AcDbEntity
  8
0
  6
Continuous
 62
     7
370
     0
100
AcDbMText
 10
153.846102109
 20
14.2438022608
 30
0.0
 40
2.6458333333
 41
0.0
 71
     1
 72
     1
  1
B12
  7
SLDTEXTSTYLE0
 73
     1
 44
1.0
  0
MTEXT
  5
95
330
1F
100
AcDbEntity
  8
0
  6
Continuous
 62
     7
370
     0
100
AcDbMText
 10
97.9349889878
 20
37.3036654235
 30
0.0
 40
4.7625
 41
0.0
 71
     1
 72
     1
  1
B10
  7
SLDTEXTSTYLE0
 73
     1
 44
1.0
  0
MTEXT
  5
96
330
1F
100
AcDbEntity
  8
0
  6
Continuous
 62
     7
370
     0
100
AcDbMText
 10
86.9021161298
 20
14.6314115111
 30
0.0
 40
4.7625
 41
0.0
 71
     1
 72
     1
  1
B11
  7
SLDTEXTSTYLE0
 73
     1
 44
1.0
  0
MTEXT
  5
97
330
1F
100
AcDbEntity
  8
0
  6
Continuous
 62
     7
370
     0
100
AcDbMText
 10
75.3675805288
 20
107.9071605482
 30
0.0
 40
4.7625
 41
0.0
 71
     1
 72
     1
  1
E13
  7
SLDTEXTSTYLE0
 11
-1.0
 21
-6.982962677686267E-15
 31
0.0
 73
     1
 44
1.0
  0
MTEXT
  5
98
330
1F
100
AcDbEntity
  8
0
  6
Continuous
 62
     7
370
     0
100
AcDbMText
 10
1.8693924903
 20
346.3387952977
 30
0.0
 40
4.7625
 41
0.0
 71
     1
 72
     1
  1
S3
  7
SLDTEXTSTYLE0
 73
     1
 44
1.0
  0
MTEXT
  5
99
330
1F
100
AcDbEntity
  8
0
  6
Continuous
 62
     7
370
     0
100
AcDbMText
 10
1.4516178892
 20
7.2468228705
 30
0.0
 40
4.7625
 41
0.0
 71
     1
 72
     1
  1
S3
  7
SLDTEXTSTYLE0
 73
     1
 44
1.0
  0
MTEXT
  5
9A
330
1F
100
AcDbEntity
  8
0
  6
Continuous
 62
     7
370
     0
100
AcDbMText
 10
291.4241000947
 20
7.781552229
 30
0.0
 40
4.7625
 41
0.0
 71
     1
 72
     1
  1
S3
  7
SLDTEXTSTYLE0
 73
     1
 44
1.0
  0
MTEXT
  5
9B
330
1F
100
AcDbEntity
  8
0
  6
Continuous
 62
     7
370
     0
100
AcDbMText
 10
295.3228179561
 20
346.9063650963
 30
0.0
 40
2.38125
 41
0.0
 71
     1
 72
     1
  1
S3
  7
SLDTEXTSTYLE0
 73
     1
 44
1.0
  0
ARC
  5
9C
330
1F
100
AcDbEntity
  8
0
  6
Continuous
 62
     7
370
    15
100
AcDbCircle
 10
71.5258307106
 20
53.7669540764
 30
0.0
 40
7.000000000000014
100
AcDbArc
 50
270.0
 51
0.0
  0
ARC
  5
9D
330
1F
100
AcDbEntity
  8
0
  6
Continuous
 62
     7
370
    15
100
AcDbCircle
 10
71.5258307106
 20
308.7669540764
 30
0.0
 40
7.000000000000014
100
AcDbArc
 50
0.0
 51
90.0
  0
LINE
  5
9E
330
1F
100
AcDbEntity
  8
0
  6
Continuous
 62
     7
370
    15
100
AcDbLine
 10
71.5258305988
 20
315.7669540764
 30
0.0
 11
66.5258307106
 21
315.7669540764
 31
0.0
  0
LINE
  5
9F
330
1F
100
AcDbEntity
  8
0
  6
Continuous
 62
     7
370
    15
100
AcDbLine
 10
78.5258308149
 20
53.76695956
 30
0.0
 11
78.5258308149
 21
308.7669538603
 31
0.0
  0
LINE
  5
A0
330
1F
100
AcDbEntity
  8
0
  6
Continuous
 62
     7
370
    15
100
AcDbLine
 10
66.5258307106
 20
46.7669602753
 30
0.0
 11
71.5258305988
 21
46.7669602753
 31
0.0
  0
LINE
  5
A1
330
1F
100
AcDbEntity
  8
0
  6
Continuous
 62
     7
370
    15
100
AcDbLine
 10
66.5258307106
 20
91.7669471622
 30
0.0
 11
66.5258307106
 21
46.7669602753
 31
0.0
  0
LINE
  5
A2
330
1F
100
AcDbEntity
  8
0
  6
Continuous
 62
     7
370
    15
100
AcDbLine
 10
61.1758304856
 20
91.7669471622
 30
0.0
 11
66.5258307106
 21
91.7669471622
 31
0.0
  0
LINE
  5
A3
330
1F
100
AcDbEntity
  8
0
  6
Continuous
 62
     7
370
    15
100
AcDbLine
 10
61.1758304856
 20
121.4336242796
 30
0.0
 11
61.1758304856
 21
91.7669471622
 31
0.0
  0
LINE
  5
A4
330
1F
100
AcDbEntity
  8
0
  6
Continuous
 62
     7
370
    15
100
AcDbLine
 10
66.5258307106
 20
121.4336242796
 30
0.0
 11
61.1758304856
 21
121.4336242796
 31
0.0
  0
LINE
  5
A5
330
1F
100
AcDbEntity
  8
0
  6
Continuous
 62
     7
370
    15
100
AcDbLine
 10
66.5258307106
 20
166.4336260677
 30
0.0
 11
66.5258307106
 21
121.4336242796
 31
0.0
  0
LINE
  5
A6
330
1F
100
AcDbEntity
  8
0
  6
Continuous
 62
     7
370
    15
100
AcDbLine
 10
61.1758304856
 20
166.4336260677
 30
0.0
 11
66.5258307106
 21
166.4336260677
 31
0.0
  0
LINE
  5
A7
330
1F
100
AcDbEntity
  8
0
  6
Continuous
 62
     7
370
    15
100
AcDbLine
 10
61.1758304856
 20
196.1002882839
 30
0.0
 11
61.1758304856
 21
166.4336260677
 31
0.0
  0
LINE
  5
A8
330
1F
100
AcDbEntity
  8
0
  6
Continuous
 62
     7
370
    15
100
AcDbLine
 10
66.5258307106
 20
196.1002882839
 30
0.0
 11
61.1758304856
 21
196.1002882839
 31
0.0
  0
LINE
  5
A9
330
1F
100
AcDbEntity
  8
0
  6
Continuous
 62
     7
370
    15
100
AcDbLine
 10
66.5258307106
 20
241.1002900721
 30
0.0
 11
66.5258307106
 21
196.1002882839
 31
0.0
  0
LINE
  5
AA
330
1F
100
AcDbEntity
  8
0
  6
Continuous
 62
     7
370
    15
100
AcDbLine
 10
61.1758304856
 20
241.1002900721
 30
0.0
 11
66.5258307106
 21
241.1002900721
 31
0.0
  0
LINE
  5
AB
330
1F
100
AcDbEntity
  8
0
  6
Continuous
 62
     7
370
    15
100
AcDbLine
 10
61.1758304856
 20
270.7669522882
 30
0.0
 11
61.1758304856
 21
241.1002900721
 31
0.0
  0
LINE
  5
AC
330
1F
100
AcDbEntity
  8
0
  6
Continuous
 62
     7
370
    15
100
AcDbLine
 10
66.5258307106
 20
270.7669522882
 30
0.0
 11
61.1758304856
 21
270.7669522882
 31
0.0
  0
LINE
  5
AD
330
1F
100
AcDbEntity
  8
0
  6
Continuous
 62
     7
370
    15
100
AcDbLine
 10
66.5258307106
 20
315.7669540764
 30
0.0
 11
66.5258307106
 21
270.7669522882
 31
0.0
  0
LINE
  5
AE
330
1F
100
AcDbEntity
  8
0
  6
Continuous
 62
     7
370
    15
100
AcDbLine
 10
123.0249939022
 20
221.7899746166
 30
0.0
 11
134.0249938426
 21
221.7899746166
 31
0.0
  0
LINE
  5
AF
330
1F
100
AcDbEntity
  8
0
  6
Continuous
 62
     7
370
    15
100
AcDbLine
 10
134.0249938426
 20
221.7899746166
 30
0.0
 11
134.0249938426
 21
227.1399744924
 31
0.0
  0
LINE
  5
B0
330
1F
100
AcDbEntity
  8
0
  6
Continuous
 62
     7
370
    15
100
AcDbLine
 10
134.0249938426
 20
227.1399744924
 30
0.0
 11
123.0249939022
 21
227.1399744924
 31
0.0
  0
LINE
  5
B1
330
1F
100
AcDbEntity
  8
0
  6
Continuous
 62
     7
370
    15
100
AcDbLine
 10
123.0249939022
 20
227.1399744924
 30
0.0
 11
123.0249939022
 21
221.7899746166
 31
0.0
  0
LINE
  5
B2
330
1F
100
AcDbEntity
  8
0
  6
Continuous
 62
     7
370
    15
100
AcDbLine
 10
123.0249939022
 20
263.2899736192
 30
0.0
 11
134.0249938426
 21
263.2899736192
 31
0.0
  0
LINE
  5
B3
330
1F
100
AcDbEntity
  8
0
  6
Continuous
 62
     7
370
    15
100
AcDbLine
 10
134.0249938426
 20
263.2899736192
 30
0.0
 11
134.0249938426
 21
268.6399747755
 31
0.0
  0
LINE
  5
B4
330
1F
100
AcDbEntity
  8
0
  6
Continuous
 62
     7
370
    15
100
AcDbLine
 10
134.0249938426
 20
268.6399747755
 30
0.0
 11
123.0249939022
 21
268.6399747755
 31
0.0
  0
LINE
  5
B5
330
1F
100
AcDbEntity
  8
0
  6
Continuous
 62
     7
370
    15
100
AcDbLine
 10
123.0249939022
 20
268.6399747755
 30
0.0
 11
123.0249939022
 21
263.2899736192
 31
0.0
  0
LINE
  5
B6
330
1F
100
AcDbEntity
  8
0
  6
Continuous
 62
     7
370
    15
100
AcDbLine
 10
98.6949944404
 20
212.7149747822
 30
0.0
 11
98.6949944404
 21
192.7149747636
 31
0.0
  0
LINE
  5
B7
330
1F
100
AcDbEntity
  8
0
  6
Continuous
 62
     7
370
    15
100
AcDbLine
 10
98.6949944404
 20
192.7149747636
 30
0.0
 11
104.0449937341
 21
192.7149747636
 31
0.0
  0
LINE
  5
B8
330
1F
100
AcDbEntity
  8
0
  6
Continuous
 62
     7
370
    15
100
AcDbLine
 10
104.0449937341
 20
192.7149747636
 30
0.0
 11
104.0449937341
 21
212.7149747822
 31
0.0
  0
LINE
  5
B9
330
1F
100
AcDbEntity
  8
0
  6
Continuous
 62
     7
370
    15
100
AcDbLine
 10
104.0449937341
 20
212.7149747822
 30
0.0
 11
98.6949944404
 21
212.7149747822
 31
0.0
  0
LINE
  5
BA
330
1F
100
AcDbEntity
  8
0
  6
Continuous
 62
     7
370
    15
100
AcDbLine
 10
98.6949944404
 20
255.2149747636
 30
0.0
 11
98.6949944404
 21
235.2149742793
 31
0.0
  0
LINE
  5
BB
330
1F
100
AcDbEntity
  8
0
  6
Continuous
 62
     7
370
    15
100
AcDbLine
 10
98.6949944404
 20
235.2149742793
 30
0.0
 11
104.0449937341
 21
235.2149742793
 31
0.0
  0
LINE
  5
BC
330
1F
100
AcDbEntity
  8
0
  6
Continuous
 62
     7
370
    15
100
AcDbLine
 10
104.0449937341
 20
235.2149742793
 30
0.0
 11
104.0449937341
 21
255.2149747636
 31
0.0
  0
LINE
  5
BD
330
1F
100
AcDbEntity
  8
0
  6
Continuous
 62
     7
370
    15
100
AcDbLine
 10
104.0449937341
 20
255.2149747636
 30
0.0
 11
98.6949944404
 21
255.2149747636
 31
0.0
  0
LINE
  5
BE
330
1F
100
AcDbEntity
  8
0
  6
Continuous
 62
     7
370
    15
100
AcDbLine
 10
98.6949944404
 20
297.7149752106
 30
0.0
 11
98.6949944404
 21
277.7149756577
 31
0.0
  0
LINE
  5
BF
330
1F
100
AcDbEntity
  8
0
  6
Continuous
 62
     7
370
    15
100
AcDbLine
 10
98.6949944404
 20
277.7149756577
 30
0.0
 11
104.0449937341
 21
277.7149756577
 31
0.0
  0
LINE
  5
C0
330
1F
100
AcDbEntity
  8
0
  6
Continuous
 62
     7
370
    15
100
AcDbLine
 10
104.0449937341
 20
277.7149756577
 30
0.0
 11
104.0449937341
 21
297.7149752106
 31
0.0
  0
LINE
  5
C1
330
1F
100
AcDbEntity
  8
0
  6
Continuous
 62
     7
370
    15
100
AcDbLine
 10
104.0449937341
 20
297.7149752106
 30
0.0
 11
98.6949944404
 21
297.7149752106
 31
0.0
  0
LINE
  5
C2
330
1F
100
AcDbEntity
  8
0
  6
Continuous
 62
     7
370
    15
100
AcDbLine
 10
153.0049940106
 20
297.7149752106
 30
0.0
 11
153.0049940106
 21
277.7149756577
 31
0.0
  0
LINE
  5
C3
330
1F
100
AcDbEntity
  8
0
  6
Continuous
 62
     7
370
    15
100
AcDbLine
 10
153.0049940106
 20
277.7149756577
 30
0.0
 11
158.3549933043
 21
277.7149756577
 31
0.0
  0
LINE
  5
C4
330
1F
100
AcDbEntity
  8
0
  6
Continuous
 62
     7
370
    15
100
AcDbLine
 10
158.3549933043
 20
277.7149756577
 30
0.0
 11
158.3549933043
 21
297.7149752106
 31
0.0
  0
LINE
  5
C5
330
1F
100
AcDbEntity
  8
0
  6
Continuous
 62
     7
370
    15
100
AcDbLine
 10
158.3549933043
 20
297.7149752106
 30
0.0
 11
153.0049940106
 21
297.7149752106
 31
0.0
  0
LINE
  5
C6
330
1F
100
AcDbEntity
  8
0
  6
Continuous
 62
     7
370
    15
100
AcDbLine
 10
153.0049940106
 20
255.2149747636
 30
0.0
 11
153.0049940106
 21
235.2149742793
 31
0.0
  0
LINE
  5
C7
330
1F
100
AcDbEntity
  8
0
  6
Continuous
 62
     7
370
    15
100
AcDbLine
 10
153.0049940106
 20
235.2149742793
 30
0.0
 11
158.3549933043
 21
235.2149742793
 31
0.0
  0
LINE
  5
C8
330
1F
100
AcDbEntity
  8
0
  6
Continuous
 62
     7
370
    15
100
AcDbLine
 10
158.3549933043
 20
235.2149742793
 30
0.0
 11
158.3549933043
 21
255.2149747636
 31
0.0
  0
LINE
  5
C9
330
1F
100
AcDbEntity
  8
0
  6
Continuous
 62
     7
370
    15
100
AcDbLine
 10
158.3549933043
 20
255.2149747636
 30
0.0
 11
153.0049940106
 21
255.2149747636
 31
0.0
  0
LINE
  5
CA
330
1F
100
AcDbEntity
  8
0
  6
Continuous
 62
     7
370
    15
100
AcDbLine
 10
153.0049940106
 20
212.7149747822
 30
0.0
 11
153.0049940106
 21
192.7149747636
 31
0.0
  0
LINE
  5
CB
330
1F
100
AcDbEntity
  8
0
  6
Continuous
 62
     7
370
    15
100
AcDbLine
 10
153.0049940106
 20
192.7149747636
 30
0.0
 11
158.3549933043
 21
192.7149747636
 31
0.0
  0
LINE
  5
CC
330
1F
100
AcDbEntity
  8
0
  6
Continuous
 62
     7
370
    15
100
AcDbLine
 10
158.3549933043
 20
192.7149747636
 30
0.0
 11
158.3549933043
 21
212.7149747822
 31
0.0
  0
LINE
  5
CD
330
1F
100
AcDbEntity
  8
0
  6
Continuous
 62
     7
370
    15
100
AcDbLine
 10
158.3549933043
 20
212.7149747822
 30
0.0
 11
153.0049940106
 21
212.7149747822
 31
0.0
  0
LINE
  5
CE
330
1F
100
AcDbEntity
  8
0
  6
Continuous
 62
     7
370
    15
100
AcDbLine
 10
78.5249931273
 20
345.2149746146
 30
0.0
 11
78.5249931273
 21
145.2149716344
 31
0.0
  0
LINE
  5
CF
330
1F
100
AcDbEntity
  8
0
  6
Continuous
 62
     7
370
    15
100
AcDbLine
 10
178.5249946174
 20
345.2149746146
 30
0.0
 11
78.5249931273
 21
345.2149746146
 31
0.0
  0
LINE
  5
D0
330
1F
100
AcDbEntity
  8
0
  6
Continuous
 62
     7
370
    15
100
AcDbLine
 10
178.5249946174
 20
145.2149716344
 30
0.0
 11
178.5249946174
 21
345.2149746146
 31
0.0
  0
LINE
  5
D1
330
1F
100
AcDbEntity
  8
0
  6
Continuous
 62
     7
370
    15
100
AcDbLine
 10
78.5249931273
 20
145.2149716344
 30
0.0
 11
178.5249946174
 21
145.2149716344
 31
0.0
  0
CIRCLE
  5
D2
330
1F
100
AcDbEntity
  8
0
  6
Continuous
 62
     7
370
    15
100
AcDbCircle
 10
190.0500404857
 20
270.4458274963
 30
0.0
 40
4.0
  0
LINE
  5
D3
330
1F
100
AcDbEntity
  8
0
  6
Continuous
 62
     7
370
    15
100
AcDbLine
 10
192.5500404298
 20
252.3708270016
 30
0.0
 11
187.5500405416
 21
252.3708270016
 31
0.0
  0
LINE
  5
D4
330
1F
100
AcDbEntity
  8
0
  6
Continuous
 62
     7
370
    15
100
AcDbLine
 10
187.5500405416
 20
252.3708270016
 30
0.0
 11
187.5500405416
 21
247.0208277079
 31
0.0
  0
LINE
  5
D5
330
1F
100
AcDbEntity
  8
0
  6
Continuous
 62
     7
370
    15
100
AcDbLine
 10
187.5500405416
 20
247.0208277079
 30
0.0
 11
192.5500404298
 21
247.0208277079
 31
0.0
  0
LINE
  5
D6
330
1F
100
AcDbEntity
  8
0
  6
Continuous
 62
     7
370
    15
100
AcDbLine
 10
192.5500404298
 20
247.0208277079
 30
0.0
 11
192.5500404298
 21
252.3708270016
 31
0.0
  0
CIRCLE
  5
D7
330
1F
100
AcDbEntity
  8
0
  6
Continuous
 62
     7
370
    15
100
AcDbCircle
 10
190.0500404857
 20
206.9458274963
 30
0.0
 40
4.0
  0
LINE
  5
D8
330
1F
100
AcDbEntity
  8
0
  6
Continuous
 62
     7
370
    15
100
AcDbLine
 10
183.0500402697
 20
345.4458304765
 30
0.0
 11
183.0500402697
 21
195.4458245161
 31
0.0
  0
LINE
  5
D9
330
1F
100
AcDbEntity
  8
0
  6
Continuous
 62
     7
370
    15
100
AcDbLine
 10
197.0500407018
 20
345.4458304765
 30
0.0
 11
183.0500402697
 21
345.4458304765
 31
0.0
  0
LINE
  5
DA
330
1F
100
AcDbEntity
  8
0
  6
Continuous
 62
     7
370
    15
100
AcDbLine
 10
197.0500407018
 20
195.4458245161
 30
0.0
 11
197.0500407018
 21
345.4458304765
 31
0.0
  0
LINE
  5
DB
330
1F
100
AcDbEntity
  8
0
  6
Continuous
 62
     7
370
    15
100
AcDbLine
 10
183.0500402697
 20
195.4458245161
 30
0.0
 11
197.0500407018
 21
195.4458245161
 31
0.0
  0
CIRCLE
  5
DC
330
1F
100
AcDbEntity
  8
0
  6
Continuous
 62
     7
370
    15
100
AcDbCircle
 10
190.0500404857
 20
333.9458274963
 30
0.0
 40
4.0
  0
LINE
  5
DD
330
1F
100
AcDbEntity
  8
0
  6
Continuous
 62
     7
370
    15
100
AcDbLine
 10
187.5500405416
 20
288.520827991
 30
0.0
 11
192.5500404298
 21
288.520827991
 31
0.0
  0
LINE
  5
DE
330
1F
100
AcDbEntity
  8
0
  6
Continuous
 62
     7
370
    15
100
AcDbLine
 10
192.5500404298
 20
288.520827991
 30
0.0
 11
192.5500404298
 21
293.8708272847
 31
0.0
  0
LINE
  5
DF
330
1F
100
AcDbEntity
  8
0
  6
Continuous
 62
     7
370
    15
100
AcDbLine
 10
192.5500404298
 20
293.8708272847
 30
0.0
 11
187.5500405416
 21
293.8708272847
 31
0.0
  0
LINE
  5
E0
330
1F
100
AcDbEntity
  8
0
  6
Continuous
 62
     7
370
    15
100
AcDbLine
 10
187.5500405416
 20
293.8708272847
 30
0.0
 11
187.5500405416
 21
288.520827991
 31
0.0
  0
CIRCLE
  5
E1
330
1F
100
AcDbEntity
  8
0
  6
Continuous
 62
     7
370
    15
100
AcDbCircle
 10
204.049885314
 20
270.4461458635
 30
0.0
 40
4.0
  0
LINE
  5
E2
330
1F
100
AcDbEntity
  8
0
  6
Continuous
 62
     7
370
    15
100
AcDbLine
 10
206.5498852581
 20
252.3711453688
 30
0.0
 11
201.5498853699
 21
252.3711453688
 31
0.0
  0
LINE
  5
E3
330
1F
100
AcDbEntity
  8
0
  6
Continuous
 62
     7
370
    15
100
AcDbLine
 10
201.5498853699
 20
252.3711453688
 30
0.0
 11
201.5498853699
 21
247.0211460751
 31
0.0
  0
LINE
  5
E4
330
1F
100
AcDbEntity
  8
0
  6
Continuous
 62
     7
370
    15
100
AcDbLine
 10
201.5498853699
 20
247.0211460751
 30
0.0
 11
206.5498852581
 21
247.0211460751
 31
0.0
  0
LINE
  5
E5
330
1F
100
AcDbEntity
  8
0
  6
Continuous
 62
     7
370
    15
100
AcDbLine
 10
206.5498852581
 20
247.0211460751
 30
0.0
 11
206.5498852581
 21
252.3711453688
 31
0.0
  0
CIRCLE
  5
E6
330
1F
100
AcDbEntity
  8
0
  6
Continuous
 62
     7
370
    15
100
AcDbCircle
 10
204.049885314
 20
206.9461458635
 30
0.0
 40
4.0
  0
LINE
  5
E7
330
1F
100
AcDbEntity
  8
0
  6
Continuous
 62
     7
370
    15
100
AcDbLine
 10
197.0498850979
 20
345.4461488437
 30
0.0
 11
197.0498850979
 21
195.4461428833
 31
0.0
  0
LINE
  5
E8
330
1F
100
AcDbEntity
  8
0
  6
Continuous
 62
     7
370
    15
100
AcDbLine
 10
211.0498855301
 20
345.4461488437
 30
0.0
 11
197.0498850979
 21
345.4461488437
 31
0.0
  0
LINE
  5
E9
330
1F
100
AcDbEntity
  8
0
  6
Continuous
 62
     7
370
    15
100
AcDbLine
 10
211.0498855301
 20
195.4461428833
 30
0.0
 11
211.0498855301
 21
345.4461488437
 31
0.0
  0
LINE
  5
EA
330
1F
100
AcDbEntity
  8
0
  6
Continuous
 62
     7
370
    15
100
AcDbLine
 10
197.0498850979
 20
195.4461428833
 30
0.0
 11
211.0498855301
 21
195.4461428833
 31
0.0
  0
CIRCLE
  5
EB
330
1F
100
AcDbEntity
  8
0
  6
Continuous
 62
     7
370
    15
100
AcDbCircle
 10
204.049885314
 20
333.9461458635
 30
0.0
 40
4.000000000000057
  0
LINE
  5
EC
330
1F
100
AcDbEntity
  8
0
  6
Continuous
 62
     7
370
    15
100
AcDbLine
 10
201.5498853699
 20
288.5211463582
 30
0.0
 11
206.5498852581
 21
288.5211463582
 31
0.0
  0
LINE
  5
ED
330
1F
100
AcDbEntity
  8
0
  6
Continuous
 62
     7
370
    15
100
AcDbLine
 10
206.5498852581
 20
288.5211463582
 30
0.0
 11
206.5498852581
 21
293.8711456519
 31
0.0
  0
LINE
  5
EE
330
1F
100
AcDbEntity
  8
0
  6
Continuous
 62
     7
370
    15
100
AcDbLine
 10
206.5498852581
 20
293.8711456519
 30
0.0
 11
201.5498853699
 21
293.8711456519
 31
0.0
  0
LINE
  5
EF
330
1F
100
AcDbEntity
  8
0
  6
Continuous
 62
     7
370
    15
100
AcDbLine
 10
201.5498853699
 20
293.8711456519
 30
0.0
 11
201.5498853699
 21
288.5211463582
 31
0.0
  0
CIRCLE
  5
F0
330
1F
100
AcDbEntity
  8
0
  6
Continuous
 62
     7
370
    15
100
AcDbCircle
 10
218.0498891781
 20
270.4461637117
 30
0.0
 40
4.0
  0
LINE
  5
F1
330
1F
100
AcDbEntity
  8
0
  6
Continuous
 62
     7
370
    15
100
AcDbLine
 10
220.5498891222
 20
252.371163217
 30
0.0
 11
215.549889234
 21
252.371163217
 31
0.0
  0
LINE
  5
F2
330
1F
100
AcDbEntity
  8
0
  6
Continuous
 62
     7
370
    15
100
AcDbLine
 10
215.549889234
 20
252.371163217
 30
0.0
 11
215.549889234
 21
247.0211639233
 31
0.0
  0
LINE
  5
F3
330
1F
100
AcDbEntity
  8
0
  6
Continuous
 62
     7
370
    15
100
AcDbLine
 10
215.549889234
 20
247.0211639233
 30
0.0
 11
220.5498891222
 21
247.0211639233
 31
0.0
  0
LINE
  5
F4
330
1F
100
AcDbEntity
  8
0
  6
Continuous
 62
     7
370
    15
100
AcDbLine
 10
220.5498891222
 20
247.0211639233
 30
0.0
 11
220.5498891222
 21
252.371163217
 31
0.0
  0
CIRCLE
  5
F5
330
1F
100
AcDbEntity
  8
0
  6
Continuous
 62
     7
370
    15
100
AcDbCircle
 10
218.0498891781
 20
206.9461637117
 30
0.0
 40
4.0
  0
LINE
  5
F6
330
1F
100
AcDbEntity
  8
0
  6
Continuous
 62
     7
370
    15
100
AcDbLine
 10
211.049888962
 20
345.4461666919
 30
0.0
 11
211.049888962
 21
195.4461607315
 31
0.0
  0
LINE
  5
F7
330
1F
100
AcDbEntity
  8
0
  6
Continuous
 62
     7
370
    15
100
AcDbLine
 10
225.0498893942
 20
345.4461666919
 30
0.0
 11
211.049888962
 21
345.4461666919
 31
0.0
  0
LINE
  5
F8
330
1F
100
AcDbEntity
  8
0
  6
Continuous
 62
     7
370
    15
100
AcDbLine
 10
225.0498893942
 20
195.4461607315
 30
0.0
 11
225.0498893942
 21
345.4461666919
 31
0.0
  0
LINE
  5
F9
330
1F
100
AcDbEntity
  8
0
  6
Continuous
 62
     7
370
    15
100
AcDbLine
 10
211.049888962
 20
195.4461607315
 30
0.0
 11
225.0498893942
 21
195.4461607315
 31
0.0
  0
CIRCLE
  5
FA
330
1F
100
AcDbEntity
  8
0
  6
Continuous
 62
     7
370
    15
100
AcDbCircle
 10
218.0498891781
 20
333.9461637117
 30
0.0
 40
4.0
  0
LINE
  5
FB
330
1F
100
AcDbEntity
  8
0
  6
Continuous
 62
     7
370
    15
100
AcDbLine
 10
215.549889234
 20
288.5211642064
 30
0.0
 11
220.5498891222
 21
288.5211642064
 31
0.0
  0
LINE
  5
FC
330
1F
100
AcDbEntity
  8
0
  6
Continuous
 62
     7
370
    15
100
AcDbLine
 10
220.5498891222
 20
288.5211642064
 30
0.0
 11
220.5498891222
 21
293.8711635001
 31
0.0
  0
LINE
  5
FD
330
1F
100
AcDbEntity
  8
0
  6
Continuous
 62
     7
370
    15
100
AcDbLine
 10
220.5498891222
 20
293.8711635001
 30
0.0
 11
215.549889234
 21
293.8711635001
 31
0.0
  0
LINE
  5
FE
330
1F
100
AcDbEntity
  8
0
  6
Continuous
 62
     7
370
    15
100
AcDbLine
 10
215.549889234
 20
293.8711635001
 30
0.0
 11
215.549889234
 21
288.5211642064
 31
0.0
  0
CIRCLE
  5
FF
330
1F
100
AcDbEntity
  8
0
  6
Continuous
 62
     7
370
    15
100
AcDbCircle
 10
246.049336989
 20
270.4467005653
 30
0.0
 40
4.0
  0
LINE
  5
100
330
1F
100
AcDbEntity
  8
0
  6
Continuous
 62
     7
370
    15
100
AcDbLine
 10
248.5493369331
 20
252.3717000706
 30
0.0
 11
243.5493370449
 21
252.3717000706
 31
0.0
  0
LINE
  5
101
330
1F
100
AcDbEntity
  8
0
  6
Continuous
 62
     7
370
    15
100
AcDbLine
 10
243.5493370449
 20
252.3717000706
 30
0.0
 11
243.5493370449
 21
247.0217007769
 31
0.0
  0
LINE
  5
102
330
1F
100
AcDbEntity
  8
0
  6
Continuous
 62
     7
370
    15
100
AcDbLine
 10
243.5493370449
 20
247.0217007769
 30
0.0
 11
248.5493369331
 21
247.0217007769
 31
0.0
  0
LINE
  5
103
330
1F
100
AcDbEntity
  8
0
  6
Continuous
 62
     7
370
    15
100
AcDbLine
 10
248.5493369331
 20
247.0217007769
 30
0.0
 11
248.5493369331
 21
252.3717000706
 31
0.0
  0
CIRCLE
  5
104
330
1F
100
AcDbEntity
  8
0
  6
Continuous
 62
     7
370
    15
100
AcDbCircle
 10
246.049336989
 20
206.9467005653
 30
0.0
 40
4.0
  0
LINE
  5
105
330
1F
100
AcDbEntity
  8
0
  6
Continuous
 62
     7
370
    15
100
AcDbLine
 10
239.0493367729
 20
345.4467035455
 30
0.0
 11
239.0493367729
 21
195.446697585
 31
0.0
  0
LINE
  5
106
330
1F
100
AcDbEntity
  8
0
  6
Continuous
 62
     7
370
    15
100
AcDbLine
 10
253.0493372051
 20
345.4467035455
 30
0.0
 11
239.0493367729
 21
345.4467035455
 31
0.0
  0
LINE
  5
107
330
1F
100
AcDbEntity
  8
0
  6
Continuous
 62
     7
370
    15
100
AcDbLine
 10
253.0493372051
 20
195.446697585
 30
0.0
 11
253.0493372051
 21
345.4467035455
 31
0.0
  0
LINE
  5
108
330
1F
100
AcDbEntity
  8
0
  6
Continuous
 62
     7
370
    15
100
AcDbLine
 10
239.0493367729
 20
195.446697585
 30
0.0
 11
253.0493372051
 21
195.446697585
 31
0.0
  0
CIRCLE
  5
109
330
1F
100
AcDbEntity
  8
0
  6
Continuous
 62
     7
370
    15
100
AcDbCircle
 10
246.049336989
 20
333.9467005653
 30
0.0
 40
4.0
  0
LINE
  5
10A
330
1F
100
AcDbEntity
  8
0
  6
Continuous
 62
     7
370
    15
100
AcDbLine
 10
243.5493370449
 20
288.52170106
 30
0.0
 11
248.5493369331
 21
288.52170106
 31
0.0
  0
LINE
  5
10B
330
1F
100
AcDbEntity
  8
0
  6
Continuous
 62
     7
370
    15
100
AcDbLine
 10
248.5493369331
 20
288.52170106
 30
0.0
 11
248.5493369331
 21
293.8717003537
 31
0.0
  0
LINE
  5
10C
330
1F
100
AcDbEntity
  8
0
  6
Continuous
 62
     7
370
    15
100
AcDbLine
 10
248.5493369331
 20
293.8717003537
 30
0.0
 11
243.5493370449
 21
293.8717003537
 31
0.0
  0
LINE
  5
10D
330
1F
100
AcDbEntity
  8
0
  6
Continuous
 62
     7
370
    15
100
AcDbLine
 10
243.5493370449
 20
293.8717003537
 30
0.0
 11
243.5493370449
 21
288.52170106
 31
0.0
  0
CIRCLE
  5
10E
330
1F
100
AcDbEntity
  8
0
  6
Continuous
 62
     7
370
    15
100
AcDbCircle
 10
232.0497983041
 20
270.4460859249
 30
0.0
 40
4.0
  0
LINE
  5
10F
330
1F
100
AcDbEntity
  8
0
  6
Continuous
 62
     7
370
    15
100
AcDbLine
 10
234.5497982482
 20
252.3710854301
 30
0.0
 11
229.5497983599
 21
252.3710854301
 31
0.0
  0
LINE
  5
110
330
1F
100
AcDbEntity
  8
0
  6
Continuous
 62
     7
370
    15
100
AcDbLine
 10
229.5497983599
 20
252.3710854301
 30
0.0
 11
229.5497983599
 21
247.0210861365
 31
0.0
  0
LINE
  5
111
330
1F
100
AcDbEntity
  8
0
  6
Continuous
 62
     7
370
    15
100
AcDbLine
 10
229.5497983599
 20
247.0210861365
 30
0.0
 11
234.5497982482
 21
247.0210861365
 31
0.0
  0
LINE
  5
112
330
1F
100
AcDbEntity
  8
0
  6
Continuous
 62
     7
370
    15
100
AcDbLine
 10
234.5497982482
 20
247.0210861365
 30
0.0
 11
234.5497982482
 21
252.3710854301
 31
0.0
  0
CIRCLE
  5
113
330
1F
100
AcDbEntity
  8
0
  6
Continuous
 62
     7
370
    15
100
AcDbCircle
 10
232.0497983041
 20
206.9460859249
 30
0.0
 40
4.0
  0
LINE
  5
114
330
1F
100
AcDbEntity
  8
0
  6
Continuous
 62
     7
370
    15
100
AcDbLine
 10
225.049798088
 20
345.4460889051
 30
0.0
 11
225.049798088
 21
195.4460829446
 31
0.0
  0
LINE
  5
115
330
1F
100
AcDbEntity
  8
0
  6
Continuous
 62
     7
370
    15
100
AcDbLine
 10
239.0497985201
 20
345.4460889051
 30
0.0
 11
225.049798088
 21
345.4460889051
 31
0.0
  0
LINE
  5
116
330
1F
100
AcDbEntity
  8
0
  6
Continuous
 62
     7
370
    15
100
AcDbLine
 10
239.0497985201
 20
195.4460829446
 30
0.0
 11
239.0497985201
 21
345.4460889051
 31
0.0
  0
LINE
  5
117
330
1F
100
AcDbEntity
  8
0
  6
Continuous
 62
     7
370
    15
100
AcDbLine
 10
225.049798088
 20
195.4460829446
 30
0.0
 11
239.0497985201
 21
195.4460829446
 31
0.0
  0
CIRCLE
  5
118
330
1F
100
AcDbEntity
  8
0
  6
Continuous
 62
     7
370
    15
100
AcDbCircle
 10
232.0497983041
 20
333.9460859249
 30
0.0
 40
4.0
  0
LINE
  5
119
330
1F
100
AcDbEntity
  8
0
  6
Continuous
 62
     7
370
    15
100
AcDbLine
 10
229.5497983599
 20
288.5210864196
 30
0.0
 11
234.5497982482
 21
288.5210864196
 31
0.0
  0
LINE
  5
11A
330
1F
100
AcDbEntity
  8
0
  6
Continuous
 62
     7
370
    15
100
AcDbLine
 10
234.5497982482
 20
288.5210864196
 30
0.0
 11
234.5497982482
 21
293.8710857133
 31
0.0
  0
LINE
  5
11B
330
1F
100
AcDbEntity
  8
0
  6
Continuous
 62
     7
370
    15
100
AcDbLine
 10
234.5497982482
 20
293.8710857133
 30
0.0
 11
229.5497983599
 21
293.8710857133
 31
0.0
  0
LINE
  5
11C
330
1F
100
AcDbEntity
  8
0
  6
Continuous
 62
     7
370
    15
100
AcDbLine
 10
229.5497983599
 20
293.8710857133
 30
0.0
 11
229.5497983599
 21
288.5210864196
 31
0.0
  0
CIRCLE
  5
11D
330
1F
100
AcDbEntity
  8
0
  6
Continuous
 62
     7
370
    15
100
AcDbCircle
 10
260.0493745112
 20
270.4465227353
 30
0.0
 40
4.0
  0
LINE
  5
11E
330
1F
100
AcDbEntity
  8
0
  6
Continuous
 62
     7
370
    15
100
AcDbLine
 10
262.5493744553
 20
252.3715222406
 30
0.0
 11
257.5493745671
 21
252.3715222406
 31
0.0
  0
LINE
  5
11F
330
1F
100
AcDbEntity
  8
0
  6
Continuous
 62
     7
370
    15
100
AcDbLine
 10
257.5493745671
 20
252.3715222406
 30
0.0
 11
257.5493745671
 21
247.0215229469
 31
0.0
  0
LINE
  5
120
330
1F
100
AcDbEntity
  8
0
  6
Continuous
 62
     7
370
    15
100
AcDbLine
 10
257.5493745671
 20
247.0215229469
 30
0.0
 11
262.5493744553
 21
247.0215229469
 31
0.0
  0
LINE
  5
121
330
1F
100
AcDbEntity
  8
0
  6
Continuous
 62
     7
370
    15
100
AcDbLine
 10
262.5493744553
 20
247.0215229469
 30
0.0
 11
262.5493744553
 21
252.3715222406
 31
0.0
  0
CIRCLE
  5
122
330
1F
100
AcDbEntity
  8
0
  6
Continuous
 62
     7
370
    15
100
AcDbCircle
 10
260.0493745112
 20
206.9465227353
 30
0.0
 40
4.0
  0
LINE
  5
123
330
1F
100
AcDbEntity
  8
0
  6
Continuous
 62
     7
370
    15
100
AcDbLine
 10
253.0493742951
 20
345.4465257155
 30
0.0
 11
253.0493742951
 21
195.446519755
 31
0.0
  0
LINE
  5
124
330
1F
100
AcDbEntity
  8
0
  6
Continuous
 62
     7
370
    15
100
AcDbLine
 10
267.0493747273
 20
345.4465257155
 30
0.0
 11
253.0493742951
 21
345.4465257155
 31
0.0
  0
LINE
  5
125
330
1F
100
AcDbEntity
  8
0
  6
Continuous
 62
     7
370
    15
100
AcDbLine
 10
267.0493747273
 20
195.446519755
 30
0.0
 11
267.0493747273
 21
345.4465257155
 31
0.0
  0
LINE
  5
126
330
1F
100
AcDbEntity
  8
0
  6
Continuous
 62
     7
370
    15
100
AcDbLine
 10
253.0493742951
 20
195.446519755
 30
0.0
 11
267.0493747273
 21
195.446519755
 31
0.0
  0
CIRCLE
  5
127
330
1F
100
AcDbEntity
  8
0
  6
Continuous
 62
     7
370
    15
100
AcDbCircle
 10
260.0493745112
 20
333.9465227353
 30
0.0
 40
4.0
  0
LINE
  5
128
330
1F
100
AcDbEntity
  8
0
  6
Continuous
 62
     7
370
    15
100
AcDbLine
 10
257.5493745671
 20
288.52152323
 30
0.0
 11
262.5493744553
 21
288.52152323
 31
0.0
  0
LINE
  5
129
330
1F
100
AcDbEntity
  8
0
  6
Continuous
 62
     7
370
    15
100
AcDbLine
 10
262.5493744553
 20
288.52152323
 30
0.0
 11
262.5493744553
 21
293.8715225237
 31
0.0
  0
LINE
  5
12A
330
1F
100
AcDbEntity
  8
0
  6
Continuous
 62
     7
370
    15
100
AcDbLine
 10
262.5493744553
 20
293.8715225237
 30
0.0
 11
257.5493745671
 21
293.8715225237
 31
0.0
  0
LINE
  5
12B
330
1F
100
AcDbEntity
  8
0
  6
Continuous
 62
     7
370
    15
100
AcDbLine
 10
257.5493745671
 20
293.8715225237
 30
0.0
 11
257.5493745671
 21
288.52152323
 31
0.0
  0
CIRCLE
  5
12C
330
1F
100
AcDbEntity
  8
0
  6
Continuous
 62
     7
370
    15
100
AcDbCircle
 10
274.0491218909
 20
270.4450689914
 30
0.0
 40
4.0
  0
LINE
  5
12D
330
1F
100
AcDbEntity
  8
0
  6
Continuous
 62
     7
370
    15
100
AcDbLine
 10
276.549121835
 20
252.3700684967
 30
0.0
 11
271.5491219468
 21
252.3700684967
 31
0.0
  0
LINE
  5
12E
330
1F
100
AcDbEntity
  8
0
  6
Continuous
 62
     7
370
    15
100
AcDbLine
 10
271.5491219468
 20
252.3700684967
 30
0.0
 11
271.5491219468
 21
247.020069203
 31
0.0
  0
LINE
  5
12F
330
1F
100
AcDbEntity
  8
0
  6
Continuous
 62
     7
370
    15
100
AcDbLine
 10
271.5491219468
 20
247.020069203
 30
0.0
 11
276.549121835
 21
247.020069203
 31
0.0
  0
LINE
  5
130
330
1F
100
AcDbEntity
  8
0
  6
Continuous
 62
     7
370
    15
100
AcDbLine
 10
276.549121835
 20
247.020069203
 30
0.0
 11
276.549121835
 21
252.3700684967
 31
0.0
  0
CIRCLE
  5
131
330
1F
100
AcDbEntity
  8
0
  6
Continuous
 62
     7
370
    15
100
AcDbCircle
 10
274.0491218909
 20
206.9450689914
 30
0.0
 40
4.000000000000028
  0
LINE
  5
132
330
1F
100
AcDbEntity
  8
0
  6
Continuous
 62
     7
370
    15
100
AcDbLine
 10
267.0491216748
 20
345.4450719716
 30
0.0
 11
267.0491216748
 21
195.4450660112
 31
0.0
  0
LINE
  5
133
330
1F
100
AcDbEntity
  8
0
  6
Continuous
 62
     7
370
    15
100
AcDbLine
 10
281.049122107
 20
345.4450719716
 30
0.0
 11
267.0491216748
 21
345.4450719716
 31
0.0
  0
LINE
  5
134
330
1F
100
AcDbEntity
  8
0
  6
Continuous
 62
     7
370
    15
100
AcDbLine
 10
281.049122107
 20
195.4450660112
 30
0.0
 11
281.049122107
 21
345.4450719716
 31
0.0
  0
LINE
  5
135
330
1F
100
AcDbEntity
  8
0
  6
Continuous
 62
     7
370
    15
100
AcDbLine
 10
267.0491216748
 20
195.4450660112
 30
0.0
 11
281.049122107
 21
195.4450660112
 31
0.0
  0
CIRCLE
  5
136
330
1F
100
AcDbEntity
  8
0
  6
Continuous
 62
     7
370
    15
100
AcDbCircle
 10
274.0491218909
 20
333.9450689914
 30
0.0
 40
4.0
  0
LINE
  5
137
330
1F
100
AcDbEntity
  8
0
  6
Continuous
 62
     7
370
    15
100
AcDbLine
 10
271.5491219468
 20
288.5200694861
 30
0.0
 11
276.549121835
 21
288.5200694861
 31
0.0
  0
LINE
  5
138
330
1F
100
AcDbEntity
  8
0
  6
Continuous
 62
     7
370
    15
100
AcDbLine
 10
276.549121835
 20
288.5200694861
 30
0.0
 11
276.549121835
 21
293.8700687798
 31
0.0
  0
LINE
  5
139
330
1F
100
AcDbEntity
  8
0
  6
Continuous
 62
     7
370
    15
100
AcDbLine
 10
276.549121835
 20
293.8700687798
 30
0.0
 11
271.5491219468
 21
293.8700687798
 31
0.0
  0
LINE
  5
13A
330
1F
100
AcDbEntity
  8
0
  6
Continuous
 62
     7
370
    15
100
AcDbLine
 10
271.5491219468
 20
293.8700687798
 30
0.0
 11
271.5491219468
 21
288.5200694861
 31
0.0
  0
CIRCLE
  5
13B
330
1F
100
AcDbEntity
  8
0
  6
Continuous
 62
     7
370
    15
100
AcDbCircle
 10
288.0492438222
 20
270.445166708
 30
0.0
 40
4.000000000000057
  0
LINE
  5
13C
330
1F
100
AcDbEntity
  8
0
  6
Continuous
 62
     7
370
    15
100
AcDbLine
 10
290.5492437664
 20
252.3701662132
 30
0.0
 11
285.5492438781
 21
252.3701662132
 31
0.0
  0
LINE
  5
13D
330
1F
100
AcDbEntity
  8
0
  6
Continuous
 62
     7
370
    15
100
AcDbLine
 10
285.5492438781
 20
252.3701662132
 30
0.0
 11
285.5492438781
 21
247.0201669196
 31
0.0
  0
LINE
  5
13E
330
1F
100
AcDbEntity
  8
0
  6
Continuous
 62
     7
370
    15
100
AcDbLine
 10
285.5492438781
 20
247.0201669196
 30
0.0
 11
290.5492437664
 21
247.0201669196
 31
0.0
  0
LINE
  5
13F
330
1F
100
AcDbEntity
  8
0
  6
Continuous
 62
     7
370
    15
100
AcDbLine
 10
290.5492437664
 20
247.0201669196
 30
0.0
 11
290.5492437664
 21
252.3701662132
 31
0.0
  0
CIRCLE
  5
140
330
1F
100
AcDbEntity
  8
0
  6
Continuous
 62
     7
370
    15
100
AcDbCircle
 10
288.0492438222
 20
206.945166708
 30
0.0
 40
4.0
  0
LINE
  5
141
330
1F
100
AcDbEntity
  8
0
  6
Continuous
 62
     7
370
    15
100
AcDbLine
 10
281.0492436062
 20
345.4451696882
 30
0.0
 11
281.0492436062
 21
195.4451637277
 31
0.0
  0
LINE
  5
142
330
1F
100
AcDbEntity
  8
0
  6
Continuous
 62
     7
370
    15
100
AcDbLine
 10
295.0492440383
 20
345.4451696882
 30
0.0
 11
281.0492436062
 21
345.4451696882
 31
0.0
  0
LINE
  5
143
330
1F
100
AcDbEntity
  8
0
  6
Continuous
 62
     7
370
    15
100
AcDbLine
 10
295.0492440383
 20
195.4451637277
 30
0.0
 11
295.0492440383
 21
345.4451696882
 31
0.0
  0
LINE
  5
144
330
1F
100
AcDbEntity
  8
0
  6
Continuous
 62
     7
370
    15
100
AcDbLine
 10
281.0492436062
 20
195.4451637277
 30
0.0
 11
295.0492440383
 21
195.4451637277
 31
0.0
  0
CIRCLE
  5
145
330
1F
100
AcDbEntity
  8
0
  6
Continuous
 62
     7
370
    15
100
AcDbCircle
 10
288.0492438222
 20
333.945166708
 30
0.0
 40
4.0
  0
LINE
  5
146
330
1F
100
AcDbEntity
  8
0
  6
Continuous
 62
     7
370
    15
100
AcDbLine
 10
285.5492438781
 20
288.5201672027
 30
0.0
 11
290.5492437664
 21
288.5201672027
 31
0.0
  0
LINE
  5
147
330
1F
100
AcDbEntity
  8
0
  6
Continuous
 62
     7
370
    15
100
AcDbLine
 10
290.5492437664
 20
288.5201672027
 30
0.0
 11
290.5492437664
 21
293.8701664964
 31
0.0
  0
LINE
  5
148
330
1F
100
AcDbEntity
  8
0
  6
Continuous
 62
     7
370
    15
100
AcDbLine
 10
290.5492437664
 20
293.8701664964
 30
0.0
 11
285.5492438781
 21
293.8701664964
 31
0.0
  0
LINE
  5
149
330
1F
100
AcDbEntity
  8
0
  6
Continuous
 62
     7
370
    15
100
AcDbLine
 10
285.5492438781
 20
293.8701664964
 30
0.0
 11
285.5492438781
 21
288.5201672027
 31
0.0
  0
CIRCLE
  5
14A
330
1F
100
AcDbEntity
  8
0
  6
Continuous
 62
     7
370
    15
100
AcDbCircle
 10
204.7359916895
 20
182.8473587636
 30
0.0
 40
4.0
  0
CIRCLE
  5
14B
330
1F
100
AcDbEntity
  8
0
  6
Continuous
 62
     7
370
    15
100
AcDbCircle
 10
204.7359916895
 20
55.8473587636
 30
0.0
 40
4.0
  0
LINE
  5
14C
330
1F
100
AcDbEntity
  8
0
  6
Continuous
 62
     7
370
    15
100
AcDbLine
 10
207.2359918832
 20
142.7723574344
 30
0.0
 11
202.235991995
 21
142.7723574344
 31
0.0
  0
LINE
  5
14D
330
1F
100
AcDbEntity
  8
0
  6
Continuous
 62
     7
370
    15
100
AcDbLine
 10
202.235991995
 20
142.7723574344
 30
0.0
 11
202.235991995
 21
137.4223600033
 31
0.0
  0
LINE
  5
14E
330
1F
100
AcDbEntity
  8
0
  6
Continuous
 62
     7
370
    15
100
AcDbLine
 10
202.235991995
 20
137.4223600033
 30
0.0
 11
207.2359918832
 21
137.4223600033
 31
0.0
  0
LINE
  5
14F
330
1F
100
AcDbEntity
  8
0
  6
Continuous
 62
     7
370
    15
100
AcDbLine
 10
207.2359918832
 20
137.4223600033
 30
0.0
 11
207.2359918832
 21
142.7723574344
 31
0.0
  0
LINE
  5
150
330
1F
100
AcDbEntity
  8
0
  6
Continuous
 62
     7
370
    15
100
AcDbLine
 10
197.7359912574
 20
66.8473611478
 30
0.0
 11
197.7359912574
 21
44.3473528031
 31
0.0
  0
LINE
  5
151
330
1F
100
AcDbEntity
  8
0
  6
Continuous
 62
     7
370
    15
100
AcDbLine
 10
192.3859919637
 20
66.8473611478
 30
0.0
 11
197.7359912574
 21
66.8473611478
 31
0.0
  0
LINE
  5
152
330
1F
100
AcDbEntity
  8
0
  6
Continuous
 62
     7
370
    15
100
AcDbLine
 10
192.3859919637
 20
86.8473569754
 30
0.0
 11
192.3859919637
 21
66.8473611478
 31
0.0
  0
LINE
  5
153
330
1F
100
AcDbEntity
  8
0
  6
Continuous
 62
     7
370
    15
100
AcDbLine
 10
197.7359912574
 20
86.8473569754
 30
0.0
 11
192.3859919637
 21
86.8473569754
 31
0.0
  0
LINE
  5
154
330
1F
100
AcDbEntity
  8
0
  6
Continuous
 62
     7
370
    15
100
AcDbLine
 10
197.7359912574
 20
109.3473578695
 30
0.0
 11
197.7359912574
 21
86.8473569754
 31
0.0
  0
LINE
  5
155
330
1F
100
AcDbEntity
  8
0
  6
Continuous
 62
     7
370
    15
100
AcDbLine
 10
192.3859919637
 20
109.3473578695
 30
0.0
 11
197.7359912574
 21
109.3473578695
 31
0.0
  0
LINE
  5
156
330
1F
100
AcDbEntity
  8
0
  6
Continuous
 62
     7
370
    15
100
AcDbLine
 10
192.3859919637
 20
129.3473611478
 30
0.0
 11
192.3859919637
 21
109.3473578695
 31
0.0
  0
LINE
  5
157
330
1F
100
AcDbEntity
  8
0
  6
Continuous
 62
     7
370
    15
100
AcDbLine
 10
197.7359912574
 20
129.3473611478
 30
0.0
 11
192.3859919637
 21
129.3473611478
 31
0.0
  0
LINE
  5
158
330
1F
100
AcDbEntity
  8
0
  6
Continuous
 62
     7
370
    15
100
AcDbLine
 10
197.7359912574
 20
151.8473583165
 30
0.0
 11
197.7359912574
 21
129.3473611478
 31
0.0
  0
LINE
  5
159
330
1F
100
AcDbEntity
  8
0
  6
Continuous
 62
     7
370
    15
100
AcDbLine
 10
192.3859919637
 20
151.8473583165
 30
0.0
 11
197.7359912574
 21
151.8473583165
 31
0.0
  0
LINE
  5
15A
330
1F
100
AcDbEntity
  8
0
  6
Continuous
 62
     7
370
    15
100
AcDbLine
 10
192.3859919637
 20
171.8473578695
 30
0.0
 11
192.3859919637
 21
151.8473583165
 31
0.0
  0
LINE
  5
15B
330
1F
100
AcDbEntity
  8
0
  6
Continuous
 62
     7
370
    15
100
AcDbLine
 10
197.7359912574
 20
171.8473578695
 30
0.0
 11
192.3859919637
 21
171.8473578695
 31
0.0
  0
LINE
  5
15C
330
1F
100
AcDbEntity
  8
0
  6
Continuous
 62
     7
370
    15
100
AcDbLine
 10
197.7359912574
 20
194.3473587636
 30
0.0
 11
197.7359912574
 21
171.8473578695
 31
0.0
  0
LINE
  5
15D
330
1F
100
AcDbEntity
  8
0
  6
Continuous
 62
     7
370
    15
100
AcDbLine
 10
211.7359916895
 20
194.3473587636
 30
0.0
 11
197.7359912574
 21
194.3473587636
 31
0.0
  0
LINE
  5
15E
330
1F
100
AcDbEntity
  8
0
  6
Continuous
 62
     7
370
    15
100
AcDbLine
 10
211.7359916895
 20
44.3473528031
 30
0.0
 11
211.7359916895
 21
194.3473587636
 31
0.0
  0
LINE
  5
15F
330
1F
100
AcDbEntity
  8
0
  6
Continuous
 62
     7
370
    15
100
AcDbLine
 10
197.7359912574
 20
44.3473528031
 30
0.0
 11
211.7359916895
 21
44.3473528031
 31
0.0
  0
LINE
  5
160
330
1F
100
AcDbEntity
  8
0
  6
Continuous
 62
     7
370
    15
100
AcDbLine
 10
202.235991995
 20
95.9223578576
 30
0.0
 11
207.2359918832
 21
95.9223578576
 31
0.0
  0
LINE
  5
161
330
1F
100
AcDbEntity
  8
0
  6
Continuous
 62
     7
370
    15
100
AcDbLine
 10
207.2359918832
 20
95.9223578576
 30
0.0
 11
207.2359918832
 21
101.2723590139
 31
0.0
  0
LINE
  5
162
330
1F
100
AcDbEntity
  8
0
  6
Continuous
 62
     7
370
    15
100
AcDbLine
 10
207.2359918832
 20
101.2723590139
 30
0.0
 11
202.235991995
 21
101.2723590139
 31
0.0
  0
LINE
  5
163
330
1F
100
AcDbEntity
  8
0
  6
Continuous
 62
     7
370
    15
100
AcDbLine
 10
202.235991995
 20
101.2723590139
 30
0.0
 11
202.235991995
 21
95.9223578576
 31
0.0
  0
LINE
  5
164
330
1F
100
AcDbEntity
  8
0
  6
Continuous
 62
     7
370
    15
100
AcDbLine
 10
210.2359916765
 20
122.5227857832
 30
0.0
 11
204.7359914734
 21
125.6982083324
 31
0.0
  0
LINE
  5
165
330
1F
100
AcDbEntity
  8
0
  6
Continuous
 62
     7
370
    15
100
AcDbLine
 10
204.7359914734
 20
125.6982083324
 30
0.0
 11
199.2359915032
 21
122.5227857832
 31
0.0
  0
LINE
  5
166
330
1F
100
AcDbEntity
  8
0
  6
Continuous
 62
     7
370
    15
100
AcDbLine
 10
199.2359915032
 20
122.5227857832
 30
0.0
 11
199.2359915032
 21
116.1719332341
 31
0.0
  0
LINE
  5
167
330
1F
100
AcDbEntity
  8
0
  6
Continuous
 62
     7
370
    15
100
AcDbLine
 10
199.2359915032
 20
116.1719332341
 30
0.0
 11
204.7359914734
 21
112.9965032343
 31
0.0
  0
LINE
  5
168
330
1F
100
AcDbEntity
  8
0
  6
Continuous
 62
     7
370
    15
100
AcDbLine
 10
204.7359914734
 20
112.9965032343
 30
0.0
 11
210.2359916765
 21
116.1719332341
 31
0.0
  0
LINE
  5
169
330
1F
100
AcDbEntity
  8
0
  6
Continuous
 62
     7
370
    15
100
AcDbLine
 10
210.2359916765
 20
116.1719332341
 30
0.0
 11
210.2359916765
 21
122.5227857832
 31
0.0
  0
CIRCLE
  5
16A
330
1F
100
AcDbEntity
  8
0
  6
Continuous
 62
     7
370
    15
100
AcDbCircle
 10
218.736024879
 20
55.8473852134
 30
0.0
 40
3.999999999999993
  0
CIRCLE
  5
16B
330
1F
100
AcDbEntity
  8
0
  6
Continuous
 62
     7
370
    15
100
AcDbCircle
 10
218.736024879
 20
182.8473852134
 30
0.0
 40
4.0
  0
LINE
  5
16C
330
1F
100
AcDbEntity
  8
0
  6
Continuous
 62
     7
370
    15
100
AcDbLine
 10
216.2360246853
 20
95.9223865426
 30
0.0
 11
221.2360245735
 21
95.9223865426
 31
0.0
  0
LINE
  5
16D
330
1F
100
AcDbEntity
  8
0
  6
Continuous
 62
     7
370
    15
100
AcDbLine
 10
221.2360245735
 20
95.9223865426
 30
0.0
 11
221.2360245735
 21
101.2723839736
 31
0.0
  0
LINE
  5
16E
330
1F
100
AcDbEntity
  8
0
  6
Continuous
 62
     7
370
    15
100
AcDbLine
 10
221.2360245735
 20
101.2723839736
 30
0.0
 11
216.2360246853
 21
101.2723839736
 31
0.0
  0
LINE
  5
16F
330
1F
100
AcDbEntity
  8
0
  6
Continuous
 62
     7
370
    15
100
AcDbLine
 10
216.2360246853
 20
101.2723839736
 30
0.0
 11
216.2360246853
 21
95.9223865426
 31
0.0
  0
LINE
  5
170
330
1F
100
AcDbEntity
  8
0
  6
Continuous
 62
     7
370
    15
100
AcDbLine
 10
225.7360253111
 20
171.8473828292
 30
0.0
 11
225.7360253111
 21
194.3473911738
 31
0.0
  0
LINE
  5
171
330
1F
100
AcDbEntity
  8
0
  6
Continuous
 62
     7
370
    15
100
AcDbLine
 10
231.0860246048
 20
171.8473828292
 30
0.0
 11
225.7360253111
 21
171.8473828292
 31
0.0
  0
LINE
  5
172
330
1F
100
AcDbEntity
  8
0
  6
Continuous
 62
     7
370
    15
100
AcDbLine
 10
231.0860246048
 20
151.8473870015
 30
0.0
 11
231.0860246048
 21
171.8473828292
 31
0.0
  0
LINE
  5
173
330
1F
100
AcDbEntity
  8
0
  6
Continuous
 62
     7
370
    15
100
AcDbLine
 10
225.7360253111
 20
151.8473870015
 30
0.0
 11
231.0860246048
 21
151.8473870015
 31
0.0
  0
LINE
  5
174
330
1F
100
AcDbEntity
  8
0
  6
Continuous
 62
     7
370
    15
100
AcDbLine
 10
225.7360253111
 20
129.3473861074
 30
0.0
 11
225.7360253111
 21
151.8473870015
 31
0.0
  0
LINE
  5
175
330
1F
100
AcDbEntity
  8
0
  6
Continuous
 62
     7
370
    15
100
AcDbLine
 10
231.0860246048
 20
129.3473861074
 30
0.0
 11
225.7360253111
 21
129.3473861074
 31
0.0
  0
LINE
  5
176
330
1F
100
AcDbEntity
  8
0
  6
Continuous
 62
     7
370
    15
100
AcDbLine
 10
231.0860246048
 20
109.3473828292
 30
0.0
 11
231.0860246048
 21
129.3473861074
 31
0.0
  0
LINE
  5
177
330
1F
100
AcDbEntity
  8
0
  6
Continuous
 62
     7
370
    15
100
AcDbLine
 10
225.7360253111
 20
109.3473828292
 30
0.0
 11
231.0860246048
 21
109.3473828292
 31
0.0
  0
LINE
  5
178
330
1F
100
AcDbEntity
  8
0
  6
Continuous
 62
     7
370
    15
100
AcDbLine
 10
225.7360253111
 20
86.8473856604
 30
0.0
 11
225.7360253111
 21
109.3473828292
 31
0.0
  0
LINE
  5
179
330
1F
100
AcDbEntity
  8
0
  6
Continuous
 62
     7
370
    15
100
AcDbLine
 10
231.0860246048
 20
86.8473856604
 30
0.0
 11
225.7360253111
 21
86.8473856604
 31
0.0
  0
LINE
  5
17A
330
1F
100
AcDbEntity
  8
0
  6
Continuous
 62
     7
370
    15
100
AcDbLine
 10
231.0860246048
 20
66.8473861074
 30
0.0
 11
231.0860246048
 21
86.8473856604
 31
0.0
  0
LINE
  5
17B
330
1F
100
AcDbEntity
  8
0
  6
Continuous
 62
     7
370
    15
100
AcDbLine
 10
225.7360253111
 20
66.8473861074
 30
0.0
 11
231.0860246048
 21
66.8473861074
 31
0.0
  0
LINE
  5
17C
330
1F
100
AcDbEntity
  8
0
  6
Continuous
 62
     7
370
    15
100
AcDbLine
 10
225.7360253111
 20
44.3473852134
 30
0.0
 11
225.7360253111
 21
66.8473861074
 31
0.0
  0
LINE
  5
17D
330
1F
100
AcDbEntity
  8
0
  6
Continuous
 62
     7
370
    15
100
AcDbLine
 10
211.736024879
 20
44.3473852134
 30
0.0
 11
225.7360253111
 21
44.3473852134
 31
0.0
  0
LINE
  5
17E
330
1F
100
AcDbEntity
  8
0
  6
Continuous
 62
     7
370
    15
100
AcDbLine
 10
211.736024879
 20
194.3473911738
 30
0.0
 11
211.736024879
 21
44.3473852134
 31
0.0
  0
LINE
  5
17F
330
1F
100
AcDbEntity
  8
0
  6
Continuous
 62
     7
370
    15
100
AcDbLine
 10
225.7360253111
 20
194.3473911738
 30
0.0
 11
211.736024879
 21
194.3473911738
 31
0.0
  0
LINE
  5
180
330
1F
100
AcDbEntity
  8
0
  6
Continuous
 62
     7
370
    15
100
AcDbLine
 10
221.2360245735
 20
142.7723861194
 30
0.0
 11
216.2360246853
 21
142.7723861194
 31
0.0
  0
LINE
  5
181
330
1F
100
AcDbEntity
  8
0
  6
Continuous
 62
     7
370
    15
100
AcDbLine
 10
216.2360246853
 20
142.7723861194
 30
0.0
 11
216.2360246853
 21
137.422384963
 31
0.0
  0
LINE
  5
182
330
1F
100
AcDbEntity
  8
0
  6
Continuous
 62
     7
370
    15
100
AcDbLine
 10
216.2360246853
 20
137.422384963
 30
0.0
 11
221.2360245735
 21
137.422384963
 31
0.0
  0
LINE
  5
183
330
1F
100
AcDbEntity
  8
0
  6
Continuous
 62
     7
370
    15
100
AcDbLine
 10
221.2360245735
 20
137.422384963
 30
0.0
 11
221.2360245735
 21
142.7723861194
 31
0.0
  0
LINE
  5
184
330
1F
100
AcDbEntity
  8
0
  6
Continuous
 62
     7
370
    15
100
AcDbLine
 10
213.236024892
 20
116.1719581938
 30
0.0
 11
218.7360250951
 21
112.9965356445
 31
0.0
  0
LINE
  5
185
330
1F
100
AcDbEntity
  8
0
  6
Continuous
 62
     7
370
    15
100
AcDbLine
 10
218.7360250951
 20
112.9965356445
 30
0.0
 11
224.2360250653
 21
116.1719581938
 31
0.0
  0
LINE
  5
186
330
1F
100
AcDbEntity
  8
0
  6
Continuous
 62
     7
370
    15
100
AcDbLine
 10
224.2360250653
 20
116.1719581938
 30
0.0
 11
224.2360250653
 21
122.5228107428
 31
0.0
  0
LINE
  5
187
330
1F
100
AcDbEntity
  8
0
  6
Continuous
 62
     7
370
    15
100
AcDbLine
 10
224.2360250653
 20
122.5228107428
 30
0.0
 11
218.7360250951
 21
125.6982407427
 31
0.0
  0
LINE
  5
188
330
1F
100
AcDbEntity
  8
0
  6
Continuous
 62
     7
370
    15
100
AcDbLine
 10
218.7360250951
 20
125.6982407427
 30
0.0
 11
213.236024892
 21
122.5228107428
 31
0.0
  0
LINE
  5
189
330
1F
100
AcDbEntity
  8
0
  6
Continuous
 62
     7
370
    15
100
AcDbLine
 10
213.236024892
 20
122.5228107428
 30
0.0
 11
213.236024892
 21
116.1719581938
 31
0.0
  0
CIRCLE
  5
18A
330
1F
100
AcDbEntity
  8
0
  6
Continuous
 62
     7
370
    15
100
AcDbCircle
 10
243.4359397532
 20
182.8474587773
 30
0.0
 40
3.999999999999972
  0
CIRCLE
  5
18B
330
1F
100
AcDbEntity
  8
0
  6
Continuous
 62
     7
370
    15
100
AcDbCircle
 10
243.4359397532
 20
55.8474587773
 30
0.0
 40
4.000000000000007
  0
LINE
  5
18C
330
1F
100
AcDbEntity
  8
0
  6
Continuous
 62
     7
370
    15
100
AcDbLine
 10
245.9359399469
 20
142.7724574481
 30
0.0
 11
240.9359400587
 21
142.7724574481
 31
0.0
  0
LINE
  5
18D
330
1F
100
AcDbEntity
  8
0
  6
Continuous
 62
     7
370
    15
100
AcDbLine
 10
240.9359400587
 20
142.7724574481
 30
0.0
 11
240.9359400587
 21
137.4224600171
 31
0.0
  0
LINE
  5
18E
330
1F
100
AcDbEntity
  8
0
  6
Continuous
 62
     7
370
    15
100
AcDbLine
 10
240.9359400587
 20
137.4224600171
 30
0.0
 11
245.9359399469
 21
137.4224600171
 31
0.0
  0
LINE
  5
18F
330
1F
100
AcDbEntity
  8
0
  6
Continuous
 62
     7
370
    15
100
AcDbLine
 10
245.9359399469
 20
137.4224600171
 30
0.0
 11
245.9359399469
 21
142.7724574481
 31
0.0
  0
LINE
  5
190
330
1F
100
AcDbEntity
  8
0
  6
Continuous
 62
     7
370
    15
100
AcDbLine
 10
236.4359393211
 20
66.8474611615
 30
0.0
 11
236.4359393211
 21
44.3474528168
 31
0.0
  0
LINE
  5
191
330
1F
100
AcDbEntity
  8
0
  6
Continuous
 62
     7
370
    15
100
AcDbLine
 10
231.0859400274
 20
66.8474611615
 30
0.0
 11
236.4359393211
 21
66.8474611615
 31
0.0
  0
LINE
  5
192
330
1F
100
AcDbEntity
  8
0
  6
Continuous
 62
     7
370
    15
100
AcDbLine
 10
231.0859400274
 20
86.8474569891
 30
0.0
 11
231.0859400274
 21
66.8474611615
 31
0.0
  0
LINE
  5
193
330
1F
100
AcDbEntity
  8
0
  6
Continuous
 62
     7
370
    15
100
AcDbLine
 10
236.4359393211
 20
86.8474569891
 30
0.0
 11
231.0859400274
 21
86.8474569891
 31
0.0
  0
LINE
  5
194
330
1F
100
AcDbEntity
  8
0
  6
Continuous
 62
     7
370
    15
100
AcDbLine
 10
236.4359393211
 20
109.3474578832
 30
0.0
 11
236.4359393211
 21
86.8474569891
 31
0.0
  0
LINE
  5
195
330
1F
100
AcDbEntity
  8
0
  6
Continuous
 62
     7
370
    15
100
AcDbLine
 10
231.0859400274
 20
109.3474578832
 30
0.0
 11
236.4359393211
 21
109.3474578832
 31
0.0
  0
LINE
  5
196
330
1F
100
AcDbEntity
  8
0
  6
Continuous
 62
     7
370
    15
100
AcDbLine
 10
231.0859400274
 20
129.3474611615
 30
0.0
 11
231.0859400274
 21
109.3474578832
 31
0.0
  0
LINE
  5
197
330
1F
100
AcDbEntity
  8
0
  6
Continuous
 62
     7
370
    15
100
AcDbLine
 10
236.4359393211
 20
129.3474611615
 30
0.0
 11
231.0859400274
 21
129.3474611615
 31
0.0
  0
LINE
  5
198
330
1F
100
AcDbEntity
  8
0
  6
Continuous
 62
     7
370
    15
100
AcDbLine
 10
236.4359393211
 20
151.8474583303
 30
0.0
 11
236.4359393211
 21
129.3474611615
 31
0.0
  0
LINE
  5
199
330
1F
100
AcDbEntity
  8
0
  6
Continuous
 62
     7
370
    15
100
AcDbLine
 10
231.0859400274
 20
151.8474583303
 30
0.0
 11
236.4359393211
 21
151.8474583303
 31
0.0
  0
LINE
  5
19A
330
1F
100
AcDbEntity
  8
0
  6
Continuous
 62
     7
370
    15
100
AcDbLine
 10
231.0859400274
 20
171.8474578832
 30
0.0
 11
231.0859400274
 21
151.8474583303
 31
0.0
  0
LINE
  5
19B
330
1F
100
AcDbEntity
  8
0
  6
Continuous
 62
     7
370
    15
100
AcDbLine
 10
236.4359393211
 20
171.8474578832
 30
0.0
 11
231.0859400274
 21
171.8474578832
 31
0.0
  0
LINE
  5
19C
330
1F
100
AcDbEntity
  8
0
  6
Continuous
 62
     7
370
    15
100
AcDbLine
 10
236.4359393211
 20
194.3474587773
 30
0.0
 11
236.4359393211
 21
171.8474578832
 31
0.0
  0
LINE
  5
19D
330
1F
100
AcDbEntity
  8
0
  6
Continuous
 62
     7
370
    15
100
AcDbLine
 10
250.4359397532
 20
194.3474587773
 30
0.0
 11
236.4359393211
 21
194.3474587773
 31
0.0
  0
LINE
  5
19E
330
1F
100
AcDbEntity
  8
0
  6
Continuous
 62
     7
370
    15
100
AcDbLine
 10
250.4359397532
 20
44.3474528168
 30
0.0
 11
250.4359397532
 21
194.3474587773
 31
0.0
  0
LINE
  5
19F
330
1F
100
AcDbEntity
  8
0
  6
Continuous
 62
     7
370
    15
100
AcDbLine
 10
236.4359393211
 20
44.3474528168
 30
0.0
 11
250.4359397532
 21
44.3474528168
 31
0.0
  0
LINE
  5
1A0
330
1F
100
AcDbEntity
  8
0
  6
Continuous
 62
     7
370
    15
100
AcDbLine
 10
240.9359400587
 20
95.9224578713
 30
0.0
 11
245.9359399469
 21
95.9224578713
 31
0.0
  0
LINE
  5
1A1
330
1F
100
AcDbEntity
  8
0
  6
Continuous
 62
     7
370
    15
100
AcDbLine
 10
245.9359399469
 20
95.9224578713
 30
0.0
 11
245.9359399469
 21
101.2724590276
 31
0.0
  0
LINE
  5
1A2
330
1F
100
AcDbEntity
  8
0
  6
Continuous
 62
     7
370
    15
100
AcDbLine
 10
245.9359399469
 20
101.2724590276
 30
0.0
 11
240.9359400587
 21
101.2724590276
 31
0.0
  0
LINE
  5
1A3
330
1F
100
AcDbEntity
  8
0
  6
Continuous
 62
     7
370
    15
100
AcDbLine
 10
240.9359400587
 20
101.2724590276
 30
0.0
 11
240.9359400587
 21
95.9224578713
 31
0.0
  0
LINE
  5
1A4
330
1F
100
AcDbEntity
  8
0
  6
Continuous
 62
     7
370
    15
100
AcDbLine
 10
248.9359397401
 20
122.5228857969
 30
0.0
 11
243.4359395371
 21
125.6983083461
 31
0.0
  0
LINE
  5
1A5
330
1F
100
AcDbEntity
  8
0
  6
Continuous
 62
     7
370
    15
100
AcDbLine
 10
243.4359395371
 20
125.6983083461
 30
0.0
 11
237.9359395669
 21
122.5228857969
 31
0.0
  0
LINE
  5
1A6
330
1F
100
AcDbEntity
  8
0
  6
Continuous
 62
     7
370
    15
100
AcDbLine
 10
237.9359395669
 20
122.5228857969
 30
0.0
 11
237.9359395669
 21
116.1720332478
 31
0.0
  0
LINE
  5
1A7
330
1F
100
AcDbEntity
  8
0
  6
Continuous
 62
     7
370
    15
100
AcDbLine
 10
237.9359395669
 20
116.1720332478
 30
0.0
 11
243.4359395371
 21
112.996603248
 31
0.0
  0
LINE
  5
1A8
330
1F
100
AcDbEntity
  8
0
  6
Continuous
 62
     7
370
    15
100
AcDbLine
 10
243.4359395371
 20
112.996603248
 30
0.0
 11
248.9359397401
 21
116.1720332478
 31
0.0
  0
LINE
  5
1A9
330
1F
100
AcDbEntity
  8
0
  6
Continuous
 62
     7
370
    15
100
AcDbLine
 10
248.9359397401
 20
116.1720332478
 30
0.0
 11
248.9359397401
 21
122.5228857969
 31
0.0
  0
CIRCLE
  5
1AA
330
1F
100
AcDbEntity
  8
0
  6
Continuous
 62
     7
370
    15
100
AcDbCircle
 10
257.4395019649
 20
55.8475702207
 30
0.0
 40
3.999999999999993
  0
CIRCLE
  5
1AB
330
1F
100
AcDbEntity
  8
0
  6
Continuous
 62
     7
370
    15
100
AcDbCircle
 10
257.4395019649
 20
182.8475702207
 30
0.0
 40
4.0
  0
LINE
  5
1AC
330
1F
100
AcDbEntity
  8
0
  6
Continuous
 62
     7
370
    15
100
AcDbLine
 10
254.9395017712
 20
95.9225715499
 30
0.0
 11
259.9395016594
 21
95.9225715499
 31
0.0
  0
LINE
  5
1AD
330
1F
100
AcDbEntity
  8
0
  6
Continuous
 62
     7
370
    15
100
AcDbLine
 10
259.9395016594
 20
95.9225715499
 30
0.0
 11
259.9395016594
 21
101.2725689809
 31
0.0
  0
LINE
  5
1AE
330
1F
100
AcDbEntity
  8
0
  6
Continuous
 62
     7
370
    15
100
AcDbLine
 10
259.9395016594
 20
101.2725689809
 30
0.0
 11
254.9395017712
 21
101.2725689809
 31
0.0
  0
LINE
  5
1AF
330
1F
100
AcDbEntity
  8
0
  6
Continuous
 62
     7
370
    15
100
AcDbLine
 10
254.9395017712
 20
101.2725689809
 30
0.0
 11
254.9395017712
 21
95.9225715499
 31
0.0
  0
LINE
  5
1B0
330
1F
100
AcDbEntity
  8
0
  6
Continuous
 62
     7
370
    15
100
AcDbLine
 10
264.439502397
 20
171.8475678365
 30
0.0
 11
264.439502397
 21
194.3475761812
 31
0.0
  0
LINE
  5
1B1
330
1F
100
AcDbEntity
  8
0
  6
Continuous
 62
     7
370
    15
100
AcDbLine
 10
269.7895016907
 20
171.8475678365
 30
0.0
 11
264.439502397
 21
171.8475678365
 31
0.0
  0
LINE
  5
1B2
330
1F
100
AcDbEntity
  8
0
  6
Continuous
 62
     7
370
    15
100
AcDbLine
 10
269.7895016907
 20
151.8475720088
 30
0.0
 11
269.7895016907
 21
171.8475678365
 31
0.0
  0
LINE
  5
1B3
330
1F
100
AcDbEntity
  8
0
  6
Continuous
 62
     7
370
    15
100
AcDbLine
 10
264.439502397
 20
151.8475720088
 30
0.0
 11
269.7895016907
 21
151.8475720088
 31
0.0
  0
LINE
  5
1B4
330
1F
100
AcDbEntity
  8
0
  6
Continuous
 62
     7
370
    15
100
AcDbLine
 10
264.439502397
 20
129.3475711148
 30
0.0
 11
264.439502397
 21
151.8475720088
 31
0.0
  0
LINE
  5
1B5
330
1F
100
AcDbEntity
  8
0
  6
Continuous
 62
     7
370
    15
100
AcDbLine
 10
269.7895016907
 20
129.3475711148
 30
0.0
 11
264.439502397
 21
129.3475711148
 31
0.0
  0
LINE
  5
1B6
330
1F
100
AcDbEntity
  8
0
  6
Continuous
 62
     7
370
    15
100
AcDbLine
 10
269.7895016907
 20
109.3475678365
 30
0.0
 11
269.7895016907
 21
129.3475711148
 31
0.0
  0
LINE
  5
1B7
330
1F
100
AcDbEntity
  8
0
  6
Continuous
 62
     7
370
    15
100
AcDbLine
 10
264.439502397
 20
109.3475678365
 30
0.0
 11
269.7895016907
 21
109.3475678365
 31
0.0
  0
LINE
  5
1B8
330
1F
100
AcDbEntity
  8
0
  6
Continuous
 62
     7
370
    15
100
AcDbLine
 10
264.439502397
 20
86.8475706677
 30
0.0
 11
264.439502397
 21
109.3475678365
 31
0.0
  0
LINE
  5
1B9
330
1F
100
AcDbEntity
  8
0
  6
Continuous
 62
     7
370
    15
100
AcDbLine
 10
269.7895016907
 20
86.8475706677
 30
0.0
 11
264.439502397
 21
86.8475706677
 31
0.0
  0
LINE
  5
1BA
330
1F
100
AcDbEntity
  8
0
  6
Continuous
 62
     7
370
    15
100
AcDbLine
 10
269.7895016907
 20
66.8475711148
 30
0.0
 11
269.7895016907
 21
86.8475706677
 31
0.0
  0
LINE
  5
1BB
330
1F
100
AcDbEntity
  8
0
  6
Continuous
 62
     7
370
    15
100
AcDbLine
 10
264.439502397
 20
66.8475711148
 30
0.0
 11
269.7895016907
 21
66.8475711148
 31
0.0
  0
LINE
  5
1BC
330
1F
100
AcDbEntity
  8
0
  6
Continuous
 62
     7
370
    15
100
AcDbLine
 10
264.439502397
 20
44.3475702207
 30
0.0
 11
264.439502397
 21
66.8475711148
 31
0.0
  0
LINE
  5
1BD
330
1F
100
AcDbEntity
  8
0
  6
Continuous
 62
     7
370
    15
100
AcDbLine
 10
250.4395019649
 20
44.3475702207
 30
0.0
 11
264.439502397
 21
44.3475702207
 31
0.0
  0
LINE
  5
1BE
330
1F
100
AcDbEntity
  8
0
  6
Continuous
 62
     7
370
    15
100
AcDbLine
 10
250.4395019649
 20
194.3475761812
 30
0.0
 11
250.4395019649
 21
44.3475702207
 31
0.0
  0
LINE
  5
1BF
330
1F
100
AcDbEntity
  8
0
  6
Continuous
 62
     7
370
    15
100
AcDbLine
 10
264.439502397
 20
194.3475761812
 30
0.0
 11
250.4395019649
 21
194.3475761812
 31
0.0
  0
LINE
  5
1C0
330
1F
100
AcDbEntity
  8
0
  6
Continuous
 62
     7
370
    15
100
AcDbLine
 10
259.9395016594
 20
142.7725711267
 30
0.0
 11
254.9395017712
 21
142.7725711267
 31
0.0
  0
LINE
  5
1C1
330
1F
100
AcDbEntity
  8
0
  6
Continuous
 62
     7
370
    15
100
AcDbLine
 10
254.9395017712
 20
142.7725711267
 30
0.0
 11
254.9395017712
 21
137.4225699704
 31
0.0
  0
LINE
  5
1C2
330
1F
100
AcDbEntity
  8
0
  6
Continuous
 62
     7
370
    15
100
AcDbLine
 10
254.9395017712
 20
137.4225699704
 30
0.0
 11
259.9395016594
 21
137.4225699704
 31
0.0
  0
LINE
  5
1C3
330
1F
100
AcDbEntity
  8
0
  6
Continuous
 62
     7
370
    15
100
AcDbLine
 10
259.9395016594
 20
137.4225699704
 30
0.0
 11
259.9395016594
 21
142.7725711267
 31
0.0
  0
LINE
  5
1C4
330
1F
100
AcDbEntity
  8
0
  6
Continuous
 62
     7
370
    15
100
AcDbLine
 10
251.9395019779
 20
116.1721432011
 30
0.0
 11
257.439502181
 21
112.9967206519
 31
0.0
  0
LINE
  5
1C5
330
1F
100
AcDbEntity
  8
0
  6
Continuous
 62
     7
370
    15
100
AcDbLine
 10
257.439502181
 20
112.9967206519
 30
0.0
 11
262.9395021512
 21
116.1721432011
 31
0.0
  0
LINE
  5
1C6
330
1F
100
AcDbEntity
  8
0
  6
Continuous
 62
     7
370
    15
100
AcDbLine
 10
262.9395021512
 20
116.1721432011
 30
0.0
 11
262.9395021512
 21
122.5229957502
 31
0.0
  0
LINE
  5
1C7
330
1F
100
AcDbEntity
  8
0
  6
Continuous
 62
     7
370
    15
100
AcDbLine
 10
262.9395021512
 20
122.5229957502
 30
0.0
 11
257.439502181
 21
125.69842575
 31
0.0
  0
LINE
  5
1C8
330
1F
100
AcDbEntity
  8
0
  6
Continuous
 62
     7
370
    15
100
AcDbLine
 10
257.439502181
 20
125.69842575
 30
0.0
 11
251.9395019779
 21
122.5229957502
 31
0.0
  0
LINE
  5
1C9
330
1F
100
AcDbEntity
  8
0
  6
Continuous
 62
     7
370
    15
100
AcDbLine
 10
251.9395019779
 20
122.5229957502
 30
0.0
 11
251.9395019779
 21
116.1721432011
 31
0.0
  0
CIRCLE
  5
1CA
330
1F
100
AcDbEntity
  8
0
  6
Continuous
 62
     7
370
    15
100
AcDbCircle
 10
277.3403025116
 20
187.6462729062
 30
0.0
 40
4.0
  0
LINE
  5
1CB
330
1F
100
AcDbEntity
  8
0
  6
Continuous
 62
     7
370
    15
100
AcDbLine
 10
279.8403022061
 20
149.6462732787
 30
0.0
 11
274.8403023179
 21
149.6462732787
 31
0.0
  0
LINE
  5
1CC
330
1F
100
AcDbEntity
  8
0
  6
Continuous
 62
     7
370
    15
100
AcDbLine
 10
274.8403023179
 20
149.6462732787
 30
0.0
 11
274.8403023179
 21
144.2962721224
 31
0.0
  0
LINE
  5
1CD
330
1F
100
AcDbEntity
  8
0
  6
Continuous
 62
     7
370
    15
100
AcDbLine
 10
274.8403023179
 20
144.2962721224
 30
0.0
 11
279.8403022061
 21
144.2962721224
 31
0.0
  0
LINE
  5
1CE
330
1F
100
AcDbEntity
  8
0
  6
Continuous
 62
     7
370
    15
100
AcDbLine
 10
279.8403022061
 20
144.2962721224
 30
0.0
 11
279.8403022061
 21
149.6462732787
 31
0.0
  0
CIRCLE
  5
1CF
330
1F
100
AcDbEntity
  8
0
  6
Continuous
 62
     7
370
    15
100
AcDbCircle
 10
277.3403025116
 20
159.6462729062
 30
0.0
 40
4.0
  0
LINE
  5
1D0
330
1F
100
AcDbEntity
  8
0
  6
Continuous
 62
     7
370
    15
100
AcDbLine
 10
270.3403025116
 20
124.6462729062
 30
0.0
 11
284.3403029437
 21
124.6462729062
 31
0.0
  0
LINE
  5
1D1
330
1F
100
AcDbEntity
  8
0
  6
Continuous
 62
     7
370
    15
100
AcDbLine
 10
270.3403025116
 20
194.6462732042
 30
0.0
 11
270.3403025116
 21
124.6462729062
 31
0.0
  0
LINE
  5
1D2
330
1F
100
AcDbEntity
  8
0
  6
Continuous
 62
     7
370
    15
100
AcDbLine
 10
284.3403029437
 20
194.6462732042
 30
0.0
 11
270.3403025116
 21
194.6462732042
 31
0.0
  0
LINE
  5
1D3
330
1F
100
AcDbEntity
  8
0
  6
Continuous
 62
     7
370
    15
100
AcDbLine
 10
284.3403029437
 20
124.6462729062
 30
0.0
 11
284.3403029437
 21
194.6462732042
 31
0.0
  0
LINE
  5
1D4
330
1F
100
AcDbEntity
  8
0
  6
Continuous
 62
     7
370
    15
100
AcDbLine
 10
274.8403023179
 20
169.6462746944
 30
0.0
 11
279.8403022061
 21
169.6462746944
 31
0.0
  0
LINE
  5
1D5
330
1F
100
AcDbEntity
  8
0
  6
Continuous
 62
     7
370
    15
100
AcDbLine
 10
279.8403022061
 20
169.6462746944
 30
0.0
 11
279.8403022061
 21
174.9962721254
 31
0.0
  0
LINE
  5
1D6
330
1F
100
AcDbEntity
  8
0
  6
Continuous
 62
     7
370
    15
100
AcDbLine
 10
279.8403022061
 20
174.9962721254
 30
0.0
 11
274.8403023179
 21
174.9962721254
 31
0.0
  0
LINE
  5
1D7
330
1F
100
AcDbEntity
  8
0
  6
Continuous
 62
     7
370
    15
100
AcDbLine
 10
274.8403023179
 20
174.9962721254
 30
0.0
 11
274.8403023179
 21
169.6462746944
 31
0.0
  0
CIRCLE
  5
1D8
330
1F
100
AcDbEntity
  8
0
  6
Continuous
 62
     7
370
    15
100
AcDbCircle
 10
277.3403025116
 20
131.6462729062
 30
0.0
 40
4.000000000000014
  0
CIRCLE
  5
1D9
330
1F
100
AcDbEntity
  8
0
  6
Continuous
 62
     7
370
    15
100
AcDbCircle
 10
277.3398891561
 20
117.6454688052
 30
0.0
 40
4.000000000000014
  0
LINE
  5
1DA
330
1F
100
AcDbEntity
  8
0
  6
Continuous
 62
     7
370
    15
100
AcDbLine
 10
279.8398888507
 20
79.6454691777
 30
0.0
 11
274.8398889624
 21
79.6454691777
 31
0.0
  0
LINE
  5
1DB
330
1F
100
AcDbEntity
  8
0
  6
Continuous
 62
     7
370
    15
100
AcDbLine
 10
274.8398889624
 20
79.6454691777
 30
0.0
 11
274.8398889624
 21
74.2954680214
 31
0.0
  0
LINE
  5
1DC
330
1F
100
AcDbEntity
  8
0
  6
Continuous
 62
     7
370
    15
100
AcDbLine
 10
274.8398889624
 20
74.2954680214
 30
0.0
 11
279.8398888507
 21
74.2954680214
 31
0.0
  0
LINE
  5
1DD
330
1F
100
AcDbEntity
  8
0
  6
Continuous
 62
     7
370
    15
100
AcDbLine
 10
279.8398888507
 20
74.2954680214
 30
0.0
 11
279.8398888507
 21
79.6454691777
 31
0.0
  0
CIRCLE
  5
1DE
330
1F
100
AcDbEntity
  8
0
  6
Continuous
 62
     7
370
    15
100
AcDbCircle
 10
277.3398891561
 20
89.6454688052
 30
0.0
 40
4.000000000000014
  0
LINE
  5
1DF
330
1F
100
AcDbEntity
  8
0
  6
Continuous
 62
     7
370
    15
100
AcDbLine
 10
270.3398891561
 20
54.6454688052
 30
0.0
 11
284.3398895883
 21
54.6454688052
 31
0.0
  0
LINE
  5
1E0
330
1F
100
AcDbEntity
  8
0
  6
Continuous
 62
     7
370
    15
100
AcDbLine
 10
270.3398891561
 20
124.6454691032
 30
0.0
 11
270.3398891561
 21
54.6454688052
 31
0.0
  0
LINE
  5
1E1
330
1F
100
AcDbEntity
  8
0
  6
Continuous
 62
     7
370
    15
100
AcDbLine
 10
284.3398895883
 20
124.6454691032
 30
0.0
 11
270.3398891561
 21
124.6454691032
 31
0.0
  0
LINE
  5
1E2
330
1F
100
AcDbEntity
  8
0
  6
Continuous
 62
     7
370
    15
100
AcDbLine
 10
284.3398895883
 20
54.6454688052
 30
0.0
 11
284.3398895883
 21
124.6454691032
 31
0.0
  0
LINE
  5
1E3
330
1F
100
AcDbEntity
  8
0
  6
Continuous
 62
     7
370
    15
100
AcDbLine
 10
274.8398889624
 20
99.6454705934
 30
0.0
 11
279.8398888507
 21
99.6454705934
 31
0.0
  0
LINE
  5
1E4
330
1F
100
AcDbEntity
  8
0
  6
Continuous
 62
     7
370
    15
100
AcDbLine
 10
279.8398888507
 20
99.6454705934
 30
0.0
 11
279.8398888507
 21
104.9954680244
 31
0.0
  0
LINE
  5
1E5
330
1F
100
AcDbEntity
  8
0
  6
Continuous
 62
     7
370
    15
100
AcDbLine
 10
279.8398888507
 20
104.9954680244
 30
0.0
 11
274.8398889624
 21
104.9954680244
 31
0.0
  0
LINE
  5
1E6
330
1F
100
AcDbEntity
  8
0
  6
Continuous
 62
     7
370
    15
100
AcDbLine
 10
274.8398889624
 20
104.9954680244
 30
0.0
 11
274.8398889624
 21
99.6454705934
 31
0.0
  0
CIRCLE
  5
1E7
330
1F
100
AcDbEntity
  8
0
  6
Continuous
 62
     7
370
    15
100
AcDbCircle
 10
277.3398891561
 20
61.6454688052
 30
0.0
 40
4.000000000000007
  0
CIRCLE
  5
1E8
330
1F
100
AcDbEntity
  8
0
  6
Continuous
 62
     7
370
    15
100
AcDbCircle
 10
291.3398886582
 20
117.6455379342
 30
0.0
 40
4.0
  0
LINE
  5
1E9
330
1F
100
AcDbEntity
  8
0
  6
Continuous
 62
     7
370
    15
100
AcDbLine
 10
293.8398883528
 20
79.6455383067
 30
0.0
 11
288.8398884645
 21
79.6455383067
 31
0.0
  0
LINE
  5
1EA
330
1F
100
AcDbEntity
  8
0
  6
Continuous
 62
     7
370
    15
100
AcDbLine
 10
288.8398884645
 20
79.6455383067
 30
0.0
 11
288.8398884645
 21
74.2955371504
 31
0.0
  0
LINE
  5
1EB
330
1F
100
AcDbEntity
  8
0
  6
Continuous
 62
     7
370
    15
100
AcDbLine
 10
288.8398884645
 20
74.2955371504
 30
0.0
 11
293.8398883528
 21
74.2955371504
 31
0.0
  0
LINE
  5
1EC
330
1F
100
AcDbEntity
  8
0
  6
Continuous
 62
     7
370
    15
100
AcDbLine
 10
293.8398883528
 20
74.2955371504
 30
0.0
 11
293.8398883528
 21
79.6455383067
 31
0.0
  0
CIRCLE
  5
1ED
330
1F
100
AcDbEntity
  8
0
  6
Continuous
 62
     7
370
    15
100
AcDbCircle
 10
291.3398886582
 20
89.6455379342
 30
0.0
 40
4.0
  0
LINE
  5
1EE
330
1F
100
AcDbEntity
  8
0
  6
Continuous
 62
     7
370
    15
100
AcDbLine
 10
284.3398886582
 20
54.6455379342
 30
0.0
 11
298.3398890904
 21
54.6455379342
 31
0.0
  0
LINE
  5
1EF
330
1F
100
AcDbEntity
  8
0
  6
Continuous
 62
     7
370
    15
100
AcDbLine
 10
284.3398886582
 20
124.6455382322
 30
0.0
 11
284.3398886582
 21
54.6455379342
 31
0.0
  0
LINE
  5
1F0
330
1F
100
AcDbEntity
  8
0
  6
Continuous
 62
     7
370
    15
100
AcDbLine
 10
298.3398890904
 20
124.6455382322
 30
0.0
 11
284.3398886582
 21
124.6455382322
 31
0.0
  0
LINE
  5
1F1
330
1F
100
AcDbEntity
  8
0
  6
Continuous
 62
     7
370
    15
100
AcDbLine
 10
298.3398890904
 20
54.6455379342
 30
0.0
 11
298.3398890904
 21
124.6455382322
 31
0.0
  0
LINE
  5
1F2
330
1F
100
AcDbEntity
  8
0
  6
Continuous
 62
     7
370
    15
100
AcDbLine
 10
288.8398884645
 20
99.6455397223
 30
0.0
 11
293.8398883528
 21
99.6455397223
 31
0.0
  0
LINE
  5
1F3
330
1F
100
AcDbEntity
  8
0
  6
Continuous
 62
     7
370
    15
100
AcDbLine
 10
293.8398883528
 20
99.6455397223
 30
0.0
 11
293.8398883528
 21
104.9955371533
 31
0.0
  0
LINE
  5
1F4
330
1F
100
AcDbEntity
  8
0
  6
Continuous
 62
     7
370
    15
100
AcDbLine
 10
293.8398883528
 20
104.9955371533
 30
0.0
 11
288.8398884645
 21
104.9955371533
 31
0.0
  0
LINE
  5
1F5
330
1F
100
AcDbEntity
  8
0
  6
Continuous
 62
     7
370
    15
100
AcDbLine
 10
288.8398884645
 20
104.9955371533
 30
0.0
 11
288.8398884645
 21
99.6455397223
 31
0.0
  0
CIRCLE
  5
1F6
330
1F
100
AcDbEntity
  8
0
  6
Continuous
 62
     7
370
    15
100
AcDbCircle
 10
291.3398886582
 20
61.6455379342
 30
0.0
 40
4.0
  0
CIRCLE
  5
1F7
330
1F
100
AcDbEntity
  8
0
  6
Continuous
 62
     7
370
    15
100
AcDbCircle
 10
291.339580324
 20
187.6462729062
 30
0.0
 40
4.0
  0
LINE
  5
1F8
330
1F
100
AcDbEntity
  8
0
  6
Continuous
 62
     7
370
    15
100
AcDbLine
 10
293.8395800185
 20
149.6462732787
 30
0.0
 11
288.8395801303
 21
149.6462732787
 31
0.0
  0
LINE
  5
1F9
330
1F
100
AcDbEntity
  8
0
  6
Continuous
 62
     7
370
    15
100
AcDbLine
 10
288.8395801303
 20
149.6462732787
 30
0.0
 11
288.8395801303
 21
144.2962721224
 31
0.0
  0
LINE
  5
1FA
330
1F
100
AcDbEntity
  8
0
  6
Continuous
 62
     7
370
    15
100
AcDbLine
 10
288.8395801303
 20
144.2962721224
 30
0.0
 11
293.8395800185
 21
144.2962721224
 31
0.0
  0
LINE
  5
1FB
330
1F
100
AcDbEntity
  8
0
  6
Continuous
 62
     7
370
    15
100
AcDbLine
 10
293.8395800185
 20
144.2962721224
 30
0.0
 11
293.8395800185
 21
149.6462732787
 31
0.0
  0
CIRCLE
  5
1FC
330
1F
100
AcDbEntity
  8
0
  6
Continuous
 62
     7
370
    15
100
AcDbCircle
 10
291.339580324
 20
159.6462729062
 30
0.0
 40
4.000000000000028
  0
LINE
  5
1FD
330
1F
100
AcDbEntity
  8
0
  6
Continuous
 62
     7
370
    15
100
AcDbLine
 10
284.339580324
 20
124.6462729062
 30
0.0
 11
298.3395807561
 21
124.6462729062
 31
0.0
  0
LINE
  5
1FE
330
1F
100
AcDbEntity
  8
0
  6
Continuous
 62
     7
370
    15
100
AcDbLine
 10
284.339580324
 20
194.6462732042
 30
0.0
 11
284.339580324
 21
124.6462729062
 31
0.0
  0
LINE
  5
1FF
330
1F
100
AcDbEntity
  8
0
  6
Continuous
 62
     7
370
    15
100
AcDbLine
 10
298.3395807561
 20
194.6462732042
 30
0.0
 11
284.339580324
 21
194.6462732042
 31
0.0
  0
LINE
  5
200
330
1F
100
AcDbEntity
  8
0
  6
Continuous
 62
     7
370
    15
100
AcDbLine
 10
298.3395807561
 20
124.6462729062
 30
0.0
 11
298.3395807561
 21
194.6462732042
 31
0.0
  0
LINE
  5
201
330
1F
100
AcDbEntity
  8
0
  6
Continuous
 62
     7
370
    15
100
AcDbLine
 10
288.8395801303
 20
169.6462746944
 30
0.0
 11
293.8395800185
 21
169.6462746944
 31
0.0
  0
LINE
  5
202
330
1F
100
AcDbEntity
  8
0
  6
Continuous
 62
     7
370
    15
100
AcDbLine
 10
293.8395800185
 20
169.6462746944
 30
0.0
 11
293.8395800185
 21
174.9962721254
 31
0.0
  0
LINE
  5
203
330
1F
100
AcDbEntity
  8
0
  6
Continuous
 62
     7
370
    15
100
AcDbLine
 10
293.8395800185
 20
174.9962721254
 30
0.0
 11
288.8395801303
 21
174.9962721254
 31
0.0
  0
LINE
  5
204
330
1F
100
AcDbEntity
  8
0
  6
Continuous
 62
     7
370
    15
100
AcDbLine
 10
288.8395801303
 20
174.9962721254
 30
0.0
 11
288.8395801303
 21
169.6462746944
 31
0.0
  0
CIRCLE
  5
205
330
1F
100
AcDbEntity
  8
0
  6
Continuous
 62
     7
370
    15
100
AcDbCircle
 10
291.339580324
 20
131.6462729062
 30
0.0
 40
4.000000000000014
  0
LINE
  5
206
330
1F
100
AcDbEntity
  8
0
  6
Continuous
 62
     7
370
    15
100
AcDbLine
 10
166.3844971637
 20
125.8643027884
 30
0.0
 11
166.3844971637
 21
131.2143020821
 31
0.0
  0
LINE
  5
207
330
1F
100
AcDbEntity
  8
0
  6
Continuous
 62
     7
370
    15
100
AcDbLine
 10
155.3844973398
 20
125.8643027884
 30
0.0
 11
166.3844971637
 21
125.8643027884
 31
0.0
  0
LINE
  5
208
330
1F
100
AcDbEntity
  8
0
  6
Continuous
 62
     7
370
    15
100
AcDbLine
 10
155.3844973398
 20
131.2143020821
 30
0.0
 11
155.3844973398
 21
125.8643027884
 31
0.0
  0
LINE
  5
209
330
1F
100
AcDbEntity
  8
0
  6
Continuous
 62
     7
370
    15
100
AcDbLine
 10
141.7544972803
 20
131.2143020821
 30
0.0
 11
155.3844973398
 21
131.2143020821
 31
0.0
  0
LINE
  5
20A
330
1F
100
AcDbEntity
  8
0
  6
Continuous
 62
     7
370
    15
100
AcDbLine
 10
141.7544972803
 20
135.7143028197
 30
0.0
 11
141.7544972803
 21
131.2143020821
 31
0.0
  0
LINE
  5
20B
330
1F
100
AcDbEntity
  8
0
  6
Continuous
 62
     7
370
    15
100
AcDbLine
 10
125.7044966052
 20
135.7143028197
 30
0.0
 11
141.7544972803
 21
135.7143028197
 31
0.0
  0
LINE
  5
20C
330
1F
100
AcDbEntity
  8
0
  6
Continuous
 62
     7
370
    15
100
AcDbLine
 10
125.7044966052
 20
140.714302708
 30
0.0
 11
125.7044966052
 21
135.7143028197
 31
0.0
  0
LINE
  5
20D
330
1F
100
AcDbEntity
  8
0
  6
Continuous
 62
     7
370
    15
100
AcDbLine
 10
141.7544972803
 20
140.714302708
 30
0.0
 11
125.7044966052
 21
140.714302708
 31
0.0
  0
LINE
  5
20E
330
1F
100
AcDbEntity
  8
0
  6
Continuous
 62
     7
370
    15
100
AcDbLine
 10
141.7544972803
 20
145.2143025143
 30
0.0
 11
141.7544972803
 21
140.714302708
 31
0.0
  0
LINE
  5
20F
330
1F
100
AcDbEntity
  8
0
  6
Continuous
 62
     7
370
    15
100
AcDbLine
 10
180.0144980381
 20
145.2143025143
 30
0.0
 11
141.7544972803
 21
145.2143025143
 31
0.0
  0
LINE
  5
210
330
1F
100
AcDbEntity
  8
0
  6
Continuous
 62
     7
370
    15
100
AcDbLine
 10
180.0144980381
 20
140.714302708
 30
0.0
 11
180.0144980381
 21
145.2143025143
 31
0.0
  0
LINE
  5
211
330
1F
100
AcDbEntity
  8
0
  6
Continuous
 62
     7
370
    15
100
AcDbLine
 10
196.0644977818
 20
140.714302708
 30
0.0
 11
180.0144980381
 21
140.714302708
 31
0.0
  0
LINE
  5
212
330
1F
100
AcDbEntity
  8
0
  6
Continuous
 62
     7
370
    15
100
AcDbLine
 10
196.0644977818
 20
135.7143028197
 30
0.0
 11
196.0644977818
 21
140.714302708
 31
0.0
  0
LINE
  5
213
330
1F
100
AcDbEntity
  8
0
  6
Continuous
 62
     7
370
    15
100
AcDbLine
 10
180.0144980381
 20
135.7143028197
 30
0.0
 11
196.0644977818
 21
135.7143028197
 31
0.0
  0
LINE
  5
214
330
1F
100
AcDbEntity
  8
0
  6
Continuous
 62
     7
370
    15
100
AcDbLine
 10
180.0144980381
 20
131.2143020821
 30
0.0
 11
180.0144980381
 21
135.7143028197
 31
0.0
  0
LINE
  5
215
330
1F
100
AcDbEntity
  8
0
  6
Continuous
 62
     7
370
    15
100
AcDbLine
 10
166.3844971637
 20
131.2143020821
 30
0.0
 11
180.0144980381
 21
131.2143020821
 31
0.0
  0
LINE
  5
216
330
1F
100
AcDbEntity
  8
0
  6
Continuous
 62
     7
370
    15
100
AcDbLine
 10
144.3847218664
 20
131.2130779083
 30
0.0
 11
144.3847218664
 21
125.8630786147
 31
0.0
  0
LINE
  5
217
330
1F
100
AcDbEntity
  8
0
  6
Continuous
 62
     7
370
    15
100
AcDbLine
 10
155.3847216904
 20
131.2130779083
 30
0.0
 11
144.3847218664
 21
131.2130779083
 31
0.0
  0
LINE
  5
218
330
1F
100
AcDbEntity
  8
0
  6
Continuous
 62
     7
370
    15
100
AcDbLine
 10
155.3847216904
 20
125.8630786147
 30
0.0
 11
155.3847216904
 21
131.2130779083
 31
0.0
  0
LINE
  5
219
330
1F
100
AcDbEntity
  8
0
  6
Continuous
 62
     7
370
    15
100
AcDbLine
 10
169.0147217499
 20
125.8630786147
 30
0.0
 11
155.3847216904
 21
125.8630786147
 31
0.0
  0
LINE
  5
21A
330
1F
100
AcDbEntity
  8
0
  6
Continuous
 62
     7
370
    15
100
AcDbLine
 10
169.0147217499
 20
121.3630778771
 30
0.0
 11
169.0147217499
 21
125.8630786147
 31
0.0
  0
LINE
  5
21B
330
1F
100
AcDbEntity
  8
0
  6
Continuous
 62
     7
370
    15
100
AcDbLine
 10
185.0647224249
 20
121.3630778771
 30
0.0
 11
169.0147217499
 21
121.3630778771
 31
0.0
  0
LINE
  5
21C
330
1F
100
AcDbEntity
  8
0
  6
Continuous
 62
     7
370
    15
100
AcDbLine
 10
185.0647224249
 20
116.3630779888
 30
0.0
 11
185.0647224249
 21
121.3630778771
 31
0.0
  0
LINE
  5
21D
330
1F
100
AcDbEntity
  8
0
  6
Continuous
 62
     7
370
    15
100
AcDbLine
 10
169.0147217499
 20
116.3630779888
 30
0.0
 11
185.0647224249
 21
116.3630779888
 31
0.0
  0
LINE
  5
21E
330
1F
100
AcDbEntity
  8
0
  6
Continuous
 62
     7
370
    15
100
AcDbLine
 10
169.0147217499
 20
111.8630781825
 30
0.0
 11
169.0147217499
 21
116.3630779888
 31
0.0
  0
LINE
  5
21F
330
1F
100
AcDbEntity
  8
0
  6
Continuous
 62
     7
370
    15
100
AcDbLine
 10
130.754720992
 20
111.8630781825
 30
0.0
 11
169.0147217499
 21
111.8630781825
 31
0.0
  0
LINE
  5
220
330
1F
100
AcDbEntity
  8
0
  6
Continuous
 62
     7
370
    15
100
AcDbLine
 10
130.754720992
 20
116.3630779888
 30
0.0
 11
130.754720992
 21
111.8630781825
 31
0.0
  0
LINE
  5
221
330
1F
100
AcDbEntity
  8
0
  6
Continuous
 62
     7
370
    15
100
AcDbLine
 10
114.7047212483
 20
116.3630779888
 30
0.0
 11
130.754720992
 21
116.3630779888
 31
0.0
  0
LINE
  5
222
330
1F
100
AcDbEntity
  8
0
  6
Continuous
 62
     7
370
    15
100
AcDbLine
 10
114.7047212483
 20
121.3630778771
 30
0.0
 11
114.7047212483
 21
116.3630779888
 31
0.0
  0
LINE
  5
223
330
1F
100
AcDbEntity
  8
0
  6
Continuous
 62
     7
370
    15
100
AcDbLine
 10
130.754720992
 20
121.3630778771
 30
0.0
 11
114.7047212483
 21
121.3630778771
 31
0.0
  0
LINE
  5
224
330
1F
100
AcDbEntity
  8
0
  6
Continuous
 62
     7
370
    15
100
AcDbLine
 10
130.754720992
 20
125.8630786147
 30
0.0
 11
130.754720992
 21
121.3630778771
 31
0.0
  0
LINE
  5
225
330
1F
100
AcDbEntity
  8
0
  6
Continuous
 62
     7
370
    15
100
AcDbLine
 10
144.3847218664
 20
125.8630786147
 30
0.0
 11
130.754720992
 21
125.8630786147
 31
0.0
  0
LINE
  5
226
330
1F
100
AcDbEntity
  8
0
  6
Continuous
 62
     7
370
    15
100
AcDbLine
 10
140.2566573316
 20
64.4928087257
 30
0.0
 11
140.2566573316
 21
59.1428094321
 31
0.0
  0
LINE
  5
227
330
1F
100
AcDbEntity
  8
0
  6
Continuous
 62
     7
370
    15
100
AcDbLine
 10
151.2566571556
 20
64.4928087257
 30
0.0
 11
140.2566573316
 21
64.4928087257
 31
0.0
  0
LINE
  5
228
330
1F
100
AcDbEntity
  8
0
  6
Continuous
 62
     7
370
    15
100
AcDbLine
 10
151.2566571556
 20
59.1428094321
 30
0.0
 11
151.2566571556
 21
64.4928087257
 31
0.0
  0
LINE
  5
229
330
1F
100
AcDbEntity
  8
0
  6
Continuous
 62
     7
370
    15
100
AcDbLine
 10
164.8866572151
 20
59.1428094321
 30
0.0
 11
151.2566571556
 21
59.1428094321
 31
0.0
  0
LINE
  5
22A
330
1F
100
AcDbEntity
  8
0
  6
Continuous
 62
     7
370
    15
100
AcDbLine
 10
164.8866572151
 20
54.6428086944
 30
0.0
 11
164.8866572151
 21
59.1428094321
 31
0.0
  0
LINE
  5
22B
330
1F
100
AcDbEntity
  8
0
  6
Continuous
 62
     7
370
    15
100
AcDbLine
 10
180.9366578901
 20
54.6428086944
 30
0.0
 11
164.8866572151
 21
54.6428086944
 31
0.0
  0
LINE
  5
22C
330
1F
100
AcDbEntity
  8
0
  6
Continuous
 62
     7
370
    15
100
AcDbLine
 10
180.9366578901
 20
49.6428088062
 30
0.0
 11
180.9366578901
 21
54.6428086944
 31
0.0
  0
LINE
  5
22D
330
1F
100
AcDbEntity
  8
0
  6
Continuous
 62
     7
370
    15
100
AcDbLine
 10
164.8866572151
 20
49.6428088062
 30
0.0
 11
180.9366578901
 21
49.6428088062
 31
0.0
  0
LINE
  5
22E
330
1F
100
AcDbEntity
  8
0
  6
Continuous
 62
     7
370
    15
100
AcDbLine
 10
164.8866572151
 20
45.1428089999
 30
0.0
 11
164.8866572151
 21
49.6428088062
 31
0.0
  0
LINE
  5
22F
330
1F
100
AcDbEntity
  8
0
  6
Continuous
 62
     7
370
    15
100
AcDbLine
 10
126.6266564572
 20
45.1428089999
 30
0.0
 11
164.8866572151
 21
45.1428089999
 31
0.0
  0
LINE
  5
230
330
1F
100
AcDbEntity
  8
0
  6
Continuous
 62
     7
370
    15
100
AcDbLine
 10
126.6266564572
 20
49.6428088062
 30
0.0
 11
126.6266564572
 21
45.1428089999
 31
0.0
  0
LINE
  5
231
330
1F
100
AcDbEntity
  8
0
  6
Continuous
 62
     7
370
    15
100
AcDbLine
 10
110.5766567135
 20
49.6428088062
 30
0.0
 11
126.6266564572
 21
49.6428088062
 31
0.0
  0
LINE
  5
232
330
1F
100
AcDbEntity
  8
0
  6
Continuous
 62
     7
370
    15
100
AcDbLine
 10
110.5766567135
 20
54.6428086944
 30
0.0
 11
110.5766567135
 21
49.6428088062
 31
0.0
  0
LINE
  5
233
330
1F
100
AcDbEntity
  8
0
  6
Continuous
 62
     7
370
    15
100
AcDbLine
 10
126.6266564572
 20
54.6428086944
 30
0.0
 11
110.5766567135
 21
54.6428086944
 31
0.0
  0
LINE
  5
234
330
1F
100
AcDbEntity
  8
0
  6
Continuous
 62
     7
370
    15
100
AcDbLine
 10
126.6266564572
 20
59.1428094321
 30
0.0
 11
126.6266564572
 21
54.6428086944
 31
0.0
  0
LINE
  5
235
330
1F
100
AcDbEntity
  8
0
  6
Continuous
 62
     7
370
    15
100
AcDbLine
 10
140.2566573316
 20
59.1428094321
 30
0.0
 11
126.6266564572
 21
59.1428094321
 31
0.0
  0
LINE
  5
236
330
1F
100
AcDbEntity
  8
0
  6
Continuous
 62
     7
370
    15
100
AcDbLine
 10
145.6252043829
 20
97.8544926266
 30
0.0
 11
145.6252043829
 21
92.5044933329
 31
0.0
  0
LINE
  5
237
330
1F
100
AcDbEntity
  8
0
  6
Continuous
 62
     7
370
    15
100
AcDbLine
 10
156.6252042069
 20
97.8544926266
 30
0.0
 11
145.6252043829
 21
97.8544926266
 31
0.0
  0
LINE
  5
238
330
1F
100
AcDbEntity
  8
0
  6
Continuous
 62
     7
370
    15
100
AcDbLine
 10
156.6252042069
 20
92.5044933329
 30
0.0
 11
156.6252042069
 21
97.8544926266
 31
0.0
  0
LINE
  5
239
330
1F
100
AcDbEntity
  8
0
  6
Continuous
 62
     7
370
    15
100
AcDbLine
 10
170.2552042664
 20
92.5044933329
 30
0.0
 11
156.6252042069
 21
92.5044933329
 31
0.0
  0
LINE
  5
23A
330
1F
100
AcDbEntity
  8
0
  6
Continuous
 62
     7
370
    15
100
AcDbLine
 10
170.2552042664
 20
88.0044925953
 30
0.0
 11
170.2552042664
 21
92.5044933329
 31
0.0
  0
LINE
  5
23B
330
1F
100
AcDbEntity
  8
0
  6
Continuous
 62
     7
370
    15
100
AcDbLine
 10
186.3052049414
 20
88.0044925953
 30
0.0
 11
170.2552042664
 21
88.0044925953
 31
0.0
  0
LINE
  5
23C
330
1F
100
AcDbEntity
  8
0
  6
Continuous
 62
     7
370
    15
100
AcDbLine
 10
186.3052049414
 20
83.0044927071
 30
0.0
 11
186.3052049414
 21
88.0044925953
 31
0.0
  0
LINE
  5
23D
330
1F
100
AcDbEntity
  8
0
  6
Continuous
 62
     7
370
    15
100
AcDbLine
 10
170.2552042664
 20
83.0044927071
 30
0.0
 11
186.3052049414
 21
83.0044927071
 31
0.0
  0
LINE
  5
23E
330
1F
100
AcDbEntity
  8
0
  6
Continuous
 62
     7
370
    15
100
AcDbLine
 10
170.2552042664
 20
78.5044929008
 30
0.0
 11
170.2552042664
 21
83.0044927071
 31
0.0
  0
LINE
  5
23F
330
1F
100
AcDbEntity
  8
0
  6
Continuous
 62
     7
370
    15
100
AcDbLine
 10
131.9952035085
 20
78.5044929008
 30
0.0
 11
170.2552042664
 21
78.5044929008
 31
0.0
  0
LINE
  5
240
330
1F
100
AcDbEntity
  8
0
  6
Continuous
 62
     7
370
    15
100
AcDbLine
 10
131.9952035085
 20
83.0044927071
 30
0.0
 11
131.9952035085
 21
78.5044929008
 31
0.0
  0
LINE
  5
241
330
1F
100
AcDbEntity
  8
0
  6
Continuous
 62
     7
370
    15
100
AcDbLine
 10
115.9452037648
 20
83.0044927071
 30
0.0
 11
131.9952035085
 21
83.0044927071
 31
0.0
  0
LINE
  5
242
330
1F
100
AcDbEntity
  8
0
  6
Continuous
 62
     7
370
    15
100
AcDbLine
 10
115.9452037648
 20
88.0044925953
 30
0.0
 11
115.9452037648
 21
83.0044927071
 31
0.0
  0
LINE
  5
243
330
1F
100
AcDbEntity
  8
0
  6
Continuous
 62
     7
370
    15
100
AcDbLine
 10
131.9952035085
 20
88.0044925953
 30
0.0
 11
115.9452037648
 21
88.0044925953
 31
0.0
  0
LINE
  5
244
330
1F
100
AcDbEntity
  8
0
  6
Continuous
 62
     7
370
    15
100
AcDbLine
 10
131.9952035085
 20
92.5044933329
 30
0.0
 11
131.9952035085
 21
88.0044925953
 31
0.0
  0
LINE
  5
245
330
1F
100
AcDbEntity
  8
0
  6
Continuous
 62
     7
370
    15
100
AcDbLine
 10
145.6252043829
 20
92.5044933329
 30
0.0
 11
131.9952035085
 21
92.5044933329
 31
0.0
  0
LINE
  5
246
330
1F
100
AcDbEntity
  8
0
  6
Continuous
 62
     7
370
    15
100
AcDbLine
 10
167.6205205468
 20
92.5130577068
 30
0.0
 11
167.6205205468
 21
97.8630570005
 31
0.0
  0
LINE
  5
247
330
1F
100
AcDbEntity
  8
0
  6
Continuous
 62
     7
370
    15
100
AcDbLine
 10
156.6205207228
 20
92.5130577068
 30
0.0
 11
167.6205205468
 21
92.5130577068
 31
0.0
  0
LINE
  5
248
330
1F
100
AcDbEntity
  8
0
  6
Continuous
 62
     7
370
    15
100
AcDbLine
 10
156.6205207228
 20
97.8630570005
 30
0.0
 11
156.6205207228
 21
92.5130577068
 31
0.0
  0
LINE
  5
249
330
1F
100
AcDbEntity
  8
0
  6
Continuous
 62
     7
370
    15
100
AcDbLine
 10
142.9905206633
 20
97.8630570005
 30
0.0
 11
156.6205207228
 21
97.8630570005
 31
0.0
  0
LINE
  5
24A
330
1F
100
AcDbEntity
  8
0
  6
Continuous
 62
     7
370
    15
100
AcDbLine
 10
142.9905206633
 20
102.3630577381
 30
0.0
 11
142.9905206633
 21
97.8630570005
 31
0.0
  0
LINE
  5
24B
330
1F
100
AcDbEntity
  8
0
  6
Continuous
 62
     7
370
    15
100
AcDbLine
 10
126.9405199883
 20
102.3630577381
 30
0.0
 11
142.9905206633
 21
102.3630577381
 31
0.0
  0
LINE
  5
24C
330
1F
100
AcDbEntity
  8
0
  6
Continuous
 62
     7
370
    15
100
AcDbLine
 10
126.9405199883
 20
107.3630576264
 30
0.0
 11
126.9405199883
 21
102.3630577381
 31
0.0
  0
LINE
  5
24D
330
1F
100
AcDbEntity
  8
0
  6
Continuous
 62
     7
370
    15
100
AcDbLine
 10
142.9905206633
 20
107.3630576264
 30
0.0
 11
126.9405199883
 21
107.3630576264
 31
0.0
  0
LINE
  5
24E
330
1F
100
AcDbEntity
  8
0
  6
Continuous
 62
     7
370
    15
100
AcDbLine
 10
142.9905206633
 20
111.8630574326
 30
0.0
 11
142.9905206633
 21
107.3630576264
 31
0.0
  0
LINE
  5
24F
330
1F
100
AcDbEntity
  8
0
  6
Continuous
 62
     7
370
    15
100
AcDbLine
 10
181.2505214212
 20
111.8630574326
 30
0.0
 11
142.9905206633
 21
111.8630574326
 31
0.0
  0
LINE
  5
250
330
1F
100
AcDbEntity
  8
0
  6
Continuous
 62
     7
370
    15
100
AcDbLine
 10
181.2505214212
 20
107.3630576264
 30
0.0
 11
181.2505214212
 21
111.8630574326
 31
0.0
  0
LINE
  5
251
330
1F
100
AcDbEntity
  8
0
  6
Continuous
 62
     7
370
    15
100
AcDbLine
 10
197.3005211649
 20
107.3630576264
 30
0.0
 11
181.2505214212
 21
107.3630576264
 31
0.0
  0
LINE
  5
252
330
1F
100
AcDbEntity
  8
0
  6
Continuous
 62
     7
370
    15
100
AcDbLine
 10
197.3005211649
 20
102.3630577381
 30
0.0
 11
197.3005211649
 21
107.3630576264
 31
0.0
  0
LINE
  5
253
330
1F
100
AcDbEntity
  8
0
  6
Continuous
 62
     7
370
    15
100
AcDbLine
 10
181.2505214212
 20
102.3630577381
 30
0.0
 11
197.3005211649
 21
102.3630577381
 31
0.0
  0
LINE
  5
254
330
1F
100
AcDbEntity
  8
0
  6
Continuous
 62
     7
370
    15
100
AcDbLine
 10
181.2505214212
 20
97.8630570005
 30
0.0
 11
181.2505214212
 21
102.3630577381
 31
0.0
  0
LINE
  5
255
330
1F
100
AcDbEntity
  8
0
  6
Continuous
 62
     7
370
    15
100
AcDbLine
 10
167.6205205468
 20
97.8630570005
 30
0.0
 11
181.2505214212
 21
97.8630570005
 31
0.0
  0
LINE
  5
256
330
1F
100
AcDbEntity
  8
0
  6
Continuous
 62
     7
370
    15
100
AcDbLine
 10
162.2514383252
 20
59.1537799497
 30
0.0
 11
162.2514383252
 21
64.5037792434
 31
0.0
  0
LINE
  5
257
330
1F
100
AcDbEntity
  8
0
  6
Continuous
 62
     7
370
    15
100
AcDbLine
 10
151.2514385012
 20
59.1537799497
 30
0.0
 11
162.2514383252
 21
59.1537799497
 31
0.0
  0
LINE
  5
258
330
1F
100
AcDbEntity
  8
0
  6
Continuous
 62
     7
370
    15
100
AcDbLine
 10
151.2514385012
 20
64.5037792434
 30
0.0
 11
151.2514385012
 21
59.1537799497
 31
0.0
  0
LINE
  5
259
330
1F
100
AcDbEntity
  8
0
  6
Continuous
 62
     7
370
    15
100
AcDbLine
 10
137.6214384418
 20
64.5037792434
 30
0.0
 11
151.2514385012
 21
64.5037792434
 31
0.0
  0
LINE
  5
25A
330
1F
100
AcDbEntity
  8
0
  6
Continuous
 62
     7
370
    15
100
AcDbLine
 10
137.6214384418
 20
69.003779981
 30
0.0
 11
137.6214384418
 21
64.5037792434
 31
0.0
  0
LINE
  5
25B
330
1F
100
AcDbEntity
  8
0
  6
Continuous
 62
     7
370
    15
100
AcDbLine
 10
121.5714377667
 20
69.003779981
 30
0.0
 11
137.6214384418
 21
69.003779981
 31
0.0
  0
LINE
  5
25C
330
1F
100
AcDbEntity
  8
0
  6
Continuous
 62
     7
370
    15
100
AcDbLine
 10
121.5714377667
 20
74.0037798692
 30
0.0
 11
121.5714377667
 21
69.003779981
 31
0.0
  0
LINE
  5
25D
330
1F
100
AcDbEntity
  8
0
  6
Continuous
 62
     7
370
    15
100
AcDbLine
 10
137.6214384418
 20
74.0037798692
 30
0.0
 11
121.5714377667
 21
74.0037798692
 31
0.0
  0
LINE
  5
25E
330
1F
100
AcDbEntity
  8
0
  6
Continuous
 62
     7
370
    15
100
AcDbLine
 10
137.6214384418
 20
78.5037796755
 30
0.0
 11
137.6214384418
 21
74.0037798692
 31
0.0
  0
LINE
  5
25F
330
1F
100
AcDbEntity
  8
0
  6
Continuous
 62
     7
370
    15
100
AcDbLine
 10
175.8814391996
 20
78.5037796755
 30
0.0
 11
137.6214384418
 21
78.5037796755
 31
0.0
  0
LINE
  5
260
330
1F
100
AcDbEntity
  8
0
  6
Continuous
 62
     7
370
    15
100
AcDbLine
 10
175.8814391996
 20
74.0037798692
 30
0.0
 11
175.8814391996
 21
78.5037796755
 31
0.0
  0
LINE
  5
261
330
1F
100
AcDbEntity
  8
0
  6
Continuous
 62
     7
370
    15
100
AcDbLine
 10
191.9314389433
 20
74.0037798692
 30
0.0
 11
175.8814391996
 21
74.0037798692
 31
0.0
  0
LINE
  5
262
330
1F
100
AcDbEntity
  8
0
  6
Continuous
 62
     7
370
    15
100
AcDbLine
 10
191.9314389433
 20
69.003779981
 30
0.0
 11
191.9314389433
 21
74.0037798692
 31
0.0
  0
LINE
  5
263
330
1F
100
AcDbEntity
  8
0
  6
Continuous
 62
     7
370
    15
100
AcDbLine
 10
175.8814391996
 20
69.003779981
 30
0.0
 11
191.9314389433
 21
69.003779981
 31
0.0
  0
LINE
  5
264
330
1F
100
AcDbEntity
  8
0
  6
Continuous
 62
     7
370
    15
100
AcDbLine
 10
175.8814391996
 20
64.5037792434
 30
0.0
 11
175.8814391996
 21
69.003779981
 31
0.0
  0
LINE
  5
265
330
1F
100
AcDbEntity
  8
0
  6
Continuous
 62
     7
370
    15
100
AcDbLine
 10
162.2514383252
 20
64.5037792434
 30
0.0
 11
175.8814391996
 21
64.5037792434
 31
0.0
  0
CIRCLE
  5
266
330
1F
100
AcDbEntity
  8
0
  6
Continuous
 62
     7
370
    15
100
AcDbCircle
 10
164.3911450361
 20
37.3472470816
 30
0.0
 40
4.0
  0
LINE
  5
267
330
1F
100
AcDbEntity
  8
0
  6
Continuous
 62
     7
370
    15
100
AcDbLine
 10
202.3911446635
 20
39.8472467761
 30
0.0
 11
202.3911446635
 21
34.8472468878
 31
0.0
  0
LINE
  5
268
330
1F
100
AcDbEntity
  8
0
  6
Continuous
 62
     7
370
    15
100
AcDbLine
 10
202.3911446635
 20
34.8472468878
 30
0.0
 11
207.7411458199
 21
34.8472468878
 31
0.0
  0
LINE
  5
269
330
1F
100
AcDbEntity
  8
0
  6
Continuous
 62
     7
370
    15
100
AcDbLine
 10
207.7411458199
 20
34.8472468878
 30
0.0
 11
207.7411458199
 21
39.8472467761
 31
0.0
  0
LINE
  5
26A
330
1F
100
AcDbEntity
  8
0
  6
Continuous
 62
     7
370
    15
100
AcDbLine
 10
207.7411458199
 20
39.8472467761
 30
0.0
 11
202.3911446635
 21
39.8472467761
 31
0.0
  0
LINE
  5
26B
330
1F
100
AcDbEntity
  8
0
  6
Continuous
 62
     7
370
    15
100
AcDbLine
 10
182.3911432479
 20
34.8472468878
 30
0.0
 11
182.3911432479
 21
39.8472467761
 31
0.0
  0
LINE
  5
26C
330
1F
100
AcDbEntity
  8
0
  6
Continuous
 62
     7
370
    15
100
AcDbLine
 10
182.3911432479
 20
39.8472467761
 30
0.0
 11
177.0411458169
 21
39.8472467761
 31
0.0
  0
LINE
  5
26D
330
1F
100
AcDbEntity
  8
0
  6
Continuous
 62
     7
370
    15
100
AcDbLine
 10
177.0411458169
 20
39.8472467761
 30
0.0
 11
177.0411458169
 21
34.8472468878
 31
0.0
  0
LINE
  5
26E
330
1F
100
AcDbEntity
  8
0
  6
Continuous
 62
     7
370
    15
100
AcDbLine
 10
177.0411458169
 20
34.8472468878
 30
0.0
 11
182.3911432479
 21
34.8472468878
 31
0.0
  0
LINE
  5
26F
330
1F
100
AcDbEntity
  8
0
  6
Continuous
 62
     7
370
    15
100
AcDbLine
 10
227.3911450361
 20
30.3472470816
 30
0.0
 11
227.3911450361
 21
44.3472475137
 31
0.0
  0
LINE
  5
270
330
1F
100
AcDbEntity
  8
0
  6
Continuous
 62
     7
370
    15
100
AcDbLine
 10
213.3911446039
 20
30.3472470816
 30
0.0
 11
227.3911450361
 21
30.3472470816
 31
0.0
  0
LINE
  5
271
330
1F
100
AcDbEntity
  8
0
  6
Continuous
 62
     7
370
    15
100
AcDbLine
 10
213.3911446039
 20
24.9972468565
 30
0.0
 11
213.3911446039
 21
30.3472470816
 31
0.0
  0
LINE
  5
272
330
1F
100
AcDbEntity
  8
0
  6
Continuous
 62
     7
370
    15
100
AcDbLine
 10
199.3911441718
 20
24.9972468565
 30
0.0
 11
213.3911446039
 21
24.9972468565
 31
0.0
  0
LINE
  5
273
330
1F
100
AcDbEntity
  8
0
  6
Continuous
 62
     7
370
    15
100
AcDbLine
 10
199.3911441718
 20
30.3472470816
 30
0.0
 11
199.3911441718
 21
24.9972468565
 31
0.0
  0
LINE
  5
274
330
1F
100
AcDbEntity
  8
0
  6
Continuous
 62
     7
370
    15
100
AcDbLine
 10
185.3911456023
 20
30.3472470816
 30
0.0
 11
199.3911441718
 21
30.3472470816
 31
0.0
  0
LINE
  5
275
330
1F
100
AcDbEntity
  8
0
  6
Continuous
 62
     7
370
    15
100
AcDbLine
 10
185.3911456023
 20
24.9972468565
 30
0.0
 11
185.3911456023
 21
30.3472470816
 31
0.0
  0
LINE
  5
276
330
1F
100
AcDbEntity
  8
0
  6
Continuous
 62
     7
370
    15
100
AcDbLine
 10
171.3911433075
 20
24.9972468565
 30
0.0
 11
185.3911456023
 21
24.9972468565
 31
0.0
  0
LINE
  5
277
330
1F
100
AcDbEntity
  8
0
  6
Continuous
 62
     7
370
    15
100
AcDbLine
 10
171.3911433075
 20
30.3472470816
 30
0.0
 11
171.3911433075
 21
24.9972468565
 31
0.0
  0
LINE
  5
278
330
1F
100
AcDbEntity
  8
0
  6
Continuous
 62
     7
370
    15
100
AcDbLine
 10
157.391144738
 20
30.3472470816
 30
0.0
 11
171.3911433075
 21
30.3472470816
 31
0.0
  0
LINE
  5
279
330
1F
100
AcDbEntity
  8
0
  6
Continuous
 62
     7
370
    15
100
AcDbLine
 10
157.391144738
 20
44.3472475137
 30
0.0
 11
157.391144738
 21
30.3472470816
 31
0.0
  0
LINE
  5
27A
330
1F
100
AcDbEntity
  8
0
  6
Continuous
 62
     7
370
    15
100
AcDbLine
 10
227.3911450361
 20
44.3472475137
 30
0.0
 11
157.391144738
 21
44.3472475137
 31
0.0
  0
LINE
  5
27B
330
1F
100
AcDbEntity
  8
0
  6
Continuous
 62
     7
370
    15
100
AcDbLine
 10
198.7419974361
 20
37.3472472976
 30
0.0
 11
195.5665711616
 21
42.8472472678
 31
0.0
  0
LINE
  5
27C
330
1F
100
AcDbEntity
  8
0
  6
Continuous
 62
     7
370
    15
100
AcDbLine
 10
195.5665711616
 20
42.8472472678
 30
0.0
 11
189.2157186125
 21
42.8472472678
 31
0.0
  0
LINE
  5
27D
330
1F
100
AcDbEntity
  8
0
  6
Continuous
 62
     7
370
    15
100
AcDbLine
 10
189.2157186125
 20
42.8472472678
 30
0.0
 11
186.040292338
 21
37.3472472976
 31
0.0
  0
LINE
  5
27E
330
1F
100
AcDbEntity
  8
0
  6
Continuous
 62
     7
370
    15
100
AcDbLine
 10
186.040292338
 20
37.3472472976
 30
0.0
 11
189.2157186125
 21
31.8472470946
 31
0.0
  0
LINE
  5
27F
330
1F
100
AcDbEntity
  8
0
  6
Continuous
 62
     7
370
    15
100
AcDbLine
 10
189.2157186125
 20
31.8472470946
 30
0.0
 11
195.5665711616
 21
31.8472470946
 31
0.0
  0
LINE
  5
280
330
1F
100
AcDbEntity
  8
0
  6
Continuous
 62
     7
370
    15
100
AcDbLine
 10
195.5665711616
 20
31.8472470946
 30
0.0
 11
198.7419974361
 21
37.3472472976
 31
0.0
  0
CIRCLE
  5
281
330
1F
100
AcDbEntity
  8
0
  6
Continuous
 62
     7
370
    15
100
AcDbCircle
 10
220.3911450361
 20
37.3472470816
 30
0.0
 40
4.0
  0
CIRCLE
  5
282
330
1F
100
AcDbEntity
  8
0
  6
Continuous
 62
     7
370
    15
100
AcDbCircle
 10
234.3906858894
 20
37.3456147761
 30
0.0
 40
4.0
  0
LINE
  5
283
330
1F
100
AcDbEntity
  8
0
  6
Continuous
 62
     7
370
    15
100
AcDbLine
 10
272.3906855169
 20
39.8456144706
 30
0.0
 11
272.3906855169
 21
34.8456145823
 31
0.0
  0
LINE
  5
284
330
1F
100
AcDbEntity
  8
0
  6
Continuous
 62
     7
370
    15
100
AcDbLine
 10
272.3906855169
 20
34.8456145823
 30
0.0
 11
277.7406866732
 21
34.8456145823
 31
0.0
  0
LINE
  5
285
330
1F
100
AcDbEntity
  8
0
  6
Continuous
 62
     7
370
    15
100
AcDbLine
 10
277.7406866732
 20
34.8456145823
 30
0.0
 11
277.7406866732
 21
39.8456144706
 31
0.0
  0
LINE
  5
286
330
1F
100
AcDbEntity
  8
0
  6
Continuous
 62
     7
370
    15
100
AcDbLine
 10
277.7406866732
 20
39.8456144706
 30
0.0
 11
272.3906855169
 21
39.8456144706
 31
0.0
  0
LINE
  5
287
330
1F
100
AcDbEntity
  8
0
  6
Continuous
 62
     7
370
    15
100
AcDbLine
 10
252.3906841013
 20
34.8456145823
 30
0.0
 11
252.3906841013
 21
39.8456144706
 31
0.0
  0
LINE
  5
288
330
1F
100
AcDbEntity
  8
0
  6
Continuous
 62
     7
370
    15
100
AcDbLine
 10
252.3906841013
 20
39.8456144706
 30
0.0
 11
247.0406866703
 21
39.8456144706
 31
0.0
  0
LINE
  5
289
330
1F
100
AcDbEntity
  8
0
  6
Continuous
 62
     7
370
    15
100
AcDbLine
 10
247.0406866703
 20
39.8456144706
 30
0.0
 11
247.0406866703
 21
34.8456145823
 31
0.0
  0
LINE
  5
28A
330
1F
100
AcDbEntity
  8
0
  6
Continuous
 62
     7
370
    15
100
AcDbLine
 10
247.0406866703
 20
34.8456145823
 30
0.0
 11
252.3906841013
 21
34.8456145823
 31
0.0
  0
LINE
  5
28B
330
1F
100
AcDbEntity
  8
0
  6
Continuous
 62
     7
370
    15
100
AcDbLine
 10
297.3906858894
 20
30.3456147761
 30
0.0
 11
297.3906858894
 21
44.3456152082
 31
0.0
  0
LINE
  5
28C
330
1F
100
AcDbEntity
  8
0
  6
Continuous
 62
     7
370
    15
100
AcDbLine
 10
283.3906854573
 20
30.3456147761
 30
0.0
 11
297.3906858894
 21
30.3456147761
 31
0.0
  0
LINE
  5
28D
330
1F
100
AcDbEntity
  8
0
  6
Continuous
 62
     7
370
    15
100
AcDbLine
 10
283.3906854573
 20
24.995614551
 30
0.0
 11
283.3906854573
 21
30.3456147761
 31
0.0
  0
LINE
  5
28E
330
1F
100
AcDbEntity
  8
0
  6
Continuous
 62
     7
370
    15
100
AcDbLine
 10
269.3906850252
 20
24.995614551
 30
0.0
 11
283.3906854573
 21
24.995614551
 31
0.0
  0
LINE
  5
28F
330
1F
100
AcDbEntity
  8
0
  6
Continuous
 62
     7
370
    15
100
AcDbLine
 10
269.3906850252
 20
30.3456147761
 30
0.0
 11
269.3906850252
 21
24.995614551
 31
0.0
  0
LINE
  5
290
330
1F
100
AcDbEntity
  8
0
  6
Continuous
 62
     7
370
    15
100
AcDbLine
 10
255.3906864557
 20
30.3456147761
 30
0.0
 11
269.3906850252
 21
30.3456147761
 31
0.0
  0
LINE
  5
291
330
1F
100
AcDbEntity
  8
0
  6
Continuous
 62
     7
370
    15
100
AcDbLine
 10
255.3906864557
 20
24.995614551
 30
0.0
 11
255.3906864557
 21
30.3456147761
 31
0.0
  0
LINE
  5
292
330
1F
100
AcDbEntity
  8
0
  6
Continuous
 62
     7
370
    15
100
AcDbLine
 10
241.3906841609
 20
24.995614551
 30
0.0
 11
255.3906864557
 21
24.995614551
 31
0.0
  0
LINE
  5
293
330
1F
100
AcDbEntity
  8
0
  6
Continuous
 62
     7
370
    15
100
AcDbLine
 10
241.3906841609
 20
30.3456147761
 30
0.0
 11
241.3906841609
 21
24.995614551
 31
0.0
  0
LINE
  5
294
330
1F
100
AcDbEntity
  8
0
  6
Continuous
 62
     7
370
    15
100
AcDbLine
 10
227.3906855914
 20
30.3456147761
 30
0.0
 11
241.3906841609
 21
30.3456147761
 31
0.0
  0
LINE
  5
295
330
1F
100
AcDbEntity
  8
0
  6
Continuous
 62
     7
370
    15
100
AcDbLine
 10
227.3906855914
 20
44.3456152082
 30
0.0
 11
227.3906855914
 21
30.3456147761
 31
0.0
  0
LINE
  5
296
330
1F
100
AcDbEntity
  8
0
  6
Continuous
 62
     7
370
    15
100
AcDbLine
 10
297.3906858894
 20
44.3456152082
 30
0.0
 11
227.3906855914
 21
44.3456152082
 31
0.0
  0
LINE
  5
297
330
1F
100
AcDbEntity
  8
0
  6
Continuous
 62
     7
370
    15
100
AcDbLine
 10
268.7415382895
 20
37.3456149921
 30
0.0
 11
265.566112015
 21
42.8456149623
 31
0.0
  0
LINE
  5
298
330
1F
100
AcDbEntity
  8
0
  6
Continuous
 62
     7
370
    15
100
AcDbLine
 10
265.566112015
 20
42.8456149623
 30
0.0
 11
259.2152594659
 21
42.8456149623
 31
0.0
  0
LINE
  5
299
330
1F
100
AcDbEntity
  8
0
  6
Continuous
 62
     7
370
    15
100
AcDbLine
 10
259.2152594659
 20
42.8456149623
 30
0.0
 11
256.0398331914
 21
37.3456149921
 31
0.0
  0
LINE
  5
29A
330
1F
100
AcDbEntity
  8
0
  6
Continuous
 62
     7
370
    15
100
AcDbLine
 10
256.0398331914
 20
37.3456149921
 30
0.0
 11
259.2152594659
 21
31.8456147891
 31
0.0
  0
LINE
  5
29B
330
1F
100
AcDbEntity
  8
0
  6
Continuous
 62
     7
370
    15
100
AcDbLine
 10
259.2152594659
 20
31.8456147891
 30
0.0
 11
265.566112015
 21
31.8456147891
 31
0.0
  0
LINE
  5
29C
330
1F
100
AcDbEntity
  8
0
  6
Continuous
 62
     7
370
    15
100
AcDbLine
 10
265.566112015
 20
31.8456147891
 30
0.0
 11
268.7415382895
 21
37.3456149921
 31
0.0
  0
CIRCLE
  5
29D
330
1F
100
AcDbEntity
  8
0
  6
Continuous
 62
     7
370
    15
100
AcDbCircle
 10
290.3906858894
 20
37.3456147761
 30
0.0
 40
3.999999999999943
  0
ARC
  5
29E
330
1F
100
AcDbEntity
  8
0
  6
Continuous
 62
     7
370
    15
100
AcDbCircle
 10
7.1180813872
 20
306.444373097
 30
0.0
 40
3.0
100
AcDbArc
 50
90.0
 51
180.0
  0
ARC
  5
29F
330
1F
100
AcDbEntity
  8
0
  6
Continuous
 62
     7
370
    15
100
AcDbCircle
 10
13.8754407001
 20
306.444373097
 30
0.0
 40
3.000000000000013
100
AcDbArc
 50
45.0
 51
90.0
  0
ARC
  5
2A0
330
1F
100
AcDbEntity
  8
0
  6
Continuous
 62
     7
370
    15
100
AcDbCircle
 10
21.1180813872
 20
299.2017324098
 30
0.0
 40
2.999999999999996
100
AcDbArc
 50
0.0
 51
45.0
  0
ARC
  5
2A1
330
1F
100
AcDbEntity
  8
0
  6
Continuous
 62
     7
370
    15
100
AcDbCircle
 10
21.1180813872
 20
292.444373097
 30
0.0
 40
3.0
100
AcDbArc
 50
270.0
 51
0.0
  0
ARC
  5
2A2
330
1F
100
AcDbEntity
  8
0
  6
Continuous
 62
     7
370
    15
100
AcDbCircle
 10
7.1180813872
 20
292.444373097
 30
0.0
 40
3.0
100
AcDbArc
 50
180.0
 51
270.0
  0
CIRCLE
  5
2A3
330
1F
100
AcDbEntity
  8
0
  6
Continuous
 62
     7
370
    15
100
AcDbCircle
 10
10.1180813872
 20
295.444373097
 30
0.0
 40
0.4999999999999982
  0
CIRCLE
  5
2A4
330
1F
100
AcDbEntity
  8
0
  6
Continuous
 62
     7
370
    15
100
AcDbCircle
 10
17.3180813872
 20
295.604373097
 30
0.0
 40
1.624999999999996
  0
CIRCLE
  5
2A5
330
1F
100
AcDbEntity
  8
0
  6
Continuous
 62
     7
370
    15
100
AcDbCircle
 10
10.2780813872
 20
302.644373097
 30
0.0
 40
1.624999999999998
  0
LINE
  5
2A6
330
1F
100
AcDbEntity
  8
0
  6
Continuous
 62
     7
370
    15
100
AcDbLine
 10
4.1180813872
 20
306.4443740208
 30
0.0
 11
4.1180813872
 21
292.444373123
 31
0.0
  0
LINE
  5
2A7
330
1F
100
AcDbEntity
  8
0
  6
Continuous
 62
     7
370
    15
100
AcDbLine
 10
13.8754408994
 20
309.4443726499
 30
0.0
 11
7.1180814133
 21
309.4443726499
 31
0.0
  0
LINE
  5
2A8
330
1F
100
AcDbEntity
  8
0
  6
Continuous
 62
     7
370
    15
100
AcDbLine
 10
23.2394023054
 20
301.3230526034
 30
0.0
 11
15.9967608937
 21
308.5656940152
 31
0.0
  0
LINE
  5
2A9
330
1F
100
AcDbEntity
  8
0
  6
Continuous
 62
     7
370
    15
100
AcDbLine
 10
24.1180809402
 20
292.444373123
 30
0.0
 11
24.1180809402
 21
299.2017326091
 31
0.0
  0
LINE
  5
2AA
330
1F
100
AcDbEntity
  8
0
  6
Continuous
 62
     7
370
    15
100
AcDbLine
 10
7.1180814133
 20
289.444373097
 30
0.0
 11
21.1180823111
 21
289.444373097
 31
0.0
  0
CIRCLE
  5
2AB
330
1F
100
AcDbEntity
  8
0
  6
Continuous
 62
     7
370
    15
100
AcDbCircle
 10
10.2780813872
 20
302.644373097
 30
0.0
 40
1.199999999999999
  0
CIRCLE
  5
2AC
330
1F
100
AcDbEntity
  8
0
  6
Continuous
 62
     7
370
    15
100
AcDbCircle
 10
17.3180813872
 20
295.604373097
 30
0.0
 40
1.200000000000003
  0
ARC
  5
2AD
330
1F
100
AcDbEntity
  8
0
  6
Continuous
 62
     7
370
    15
100
AcDbCircle
 10
7.004467009
 20
242.8757853697
 30
0.0
 40
3.0
100
AcDbArc
 50
90.0
 51
180.0
  0
ARC
  5
2AE
330
1F
100
AcDbEntity
  8
0
  6
Continuous
 62
     7
370
    15
100
AcDbCircle
 10
13.7618263219
 20
242.8757853697
 30
0.0
 40
3.0
100
AcDbArc
 50
45.0
 51
90.0
  0
ARC
  5
2AF
330
1F
100
AcDbEntity
  8
0
  6
Continuous
 62
     7
370
    15
100
AcDbCircle
 10
21.004467009
 20
235.6331446826
 30
0.0
 40
3.000000000000012
100
AcDbArc
 50
0.0
 51
45.0
  0
ARC
  5
2B0
330
1F
100
AcDbEntity
  8
0
  6
Continuous
 62
     7
370
    15
100
AcDbCircle
 10
21.004467009
 20
228.8757853697
 30
0.0
 40
3.0
100
AcDbArc
 50
270.0
 51
0.0
  0
ARC
  5
2B1
330
1F
100
AcDbEntity
  8
0
  6
Continuous
 62
     7
370
    15
100
AcDbCircle
 10
7.004467009
 20
228.8757853697
 30
0.0
 40
3.0
100
AcDbArc
 50
180.0
 51
270.0
  0
CIRCLE
  5
2B2
330
1F
100
AcDbEntity
  8
0
  6
Continuous
 62
     7
370
    15
100
AcDbCircle
 10
10.004467009
 20
231.8757853697
 30
0.0
 40
0.5
  0
CIRCLE
  5
2B3
330
1F
100
AcDbEntity
  8
0
  6
Continuous
 62
     7
370
    15
100
AcDbCircle
 10
17.204467009
 20
232.0357853697
 30
0.0
 40
1.624999999999996
  0
CIRCLE
  5
2B4
330
1F
100
AcDbEntity
  8
0
  6
Continuous
 62
     7
370
    15
100
AcDbCircle
 10
10.164467009
 20
239.0757853697
 30
0.0
 40
1.625
  0
LINE
  5
2B5
330
1F
100
AcDbEntity
  8
0
  6
Continuous
 62
     7
370
    15
100
AcDbLine
 10
4.004467009
 20
242.8757862935
 30
0.0
 11
4.004467009
 21
228.8757853958
 31
0.0
  0
LINE
  5
2B6
330
1F
100
AcDbEntity
  8
0
  6
Continuous
 62
     7
370
    15
100
AcDbLine
 10
13.7618265211
 20
245.8757849226
 30
0.0
 11
7.0044670351
 21
245.8757849226
 31
0.0
  0
LINE
  5
2B7
330
1F
100
AcDbEntity
  8
0
  6
Continuous
 62
     7
370
    15
100
AcDbLine
 10
23.1257879272
 20
237.7544648762
 30
0.0
 11
15.8831465155
 21
244.9971062879
 31
0.0
  0
LINE
  5
2B8
330
1F
100
AcDbEntity
  8
0
  6
Continuous
 62
     7
370
    15
100
AcDbLine
 10
24.004466562
 20
228.8757853958
 30
0.0
 11
24.004466562
 21
235.6331448818
 31
0.0
  0
LINE
  5
2B9
330
1F
100
AcDbEntity
  8
0
  6
Continuous
 62
     7
370
    15
100
AcDbLine
 10
7.0044670351
 20
225.8757853697
 30
0.0
 11
21.0044679329
 21
225.8757853697
 31
0.0
  0
CIRCLE
  5
2BA
330
1F
100
AcDbEntity
  8
0
  6
Continuous
 62
     7
370
    15
100
AcDbCircle
 10
10.164467009
 20
239.0757853697
 30
0.0
 40
1.199999999999999
  0
CIRCLE
  5
2BB
330
1F
100
AcDbEntity
  8
0
  6
Continuous
 62
     7
370
    15
100
AcDbCircle
 10
17.204467009
 20
232.0357853697
 30
0.0
 40
1.200000000000003
  0
ARC
  5
2BC
330
1F
100
AcDbEntity
  8
0
  6
Continuous
 62
     7
370
    15
100
AcDbCircle
 10
7.5990696963
 20
264.4632146012
 30
0.0
 40
3.0
100
AcDbArc
 50
90.0
 51
180.0
  0
ARC
  5
2BD
330
1F
100
AcDbEntity
  8
0
  6
Continuous
 62
     7
370
    15
100
AcDbCircle
 10
14.3564290091
 20
264.4632146012
 30
0.0
 40
3.000000000000012
100
AcDbArc
 50
45.0
 51
90.0
  0
ARC
  5
2BE
330
1F
100
AcDbEntity
  8
0
  6
Continuous
 62
     7
370
    15
100
AcDbCircle
 10
21.5990696963
 20
257.2205739141
 30
0.0
 40
3.000000000000004
100
AcDbArc
 50
0.0
 51
45.0
  0
ARC
  5
2BF
330
1F
100
AcDbEntity
  8
0
  6
Continuous
 62
     7
370
    15
100
AcDbCircle
 10
21.5990696963
 20
250.4632146012
 30
0.0
 40
3.000000000000004
100
AcDbArc
 50
270.0
 51
0.0
  0
ARC
  5
2C0
330
1F
100
AcDbEntity
  8
0
  6
Continuous
 62
     7
370
    15
100
AcDbCircle
 10
7.5990696963
 20
250.4632146012
 30
0.0
 40
3.0
100
AcDbArc
 50
180.0
 51
270.0
  0
CIRCLE
  5
2C1
330
1F
100
AcDbEntity
  8
0
  6
Continuous
 62
     7
370
    15
100
AcDbCircle
 10
10.5990696963
 20
253.4632146012
 30
0.0
 40
0.4999999999999982
  0
CIRCLE
  5
2C2
330
1F
100
AcDbEntity
  8
0
  6
Continuous
 62
     7
370
    15
100
AcDbCircle
 10
17.7990696963
 20
253.6232146012
 30
0.0
 40
1.625
  0
CIRCLE
  5
2C3
330
1F
100
AcDbEntity
  8
0
  6
Continuous
 62
     7
370
    15
100
AcDbCircle
 10
10.7590696963
 20
260.6632146012
 30
0.0
 40
1.624999999999998
  0
LINE
  5
2C4
330
1F
100
AcDbEntity
  8
0
  6
Continuous
 62
     7
370
    15
100
AcDbLine
 10
4.5990696963
 20
264.4632155251
 30
0.0
 11
4.5990696963
 21
250.4632146273
 31
0.0
  0
LINE
  5
2C5
330
1F
100
AcDbEntity
  8
0
  6
Continuous
 62
     7
370
    15
100
AcDbLine
 10
14.3564292084
 20
267.4632141542
 30
0.0
 11
7.5990697223
 21
267.4632141542
 31
0.0
  0
LINE
  5
2C6
330
1F
100
AcDbEntity
  8
0
  6
Continuous
 62
     7
370
    15
100
AcDbLine
 10
23.7203906145
 20
259.3418941077
 30
0.0
 11
16.4777492027
 21
266.5845355194
 31
0.0
  0
LINE
  5
2C7
330
1F
100
AcDbEntity
  8
0
  6
Continuous
 62
     7
370
    15
100
AcDbLine
 10
24.5990692492
 20
250.4632146273
 30
0.0
 11
24.5990692492
 21
257.2205741133
 31
0.0
  0
LINE
  5
2C8
330
1F
100
AcDbEntity
  8
0
  6
Continuous
 62
     7
370
    15
100
AcDbLine
 10
7.5990697223
 20
247.4632146012
 30
0.0
 11
21.5990706201
 21
247.4632146012
 31
0.0
  0
CIRCLE
  5
2C9
330
1F
100
AcDbEntity
  8
0
  6
Continuous
 62
     7
370
    15
100
AcDbCircle
 10
10.7590696963
 20
260.6632146012
 30
0.0
 40
1.199999999999999
  0
CIRCLE
  5
2CA
330
1F
100
AcDbEntity
  8
0
  6
Continuous
 62
     7
370
    15
100
AcDbCircle
 10
17.7990696963
 20
253.6232146012
 30
0.0
 40
1.199999999999999
  0
ARC
  5
2CB
330
1F
100
AcDbEntity
  8
0
  6
Continuous
 62
     7
370
    15
100
AcDbCircle
 10
7.0984604831
 20
285.1417092499
 30
0.0
 40
3.0
100
AcDbArc
 50
90.0
 51
180.0
  0
ARC
  5
2CC
330
1F
100
AcDbEntity
  8
0
  6
Continuous
 62
     7
370
    15
100
AcDbCircle
 10
13.8558197959
 20
285.1417092499
 30
0.0
 40
3.000000000000012
100
AcDbArc
 50
45.0
 51
90.0
  0
ARC
  5
2CD
330
1F
100
AcDbEntity
  8
0
  6
Continuous
 62
     7
370
    15
100
AcDbCircle
 10
21.0984604831
 20
277.8990685628
 30
0.0
 40
3.0
100
AcDbArc
 50
0.0
 51
45.0
  0
ARC
  5
2CE
330
1F
100
AcDbEntity
  8
0
  6
Continuous
 62
     7
370
    15
100
AcDbCircle
 10
21.0984604831
 20
271.1417092499
 30
0.0
 40
3.0
100
AcDbArc
 50
270.0
 51
0.0
  0
ARC
  5
2CF
330
1F
100
AcDbEntity
  8
0
  6
Continuous
 62
     7
370
    15
100
AcDbCircle
 10
7.0984604831
 20
271.1417092499
 30
0.0
 40
3.0
100
AcDbArc
 50
180.0
 51
270.0
  0
CIRCLE
  5
2D0
330
1F
100
AcDbEntity
  8
0
  6
Continuous
 62
     7
370
    15
100
AcDbCircle
 10
10.0984604831
 20
274.1417092499
 30
0.0
 40
0.5000000000000018
  0
CIRCLE
  5
2D1
330
1F
100
AcDbEntity
  8
0
  6
Continuous
 62
     7
370
    15
100
AcDbCircle
 10
17.2984604831
 20
274.3017092499
 30
0.0
 40
1.625000000000004
  0
CIRCLE
  5
2D2
330
1F
100
AcDbEntity
  8
0
  6
Continuous
 62
     7
370
    15
100
AcDbCircle
 10
10.2584604831
 20
281.3417092499
 30
0.0
 40
1.624999999999998
  0
LINE
  5
2D3
330
1F
100
AcDbEntity
  8
0
  6
Continuous
 62
     7
370
    15
100
AcDbLine
 10
4.0984604831
 20
285.1417101737
 30
0.0
 11
4.0984604831
 21
271.1417092759
 31
0.0
  0
LINE
  5
2D4
330
1F
100
AcDbEntity
  8
0
  6
Continuous
 62
     7
370
    15
100
AcDbLine
 10
13.8558199952
 20
288.1417088028
 30
0.0
 11
7.0984605091
 21
288.1417088028
 31
0.0
  0
LINE
  5
2D5
330
1F
100
AcDbEntity
  8
0
  6
Continuous
 62
     7
370
    15
100
AcDbLine
 10
23.2197814013
 20
280.0203887564
 30
0.0
 11
15.9771399895
 21
287.2630301681
 31
0.0
  0
LINE
  5
2D6
330
1F
100
AcDbEntity
  8
0
  6
Continuous
 62
     7
370
    15
100
AcDbLine
 10
24.098460036
 20
271.1417092759
 30
0.0
 11
24.098460036
 21
277.899068762
 31
0.0
  0
LINE
  5
2D7
330
1F
100
AcDbEntity
  8
0
  6
Continuous
 62
     7
370
    15
100
AcDbLine
 10
7.0984605091
 20
268.1417092499
 30
0.0
 11
21.0984614069
 21
268.1417092499
 31
0.0
  0
CIRCLE
  5
2D8
330
1F
100
AcDbEntity
  8
0
  6
Continuous
 62
     7
370
    15
100
AcDbCircle
 10
10.2584604831
 20
281.3417092499
 30
0.0
 40
1.200000000000001
  0
CIRCLE
  5
2D9
330
1F
100
AcDbEntity
  8
0
  6
Continuous
 62
     7
370
    15
100
AcDbCircle
 10
17.2984604831
 20
274.3017092499
 30
0.0
 40
1.199999999999999
  0
ARC
  5
2DA
330
1F
100
AcDbEntity
  8
0
  6
Continuous
 62
     7
370
    15
100
AcDbCircle
 10
108.5468951373
 20
139.612792218
 30
0.0
 40
5.0
100
AcDbArc
 50
0.0
 51
90.0
  0
ARC
  5
2DB
330
1F
100
AcDbEntity
  8
0
  6
Continuous
 62
     7
370
    15
100
AcDbCircle
 10
108.5468951373
 20
137.612792218
 30
0.0
 40
5.0
100
AcDbArc
 50
270.0
 51
0.0
  0
ARC
  5
2DC
330
1F
100
AcDbEntity
  8
0
  6
Continuous
 62
     7
370
    15
100
AcDbCircle
 10
88.5468951373
 20
137.612792218
 30
0.0
 40
5.0
100
AcDbArc
 50
180.0
 51
270.0
  0
ARC
  5
2DD
330
1F
100
AcDbEntity
  8
0
  6
Continuous
 62
     7
370
    15
100
AcDbCircle
 10
88.5468951373
 20
139.612792218
 30
0.0
 40
5.0
100
AcDbArc
 50
90.0
 51
180.0
  0
CIRCLE
  5
2DE
330
1F
100
AcDbEntity
  8
0
  6
Continuous
 62
     7
370
    15
100
AcDbCircle
 10
98.5468951373
 20
138.612792218
 30
0.0
 40
0.5
  0
CIRCLE
  5
2DF
330
1F
100
AcDbEntity
  8
0
  6
Continuous
 62
     7
370
    15
100
AcDbCircle
 10
88.5468951373
 20
138.612792218
 30
0.0
 40
1.374999999999986
  0
CIRCLE
  5
2E0
330
1F
100
AcDbEntity
  8
0
  6
Continuous
 62
     7
370
    15
100
AcDbCircle
 10
108.5468951373
 20
138.612792218
 30
0.0
 40
1.375000000000014
  0
LINE
  5
2E1
330
1F
100
AcDbEntity
  8
0
  6
Continuous
 62
     7
370
    15
100
AcDbLine
 10
88.5468953608
 20
132.6127921659
 30
0.0
 11
108.5468949137
 21
132.6127921659
 31
0.0
  0
LINE
  5
2E2
330
1F
100
AcDbEntity
  8
0
  6
Continuous
 62
     7
370
    15
100
AcDbLine
 10
83.5468954725
 20
139.6127922655
 30
0.0
 11
83.5468954725
 21
137.6127921705
 31
0.0
  0
LINE
  5
2E3
330
1F
100
AcDbEntity
  8
0
  6
Continuous
 62
     7
370
    15
100
AcDbLine
 10
108.5468949137
 20
144.6127922702
 30
0.0
 11
88.5468953608
 21
144.6127922702
 31
0.0
  0
LINE
  5
2E4
330
1F
100
AcDbEntity
  8
0
  6
Continuous
 62
     7
370
    15
100
AcDbLine
 10
113.546894802
 20
137.6127921705
 30
0.0
 11
113.546894802
 21
139.6127922655
 31
0.0
  0
CIRCLE
  5
2E5
330
1F
100
AcDbEntity
  8
0
  6
Continuous
 62
     7
370
    15
100
AcDbCircle
 10
108.5468951373
 20
138.612792218
 30
0.0
 40
1.200000000000003
  0
CIRCLE
  5
2E6
330
1F
100
AcDbEntity
  8
0
  6
Continuous
 62
     7
370
    15
100
AcDbCircle
 10
88.5468951373
 20
138.612792218
 30
0.0
 40
1.200000000000003
  0
ARC
  5
2E7
330
1F
100
AcDbEntity
  8
0
  6
Continuous
 62
     7
370
    15
100
AcDbCircle
 10
39.5263386341
 20
29.2495874419
 30
0.0
 40
5.0
100
AcDbArc
 50
270.0
 51
0.0
  0
ARC
  5
2E8
330
1F
100
AcDbEntity
  8
0
  6
Continuous
 62
     7
370
    15
100
AcDbCircle
 10
37.5263386341
 20
29.2495874419
 30
0.0
 40
5.0
100
AcDbArc
 50
180.0
 51
270.0
  0
ARC
  5
2E9
330
1F
100
AcDbEntity
  8
0
  6
Continuous
 62
     7
370
    15
100
AcDbCircle
 10
37.5263386341
 20
49.2495874419
 30
0.0
 40
5.0
100
AcDbArc
 50
90.0
 51
180.0
  0
ARC
  5
2EA
330
1F
100
AcDbEntity
  8
0
  6
Continuous
 62
     7
370
    15
100
AcDbCircle
 10
39.5263386341
 20
49.2495874419
 30
0.0
 40
5.0
100
AcDbArc
 50
0.0
 51
90.0
  0
CIRCLE
  5
2EB
330
1F
100
AcDbEntity
  8
0
  6
Continuous
 62
     7
370
    15
100
AcDbCircle
 10
38.5263386341
 20
39.2495874419
 30
0.0
 40
0.4999999999999929
  0
CIRCLE
  5
2EC
330
1F
100
AcDbEntity
  8
0
  6
Continuous
 62
     7
370
    15
100
AcDbCircle
 10
38.5263386341
 20
49.2495874419
 30
0.0
 40
1.375
  0
CIRCLE
  5
2ED
330
1F
100
AcDbEntity
  8
0
  6
Continuous
 62
     7
370
    15
100
AcDbCircle
 10
38.5263386341
 20
29.2495874419
 30
0.0
 40
1.375
  0
LINE
  5
2EE
330
1F
100
AcDbEntity
  8
0
  6
Continuous
 62
     7
370
    15
100
AcDbLine
 10
32.5263385819
 20
49.2495872184
 30
0.0
 11
32.5263385819
 21
29.2495876654
 31
0.0
  0
LINE
  5
2EF
330
1F
100
AcDbEntity
  8
0
  6
Continuous
 62
     7
370
    15
100
AcDbLine
 10
39.5263386816
 20
54.2495871066
 30
0.0
 11
37.5263385866
 21
54.2495871066
 31
0.0
  0
LINE
  5
2F0
330
1F
100
AcDbEntity
  8
0
  6
Continuous
 62
     7
370
    15
100
AcDbLine
 10
44.5263386862
 20
29.2495876654
 30
0.0
 11
44.5263386862
 21
49.2495872184
 31
0.0
  0
LINE
  5
2F1
330
1F
100
AcDbEntity
  8
0
  6
Continuous
 62
     7
370
    15
100
AcDbLine
 10
37.5263385866
 20
24.2495877772
 30
0.0
 11
39.5263386816
 21
24.2495877772
 31
0.0
  0
CIRCLE
  5
2F2
330
1F
100
AcDbEntity
  8
0
  6
Continuous
 62
     7
370
    15
100
AcDbCircle
 10
38.5263386341
 20
29.2495874419
 30
0.0
 40
1.199999999999999
  0
CIRCLE
  5
2F3
330
1F
100
AcDbEntity
  8
0
  6
Continuous
 62
     7
370
    15
100
AcDbCircle
 10
38.5263386341
 20
49.2495874419
 30
0.0
 40
1.200000000000003
  0
ARC
  5
2F4
330
1F
100
AcDbEntity
  8
0
  6
Continuous
 62
     7
370
    15
100
AcDbCircle
 10
107.2268164182
 20
127.0905840581
 30
0.0
 40
5.000000000000014
100
AcDbArc
 50
0.0
 51
90.0
  0
ARC
  5
2F5
330
1F
100
AcDbEntity
  8
0
  6
Continuous
 62
     7
370
    15
100
AcDbCircle
 10
107.2268164182
 20
125.0905840581
 30
0.0
 40
5.0
100
AcDbArc
 50
270.0
 51
0.0
  0
ARC
  5
2F6
330
1F
100
AcDbEntity
  8
0
  6
Continuous
 62
     7
370
    15
100
AcDbCircle
 10
87.2268164182
 20
125.0905840581
 30
0.0
 40
5.0
100
AcDbArc
 50
180.0
 51
270.0
  0
ARC
  5
2F7
330
1F
100
AcDbEntity
  8
0
  6
Continuous
 62
     7
370
    15
100
AcDbCircle
 10
87.2268164182
 20
127.0905840581
 30
0.0
 40
5.000000000000014
100
AcDbArc
 50
90.0
 51
180.0
  0
CIRCLE
  5
2F8
330
1F
100
AcDbEntity
  8
0
  6
Continuous
 62
     7
370
    15
100
AcDbCircle
 10
97.2268164182
 20
126.0905840581
 30
0.0
 40
0.5
  0
CIRCLE
  5
2F9
330
1F
100
AcDbEntity
  8
0
  6
Continuous
 62
     7
370
    15
100
AcDbCircle
 10
87.2268164182
 20
126.0905840581
 30
0.0
 40
1.375
  0
CIRCLE
  5
2FA
330
1F
100
AcDbEntity
  8
0
  6
Continuous
 62
     7
370
    15
100
AcDbCircle
 10
107.2268164182
 20
126.0905840581
 30
0.0
 40
1.375
  0
LINE
  5
2FB
330
1F
100
AcDbEntity
  8
0
  6
Continuous
 62
     7
370
    15
100
AcDbLine
 10
87.2268166417
 20
120.0905840059
 30
0.0
 11
107.2268161947
 21
120.0905840059
 31
0.0
  0
LINE
  5
2FC
330
1F
100
AcDbEntity
  8
0
  6
Continuous
 62
     7
370
    15
100
AcDbLine
 10
82.2268167535
 20
127.0905841055
 30
0.0
 11
82.2268167535
 21
125.0905840106
 31
0.0
  0
LINE
  5
2FD
330
1F
100
AcDbEntity
  8
0
  6
Continuous
 62
     7
370
    15
100
AcDbLine
 10
107.2268161947
 20
132.0905841102
 30
0.0
 11
87.2268166417
 21
132.0905841102
 31
0.0
  0
LINE
  5
2FE
330
1F
100
AcDbEntity
  8
0
  6
Continuous
 62
     7
370
    15
100
AcDbLine
 10
112.226816083
 20
125.0905840106
 30
0.0
 11
112.226816083
 21
127.0905841055
 31
0.0
  0
CIRCLE
  5
2FF
330
1F
100
AcDbEntity
  8
0
  6
Continuous
 62
     7
370
    15
100
AcDbCircle
 10
107.2268164182
 20
126.0905840581
 30
0.0
 40
1.200000000000003
  0
CIRCLE
  5
300
330
1F
100
AcDbEntity
  8
0
  6
Continuous
 62
     7
370
    15
100
AcDbCircle
 10
87.2268164182
 20
126.0905840581
 30
0.0
 40
1.200000000000003
  0
ARC
  5
301
330
1F
100
AcDbEntity
  8
0
  6
Continuous
 62
     7
370
    15
100
AcDbCircle
 10
71.8399706453
 20
321.4738646869
 30
0.0
 40
5.000000000000014
100
AcDbArc
 50
270.0
 51
0.0
  0
ARC
  5
302
330
1F
100
AcDbEntity
  8
0
  6
Continuous
 62
     7
370
    15
100
AcDbCircle
 10
69.8399706453
 20
321.4738646869
 30
0.0
 40
5.0
100
AcDbArc
 50
180.0
 51
270.0
  0
ARC
  5
303
330
1F
100
AcDbEntity
  8
0
  6
Continuous
 62
     7
370
    15
100
AcDbCircle
 10
69.8399706453
 20
341.4738646869
 30
0.0
 40
5.0
100
AcDbArc
 50
90.0
 51
180.0
  0
ARC
  5
304
330
1F
100
AcDbEntity
  8
0
  6
Continuous
 62
     7
370
    15
100
AcDbCircle
 10
71.8399706453
 20
341.4738646869
 30
0.0
 40
5.000000000000014
100
AcDbArc
 50
0.0
 51
90.0
  0
CIRCLE
  5
305
330
1F
100
AcDbEntity
  8
0
  6
Continuous
 62
     7
370
    15
100
AcDbCircle
 10
70.8399706453
 20
331.4738646869
 30
0.0
 40
0.5
  0
CIRCLE
  5
306
330
1F
100
AcDbEntity
  8
0
  6
Continuous
 62
     7
370
    15
100
AcDbCircle
 10
70.8399706453
 20
341.4738646869
 30
0.0
 40
1.375000000000057
  0
CIRCLE
  5
307
330
1F
100
AcDbEntity
  8
0
  6
Continuous
 62
     7
370
    15
100
AcDbCircle
 10
70.8399706453
 20
321.4738646869
 30
0.0
 40
1.375000000000057
  0
LINE
  5
308
330
1F
100
AcDbEntity
  8
0
  6
Continuous
 62
     7
370
    15
100
AcDbLine
 10
64.8399705931
 20
341.4738644634
 30
0.0
 11
64.8399705931
 21
321.4738649104
 31
0.0
  0
LINE
  5
309
330
1F
100
AcDbEntity
  8
0
  6
Continuous
 62
     7
370
    15
100
AcDbLine
 10
71.8399706928
 20
346.4738643516
 30
0.0
 11
69.8399705978
 21
346.4738643516
 31
0.0
  0
LINE
  5
30A
330
1F
100
AcDbEntity
  8
0
  6
Continuous
 62
     7
370
    15
100
AcDbLine
 10
76.8399706974
 20
321.4738649104
 30
0.0
 11
76.8399706974
 21
341.4738644634
 31
0.0
  0
LINE
  5
30B
330
1F
100
AcDbEntity
  8
0
  6
Continuous
 62
     7
370
    15
100
AcDbLine
 10
69.8399705978
 20
316.4738650222
 30
0.0
 11
71.8399706928
 21
316.4738650222
 31
0.0
  0
CIRCLE
  5
30C
330
1F
100
AcDbEntity
  8
0
  6
Continuous
 62
     7
370
    15
100
AcDbCircle
 10
70.8399706453
 20
321.4738646869
 30
0.0
 40
1.200000000000045
  0
CIRCLE
  5
30D
330
1F
100
AcDbEntity
  8
0
  6
Continuous
 62
     7
370
    15
100
AcDbCircle
 10
70.8399706453
 20
341.4738646869
 30
0.0
 40
1.200000000000045
  0
ARC
  5
30E
330
1F
100
AcDbEntity
  8
0
  6
Continuous
 62
     7
370
    15
100
AcDbCircle
 10
17.1520236604
 20
335.3475206982
 30
0.0
 40
5.0
100
AcDbArc
 50
90.0
 51
180.0
  0
ARC
  5
30F
330
1F
100
AcDbEntity
  8
0
  6
Continuous
 62
     7
370
    15
100
AcDbCircle
 10
19.1520236604
 20
335.3475206982
 30
0.0
 40
5.0
100
AcDbArc
 50
0.0
 51
90.0
  0
ARC
  5
310
330
1F
100
AcDbEntity
  8
0
  6
Continuous
 62
     7
370
    15
100
AcDbCircle
 10
19.1520236604
 20
315.3475206982
 30
0.0
 40
5.0
100
AcDbArc
 50
270.0
 51
0.0
  0
ARC
  5
311
330
1F
100
AcDbEntity
  8
0
  6
Continuous
 62
     7
370
    15
100
AcDbCircle
 10
17.1520236604
 20
315.3475206982
 30
0.0
 40
5.0
100
AcDbArc
 50
180.0
 51
270.0
  0
CIRCLE
  5
312
330
1F
100
AcDbEntity
  8
0
  6
Continuous
 62
     7
370
    15
100
AcDbCircle
 10
18.1520236604
 20
325.3475206982
 30
0.0
 40
0.5
  0
CIRCLE
  5
313
330
1F
100
AcDbEntity
  8
0
  6
Continuous
 62
     7
370
    15
100
AcDbCircle
 10
18.1520236604
 20
315.3475206982
 30
0.0
 40
1.375
  0
CIRCLE
  5
314
330
1F
100
AcDbEntity
  8
0
  6
Continuous
 62
     7
370
    15
100
AcDbCircle
 10
18.1520236604
 20
335.3475206982
 30
0.0
 40
1.375
  0
LINE
  5
315
330
1F
100
AcDbEntity
  8
0
  6
Continuous
 62
     7
370
    15
100
AcDbLine
 10
24.1520237126
 20
315.3475209217
 30
0.0
 11
24.1520237126
 21
335.3475204747
 31
0.0
  0
LINE
  5
316
330
1F
100
AcDbEntity
  8
0
  6
Continuous
 62
     7
370
    15
100
AcDbLine
 10
17.1520236129
 20
310.3475210335
 30
0.0
 11
19.1520237079
 21
310.3475210335
 31
0.0
  0
LINE
  5
317
330
1F
100
AcDbEntity
  8
0
  6
Continuous
 62
     7
370
    15
100
AcDbLine
 10
12.1520236083
 20
335.3475204747
 30
0.0
 11
12.1520236083
 21
315.3475209217
 31
0.0
  0
LINE
  5
318
330
1F
100
AcDbEntity
  8
0
  6
Continuous
 62
     7
370
    15
100
AcDbLine
 10
19.1520237079
 20
340.3475203629
 30
0.0
 11
17.1520236129
 21
340.3475203629
 31
0.0
  0
CIRCLE
  5
319
330
1F
100
AcDbEntity
  8
0
  6
Continuous
 62
     7
370
    15
100
AcDbCircle
 10
18.1520236604
 20
335.3475206982
 30
0.0
 40
1.200000000000045
  0
CIRCLE
  5
31A
330
1F
100
AcDbEntity
  8
0
  6
Continuous
 62
     7
370
    15
100
AcDbCircle
 10
18.1520236604
 20
315.3475206982
 30
0.0
 40
1.199999999999989
  0
CIRCLE
  5
31B
330
1F
100
AcDbEntity
  8
0
  6
Continuous
 62
     7
370
    15
100
AcDbCircle
 10
285.2280396658
 20
14.3042898032
 30
0.0
 40
1.5
  0
CIRCLE
  5
31C
330
1F
100
AcDbEntity
  8
0
  6
Continuous
 62
     7
370
    15
100
AcDbCircle
 10
216.2280396658
 20
14.3042898032
 30
0.0
 40
1.5
  0
LINE
  5
31D
330
1F
100
AcDbEntity
  8
0
  6
Continuous
 62
     7
370
    15
100
AcDbLine
 10
244.6280397835
 20
23.3042895796
 30
0.0
 11
244.6280397835
 21
11.204289878
 31
0.0
  0
LINE
  5
31E
330
1F
100
AcDbEntity
  8
0
  6
Continuous
 62
     7
370
    15
100
AcDbLine
 10
244.6280397835
 20
11.204289878
 30
0.0
 11
267.3480404901
 21
11.204289878
 31
0.0
  0
LINE
  5
31F
330
1F
100
AcDbEntity
  8
0
  6
Continuous
 62
     7
370
    15
100
AcDbLine
 10
267.3480404901
 20
11.204289878
 30
0.0
 11
267.3480404901
 21
23.3042895796
 31
0.0
  0
CIRCLE
  5
320
330
1F
100
AcDbEntity
  8
0
  6
Continuous
 62
     7
370
    15
100
AcDbCircle
 10
270.1617148287
 20
17.3042898032
 30
0.0
 40
0.75
  0
CIRCLE
  5
321
330
1F
100
AcDbEntity
  8
0
  6
Continuous
 62
     7
370
    15
100
AcDbCircle
 10
241.8143645028
 20
17.3042898032
 30
0.0
 40
0.75
  0
LINE
  5
322
330
1F
100
AcDbEntity
  8
0
  6
Continuous
 62
     7
370
    15
100
AcDbLine
 10
210.7280405598
 20
3.3042900267
 30
0.0
 11
290.7280387717
 21
3.3042900267
 31
0.0
  0
LINE
  5
323
330
1F
100
AcDbEntity
  8
0
  6
Continuous
 62
     7
370
    15
100
AcDbLine
 10
210.7280405598
 20
23.3042895796
 30
0.0
 11
210.7280405598
 21
3.3042900267
 31
0.0
  0
LINE
  5
324
330
1F
100
AcDbEntity
  8
0
  6
Continuous
 62
     7
370
    15
100
AcDbLine
 10
244.6280397835
 20
23.3042895796
 30
0.0
 11
210.7280405598
 21
23.3042895796
 31
0.0
  0
LINE
  5
325
330
1F
100
AcDbEntity
  8
0
  6
Continuous
 62
     7
370
    15
100
AcDbLine
 10
290.7280387717
 20
3.3042900267
 30
0.0
 11
290.7280387717
 21
23.3042895796
 31
0.0
  0
LINE
  5
326
330
1F
100
AcDbEntity
  8
0
  6
Continuous
 62
     7
370
    15
100
AcDbLine
 10
290.7280387717
 20
23.3042895796
 30
0.0
 11
267.3480404901
 21
23.3042895796
 31
0.0
  0
CIRCLE
  5
327
330
1F
100
AcDbEntity
  8
0
  6
Continuous
 62
     7
370
    15
100
AcDbCircle
 10
216.2280396658
 20
14.3042898032
 30
0.0
 40
1.19999999999996
  0
CIRCLE
  5
328
330
1F
100
AcDbEntity
  8
0
  6
Continuous
 62
     7
370
    15
100
AcDbCircle
 10
285.2280396658
 20
14.3042898032
 30
0.0
 40
1.200000000000045
  0
LINE
  5
329
330
1F
100
AcDbEntity
  8
0
  6
Continuous
 62
     7
370
    15
100
AcDbLine
 10
177.8004731456
 20
2.7462588953
 30
0.0
 11
204.8004715176
 21
2.7462588953
 31
0.0
  0
LINE
  5
32A
330
1F
100
AcDbEntity
  8
0
  6
Continuous
 62
     7
370
    15
100
AcDbLine
 10
177.8004731456
 20
9.2462580981
 30
0.0
 11
177.8004731456
 21
2.7462588953
 31
0.0
  0
LINE
  5
32B
330
1F
100
AcDbEntity
  8
0
  6
Continuous
 62
     7
370
    15
100
AcDbLine
 10
172.4504719892
 20
9.2462580981
 30
0.0
 11
177.8004731456
 21
9.2462580981
 31
0.0
  0
LINE
  5
32C
330
1F
100
AcDbEntity
  8
0
  6
Continuous
 62
     7
370
    15
100
AcDbLine
 10
172.4504719892
 20
22.7462584483
 30
0.0
 11
172.4504719892
 21
9.2462580981
 31
0.0
  0
LINE
  5
32D
330
1F
100
AcDbEntity
  8
0
  6
Continuous
 62
     7
370
    15
100
AcDbLine
 10
186.8004708955
 20
22.7462584483
 30
0.0
 11
172.4504719892
 21
22.7462584483
 31
0.0
  0
LINE
  5
32E
330
1F
100
AcDbEntity
  8
0
  6
Continuous
 62
     7
370
    15
100
AcDbLine
 10
186.8004708955
 20
28.0962586733
 30
0.0
 11
186.8004708955
 21
22.7462584483
 31
0.0
  0
LINE
  5
32F
330
1F
100
AcDbEntity
  8
0
  6
Continuous
 62
     7
370
    15
100
AcDbLine
 10
195.8004723707
 20
28.0962586733
 30
0.0
 11
186.8004708955
 21
28.0962586733
 31
0.0
  0
LINE
  5
330
330
1F
100
AcDbEntity
  8
0
  6
Continuous
 62
     7
370
    15
100
AcDbLine
 10
195.8004723707
 20
22.7462584483
 30
0.0
 11
195.8004723707
 21
28.0962586733
 31
0.0
  0
LINE
  5
331
330
1F
100
AcDbEntity
  8
0
  6
Continuous
 62
     7
370
    15
100
AcDbLine
 10
210.1504717426
 20
22.7462584483
 30
0.0
 11
195.8004723707
 21
22.7462584483
 31
0.0
  0
LINE
  5
332
330
1F
100
AcDbEntity
  8
0
  6
Continuous
 62
     7
370
    15
100
AcDbLine
 10
210.1504717426
 20
9.2462580981
 30
0.0
 11
210.1504717426
 21
22.7462584483
 31
0.0
  0
LINE
  5
333
330
1F
100
AcDbEntity
  8
0
  6
Continuous
 62
     7
370
    15
100
AcDbLine
 10
204.8004715176
 20
9.2462580981
 30
0.0
 11
210.1504717426
 21
9.2462580981
 31
0.0
  0
LINE
  5
334
330
1F
100
AcDbEntity
  8
0
  6
Continuous
 62
     7
370
    15
100
AcDbLine
 10
204.8004715176
 20
2.7462588953
 30
0.0
 11
204.8004715176
 21
9.2462580981
 31
0.0
  0
LINE
  5
335
330
1F
100
AcDbEntity
  8
0
  6
Continuous
 62
     7
370
    15
100
AcDbLine
 10
87.0061061313
 20
93.3302102038
 30
0.0
 11
114.0061045034
 21
93.3302102038
 31
0.0
  0
LINE
  5
336
330
1F
100
AcDbEntity
  8
0
  6
Continuous
 62
     7
370
    15
100
AcDbLine
 10
87.0061061313
 20
99.8302094066
 30
0.0
 11
87.0061061313
 21
93.3302102038
 31
0.0
  0
LINE
  5
337
330
1F
100
AcDbEntity
  8
0
  6
Continuous
 62
     7
370
    15
100
AcDbLine
 10
81.656104975
 20
99.8302094066
 30
0.0
 11
87.0061061313
 21
99.8302094066
 31
0.0
  0
LINE
  5
338
330
1F
100
AcDbEntity
  8
0
  6
Continuous
 62
     7
370
    15
100
AcDbLine
 10
81.656104975
 20
113.3302097568
 30
0.0
 11
81.656104975
 21
99.8302094066
 31
0.0
  0
LINE
  5
339
330
1F
100
AcDbEntity
  8
0
  6
Continuous
 62
     7
370
    15
100
AcDbLine
 10
96.0061038813
 20
113.3302097568
 30
0.0
 11
81.656104975
 21
113.3302097568
 31
0.0
  0
LINE
  5
33A
330
1F
100
AcDbEntity
  8
0
  6
Continuous
 62
     7
370
    15
100
AcDbLine
 10
96.0061038813
 20
118.6802099818
 30
0.0
 11
96.0061038813
 21
113.3302097568
 31
0.0
  0
LINE
  5
33B
330
1F
100
AcDbEntity
  8
0
  6
Continuous
 62
     7
370
    15
100
AcDbLine
 10
105.0061053565
 20
118.6802099818
 30
0.0
 11
96.0061038813
 21
118.6802099818
 31
0.0
  0
LINE
  5
33C
330
1F
100
AcDbEntity
  8
0
  6
Continuous
 62
     7
370
    15
100
AcDbLine
 10
105.0061053565
 20
113.3302097568
 30
0.0
 11
105.0061053565
 21
118.6802099818
 31
0.0
  0
LINE
  5
33D
330
1F
100
AcDbEntity
  8
0
  6
Continuous
 62
     7
370
    15
100
AcDbLine
 10
119.3561047284
 20
113.3302097568
 30
0.0
 11
105.0061053565
 21
113.3302097568
 31
0.0
  0
LINE
  5
33E
330
1F
100
AcDbEntity
  8
0
  6
Continuous
 62
     7
370
    15
100
AcDbLine
 10
119.3561047284
 20
99.8302094066
 30
0.0
 11
119.3561047284
 21
113.3302097568
 31
0.0
  0
LINE
  5
33F
330
1F
100
AcDbEntity
  8
0
  6
Continuous
 62
     7
370
    15
100
AcDbLine
 10
114.0061045034
 20
99.8302094066
 30
0.0
 11
119.3561047284
 21
99.8302094066
 31
0.0
  0
LINE
  5
340
330
1F
100
AcDbEntity
  8
0
  6
Continuous
 62
     7
370
    15
100
AcDbLine
 10
114.0061045034
 20
93.3302102038
 30
0.0
 11
114.0061045034
 21
99.8302094066
 31
0.0
  0
LINE
  5
341
330
1F
100
AcDbEntity
  8
0
  6
Continuous
 62
     7
370
    15
100
AcDbLine
 10
150.4481784797
 20
33.0592651573
 30
0.0
 11
139.5031787252
 21
33.0592651573
 31
0.0
  0
LINE
  5
342
330
1F
100
AcDbEntity
  8
0
  6
Continuous
 62
     7
370
    15
100
AcDbLine
 10
150.4481784797
 20
20.0592630264
 30
0.0
 11
150.4481784797
 21
33.0592651573
 31
0.0
  0
LINE
  5
343
330
1F
100
AcDbEntity
  8
0
  6
Continuous
 62
     7
370
    15
100
AcDbLine
 10
145.4481757975
 20
20.0592630264
 30
0.0
 11
150.4481784797
 21
20.0592630264
 31
0.0
  0
LINE
  5
344
330
1F
100
AcDbEntity
  8
0
  6
Continuous
 62
     7
370
    15
100
AcDbLine
 10
145.4481757975
 20
14.7092637327
 30
0.0
 11
145.4481757975
 21
20.0592630264
 31
0.0
  0
LINE
  5
345
330
1F
100
AcDbEntity
  8
0
  6
Continuous
 62
     7
370
    15
100
AcDbLine
 10
150.4481784797
 20
14.7092637327
 30
0.0
 11
145.4481757975
 21
14.7092637327
 31
0.0
  0
LINE
  5
346
330
1F
100
AcDbEntity
  8
0
  6
Continuous
 62
     7
370
    15
100
AcDbLine
 10
150.4481784797
 20
1.7092634645
 30
0.0
 11
150.4481784797
 21
14.7092637327
 31
0.0
  0
LINE
  5
347
330
1F
100
AcDbEntity
  8
0
  6
Continuous
 62
     7
370
    15
100
AcDbLine
 10
144.4481812215
 20
1.7092634645
 30
0.0
 11
150.4481784797
 21
1.7092634645
 31
0.0
  0
LINE
  5
348
330
1F
100
AcDbEntity
  8
0
  6
Continuous
 62
     7
370
    15
100
AcDbLine
 10
144.4481812215
 20
7.0592636895
 30
0.0
 11
144.4481812215
 21
1.7092634645
 31
0.0
  0
LINE
  5
349
330
1F
100
AcDbEntity
  8
0
  6
Continuous
 62
     7
370
    15
100
AcDbLine
 10
86.4481782338
 20
7.0592636895
 30
0.0
 11
144.4481812215
 21
7.0592636895
 31
0.0
  0
LINE
  5
34A
330
1F
100
AcDbEntity
  8
0
  6
Continuous
 62
     7
370
    15
100
AcDbLine
 10
86.4481782338
 20
1.7092634645
 30
0.0
 11
86.4481782338
 21
7.0592636895
 31
0.0
  0
LINE
  5
34B
330
1F
100
AcDbEntity
  8
0
  6
Continuous
 62
     7
370
    15
100
AcDbLine
 10
80.4481781816
 20
1.7092634645
 30
0.0
 11
86.4481782338
 21
1.7092634645
 31
0.0
  0
LINE
  5
34C
330
1F
100
AcDbEntity
  8
0
  6
Continuous
 62
     7
370
    15
100
AcDbLine
 10
80.4481781816
 20
14.7092637327
 30
0.0
 11
80.4481781816
 21
1.7092634645
 31
0.0
  0
LINE
  5
34D
330
1F
100
AcDbEntity
  8
0
  6
Continuous
 62
     7
370
    15
100
AcDbLine
 10
85.4481780699
 20
14.7092637327
 30
0.0
 11
80.4481781816
 21
14.7092637327
 31
0.0
  0
LINE
  5
34E
330
1F
100
AcDbEntity
  8
0
  6
Continuous
 62
     7
370
    15
100
AcDbLine
 10
85.4481780699
 20
20.0592630264
 30
0.0
 11
85.4481780699
 21
14.7092637327
 31
0.0
  0
LINE
  5
34F
330
1F
100
AcDbEntity
  8
0
  6
Continuous
 62
     7
370
    15
100
AcDbLine
 10
80.4481781816
 20
20.0592630264
 30
0.0
 11
85.4481780699
 21
20.0592630264
 31
0.0
  0
LINE
  5
350
330
1F
100
AcDbEntity
  8
0
  6
Continuous
 62
     7
370
    15
100
AcDbLine
 10
80.4481781816
 20
33.0592651573
 30
0.0
 11
80.4481781816
 21
20.0592630264
 31
0.0
  0
LINE
  5
351
330
1F
100
AcDbEntity
  8
0
  6
Continuous
 62
     7
370
    15
100
AcDbLine
 10
91.3931779361
 20
33.0592651573
 30
0.0
 11
80.4481781816
 21
33.0592651573
 31
0.0
  0
ARC
  5
352
330
1F
100
AcDbEntity
  8
0
  6
Continuous
 62
     7
370
    15
100
AcDbCircle
 10
115.4481781816
 20
33.0592634645
 30
0.0
 40
24.05500000000001
100
AcDbArc
 50
180.0
 51
0.0
  0
LINE
  5
353
330
1F
100
AcDbEntity
  8
0
  6
Continuous
 62
     7
370
    15
100
AcDbLine
 10
45.0055020582
 20
13.4039083583
 30
0.0
 11
55.9505018127
 21
13.4039083583
 31
0.0
  0
LINE
  5
354
330
1F
100
AcDbEntity
  8
0
  6
Continuous
 62
     7
370
    15
100
AcDbLine
 10
45.0055020582
 20
26.4039104892
 30
0.0
 11
45.0055020582
 21
13.4039083583
 31
0.0
  0
LINE
  5
355
330
1F
100
AcDbEntity
  8
0
  6
Continuous
 62
     7
370
    15
100
AcDbLine
 10
50.0055047404
 20
26.4039104892
 30
0.0
 11
45.0055020582
 21
26.4039104892
 31
0.0
  0
LINE
  5
356
330
1F
100
AcDbEntity
  8
0
  6
Continuous
 62
     7
370
    15
100
AcDbLine
 10
50.0055047404
 20
31.7539097829
 30
0.0
 11
50.0055047404
 21
26.4039104892
 31
0.0
  0
LINE
  5
357
330
1F
100
AcDbEntity
  8
0
  6
Continuous
 62
     7
370
    15
100
AcDbLine
 10
45.0055020582
 20
31.7539097829
 30
0.0
 11
50.0055047404
 21
31.7539097829
 31
0.0
  0
LINE
  5
358
330
1F
100
AcDbEntity
  8
0
  6
Continuous
 62
     7
370
    15
100
AcDbLine
 10
45.0055020582
 20
44.7539100511
 30
0.0
 11
45.0055020582
 21
31.7539097829
 31
0.0
  0
LINE
  5
359
330
1F
100
AcDbEntity
  8
0
  6
Continuous
 62
     7
370
    15
100
AcDbLine
 10
51.0054993164
 20
44.7539100511
 30
0.0
 11
45.0055020582
 21
44.7539100511
 31
0.0
  0
LINE
  5
35A
330
1F
100
AcDbEntity
  8
0
  6
Continuous
 62
     7
370
    15
100
AcDbLine
 10
51.0054993164
 20
39.4039098261
 30
0.0
 11
51.0054993164
 21
44.7539100511
 31
0.0
  0
LINE
  5
35B
330
1F
100
AcDbEntity
  8
0
  6
Continuous
 62
     7
370
    15
100
AcDbLine
 10
109.0055023041
 20
39.4039098261
 30
0.0
 11
51.0054993164
 21
39.4039098261
 31
0.0
  0
LINE
  5
35C
330
1F
100
AcDbEntity
  8
0
  6
Continuous
 62
     7
370
    15
100
AcDbLine
 10
109.0055023041
 20
44.7539100511
 30
0.0
 11
109.0055023041
 21
39.4039098261
 31
0.0
  0
LINE
  5
35D
330
1F
100
AcDbEntity
  8
0
  6
Continuous
 62
     7
370
    15
100
AcDbLine
 10
115.0055023562
 20
44.7539100511
 30
0.0
 11
109.0055023041
 21
44.7539100511
 31
0.0
  0
LINE
  5
35E
330
1F
100
AcDbEntity
  8
0
  6
Continuous
 62
     7
370
    15
100
AcDbLine
 10
115.0055023562
 20
31.7539097829
 30
0.0
 11
115.0055023562
 21
44.7539100511
 31
0.0
  0
LINE
  5
35F
330
1F
100
AcDbEntity
  8
0
  6
Continuous
 62
     7
370
    15
100
AcDbLine
 10
110.005502468
 20
31.7539097829
 30
0.0
 11
115.0055023562
 21
31.7539097829
 31
0.0
  0
LINE
  5
360
330
1F
100
AcDbEntity
  8
0
  6
Continuous
 62
     7
370
    15
100
AcDbLine
 10
110.005502468
 20
26.4039104892
 30
0.0
 11
110.005502468
 21
31.7539097829
 31
0.0
  0
LINE
  5
361
330
1F
100
AcDbEntity
  8
0
  6
Continuous
 62
     7
370
    15
100
AcDbLine
 10
115.0055023562
 20
26.4039104892
 30
0.0
 11
110.005502468
 21
26.4039104892
 31
0.0
  0
LINE
  5
362
330
1F
100
AcDbEntity
  8
0
  6
Continuous
 62
     7
370
    15
100
AcDbLine
 10
115.0055023562
 20
13.4039083583
 30
0.0
 11
115.0055023562
 21
26.4039104892
 31
0.0
  0
LINE
  5
363
330
1F
100
AcDbEntity
  8
0
  6
Continuous
 62
     7
370
    15
100
AcDbLine
 10
104.0605026018
 20
13.4039083583
 30
0.0
 11
115.0055023562
 21
13.4039083583
 31
0.0
  0
ARC
  5
364
330
1F
100
AcDbEntity
  8
0
  6
Continuous
 62
     7
370
    15
100
AcDbCircle
 10
80.0055023562
 20
13.4039100511
 30
0.0
 40
24.05500000000001
100
AcDbArc
 50
0.0
 51
180.0
  0
LINE
  5
365
330
1F
100
AcDbEntity
  8
0
  6
Continuous
 62
     7
370
    15
100
AcDbLine
 10
79.0096286864
 20
33.4610885382
 30
0.0
 11
68.0646289319
 21
33.4610885382
 31
0.0
  0
LINE
  5
366
330
1F
100
AcDbEntity
  8
0
  6
Continuous
 62
     7
370
    15
100
AcDbLine
 10
79.0096286864
 20
20.4610864074
 30
0.0
 11
79.0096286864
 21
33.4610885382
 31
0.0
  0
LINE
  5
367
330
1F
100
AcDbEntity
  8
0
  6
Continuous
 62
     7
370
    15
100
AcDbLine
 10
74.0096260041
 20
20.4610864074
 30
0.0
 11
79.0096286864
 21
20.4610864074
 31
0.0
  0
LINE
  5
368
330
1F
100
AcDbEntity
  8
0
  6
Continuous
 62
     7
370
    15
100
AcDbLine
 10
74.0096260041
 20
15.1110871137
 30
0.0
 11
74.0096260041
 21
20.4610864074
 31
0.0
  0
LINE
  5
369
330
1F
100
AcDbEntity
  8
0
  6
Continuous
 62
     7
370
    15
100
AcDbLine
 10
79.0096286864
 20
15.1110871137
 30
0.0
 11
74.0096260041
 21
15.1110871137
 31
0.0
  0
LINE
  5
36A
330
1F
100
AcDbEntity
  8
0
  6
Continuous
 62
     7
370
    15
100
AcDbLine
 10
79.0096286864
 20
2.1110868455
 30
0.0
 11
79.0096286864
 21
15.1110871137
 31
0.0
  0
LINE
  5
36B
330
1F
100
AcDbEntity
  8
0
  6
Continuous
 62
     7
370
    15
100
AcDbLine
 10
73.0096314282
 20
2.1110868455
 30
0.0
 11
79.0096286864
 21
2.1110868455
 31
0.0
  0
LINE
  5
36C
330
1F
100
AcDbEntity
  8
0
  6
Continuous
 62
     7
370
    15
100
AcDbLine
 10
73.0096314282
 20
7.4610870705
 30
0.0
 11
73.0096314282
 21
2.1110868455
 31
0.0
  0
LINE
  5
36D
330
1F
100
AcDbEntity
  8
0
  6
Continuous
 62
     7
370
    15
100
AcDbLine
 10
15.0096284405
 20
7.4610870705
 30
0.0
 11
73.0096314282
 21
7.4610870705
 31
0.0
  0
LINE
  5
36E
330
1F
100
AcDbEntity
  8
0
  6
Continuous
 62
     7
370
    15
100
AcDbLine
 10
15.0096284405
 20
2.1110868455
 30
0.0
 11
15.0096284405
 21
7.4610870705
 31
0.0
  0
LINE
  5
36F
330
1F
100
AcDbEntity
  8
0
  6
Continuous
 62
     7
370
    15
100
AcDbLine
 10
9.0096283883
 20
2.1110868455
 30
0.0
 11
15.0096284405
 21
2.1110868455
 31
0.0
  0
LINE
  5
370
330
1F
100
AcDbEntity
  8
0
  6
Continuous
 62
     7
370
    15
100
AcDbLine
 10
9.0096283883
 20
15.1110871137
 30
0.0
 11
9.0096283883
 21
2.1110868455
 31
0.0
  0
LINE
  5
371
330
1F
100
AcDbEntity
  8
0
  6
Continuous
 62
     7
370
    15
100
AcDbLine
 10
14.0096282766
 20
15.1110871137
 30
0.0
 11
9.0096283883
 21
15.1110871137
 31
0.0
  0
LINE
  5
372
330
1F
100
AcDbEntity
  8
0
  6
Continuous
 62
     7
370
    15
100
AcDbLine
 10
14.0096282766
 20
20.4610864074
 30
0.0
 11
14.0096282766
 21
15.1110871137
 31
0.0
  0
LINE
  5
373
330
1F
100
AcDbEntity
  8
0
  6
Continuous
 62
     7
370
    15
100
AcDbLine
 10
9.0096283883
 20
20.4610864074
 30
0.0
 11
14.0096282766
 21
20.4610864074
 31
0.0
  0
LINE
  5
374
330
1F
100
AcDbEntity
  8
0
  6
Continuous
 62
     7
370
    15
100
AcDbLine
 10
9.0096283883
 20
33.4610885382
 30
0.0
 11
9.0096283883
 21
20.4610864074
 31
0.0
  0
LINE
  5
375
330
1F
100
AcDbEntity
  8
0
  6
Continuous
 62
     7
370
    15
100
AcDbLine
 10
19.9546281428
 20
33.4610885382
 30
0.0
 11
9.0096283883
 21
33.4610885382
 31
0.0
  0
ARC
  5
376
330
1F
100
AcDbEntity
  8
0
  6
Continuous
 62
     7
370
    15
100
AcDbCircle
 10
44.0096283883
 20
33.4610868455
 30
0.0
 40
24.05500000000001
100
AcDbArc
 50
180.0
 51
0.0
  0
CIRCLE
  5
377
330
1F
100
AcDbEntity
  8
0
  6
Continuous
 62
     7
370
    15
100
AcDbCircle
 10
28.4700335252
 20
36.3579733016
 30
0.0
 40
1.685000000000002
  0
LINE
  5
378
330
1F
100
AcDbEntity
  8
0
  6
Continuous
 62
     7
370
    15
100
AcDbLine
 10
21.9700336928
 20
28.2579730915
 30
0.0
 11
26.9700335811
 21
28.2579730915
 31
0.0
  0
LINE
  5
379
330
1F
100
AcDbEntity
  8
0
  6
Continuous
 62
     7
370
    15
100
AcDbLine
 10
21.9700336928
 20
44.4579735117
 30
0.0
 11
21.9700336928
 21
28.2579730915
 31
0.0
  0
LINE
  5
37A
330
1F
100
AcDbEntity
  8
0
  6
Continuous
 62
     7
370
    15
100
AcDbLine
 10
26.9700335811
 20
44.4579735117
 30
0.0
 11
21.9700336928
 21
44.4579735117
 31
0.0
  0
LINE
  5
37B
330
1F
100
AcDbEntity
  8
0
  6
Continuous
 62
     7
370
    15
100
AcDbLine
 10
26.9700335811
 20
49.8079737367
 30
0.0
 11
26.9700335811
 21
44.4579735117
 31
0.0
  0
LINE
  5
37C
330
1F
100
AcDbEntity
  8
0
  6
Continuous
 62
     7
370
    15
100
AcDbLine
 10
31.9700334693
 20
49.8079737367
 30
0.0
 11
26.9700335811
 21
49.8079737367
 31
0.0
  0
LINE
  5
37D
330
1F
100
AcDbEntity
  8
0
  6
Continuous
 62
     7
370
    15
100
AcDbLine
 10
31.9700334693
 20
22.9079728665
 30
0.0
 11
31.9700334693
 21
49.8079737367
 31
0.0
  0
LINE
  5
37E
330
1F
100
AcDbEntity
  8
0
  6
Continuous
 62
     7
370
    15
100
AcDbLine
 10
26.9700335811
 20
22.9079728665
 30
0.0
 11
31.9700334693
 21
22.9079728665
 31
0.0
  0
LINE
  5
37F
330
1F
100
AcDbEntity
  8
0
  6
Continuous
 62
     7
370
    15
100
AcDbLine
 10
26.9700335811
 20
28.2579730915
 30
0.0
 11
26.9700335811
 21
22.9079728665
 31
0.0
  0
CIRCLE
  5
380
330
1F
100
AcDbEntity
  8
0
  6
Continuous
 62
     7
370
    15
100
AcDbCircle
 10
154.958616749
 20
18.7458520143
 30
0.0
 40
1.684999999999999
  0
LINE
  5
381
330
1F
100
AcDbEntity
  8
0
  6
Continuous
 62
     7
370
    15
100
AcDbLine
 10
161.4586165813
 20
26.8458522244
 30
0.0
 11
156.4586166931
 21
26.8458522244
 31
0.0
  0
LINE
  5
382
330
1F
100
AcDbEntity
  8
0
  6
Continuous
 62
     7
370
    15
100
AcDbLine
 10
161.4586165813
 20
10.6458518042
 30
0.0
 11
161.4586165813
 21
26.8458522244
 31
0.0
  0
LINE
  5
383
330
1F
100
AcDbEntity
  8
0
  6
Continuous
 62
     7
370
    15
100
AcDbLine
 10
156.4586166931
 20
10.6458518042
 30
0.0
 11
161.4586165813
 21
10.6458518042
 31
0.0
  0
LINE
  5
384
330
1F
100
AcDbEntity
  8
0
  6
Continuous
 62
     7
370
    15
100
AcDbLine
 10
156.4586166931
 20
5.2958515792
 30
0.0
 11
156.4586166931
 21
10.6458518042
 31
0.0
  0
LINE
  5
385
330
1F
100
AcDbEntity
  8
0
  6
Continuous
 62
     7
370
    15
100
AcDbLine
 10
151.4586168049
 20
5.2958515792
 30
0.0
 11
156.4586166931
 21
5.2958515792
 31
0.0
  0
LINE
  5
386
330
1F
100
AcDbEntity
  8
0
  6
Continuous
 62
     7
370
    15
100
AcDbLine
 10
151.4586168049
 20
32.1958524494
 30
0.0
 11
151.4586168049
 21
5.2958515792
 31
0.0
  0
LINE
  5
387
330
1F
100
AcDbEntity
  8
0
  6
Continuous
 62
     7
370
    15
100
AcDbLine
 10
156.4586166931
 20
32.1958524494
 30
0.0
 11
151.4586168049
 21
32.1958524494
 31
0.0
  0
LINE
  5
388
330
1F
100
AcDbEntity
  8
0
  6
Continuous
 62
     7
370
    15
100
AcDbLine
 10
156.4586166931
 20
26.8458522244
 30
0.0
 11
156.4586166931
 21
32.1958524494
 31
0.0
  0
LINE
  5
389
330
1F
100
AcDbEntity
  8
0
  6
Continuous
 62
     7
370
    15
100
AcDbLine
 10
60.9726221954
 20
65.225658003
 30
0.0
 11
38.9726218489
 21
65.225658003
 31
0.0
  0
ARC
  5
38A
330
1F
100
AcDbEntity
  8
0
  6
Continuous
 62
     7
370
    15
100
AcDbCircle
 10
60.9726222214
 20
62.2256581714
 30
0.0
 40
3.0
100
AcDbArc
 50
0.0
 51
90.0
  0
ARC
  5
38B
330
1F
100
AcDbEntity
  8
0
  6
Continuous
 62
     7
370
    15
100
AcDbCircle
 10
32.9726222214
 20
72.2256581714
 30
0.0
 40
3.000000000000014
100
AcDbArc
 50
0.0
 51
90.0
  0
LINE
  5
38C
330
1F
100
AcDbEntity
  8
0
  6
Continuous
 62
     7
370
    15
100
AcDbLine
 10
35.9726213572
 20
68.2256575634
 30
0.0
 11
35.9726213572
 21
72.2256582191
 31
0.0
  0
CIRCLE
  5
38D
330
1F
100
AcDbEntity
  8
0
  6
Continuous
 62
     7
370
    15
100
AcDbCircle
 10
19.4726222214
 20
66.2256581714
 30
0.0
 40
1.199999999999999
  0
LINE
  5
38E
330
1F
100
AcDbEntity
  8
0
  6
Continuous
 62
     7
370
    15
100
AcDbLine
 10
27.1226205585
 20
55.2256582265
 30
0.0
 11
32.4726217148
 21
55.2256582265
 31
0.0
  0
LINE
  5
38F
330
1F
100
AcDbEntity
  8
0
  6
Continuous
 62
     7
370
    15
100
AcDbLine
 10
32.4726217148
 20
55.2256582265
 30
0.0
 11
32.4726217148
 21
68.7256585767
 31
0.0
  0
LINE
  5
390
330
1F
100
AcDbEntity
  8
0
  6
Continuous
 62
     7
370
    15
100
AcDbLine
 10
32.4726217148
 20
68.7256585767
 30
0.0
 11
27.1226205585
 21
68.7256585767
 31
0.0
  0
LINE
  5
391
330
1F
100
AcDbEntity
  8
0
  6
Continuous
 62
     7
370
    15
100
AcDbLine
 10
27.1226205585
 20
68.7256585767
 30
0.0
 11
27.1226205585
 21
55.2256582265
 31
0.0
  0
ARC
  5
392
330
1F
100
AcDbEntity
  8
0
  6
Continuous
 62
     7
370
    15
100
AcDbCircle
 10
38.9726222214
 20
68.2256581714
 30
0.0
 40
2.999999999999993
100
AcDbArc
 50
180.0
 51
270.0
  0
LINE
  5
393
330
1F
100
AcDbEntity
  8
0
  6
Continuous
 62
     7
370
    15
100
AcDbLine
 10
63.9726222214
 20
62.2256584426
 30
0.0
 11
63.9726222214
 21
49.7756581714
 31
0.0
  0
LINE
  5
394
330
1F
100
AcDbEntity
  8
0
  6
Continuous
 62
     7
370
    15
100
AcDbLine
 10
13.9726214764
 20
75.2256587108
 30
0.0
 11
32.9726227281
 21
75.2256587108
 31
0.0
  0
LINE
  5
395
330
1F
100
AcDbEntity
  8
0
  6
Continuous
 62
     7
370
    15
100
AcDbLine
 10
13.9726214764
 20
49.7756581714
 30
0.0
 11
13.9726214764
 21
75.2256587108
 31
0.0
  0
LINE
  5
396
330
1F
100
AcDbEntity
  8
0
  6
Continuous
 62
     7
370
    15
100
AcDbLine
 10
24.9726214168
 20
49.7756581714
 30
0.0
 11
13.9726214764
 21
49.7756581714
 31
0.0
  0
LINE
  5
397
330
1F
100
AcDbEntity
  8
0
  6
Continuous
 62
     7
370
    15
100
AcDbLine
 10
24.9726214168
 20
55.1256583964
 30
0.0
 11
24.9726214168
 21
49.7756581714
 31
0.0
  0
LINE
  5
398
330
1F
100
AcDbEntity
  8
0
  6
Continuous
 62
     7
370
    15
100
AcDbLine
 10
52.972622281
 20
55.1256583964
 30
0.0
 11
24.9726214168
 21
55.1256583964
 31
0.0
  0
LINE
  5
399
330
1F
100
AcDbEntity
  8
0
  6
Continuous
 62
     7
370
    15
100
AcDbLine
 10
52.972622281
 20
49.7756581714
 30
0.0
 11
52.972622281
 21
55.1256583964
 31
0.0
  0
LINE
  5
39A
330
1F
100
AcDbEntity
  8
0
  6
Continuous
 62
     7
370
    15
100
AcDbLine
 10
63.9726222214
 20
49.7756581714
 30
0.0
 11
52.972622281
 21
49.7756581714
 31
0.0
  0
LINE
  5
39B
330
1F
100
AcDbEntity
  8
0
  6
Continuous
 62
     7
370
    15
100
AcDbLine
 10
90.4009873843
 20
87.9113744031
 30
0.0
 11
90.4009873843
 21
65.9113740566
 31
0.0
  0
ARC
  5
39C
330
1F
100
AcDbEntity
  8
0
  6
Continuous
 62
     7
370
    15
100
AcDbCircle
 10
93.4009872159
 20
87.9113744291
 30
0.0
 40
3.0
100
AcDbArc
 50
90.0
 51
180.0
  0
ARC
  5
39D
330
1F
100
AcDbEntity
  8
0
  6
Continuous
 62
     7
370
    15
100
AcDbCircle
 10
83.4009872159
 20
59.9113744291
 30
0.0
 40
3.0
100
AcDbArc
 50
90.0
 51
180.0
  0
LINE
  5
39E
330
1F
100
AcDbEntity
  8
0
  6
Continuous
 62
     7
370
    15
100
AcDbLine
 10
87.4009878239
 20
62.9113735649
 30
0.0
 11
83.4009871682
 21
62.9113735649
 31
0.0
  0
CIRCLE
  5
39F
330
1F
100
AcDbEntity
  8
0
  6
Continuous
 62
     7
370
    15
100
AcDbCircle
 10
89.4009872159
 20
46.4113744291
 30
0.0
 40
1.200000000000003
  0
LINE
  5
3A0
330
1F
100
AcDbEntity
  8
0
  6
Continuous
 62
     7
370
    15
100
AcDbLine
 10
100.4009871608
 20
54.0613727662
 30
0.0
 11
100.4009871608
 21
59.4113739225
 31
0.0
  0
LINE
  5
3A1
330
1F
100
AcDbEntity
  8
0
  6
Continuous
 62
     7
370
    15
100
AcDbLine
 10
100.4009871608
 20
59.4113739225
 30
0.0
 11
86.9009868106
 21
59.4113739225
 31
0.0
  0
LINE
  5
3A2
330
1F
100
AcDbEntity
  8
0
  6
Continuous
 62
     7
370
    15
100
AcDbLine
 10
86.9009868106
 20
59.4113739225
 30
0.0
 11
86.9009868106
 21
54.0613727662
 31
0.0
  0
LINE
  5
3A3
330
1F
100
AcDbEntity
  8
0
  6
Continuous
 62
     7
370
    15
100
AcDbLine
 10
86.9009868106
 20
54.0613727662
 30
0.0
 11
100.4009871608
 21
54.0613727662
 31
0.0
  0
ARC
  5
3A4
330
1F
100
AcDbEntity
  8
0
  6
Continuous
 62
     7
370
    15
100
AcDbCircle
 10
87.4009872159
 20
65.9113744291
 30
0.0
 40
3.0
100
AcDbArc
 50
270.0
 51
0.0
  0
LINE
  5
3A5
330
1F
100
AcDbEntity
  8
0
  6
Continuous
 62
     7
370
    15
100
AcDbLine
 10
93.4009869447
 20
90.9113744291
 30
0.0
 11
105.8509872159
 21
90.9113744291
 31
0.0
  0
LINE
  5
3A6
330
1F
100
AcDbEntity
  8
0
  6
Continuous
 62
     7
370
    15
100
AcDbLine
 10
80.4009866765
 20
40.9113736841
 30
0.0
 11
80.4009866765
 21
59.9113749358
 31
0.0
  0
LINE
  5
3A7
330
1F
100
AcDbEntity
  8
0
  6
Continuous
 62
     7
370
    15
100
AcDbLine
 10
105.8509872159
 20
40.9113736841
 30
0.0
 11
80.4009866765
 21
40.9113736841
 31
0.0
  0
LINE
  5
3A8
330
1F
100
AcDbEntity
  8
0
  6
Continuous
 62
     7
370
    15
100
AcDbLine
 10
105.8509872159
 20
51.9113736245
 30
0.0
 11
105.8509872159
 21
40.9113736841
 31
0.0
  0
LINE
  5
3A9
330
1F
100
AcDbEntity
  8
0
  6
Continuous
 62
     7
370
    15
100
AcDbLine
 10
100.5009869909
 20
51.9113736245
 30
0.0
 11
105.8509872159
 21
51.9113736245
 31
0.0
  0
LINE
  5
3AA
330
1F
100
AcDbEntity
  8
0
  6
Continuous
 62
     7
370
    15
100
AcDbLine
 10
100.5009869909
 20
79.9113744887
 30
0.0
 11
100.5009869909
 21
51.9113736245
 31
0.0
  0
LINE
  5
3AB
330
1F
100
AcDbEntity
  8
0
  6
Continuous
 62
     7
370
    15
100
AcDbLine
 10
105.8509872159
 20
79.9113744887
 30
0.0
 11
100.5009869909
 21
79.9113744887
 31
0.0
  0
LINE
  5
3AC
330
1F
100
AcDbEntity
  8
0
  6
Continuous
 62
     7
370
    15
100
AcDbLine
 10
105.8509872159
 20
90.9113744291
 30
0.0
 11
105.8509872159
 21
79.9113744887
 31
0.0
  0
ARC
  5
3AD
330
1F
100
AcDbEntity
  8
0
  6
Continuous
 62
     7
370
    15
100
AcDbCircle
 10
122.4939116128
 20
40.1807616409
 30
0.0
 40
5.0
100
AcDbArc
 50
90.0
 51
180.0
  0
ARC
  5
3AE
330
1F
100
AcDbEntity
  8
0
  6
Continuous
 62
     7
370
    15
100
AcDbCircle
 10
124.4939116128
 20
40.1807616409
 30
0.0
 40
5.0
100
AcDbArc
 50
0.0
 51
90.0
  0
ARC
  5
3AF
330
1F
100
AcDbEntity
  8
0
  6
Continuous
 62
     7
370
    15
100
AcDbCircle
 10
124.4939116128
 20
20.1807616409
 30
0.0
 40
5.0
100
AcDbArc
 50
270.0
 51
0.0
  0
ARC
  5
3B0
330
1F
100
AcDbEntity
  8
0
  6
Continuous
 62
     7
370
    15
100
AcDbCircle
 10
122.4939116128
 20
20.1807616409
 30
0.0
 40
5.0
100
AcDbArc
 50
180.0
 51
270.0
  0
CIRCLE
  5
3B1
330
1F
100
AcDbEntity
  8
0
  6
Continuous
 62
     7
370
    15
100
AcDbCircle
 10
123.4939116128
 20
30.1807616409
 30
0.0
 40
0.5
  0
CIRCLE
  5
3B2
330
1F
100
AcDbEntity
  8
0
  6
Continuous
 62
     7
370
    15
100
AcDbCircle
 10
123.4939116128
 20
20.1807616409
 30
0.0
 40
1.375000000000004
  0
CIRCLE
  5
3B3
330
1F
100
AcDbEntity
  8
0
  6
Continuous
 62
     7
370
    15
100
AcDbCircle
 10
123.4939116128
 20
40.1807616409
 30
0.0
 40
1.374999999999993
  0
LINE
  5
3B4
330
1F
100
AcDbEntity
  8
0
  6
Continuous
 62
     7
370
    15
100
AcDbLine
 10
129.493911665
 20
20.1807618644
 30
0.0
 11
129.493911665
 21
40.1807614173
 31
0.0
  0
LINE
  5
3B5
330
1F
100
AcDbEntity
  8
0
  6
Continuous
 62
     7
370
    15
100
AcDbLine
 10
122.4939115653
 20
15.1807619761
 30
0.0
 11
124.4939116603
 21
15.1807619761
 31
0.0
  0
LINE
  5
3B6
330
1F
100
AcDbEntity
  8
0
  6
Continuous
 62
     7
370
    15
100
AcDbLine
 10
117.4939115606
 20
40.1807614173
 30
0.0
 11
117.4939115606
 21
20.1807618644
 31
0.0
  0
LINE
  5
3B7
330
1F
100
AcDbEntity
  8
0
  6
Continuous
 62
     7
370
    15
100
AcDbLine
 10
124.4939116603
 20
45.1807613056
 30
0.0
 11
122.4939115653
 21
45.1807613056
 31
0.0
  0
CIRCLE
  5
3B8
330
1F
100
AcDbEntity
  8
0
  6
Continuous
 62
     7
370
    15
100
AcDbCircle
 10
123.4939116128
 20
40.1807616409
 30
0.0
 40
1.199999999999996
  0
CIRCLE
  5
3B9
330
1F
100
AcDbEntity
  8
0
  6
Continuous
 62
     7
370
    15
100
AcDbCircle
 10
123.4939116128
 20
20.1807616409
 30
0.0
 40
1.199999999999999
  0
CIRCLE
  5
3BA
330
1F
100
AcDbEntity
  8
0
  6
Continuous
 62
     7
370
    15
100
AcDbCircle
 10
7.4686357181
 20
54.9733106598
 30
0.0
 40
1.685000000000002
  0
LINE
  5
3BB
330
1F
100
AcDbEntity
  8
0
  6
Continuous
 62
     7
370
    15
100
AcDbLine
 10
13.9686354946
 20
69.4733104348
 30
0.0
 11
8.9686356063
 21
69.4733104348
 31
0.0
  0
LINE
  5
3BC
330
1F
100
AcDbEntity
  8
0
  6
Continuous
 62
     7
370
    15
100
AcDbLine
 10
13.9686354946
 20
40.4733103379
 30
0.0
 11
13.9686354946
 21
69.4733104348
 31
0.0
  0
LINE
  5
3BD
330
1F
100
AcDbEntity
  8
0
  6
Continuous
 62
     7
370
    15
100
AcDbLine
 10
8.9686356063
 20
40.4733103379
 30
0.0
 11
13.9686354946
 21
40.4733103379
 31
0.0
  0
LINE
  5
3BE
330
1F
100
AcDbEntity
  8
0
  6
Continuous
 62
     7
370
    15
100
AcDbLine
 10
8.9686356063
 20
35.1233091816
 30
0.0
 11
8.9686356063
 21
40.4733103379
 31
0.0
  0
LINE
  5
3BF
330
1F
100
AcDbEntity
  8
0
  6
Continuous
 62
     7
370
    15
100
AcDbLine
 10
3.9686357181
 20
35.1233091816
 30
0.0
 11
8.9686356063
 21
35.1233091816
 31
0.0
  0
LINE
  5
3C0
330
1F
100
AcDbEntity
  8
0
  6
Continuous
 62
     7
370
    15
100
AcDbLine
 10
3.9686357181
 20
74.8233106598
 30
0.0
 11
3.9686357181
 21
35.1233091816
 31
0.0
  0
LINE
  5
3C1
330
1F
100
AcDbEntity
  8
0
  6
Continuous
 62
     7
370
    15
100
AcDbLine
 10
8.9686356063
 20
74.8233106598
 30
0.0
 11
3.9686357181
 21
74.8233106598
 31
0.0
  0
LINE
  5
3C2
330
1F
100
AcDbEntity
  8
0
  6
Continuous
 62
     7
370
    15
100
AcDbLine
 10
8.9686356063
 20
69.4733104348
 30
0.0
 11
8.9686356063
 21
74.8233106598
 31
0.0
  0
CIRCLE
  5
3C3
330
1F
100
AcDbEntity
  8
0
  6
Continuous
 62
     7
370
    15
100
AcDbCircle
 10
185.0491563777
 20
170.1193491183
 30
0.0
 40
1.685000000000002
  0
LINE
  5
3C4
330
1F
100
AcDbEntity
  8
0
  6
Continuous
 62
     7
370
    15
100
AcDbLine
 10
191.5491561542
 20
184.6193488933
 30
0.0
 11
186.5491562659
 21
184.6193488933
 31
0.0
  0
LINE
  5
3C5
330
1F
100
AcDbEntity
  8
0
  6
Continuous
 62
     7
370
    15
100
AcDbLine
 10
191.5491561542
 20
155.6193487964
 30
0.0
 11
191.5491561542
 21
184.6193488933
 31
0.0
  0
LINE
  5
3C6
330
1F
100
AcDbEntity
  8
0
  6
Continuous
 62
     7
370
    15
100
AcDbLine
 10
186.5491562659
 20
155.6193487964
 30
0.0
 11
191.5491561542
 21
155.6193487964
 31
0.0
  0
LINE
  5
3C7
330
1F
100
AcDbEntity
  8
0
  6
Continuous
 62
     7
370
    15
100
AcDbLine
 10
186.5491562659
 20
150.2693476401
 30
0.0
 11
186.5491562659
 21
155.6193487964
 31
0.0
  0
LINE
  5
3C8
330
1F
100
AcDbEntity
  8
0
  6
Continuous
 62
     7
370
    15
100
AcDbLine
 10
181.5491563777
 20
150.2693476401
 30
0.0
 11
186.5491562659
 21
150.2693476401
 31
0.0
  0
LINE
  5
3C9
330
1F
100
AcDbEntity
  8
0
  6
Continuous
 62
     7
370
    15
100
AcDbLine
 10
181.5491563777
 20
189.9693491183
 30
0.0
 11
181.5491563777
 21
150.2693476401
 31
0.0
  0
LINE
  5
3CA
330
1F
100
AcDbEntity
  8
0
  6
Continuous
 62
     7
370
    15
100
AcDbLine
 10
186.5491562659
 20
189.9693491183
 30
0.0
 11
181.5491563777
 21
189.9693491183
 31
0.0
  0
LINE
  5
3CB
330
1F
100
AcDbEntity
  8
0
  6
Continuous
 62
     7
370
    15
100
AcDbLine
 10
186.5491562659
 20
184.6193488933
 30
0.0
 11
186.5491562659
 21
189.9693491183
 31
0.0
  0
ARC
  5
3CC
330
1F
100
AcDbEntity
  8
0
  6
Continuous
 62
     7
370
    15
100
AcDbCircle
 10
12.3259058754
 20
206.4366379173
 30
0.0
 40
10.00000000000003
100
AcDbArc
 50
90.0
 51
180.0
  0
ARC
  5
3CD
330
1F
100
AcDbEntity
  8
0
  6
Continuous
 62
     7
370
    15
100
AcDbCircle
 10
15.3259058754
 20
226.4366379173
 30
0.0
 40
10.0
100
AcDbArc
 50
270.0
 51
0.0
  0
ARC
  5
3CE
330
1F
100
AcDbEntity
  8
0
  6
Continuous
 62
     7
370
    15
100
AcDbCircle
 10
35.3259058754
 20
335.4366379173
 30
0.0
 40
10.0
100
AcDbArc
 50
90.0
 51
180.0
  0
ARC
  5
3CF
330
1F
100
AcDbEntity
  8
0
  6
Continuous
 62
     7
370
    15
100
AcDbCircle
 10
12.3259058754
 20
86.4366379173
 30
0.0
 40
9.999999999999998
100
AcDbArc
 50
180.0
 51
270.0
  0
LINE
  5
3D0
330
1F
100
AcDbEntity
  8
0
  6
Continuous
 62
     7
370
    15
100
AcDbLine
 10
34.1759058754
 20
230.9366379173
 30
0.0
 11
28.8259058754
 21
230.9366379173
 31
0.0
  0
LINE
  5
3D1
330
1F
100
AcDbEntity
  8
0
  6
Continuous
 62
     7
370
    15
100
AcDbLine
 10
34.1759058754
 20
241.9366379173
 30
0.0
 11
34.1759058754
 21
230.9366379173
 31
0.0
  0
LINE
  5
3D2
330
1F
100
AcDbEntity
  8
0
  6
Continuous
 62
     7
370
    15
100
AcDbLine
 10
28.8259058754
 20
241.9366379173
 30
0.0
 11
34.1759058754
 21
241.9366379173
 31
0.0
  0
LINE
  5
3D3
330
1F
100
AcDbEntity
  8
0
  6
Continuous
 62
     7
370
    15
100
AcDbLine
 10
28.8259058754
 20
230.9366379173
 30
0.0
 11
28.8259058754
 21
241.9366379173
 31
0.0
  0
LINE
  5
3D4
330
1F
100
AcDbEntity
  8
0
  6
Continuous
 62
     7
370
    15
100
AcDbLine
 10
52.1759058754
 20
210.4366379173
 30
0.0
 11
52.1759058754
 21
205.0866379173
 31
0.0
  0
LINE
  5
3D5
330
1F
100
AcDbEntity
  8
0
  6
Continuous
 62
     7
370
    15
100
AcDbLine
 10
43.1759058754
 20
210.4366379173
 30
0.0
 11
52.1759058754
 21
210.4366379173
 31
0.0
  0
LINE
  5
3D6
330
1F
100
AcDbEntity
  8
0
  6
Continuous
 62
     7
370
    15
100
AcDbLine
 10
43.1759058754
 20
205.0866379173
 30
0.0
 11
43.1759058754
 21
210.4366379173
 31
0.0
  0
LINE
  5
3D7
330
1F
100
AcDbEntity
  8
0
  6
Continuous
 62
     7
370
    15
100
AcDbLine
 10
52.1759058754
 20
205.0866379173
 30
0.0
 11
43.1759058754
 21
205.0866379173
 31
0.0
  0
LINE
  5
3D8
330
1F
100
AcDbEntity
  8
0
  6
Continuous
 62
     7
370
    15
100
AcDbLine
 10
34.1759058754
 20
191.9366379173
 30
0.0
 11
28.8259058754
 21
191.9366379173
 31
0.0
  0
LINE
  5
3D9
330
1F
100
AcDbEntity
  8
0
  6
Continuous
 62
     7
370
    15
100
AcDbLine
 10
34.1759058754
 20
202.9366379173
 30
0.0
 11
34.1759058754
 21
191.9366379173
 31
0.0
  0
LINE
  5
3DA
330
1F
100
AcDbEntity
  8
0
  6
Continuous
 62
     7
370
    15
100
AcDbLine
 10
28.8259058754
 20
202.9366379173
 30
0.0
 11
34.1759058754
 21
202.9366379173
 31
0.0
  0
LINE
  5
3DB
330
1F
100
AcDbEntity
  8
0
  6
Continuous
 62
     7
370
    15
100
AcDbLine
 10
28.8259058754
 20
191.9366379173
 30
0.0
 11
28.8259058754
 21
202.9366379173
 31
0.0
  0
LINE
  5
3DC
330
1F
100
AcDbEntity
  8
0
  6
Continuous
 62
     7
370
    15
100
AcDbLine
 10
52.1759058754
 20
120.7866379173
 30
0.0
 11
52.1759058754
 21
115.4366379173
 31
0.0
  0
LINE
  5
3DD
330
1F
100
AcDbEntity
  8
0
  6
Continuous
 62
     7
370
    15
100
AcDbLine
 10
43.1759058754
 20
120.7866379173
 30
0.0
 11
52.1759058754
 21
120.7866379173
 31
0.0
  0
LINE
  5
3DE
330
1F
100
AcDbEntity
  8
0
  6
Continuous
 62
     7
370
    15
100
AcDbLine
 10
43.1759058754
 20
115.4366379173
 30
0.0
 11
43.1759058754
 21
120.7866379173
 31
0.0
  0
LINE
  5
3DF
330
1F
100
AcDbEntity
  8
0
  6
Continuous
 62
     7
370
    15
100
AcDbLine
 10
52.1759058754
 20
115.4366379173
 30
0.0
 11
43.1759058754
 21
115.4366379173
 31
0.0
  0
LINE
  5
3E0
330
1F
100
AcDbEntity
  8
0
  6
Continuous
 62
     7
370
    15
100
AcDbLine
 10
28.8259058754
 20
133.9366379173
 30
0.0
 11
34.1759058754
 21
133.9366379173
 31
0.0
  0
LINE
  5
3E1
330
1F
100
AcDbEntity
  8
0
  6
Continuous
 62
     7
370
    15
100
AcDbLine
 10
28.8259058754
 20
122.9366379173
 30
0.0
 11
28.8259058754
 21
133.9366379173
 31
0.0
  0
LINE
  5
3E2
330
1F
100
AcDbEntity
  8
0
  6
Continuous
 62
     7
370
    15
100
AcDbLine
 10
34.1759058754
 20
122.9366379173
 30
0.0
 11
28.8259058754
 21
122.9366379173
 31
0.0
  0
LINE
  5
3E3
330
1F
100
AcDbEntity
  8
0
  6
Continuous
 62
     7
370
    15
100
AcDbLine
 10
34.1759058754
 20
133.9366379173
 30
0.0
 11
34.1759058754
 21
122.9366379173
 31
0.0
  0
LINE
  5
3E4
330
1F
100
AcDbEntity
  8
0
  6
Continuous
 62
     7
370
    15
100
AcDbLine
 10
28.8259058754
 20
94.9366379173
 30
0.0
 11
34.1759058754
 21
94.9366379173
 31
0.0
  0
LINE
  5
3E5
330
1F
100
AcDbEntity
  8
0
  6
Continuous
 62
     7
370
    15
100
AcDbLine
 10
28.8259058754
 20
83.9366379173
 30
0.0
 11
28.8259058754
 21
94.9366379173
 31
0.0
  0
LINE
  5
3E6
330
1F
100
AcDbEntity
  8
0
  6
Continuous
 62
     7
370
    15
100
AcDbLine
 10
34.1759058754
 20
83.9366379173
 30
0.0
 11
28.8259058754
 21
83.9366379173
 31
0.0
  0
LINE
  5
3E7
330
1F
100
AcDbEntity
  8
0
  6
Continuous
 62
     7
370
    15
100
AcDbLine
 10
34.1759058754
 20
94.9366379173
 30
0.0
 11
34.1759058754
 21
83.9366379173
 31
0.0
  0
CIRCLE
  5
3E8
330
1F
100
AcDbEntity
  8
0
  6
Continuous
 62
     7
370
    15
100
AcDbCircle
 10
4.8259058754
 20
164.464510416
 30
0.0
 40
1.200000000000017
  0
CIRCLE
  5
3E9
330
1F
100
AcDbEntity
  8
0
  6
Continuous
 62
     7
370
    15
100
AcDbCircle
 10
46.9259058754
 20
113.664510416
 30
0.0
 40
1.199999999999989
  0
CIRCLE
  5
3EA
330
1F
100
AcDbEntity
  8
0
  6
Continuous
 62
     7
370
    15
100
AcDbCircle
 10
19.0259058754
 20
113.664510416
 30
0.0
 40
1.199999999999989
  0
CIRCLE
  5
3EB
330
1F
100
AcDbEntity
  8
0
  6
Continuous
 62
     7
370
    15
100
AcDbCircle
 10
52.8259058754
 20
165.764510416
 30
0.0
 40
1.19999999999996
  0
ARC
  5
3EC
330
1F
100
AcDbEntity
  8
0
  6
Continuous
 62
     7
370
    15
100
AcDbCircle
 10
7.3259058754
 20
201.1484977794
 30
0.0
 40
1.000000000000001
100
AcDbArc
 50
180.0
 51
270.0
  0
LINE
  5
3ED
330
1F
100
AcDbEntity
  8
0
  6
Continuous
 62
     7
370
    15
100
AcDbLine
 10
7.3259058754
 20
200.1484977794
 30
0.0
 11
15.3259058754
 21
200.1484977794
 31
0.0
  0
ARC
  5
3EE
330
1F
100
AcDbEntity
  8
0
  6
Continuous
 62
     7
370
    15
100
AcDbCircle
 10
15.3259058754
 20
201.1484977794
 30
0.0
 40
1.0
100
AcDbArc
 50
270.0
 51
0.0
  0
LINE
  5
3EF
330
1F
100
AcDbEntity
  8
0
  6
Continuous
 62
     7
370
    15
100
AcDbLine
 10
16.3259058754
 20
201.1484977794
 30
0.0
 11
16.3259058754
 21
208.1484977794
 31
0.0
  0
ARC
  5
3F0
330
1F
100
AcDbEntity
  8
0
  6
Continuous
 62
     7
370
    15
100
AcDbCircle
 10
15.3259058754
 20
208.1484977794
 30
0.0
 40
1.0
100
AcDbArc
 50
0.0
 51
90.0
  0
LINE
  5
3F1
330
1F
100
AcDbEntity
  8
0
  6
Continuous
 62
     7
370
    15
100
AcDbLine
 10
15.3259058754
 20
209.1484977794
 30
0.0
 11
7.3259058754
 21
209.1484977794
 31
0.0
  0
ARC
  5
3F2
330
1F
100
AcDbEntity
  8
0
  6
Continuous
 62
     7
370
    15
100
AcDbCircle
 10
7.3259058754
 20
208.1484977794
 30
0.0
 40
1.000000000000001
100
AcDbArc
 50
90.0
 51
180.0
  0
LINE
  5
3F3
330
1F
100
AcDbEntity
  8
0
  6
Continuous
 62
     7
370
    15
100
AcDbLine
 10
6.3259058754
 20
208.1484977794
 30
0.0
 11
6.3259058754
 21
201.1484977794
 31
0.0
  0
LINE
  5
3F4
330
1F
100
AcDbEntity
  8
0
  6
Continuous
 62
     7
370
    15
100
AcDbLine
 10
61.1759058754
 20
345.4366379173
 30
0.0
 11
35.3259058754
 21
345.4366379173
 31
0.0
  0
LINE
  5
3F5
330
1F
100
AcDbEntity
  8
0
  6
Continuous
 62
     7
370
    15
100
AcDbLine
 10
61.1759058754
 20
300.4366379173
 30
0.0
 11
61.1759058754
 21
345.4366379173
 31
0.0
  0
LINE
  5
3F6
330
1F
100
AcDbEntity
  8
0
  6
Continuous
 62
     7
370
    15
100
AcDbLine
 10
66.5259058754
 20
300.4366379173
 30
0.0
 11
61.1759058754
 21
300.4366379173
 31
0.0
  0
LINE
  5
3F7
330
1F
100
AcDbEntity
  8
0
  6
Continuous
 62
     7
370
    15
100
AcDbLine
 10
66.5259058754
 20
270.7699712506
 30
0.0
 11
66.5259058754
 21
300.4366379173
 31
0.0
  0
LINE
  5
3F8
330
1F
100
AcDbEntity
  8
0
  6
Continuous
 62
     7
370
    15
100
AcDbLine
 10
61.1759058754
 20
270.7699712506
 30
0.0
 11
66.5259058754
 21
270.7699712506
 31
0.0
  0
LINE
  5
3F9
330
1F
100
AcDbEntity
  8
0
  6
Continuous
 62
     7
370
    15
100
AcDbLine
 10
61.1759058754
 20
225.7699712506
 30
0.0
 11
61.1759058754
 21
270.7699712506
 31
0.0
  0
LINE
  5
3FA
330
1F
100
AcDbEntity
  8
0
  6
Continuous
 62
     7
370
    15
100
AcDbLine
 10
66.5259058754
 20
225.7699712506
 30
0.0
 11
61.1759058754
 21
225.7699712506
 31
0.0
  0
LINE
  5
3FB
330
1F
100
AcDbEntity
  8
0
  6
Continuous
 62
     7
370
    15
100
AcDbLine
 10
66.5259058754
 20
196.103304584
 30
0.0
 11
66.5259058754
 21
225.7699712506
 31
0.0
  0
LINE
  5
3FC
330
1F
100
AcDbEntity
  8
0
  6
Continuous
 62
     7
370
    15
100
AcDbLine
 10
61.1759058754
 20
196.103304584
 30
0.0
 11
66.5259058754
 21
196.103304584
 31
0.0
  0
LINE
  5
3FD
330
1F
100
AcDbEntity
  8
0
  6
Continuous
 62
     7
370
    15
100
AcDbLine
 10
61.1759058754
 20
151.103304584
 30
0.0
 11
61.1759058754
 21
196.103304584
 31
0.0
  0
LINE
  5
3FE
330
1F
100
AcDbEntity
  8
0
  6
Continuous
 62
     7
370
    15
100
AcDbLine
 10
66.5259058754
 20
151.103304584
 30
0.0
 11
61.1759058754
 21
151.103304584
 31
0.0
  0
LINE
  5
3FF
330
1F
100
AcDbEntity
  8
0
  6
Continuous
 62
     7
370
    15
100
AcDbLine
 10
66.5259058754
 20
121.4366379173
 30
0.0
 11
66.5259058754
 21
151.103304584
 31
0.0
  0
LINE
  5
400
330
1F
100
AcDbEntity
  8
0
  6
Continuous
 62
     7
370
    15
100
AcDbLine
 10
61.1759058754
 20
121.4366379173
 30
0.0
 11
66.5259058754
 21
121.4366379173
 31
0.0
  0
LINE
  5
401
330
1F
100
AcDbEntity
  8
0
  6
Continuous
 62
     7
370
    15
100
AcDbLine
 10
61.1759058754
 20
76.4366379173
 30
0.0
 11
61.1759058754
 21
121.4366379173
 31
0.0
  0
LINE
  5
402
330
1F
100
AcDbEntity
  8
0
  6
Continuous
 62
     7
370
    15
100
AcDbLine
 10
12.3259058754
 20
76.4366379173
 30
0.0
 11
61.1759058754
 21
76.4366379173
 31
0.0
  0
LINE
  5
403
330
1F
100
AcDbEntity
  8
0
  6
Continuous
 62
     7
370
    15
100
AcDbLine
 10
2.3259058754
 20
206.4366379173
 30
0.0
 11
2.3259058754
 21
86.4366379173
 31
0.0
  0
LINE
  5
404
330
1F
100
AcDbEntity
  8
0
  6
Continuous
 62
     7
370
    15
100
AcDbLine
 10
15.3259058754
 20
216.4366379173
 30
0.0
 11
12.3259058754
 21
216.4366379173
 31
0.0
  0
LINE
  5
405
330
1F
100
AcDbEntity
  8
0
  6
Continuous
 62
     7
370
    15
100
AcDbLine
 10
25.3259058754
 20
335.4366379173
 30
0.0
 11
25.3259058754
 21
226.4366379173
 31
0.0
  0
ENDSEC
  0
SECTION
  2
OBJECTS
  0
DICTIONARY
  5
C
330
0
100
AcDbDictionary
281
     1
  3
ACAD_GROUP
350
D
  3
ACAD_LAYOUT
350
1A
  3
ACAD_MLEADERSTYLE
350
408
  3
ACAD_MLINESTYLE
350
17
  3
ACAD_PLOTSETTINGS
350
19
  3
ACAD_PLOTSTYLENAME
350
E
  3
ACAD_SCALELIST
350
45
  3
ACAD_VISUALSTYLE
350
2A
  3
AcDbVariableDictionary
350
406
  0
DICTIONARY
  5
D
102
{ACAD_REACTORS
330
C
102
}
330
C
100
AcDbDictionary
281
     1
  0
DICTIONARY
  5
1A
102
{ACAD_REACTORS
330
C
102
}
330
C
100
AcDbDictionary
281
     1
  3
Layout1
350
1E
  3
Layout2
350
26
  3
Model
350
22
  0
DICTIONARY
  5
408
102
{ACAD_REACTORS
330
C
102
}
330
C
100
AcDbDictionary
281
     1
  0
DICTIONARY
  5
17
102
{ACAD_REACTORS
330
C
102
}
330
C
100
AcDbDictionary
281
     1
  3
Standard
350
18
  0
DICTIONARY
  5
19
102
{ACAD_REACTORS
330
C
102
}
330
C
100
AcDbDictionary
281
     1
  0
ACDBDICTIONARYWDFLT
  5
E
102
{ACAD_REACTORS
330
C
102
}
330
C
100
AcDbDictionary
281
     1
  3
Normal
350
F
100
AcDbDictionaryWithDefault
340
F
  0
DICTIONARY
  5
45
102
{ACAD_REACTORS
330
C
102
}
330
C
100
AcDbDictionary
281
     1
  3
A0
350
46
  3
A1
350
47
  3
A2
350
48
  3
A3
350
49
  3
A4
350
4A
  3
A5
350
4B
  3
A6
350
4C
  3
A7
350
4D
  3
A8
350
4E
  3
A9
350
4F
  3
B0
350
50
  3
B1
350
51
  3
B2
350
52
  3
B3
350
53
  3
B4
350
54
  3
B5
350
55
  3
B6
350
56
  3
B7
350
57
  3
B8
350
58
  3
B9
350
59
  3
C0
350
5A
  3
C1
350
5B
  3
C2
350
5C
  3
C3
350
5D
  3
C4
350
5E
  3
C5
350
5F
  3
C6
350
60
  3
C7
350
61
  3
C8
350
62
  3
C9
350
63
  3
D0
350
64
  3
D1
350
65
  3
D2
350
66
  0
DICTIONARY
  5
2A
102
{ACAD_REACTORS
330
C
102
}
330
C
100
AcDbDictionary
281
     1
  3
2dWireframe
350
2F
  3
3D Hidden
350
31
  3
3dWireframe
350
30
  3
Basic
350
32
  3
Brighten
350
36
  3
ColorChange
350
3A
  3
Conceptual
350
34
  3
Dim
350
35
  3
Facepattern
350
39
  3
Flat
350
2B
  3
FlatWithEdges
350
2C
  3
Gouraud
350
2D
  3
GouraudWithEdges
350
2E
  3
Linepattern
350
38
  3
Realistic
350
33
  3
Thicken
350
37
  0
DICTIONARY
  5
406
102
{ACAD_REACTORS
330
C
102
}
330
C
100
AcDbDictionary
281
     1
  3
CANNOSCALE
350
40B
  3
DIMASSOC
350
40C
  3
HIDETEXT
350
40D
  3
PSOLHEIGHT
350
40A
  3
PSOLWIDTH
350
409
  0
LAYOUT
  5
1E
102
{ACAD_REACTORS
330
1A
102
}
330
1A
100
AcDbPlotSettings
  1

  2
none_device
  4

  6

 40
0.0
 41
0.0
 42
0.0
 43
0.0
 44
0.0
 45
0.0
 46
0.0
 47
0.0
 48
0.0
 49
0.0
140
0.0
141
0.0
142
1.0
143
1.0
 70
   688
 72
     0
 73
     0
 74
     5
  7

 75
    16
147
1.0
148
0.0
149
0.0
100
AcDbLayout
  1
Layout1
 70
     1
 71
     1
 10
0.0
 20
0.0
 11
420.0
 21
297.0
 12
0.0
 22
0.0
 32
0.0
 14
1.0000000000E+20
 24
1.0000000000E+20
 34
1.0000000000E+20
 15
-1.0000000000E+20
 25
-1.0000000000E+20
 35
-1.0000000000E+20
146
0.0
 13
0.0
 23
0.0
 33
0.0
 16
1.0
 26
0.0
 36
0.0
 17
0.0
 27
1.0
 37
0.0
 76
     0
330
1B
  0
LAYOUT
  5
26
102
{ACAD_REACTORS
330
1A
102
}
330
1A
100
AcDbPlotSettings
  1

  2
none_device
  4

  6

 40
0.0
 41
0.0
 42
0.0
 43
0.0
 44
0.0
 45
0.0
 46
0.0
 47
0.0
 48
0.0
 49
0.0
140
0.0
141
0.0
142
1.0
143
1.0
 70
   688
 72
     0
 73
     0
 74
     5
  7

 75
    16
147
1.0
148
0.0
149
0.0
100
AcDbLayout
  1
Layout2
 70
     1
 71
     2
 10
0.0
 20
0.0
 11
0.0
 21
0.0
 12
0.0
 22
0.0
 32
0.0
 14
0.0
 24
0.0
 34
0.0
 15
0.0
 25
0.0
 35
0.0
146
0.0
 13
0.0
 23
0.0
 33
0.0
 16
1.0
 26
0.0
 36
0.0
 17
0.0
 27
1.0
 37
0.0
 76
     0
330
23
  0
LAYOUT
  5
22
102
{ACAD_REACTORS
330
1A
102
}
330
1A
100
AcDbPlotSettings
  1

  2
none_device
  4

  6

 40
0.0
 41
0.0
 42
0.0
 43
0.0
 44
0.0
 45
0.0
 46
0.0
 47
0.0
 48
0.0
 49
0.0
140
0.0
141
0.0
142
1.0
143
1.0
 70
  1712
 72
     0
 73
     0
 74
     0
  7

 75
     0
147
1.0
148
0.0
149
0.0
100
AcDbLayout
  1
Model
 70
     1
 71
     0
 10
0.0
 20
0.0
 11
300.0
 21
349.0
 12
0.0
 22
0.0
 32
0.0
 14
0.0
 24
0.0
 34
0.0
 15
300.0
 25
349.0
 35
0.0
146
0.0
 13
0.0
 23
0.0
 33
0.0
 16
1.0
 26
0.0
 36
0.0
 17
0.0
 27
1.0
 37
0.0
 76
     0
330
1F
331
29
  0
MLINESTYLE
  5
18
102
{ACAD_REACTORS
330
17
102
}
330
17
100
AcDbMlineStyle
  2
Standard
 70
     0
  3

 62
   256
 51
90.0
 52
90.0
 71
     2
 49
0.5
 62
   256
  6
BYLAYER
 49
-0.5
 62
   256
  6
BYLAYER
  0
ACDBPLACEHOLDER
  5
F
102
{ACAD_REACTORS
330
E
102
}
330
E
  0
SCALE
  5
46
102
{ACAD_REACTORS
330
45
102
}
330
45
100
AcDbScale
 70
     0
300
1:1
140
1.0
141
1.0
290
     1
  0
SCALE
  5
47
102
{ACAD_REACTORS
330
45
102
}
330
45
100
AcDbScale
 70
     0
300
1:2
140
1.0
141
2.0
290
     0
  0
SCALE
  5
48
102
{ACAD_REACTORS
330
45
102
}
330
45
100
AcDbScale
 70
     0
300
1:4
140
1.0
141
4.0
290
     0
  0
SCALE
  5
49
102
{ACAD_REACTORS
330
45
102
}
330
45
100
AcDbScale
 70
     0
300
1:5
140
1.0
141
5.0
290
     0
  0
SCALE
  5
4A
102
{ACAD_REACTORS
330
45
102
}
330
45
100
AcDbScale
 70
     0
300
1:8
140
1.0
141
8.0
290
     0
  0
SCALE
  5
4B
102
{ACAD_REACTORS
330
45
102
}
330
45
100
AcDbScale
 70
     0
300
1:10
140
1.0
141
10.0
290
     0
  0
SCALE
  5
4C
102
{ACAD_REACTORS
330
45
102
}
330
45
100
AcDbScale
 70
     0
300
1:16
140
1.0
141
16.0
290
     0
  0
SCALE
  5
4D
102
{ACAD_REACTORS
330
45
102
}
330
45
100
AcDbScale
 70
     0
300
1:20
140
1.0
141
20.0
290
     0
  0
SCALE
  5
4E
102
{ACAD_REACTORS
330
45
102
}
330
45
100
AcDbScale
 70
     0
300
1:30
140
1.0
141
30.0
290
     0
  0
SCALE
  5
4F
102
{ACAD_REACTORS
330
45
102
}
330
45
100
AcDbScale
 70
     0
300
1:40
140
1.0
141
40.0
290
     0
  0
SCALE
  5
50
102
{ACAD_REACTORS
330
45
102
}
330
45
100
AcDbScale
 70
     0
300
1:50
140
1.0
141
50.0
290
     0
  0
SCALE
  5
51
102
{ACAD_REACTORS
330
45
102
}
330
45
100
AcDbScale
 70
     0
300
1:100
140
1.0
141
100.0
290
     0
  0
SCALE
  5
52
102
{ACAD_REACTORS
330
45
102
}
330
45
100
AcDbScale
 70
     0
300
2:1
140
2.0
141
1.0
290
     0
  0
SCALE
  5
53
102
{ACAD_REACTORS
330
45
102
}
330
45
100
AcDbScale
 70
     0
300
4:1
140
4.0
141
1.0
290
     0
  0
SCALE
  5
54
102
{ACAD_REACTORS
330
45
102
}
330
45
100
AcDbScale
 70
     0
300
8:1
140
8.0
141
1.0
290
     0
  0
SCALE
  5
55
102
{ACAD_REACTORS
330
45
102
}
330
45
100
AcDbScale
 70
     0
300
10:1
140
10.0
141
1.0
290
     0
  0
SCALE
  5
56
102
{ACAD_REACTORS
330
45
102
}
330
45
100
AcDbScale
 70
     0
300
100:1
140
100.0
141
1.0
290
     0
  0
SCALE
  5
57
102
{ACAD_REACTORS
330
45
102
}
330
45
100
AcDbScale
 70
     0
300
1/128" = 1'-0"
140
0.0078125
141
12.0
290
     0
  0
SCALE
  5
58
102
{ACAD_REACTORS
330
45
102
}
330
45
100
AcDbScale
 70
     0
300
1/64" = 1'-0"
140
0.015625
141
12.0
290
     0
  0
SCALE
  5
59
102
{ACAD_REACTORS
330
45
102
}
330
45
100
AcDbScale
 70
     0
300
1/32" = 1'-0"
140
0.03125
141
12.0
290
     0
  0
SCALE
  5
5A
102
{ACAD_REACTORS
330
45
102
}
330
45
100
AcDbScale
 70
     0
300
1/16" = 1'-0"
140
0.0625
141
12.0
290
     0
  0
SCALE
  5
5B
102
{ACAD_REACTORS
330
45
102
}
330
45
100
AcDbScale
 70
     0
300
3/32" = 1'-0"
140
0.09375
141
12.0
290
     0
  0
SCALE
  5
5C
102
{ACAD_REACTORS
330
45
102
}
330
45
100
AcDbScale
 70
     0
300
1/8" = 1'-0"
140
0.125
141
12.0
290
     0
  0
SCALE
  5
5D
102
{ACAD_REACTORS
330
45
102
}
330
45
100
AcDbScale
 70
     0
300
3/16" = 1'-0"
140
0.1875
141
12.0
290
     0
  0
SCALE
  5
5E
102
{ACAD_REACTORS
330
45
102
}
330
45
100
AcDbScale
 70
     0
300
1/4" = 1'-0"
140
0.25
141
12.0
290
     0
  0
SCALE
  5
5F
102
{ACAD_REACTORS
330
45
102
}
330
45
100
AcDbScale
 70
     0
300
3/8" = 1'-0"
140
0.375
141
12.0
290
     0
  0
SCALE
  5
60
102
{ACAD_REACTORS
330
45
102
}
330
45
100
AcDbScale
 70
     0
300
1/2" = 1'-0"
140
0.5
141
12.0
290
     0
  0
SCALE
  5
61
102
{ACAD_REACTORS
330
45
102
}
330
45
100
AcDbScale
 70
     0
300
3/4" = 1'-0"
140
0.75
141
12.0
290
     0
  0
SCALE
  5
62
102
{ACAD_REACTORS
330
45
102
}
330
45
100
AcDbScale
 70
     0
300
1" = 1'-0"
140
1.0
141
12.0
290
     0
  0
SCALE
  5
63
102
{ACAD_REACTORS
330
45
102
}
330
45
100
AcDbScale
 70
     0
300
1-1/2" = 1'-0"
140
1.5
141
12.0
290
     0
  0
SCALE
  5
64
102
{ACAD_REACTORS
330
45
102
}
330
45
100
AcDbScale
 70
     0
300
3" = 1'-0"
140
3.0
141
12.0
290
     0
  0
SCALE
  5
65
102
{ACAD_REACTORS
330
45
102
}
330
45
100
AcDbScale
 70
     0
300
6" = 1'-0"
140
6.0
141
12.0
290
     0
  0
SCALE
  5
66
102
{ACAD_REACTORS
330
45
102
}
330
45
100
AcDbScale
 70
     0
300
1'-0" = 1'-0"
140
12.0
141
12.0
290
     0
  0
VISUALSTYLE
  5
2F
102
{ACAD_REACTORS
330
2A
102
}
330
2A
100
AcDbVisualStyle
  2
2dWireframe
 70
     4
 71
     0
 72
     2
 73
     0
 90
        0
 40
-0.6
 41
-30.0
 62
     5
 63
     7
 74
     1
 91
        4
 64
     7
 65
   257
 75
     1
175
     1
 42
1.0
 92
        0
 66
   257
 43
1.0
 76
     1
 77
     6
 78
     2
 67
     7
 79
     5
170
     0
171
     0
290
     0
174
     0
 93
        1
 44
0.0
173
     0
291
     0
 45
0.0
1001
ACAD
1000
AcDbSavedByObjectVersion
1070
     0
  0
VISUALSTYLE
  5
31
102
{ACAD_REACTORS
330
2A
102
}
330
2A
100
AcDbVisualStyle
  2
3D Hidden
 70
     6
 71
     1
 72
     2
 73
     2
 90
        0
 40
-0.6
 41
-30.0
 62
     5
 63
     7
 74
     2
 91
        2
 64
     7
 65
   257
 75
     2
175
     1
 42
40.0
 92
        0
 66
   257
 43
1.0
 76
     1
 77
     6
 78
     2
 67
     7
 79
     3
170
     0
171
     0
290
     0
174
     0
 93
        1
 44
0.0
173
     0
291
     0
 45
0.0
1001
ACAD
1000
AcDbSavedByObjectVersion
1070
     0
  0
VISUALSTYLE
  5
30
102
{ACAD_REACTORS
330
2A
102
}
330
2A
100
AcDbVisualStyle
  2
3dWireframe
 70
     5
 71
     0
 72
     2
 73
     0
 90
        0
 40
-0.6
 41
-30.0
 62
     5
 63
     7
 74
     1
 91
        4
 64
     7
 65
   257
 75
     1
175
     1
 42
1.0
 92
        0
 66
   257
 43
1.0
 76
     1
 77
     6
 78
     2
 67
     7
 79
     5
170
     0
171
     0
290
     0
174
     0
 93
        1
 44
0.0
173
     0
291
     0
 45
0.0
1001
ACAD
1000
AcDbSavedByObjectVersion
1070
     0
  0
VISUALSTYLE
  5
32
102
{ACAD_REACTORS
330
2A
102
}
330
2A
100
AcDbVisualStyle
  2
Basic
 70
     7
 71
     1
 72
     0
 73
     1
 90
        0
 40
-0.6
 41
-30.0
 62
     5
 63
     7
 74
     0
 91
        4
 64
     7
 65
   257
 75
     1
175
     1
 42
1.0
 92
        8
 66
     7
 43
1.0
 76
     1
 77
     6
 78
     2
 67
     7
 79
     5
170
     0
171
     0
290
     0
174
     0
 93
        1
 44
0.0
173
     0
291
     1
 45
0.0
1001
ACAD
1000
AcDbSavedByObjectVersion
1070
     0
  0
VISUALSTYLE
  5
36
102
{ACAD_REACTORS
330
2A
102
}
330
2A
100
AcDbVisualStyle
  2
Brighten
 70
    12
 71
     2
 72
     2
 73
     0
 90
        0
 40
-0.6
 41
-30.0
 62
     5
 63
     7
 74
     1
 91
        4
 64
     7
 65
   257
 75
     1
175
     1
 42
1.0
 92
        8
 66
     7
 43
1.0
 76
     1
 77
     6
 78
     2
 67
     7
 79
     5
170
     0
171
     0
290
     0
174
     0
 93
        1
 44
50.0
173
     0
291
     1
 45
0.0
1001
ACAD
1000
AcDbSavedByObjectVersion
1070
     0
  0
VISUALSTYLE
  5
3A
102
{ACAD_REACTORS
330
2A
102
}
330
2A
100
AcDbVisualStyle
  2
ColorChange
 70
    16
 71
     2
 72
     2
 73
     3
 90
        0
 40
-0.6
 41
-30.0
 62
     5
 63
     8
 74
     1
 91
        4
 64
     7
 65
   257
 75
     1
175
     1
 42
1.0
 92
        8
 66
     8
 43
1.0
 76
     1
 77
     6
 78
     2
 67
     7
 79
     5
170
     0
171
     0
290
     0
174
     0
 93
        1
 44
0.0
173
     0
291
     1
 45
0.0
1001
ACAD
1000
AcDbSavedByObjectVersion
1070
     0
  0
VISUALSTYLE
  5
34
102
{ACAD_REACTORS
330
2A
102
}
330
2A
100
AcDbVisualStyle
  2
Conceptual
 70
     9
 71
     3
 72
     2
 73
     0
 90
        0
 40
-0.6
 41
-30.0
 62
     5
 63
     7
 74
     2
 91
        2
 64
     7
 65
   257
 75
     1
175
     1
 42
40.0
 92
        8
 66
     7
 43
1.0
 76
     1
 77
     6
 78
     2
 67
     7
 79
     3
170
     0
171
     0
290
     0
174
     0
 93
        1
 44
0.0
173
     0
291
     0
 45
0.0
1001
ACAD
1000
AcDbSavedByObjectVersion
1070
     0
  0
VISUALSTYLE
  5
35
102
{ACAD_REACTORS
330
2A
102
}
330
2A
100
AcDbVisualStyle
  2
Dim
 70
    11
 71
     2
 72
     2
 73
     0
 90
        0
 40
-0.6
 41
-30.0
 62
     5
 63
     7
 74
     1
 91
        4
 64
     7
 65
   257
 75
     1
175
     1
 42
1.0
 92
        8
 66
     7
 43
1.0
 76
     1
 77
     6
 78
     2
 67
     7
 79
     5
170
     0
171
     0
290
     0
174
     0
 93
        1
 44
-50.0
173
     0
291
     1
 45
0.0
1001
ACAD
1000
AcDbSavedByObjectVersion
1070
     0
  0
VISUALSTYLE
  5
39
102
{ACAD_REACTORS
330
2A
102
}
330
2A
100
AcDbVisualStyle
  2
Facepattern
 70
    15
 71
     2
 72
     2
 73
     0
 90
        0
 40
-0.6
 41
-30.0
 62
     5
 63
     7
 74
     1
 91
        4
 64
     7
 65
   257
 75
     1
175
     1
 42
1.0
 92
        8
 66
     7
 43
1.0
 76
     1
 77
     6
 78
     2
 67
     7
 79
     5
170
     0
171
     0
290
     0
174
     0
 93
        1
 44
0.0
173
     0
291
     1
 45
0.0
1001
ACAD
1000
AcDbSavedByObjectVersion
1070
     0
  0
VISUALSTYLE
  5
2B
102
{ACAD_REACTORS
330
2A
102
}
330
2A
100
AcDbVisualStyle
  2
Flat
 70
     0
 71
     2
 72
     1
 73
     1
 90
        2
 40
-0.6
 41
30.0
 62
     5
 63
     7
 74
     0
 91
        4
 64
     7
 65
   257
 75
     1
175
     1
 42
1.0
 92
        8
 66
     7
 43
1.0
 76
     1
 77
     6
 78
     2
 67
     7
 79
     5
170
     0
171
     0
290
     0
174
     0
 93
       13
 44
0.0
173
     0
291
     1
 45
0.0
1001
ACAD
1000
AcDbSavedByObjectVersion
1070
     0
  0
VISUALSTYLE
  5
2C
102
{ACAD_REACTORS
330
2A
102
}
330
2A
100
AcDbVisualStyle
  2
FlatWithEdges
 70
     1
 71
     2
 72
     1
 73
     1
 90
        2
 40
-0.6
 41
30.0
 62
     5
 63
     7
 74
     1
 91
        4
 64
     7
 65
   257
 75
     1
175
     1
 42
1.0
 92
        0
 66
   257
 43
1.0
 76
     1
 77
     6
 78
     2
 67
     7
 79
     5
170
     0
171
     0
290
     0
174
     0
 93
       13
 44
0.0
173
     0
291
     1
 45
0.0
1001
ACAD
1000
AcDbSavedByObjectVersion
1070
     0
  0
VISUALSTYLE
  5
2D
102
{ACAD_REACTORS
330
2A
102
}
330
2A
100
AcDbVisualStyle
  2
Gouraud
 70
     2
 71
     2
 72
     2
 73
     1
 90
        2
 40
-0.6
 41
30.0
 62
     5
 63
     7
 74
     0
 91
        4
 64
     7
 65
   257
 75
     1
175
     1
 42
1.0
 92
        0
 66
     7
 43
1.0
 76
     1
 77
     6
 78
     2
 67
     7
 79
     5
170
     0
171
     0
290
     0
174
     0
 93
       13
 44
0.0
173
     0
291
     1
 45
0.0
1001
ACAD
1000
AcDbSavedByObjectVersion
1070
     0
  0
VISUALSTYLE
  5
2E
102
{ACAD_REACTORS
330
2A
102
}
330
2A
100
AcDbVisualStyle
  2
GouraudWithEdges
 70
     3
 71
     2
 72
     2
 73
     1
 90
        2
 40
-0.6
 41
30.0
 62
     5
 63
     7
 74
     1
 91
        4
 64
     7
 65
   257
 75
     1
175
     1
 42
1.0
 92
        0
 66
   257
 43
1.0
 76
     1
 77
     6
 78
     2
 67
     7
 79
     5
170
     0
171
     0
290
     0
174
     0
 93
       13
 44
0.0
173
     0
291
     1
 45
0.0
1001
ACAD
1000
AcDbSavedByObjectVersion
1070
     0
  0
VISUALSTYLE
  5
38
102
{ACAD_REACTORS
330
2A
102
}
330
2A
100
AcDbVisualStyle
  2
Linepattern
 70
    14
 71
     2
 72
     2
 73
     0
 90
        0
 40
-0.6
 41
-30.0
 62
     5
 63
     7
 74
     1
 91
        4
 64
     7
 65
   257
 75
     7
175
     7
 42
1.0
 92
        8
 66
     7
 43
1.0
 76
     1
 77
     6
 78
     2
 67
     7
 79
     5
170
     0
171
     0
290
     0
174
     0
 93
        1
 44
0.0
173
     0
291
     1
 45
0.0
1001
ACAD
1000
AcDbSavedByObjectVersion
1070
     0
  0
VISUALSTYLE
  5
33
102
{ACAD_REACTORS
330
2A
102
}
330
2A
100
AcDbVisualStyle
  2
Realistic
 70
     8
 71
     2
 72
     2
 73
     0
 90
        0
 40
-0.6
 41
-30.0
 62
     5
 63
     7
 74
     1
 91
        0
 64
     7
 65
   257
 75
     1
175
     1
 42
1.0
 92
        8
 66
     8
 43
1.0
 76
     1
 77
     6
 78
     2
 67
     7
 79
     5
170
     0
171
     0
290
     0
174
     0
 93
       13
 44
0.0
173
     0
291
     0
 45
0.0
1001
ACAD
1000
AcDbSavedByObjectVersion
1070
     0
  0
VISUALSTYLE
  5
37
102
{ACAD_REACTORS
330
2A
102
}
330
2A
100
AcDbVisualStyle
  2
Thicken
 70
    13
 71
     2
 72
     2
 73
     0
 90
        0
 40
-0.6
 41
-30.0
 62
     5
 63
     7
 74
     1
 91
        4
 64
     7
 65
   257
 75
     1
175
     1
 42
1.0
 92
       12
 66
     7
 43
1.0
 76
     1
 77
     6
 78
     2
 67
     7
 79
     5
170
     0
171
     0
290
     0
174
     0
 93
        1
 44
0.0
173
     0
291
     1
 45
0.0
1001
ACAD
1000
AcDbSavedByObjectVersion
1070
     0
  0
DICTIONARYVAR
  5
40B
102
{ACAD_REACTORS
330
406
102
}
330
406
100
DictionaryVariables
280
     0
  1
1:1
  0
DICTIONARYVAR
  5
40C
102
{ACAD_REACTORS
330
406
102
}
330
406
100
DictionaryVariables
280
     0
  1
2
  0
DICTIONARYVAR
  5
40D
102
{ACAD_REACTORS
330
406
102
}
330
406
100
DictionaryVariables
280
     0
  1
1
  0
DICTIONARYVAR
  5
40A
102
{ACAD_REACTORS
330
406
102
}
330
406
100
DictionaryVariables
280
     0
  1
80.000000
  0
DICTIONARYVAR
  5
409
102
{ACAD_REACTORS
330
406
102
}
330
406
100
DictionaryVariables
280
     0
  1
5.000000
  0
ENDSEC
  0
EOF
