<?xml version="1.0" encoding="UTF-8" standalone="no"?>
<svg
   xmlns:dc="http://purl.org/dc/elements/1.1/"
   xmlns:cc="http://creativecommons.org/ns#"
   xmlns:rdf="http://www.w3.org/1999/02/22-rdf-syntax-ns#"
   xmlns:svg="http://www.w3.org/2000/svg"
   xmlns="http://www.w3.org/2000/svg"
   xmlns:sodipodi="http://sodipodi.sourceforge.net/DTD/sodipodi-0.dtd"
   xmlns:inkscape="http://www.inkscape.org/namespaces/inkscape"
   width="17.164459907336806in"
   height="17.164459907336806in"
   viewBox="0 0 17.164459907336806 17.164459907336806"
   version="1.1"
   id="svg2"
   inkscape:version="0.91 r13725"
   sodipodi:docname="sled.svg">
  <metadata
     id="metadata14">
    <rdf:RDF>
      <cc:Work
         rdf:about="">
        <dc:format>image/svg+xml</dc:format>
        <dc:type
           rdf:resource="http://purl.org/dc/dcmitype/StillImage" />
      </cc:Work>
    </rdf:RDF>
  </metadata>
  <defs
     id="defs12" />
  <sodipodi:namedview
     pagecolor="#ffffff"
     bordercolor="#666666"
     borderopacity="1"
     objecttolerance="10"
     gridtolerance="10"
     guidetolerance="10"
     inkscape:pageopacity="0"
     inkscape:pageshadow="2"
     inkscape:window-width="664"
     inkscape:window-height="480"
     id="namedview10"
     showgrid="false"
     inkscape:zoom="0.15277045"
     inkscape:cx="772.40067"
     inkscape:cy="772.40067"
     inkscape:window-x="20"
     inkscape:window-y="43"
     inkscape:window-maximized="0"
     inkscape:current-layer="svg2" />
  <desc
     id="desc4">Output from Flights of Ideas SVG Sketchup Plugin</desc>
  <path
     id="face0-cut"
     style="fill:none;stroke:#0000FF;stroke-width:0.02;stroke-miterlimit:4;stroke-dasharray:none;stroke-linejoin:round;stroke-linecap:round"
     d="M 0.019582042434190622,7.996219780838766 L 0.00717629001442391,8.220564583639778 L 0.000647451042229659,8.445157253820001 L 5.7720524263307526e-11,8.669843866781767 L 0.0052343807914670155,8.894470433543898 L 0.016347005860374547,9.11888300627788 L 0.03333025922630875,9.342927783816023 L 0.05617250141574595,9.566451217059088 L 0.0848580774968837,9.789300114211173 L 0.11936732780875262,10.011321745769722 L 0.15967660143496645,10.232363949198692 L 0.2057582724128735,10.45227523321316 L 0.25758075866701585,10.670904881603871 L 0.31510854365390767,10.888103056530618 L 0.37830220070329507,11.103720901213594 L 0.44711842003922936,11.317610641952406 L 0.5215100384624232,11.52962568940278 L 0.6014260716735573,11.739620739041584 L 0.6868117492153618,11.947451870751284 L 0.7776085520095584,12.152976647455601 L 0.8737542524629158,12.356054212738771 L 0.9751829571149258,12.556545387381504 L 1.081825151797895,12.754312764747457 L 1.1936077492784913,12.94922080495488 L 1.310454139348058,13.141135927768897 L 1.4322842413274564,13.329926604150696 L 1.5590145589503357,13.51546344640099 L 1.690558237587314,13.697619296835882 L 1.8268251237718132,13.876269314934362 L 1.967721826986725,14.051291062897803 L 2.113151783669609,14.222564589562671 L 2.263015323392547,14.389972512609102 L 2.41720973717126,14.553400099008844 L 2.5756293478567325,14.712735343657577 L 2.7381655825610305,14.867869046137592 L 2.9047070470677556,15.0186948855583 L 3.0751396021760704,15.165109493423293 L 3.2493464419259968,15.307012524473906 L 3.4272081736513953,15.444306725460873 L 3.608602899805733,15.576898001796835 L 3.793406301504573,15.704695482044077 L 3.981491723727529,15.82761158019326 L 4.1727302621212825,15.945562055690514 L 4.366990851344202,16.058466071171683 L 4.5641403548919595,16.16624624786424 L 4.764043656342663,16.26882871861883 L 4.966563751958896,16.3661431785341 L 5.17156184458322,16.458122933140178 L 5.378897438762841,16.544704944107767 L 5.5884284370381465,16.6258298724514 L 5.800011237329228,16.70144211919749 L 6.013500831353566,16.771489863489013 L 6.22875090400745,16.835925098101015 L 6.4456139336430756,16.894703662342287 L 6.663941293172476,16.947785272320974 L 6.883583351929117,16.995133548553053 L 7.104389578217303,17.036716040895115 L 7.326208642479051,17.072504250783997 L 7.54888852100782,17.1024736507683 L 7.772276600137976,17.126603701318277 L 7.996219780838574,17.144877864902607 L 8.220564583639769,17.15728361732238 L 8.445157253819994,17.163812456294583 L 8.66984386678176,17.164459907279085 L 8.894470433543885,17.159225526545345 L 9.118883006277864,17.148112901476434 L 9.342927783816007,17.131129648110505 L 9.566451217059077,17.108287405921068 L 9.789300114211157,17.079601829839927 L 10.011321745769704,17.045092579528056 L 10.232363949198676,17.00478330590185 L 10.452275233213145,16.958701634923937 L 10.670904881603855,16.9068791486698 L 10.888103056530598,16.849351363682906 L 11.103720901213576,16.78615770663352 L 11.31761064195239,16.717341487297585 L 11.529625689402758,16.642949868874393 L 11.739620739041564,16.56303383566326 L 11.947451870751268,16.47764815812145 L 12.152976647455587,16.386851355327256 L 12.356054212738757,16.2907056548739 L 12.556545387381496,16.189276950221892 L 12.754312764747441,16.082634755538923 L 12.949220804954871,15.970852158058324 L 13.141135927768888,15.854005767988756 L 13.329926604150684,15.732175666009356 L 13.51546344640098,15.605445348386482 L 13.697619296835873,15.473901669749495 L 13.876269314934357,15.337634783565003 L 14.051291062897798,15.196738080350084 L 14.222564589562664,15.051308123667201 L 14.389972512609097,14.901444583944267 L 14.553400099008842,14.747250170165549 L 14.712735343657572,14.588830559480085 L 14.86786904613759,14.42629432477578 L 15.018694885558302,14.259752860269057 L 15.165109493423293,14.089320305160737 L 15.307012524473903,13.91511346541081 L 15.444306725460875,13.737251733685408 L 15.576898001796836,13.555857007531078 L 15.704695482044082,13.37105360583223 L 15.827611580193265,13.18296818360928 L 15.945562055690518,12.991729645215518 L 16.058466071171697,12.797469055992607 L 16.166246247864255,12.600319552444837 L 16.26882871861884,12.400416250994127 L 16.3661431785341,12.1978961553779 L 16.458122933140192,11.992898062753586 L 16.544704944107767,11.78556246857396 L 16.62582987245141,11.576031470298641 L 16.701442119197498,11.364448670007544 L 16.771489863489027,11.150959075983213 L 16.835925098101026,10.935709003329329 L 16.894703662342298,10.718845973693703 L 16.947785272320974,10.500518614164307 L 16.995133548553067,10.280876555407652 L 17.03671604089512,10.060070329119474 L 17.072504250784004,9.838251264857739 L 17.102473650768307,9.61557138632892 L 17.126603701318285,9.39218330719878 L 17.144877864902615,9.168240126498237 L 17.15728361732238,8.943895323696994 L 17.163812456294583,8.719302653516772 L 17.164459907279085,8.494616040554922 L 17.159225526545345,8.26998947379275 L 17.148112901476434,8.045576901058196 L 17.131129648110498,7.821532123520848 L 17.108287405921057,7.598008690277734 L 17.07960182983992,7.37515979312561 L 17.04509257952805,7.1531381615670355 L 17.004783305901835,6.9320959581380395 L 16.958701634923923,6.712184674123613 L 16.906879148669784,6.493555025732907 L 16.84935136368289,6.276356850806128 L 16.786157706633507,6.0607390061231765 L 16.717341487297563,5.846849265384362 L 16.642949868874364,5.634834217933966 L 16.563033835663237,5.424839168295165 L 16.47764815812143,5.217008036585448 L 16.386851355327227,5.0114832598811585 L 16.29070565487387,4.808405694597978 L 16.189276950221856,4.607914519955248 L 16.082634755538887,4.410147142589291 L 15.970852158058287,4.2152391023818705 L 15.854005767988715,4.023323979567861 L 15.732175666009317,3.834533303186063 L 15.605445348386437,3.6489964609357615 L 15.473901669749457,3.466840610500868 L 15.337634783564953,3.28819059240239 L 15.196738080350043,3.1131688444389494 L 15.05130812366716,2.941895317774089 L 14.901444583944214,2.774487394727656 L 14.747250170165499,2.6110598083279073 L 14.588830559480032,2.4517245636791887 L 14.42629432477573,2.2965908611991686 L 14.259752860268998,2.1457650217784585 L 14.089320305160681,1.9993504139134646 L 13.915113465410757,1.857447382862857 L 13.737251733685357,1.7201531818758968 L 13.555857007531015,1.587561905539927 L 13.371053605832175,1.4597644252926911 L 13.18296818360921,1.3368483271435045 L 12.991729645215463,1.2188978516462554 L 12.797469055992542,1.1059938361650876 L 12.600319552444775,0.9982136594725239 L 12.400416250994072,0.8956311887179358 L 12.197896155377839,0.7983167288026753 L 11.992898062753506,0.7063369741965944 L 11.785562468573884,0.6197549632290129 L 11.576031470298576,0.5386300348853754 L 11.364448670007489,0.463017788139291 L 11.15095907598315,0.3929700438477624 L 10.935709003329263,0.3285348092357672 L 10.718845973693634,0.2697562449944911 L 10.500518614164237,0.21667463501581666 L 10.280876555407586,0.16932635878373728 L 10.060070329119403,0.12774386644167682 L 9.838251264857655,0.0919556565528015 L 9.61557138632888,0.061986256568501236 L 9.392183307198719,0.03785620601852149 L 9.168240126498121,0.01958204243419684 L 8.943895323696923,0.007176290014420357 L 8.719302653516701,0.0006474510422261062 L 8.494616040554936,5.7720524263307526e-11 L 8.269989473792803,0.005234380791470568 L 8.045576901058817,0.016347005860379876 L 7.8215321235206705,0.03333025922631763 L 7.598008690277611,0.05617250141575572 L 7.375159793125524,0.08485807749690147 L 7.153138161566977,0.11936732780877393 L 6.932095958138001,0.15967660143498777 L 6.712184674123533,0.20575827241289926 L 6.493555025732819,0.25758075866704516 L 6.276356850806076,0.31510854365394053 L 6.0607390061231,0.3783022007033306 L 5.846849265384286,0.4471184200392702 L 5.634834217933912,0.5215100384624676 L 5.424839168295106,0.6014260716736053 L 5.217008036585407,0.6868117492154124 L 5.011483259881091,0.7776085520096117 L 4.808405694597921,0.8737542524629744 L 4.607914519955184,0.9751829571149853 L 4.410147142589237,1.0818251517979616 L 4.215239102381814,1.193607749278557 L 4.023323979567799,1.31045413934813 L 3.8345333031860007,1.4322842413275283 L 3.6489964609357037,1.5590145589504112 L 3.466840610500817,1.6905582375873958 L 3.288190592402335,1.8268251237718993 L 3.1131688444388987,1.9677218269868137 L 2.941895317774033,2.1131517836697014 L 2.7744873947276036,2.263015323392642 L 2.611059808327862,2.4172097371713597 L 2.45172456367913,2.575629347856831 L 2.2965908611991206,2.7381655825611353 L 2.1457650217784106,2.9047070470678666 L 1.9993504139134237,3.075139602176183 L 1.85744738286281,3.2493464419261113 L 1.7201531818758453,3.4272081736515125 L 1.5875619055398853,3.6086028998058546 L 1.4597644252926485,3.7934063015046995 L 1.3368483271434655,3.9814917237276592 L 1.2188978516462163,4.172730262121416 L 1.1059938361650477,4.366990851344337 L 0.9982136594724884,4.564140354892098 L 0.8956311887179065,4.764043656342807 L 0.7983167288026443,4.966563751959043 L 0.7063369741965668,5.171561844583373 L 0.6197549632289827,5.378897438762995 L 0.5386300348853488,5.588428437038306 L 0.46301778813926614,5.800011237329391 L 0.39297004384774287,6.0135008313537295 L 0.3285348092357459,6.22875090400762 L 0.2697562449944751,6.445613933643246 L 0.2166746350157989,6.663941293172647 L 0.16932635878371863,6.883583351929294 L 0.1277438664416635,7.104389578217482 L 0.09195565655278551,7.326208642479233 L 0.06198625656848969,7.548888521008005 L 0.03785620601851705,7.772276600138167 L 0.019582042434190622,7.996219780838766 M 4.87675934437403,1.7771891295402384 L 4.829282778497783,1.757523692059451 L 4.788513727124705,1.726240498666646 L 4.757230533731821,1.6854714472936156 L 4.73756509625094,1.637994881417392 L 4.730857581747706,1.5870462505437088 L 4.7375650962508296,1.5360976196700071 L 4.757230533731612,1.4886210537937408 L 4.788513727124405,1.4478520024206394 L 4.829282778497419,1.4165688090277402 L 4.876759344373621,1.3969033715468453 L 4.927707975247285,1.3901958570436057 L 4.978656606120962,1.396903371546729 L 5.0261331719972056,1.416568809027511 L 5.0669022233702865,1.4478520024203143 L 5.098185416763167,1.4886210537933438 L 5.11785085424405,1.5360976196695666 L 5.124558368747284,1.5870462505432497 L 5.117850854244159,1.6379948814169514 L 5.098185416763377,1.6854714472932213 L 5.066902223370583,1.7262404986663227 L 5.026133171997573,1.7575236920592228 L 4.978656606121369,1.7771891295401177 L 4.927707975247705,1.7838966440433572 L 4.87675934437403,1.7771891295402384 M 1.501796864117066,5.1051424993427466 L 1.4587783985598821,5.07703261923245 L 1.4245011239989664,5.038746561882732 L 1.4013009800497822,4.992893458831272 L 1.3907590181824072,4.942598123275192 L 1.3935936556766921,4.89128809921567 L 1.4096117166718556,4.842460079998536 L 1.4377215967821804,4.799441614441323 L 1.476007654131919,4.765164339880377 L 1.5218607571833878,4.741964195931155 L 1.5721560927394633,4.731422234063743 L 1.6234661167989741,4.7342568715579905 L 1.6722941360160877,4.750274932553123 L 1.7153126015732734,4.77838481266342 L 1.7495898761341837,4.816670870013137 L 1.7727900200833715,4.862523973064594 L 1.7833319819507465,4.9128193086206675 L 1.7804973444564651,4.964129332680186 L 1.7644792834612981,5.012957351897317 L 1.7363694033509733,5.055975817454529 L 1.6980833460012348,5.090253092015475 L 1.6522302429497677,5.113453235964702 L 1.6019349073936904,5.1239951978321185 L 1.5506248833341796,5.121160560337875 L 1.501796864117066,5.1051424993427466 M 15.71660803503759,5.066902319342149 L 15.675838983908621,5.098185512694581 L 15.628362418278607,5.117850950199559 L 15.5774137876365,5.1245584647897955 L 15.526465156963953,5.117850950430653 L 15.478988591244727,5.098185513141024 L 15.438219539973849,5.066902319973533 L 15.40693634662137,5.026133268844598 L 15.387270909116358,4.978656703214623 L 15.380563394526094,4.927708072572569 L 15.387270908885233,4.876759441900104 L 15.406936346174861,4.829282876180912 L 15.43821953934239,4.788513824910099 L 15.478988590471362,4.7572306315576585 L 15.526465156101372,4.737565194052674 L 15.57741378674348,4.730857679462437 L 15.628362417416023,4.737565193821572 L 15.675838983135248,4.7572306311112005 L 15.71660803440613,4.78851382427869 L 15.74789122775861,4.829282875407637 L 15.767556665263621,4.876759441037614 L 15.774264179853882,4.927708071679679 L 15.76755666549475,4.978656702352156 L 15.747891228205114,5.02613326807133 L 15.71660803503759,5.066902319342149 M 12.236751828755706,1.3901957262849964 L 12.287700459629425,1.3969032407881792 L 12.335177025505695,1.4165686782690172 L 12.375946076878789,1.4478518716618765 L 12.407229270271655,1.4886209230349565 L 12.426894707752508,1.5360974889112176 L 12.433602222255695,1.5870461197849273 L 12.426894707752508,1.6379947506586476 L 12.407229270271658,1.685471316534914 L 12.375946076878789,1.7262403679079976 L 12.335177025505699,1.7575235613008666 L 12.287700459629425,1.7771889987817224 L 12.236751828755699,1.7838965132849052 L 12.18580319788198,1.7771889987817278 L 12.138326632005706,1.7575235613008888 L 12.09755758063262,1.7262403679080305 L 12.066274387239746,1.685471316534953 L 12.046608949758893,1.6379947506586938 L 12.03990143525571,1.587046119784978 L 12.046608949758893,1.5360974889112602 L 12.066274387239746,1.4886209230349956 L 12.09755758063262,1.4478518716619155 L 12.138326632005706,1.4165686782690403 L 12.185803197881976,1.3969032407881854 L 12.236751828755706,1.3901957262849964 M 7.521430545319285,9.101563567267718 L 7.472296761983818,8.95543809039551 L 7.444035078674181,8.887208351253985 L 7.440611802185737,8.86120598478791 L 7.423162978670783,8.809312613590103 L 7.413523444793006,8.655449482715408 L 7.403883910922056,8.582229953670563 L 7.407307187410501,8.55622758720454 L 7.40388391091963,8.501586351911206 L 7.434395544803236,8.350471085132629 L 7.444035078674181,8.277251556088343 L 7.454071617504065,8.25302120792626 L 7.4649071786728936,8.19935581842445 L 7.533490662891568,8.061286671451548 L 7.561753009379833,7.996219780838766 L 7.577718173837427,7.972249860582725 L 7.6020741470789215,7.9232175245048895 L 7.704055630522719,7.80760368152438 L 7.749013476258126,7.749013476254782 L 7.769820547932062,7.733047648618831 L 7.806037113919961,7.691989838590234 L 7.934466727024569,7.6067101919347 L 7.993056932295234,7.561752346199498 L 8.01728728045761,7.5517158073696775 L 8.062896340070536,7.521430545317741 L 8.209021816942846,7.472296761982484 L 8.27725155608446,7.444035078672885 L 8.303253922550558,7.440611802184454 L 8.355147293748436,7.423162978669532 L 8.50901042462336,7.413523444791814 L 8.582229953668405,7.403883910920807 L 8.608232320134507,7.407307187409267 L 8.66287355542804,7.403883910918362 L 8.813988822207305,7.434395544801885 L 8.88720835125235,7.444035078672744 L 8.91143869941473,7.454071617502617 L 8.965104088917576,7.464907178671336 L 9.103173235899964,7.533490662889692 L 9.171402975041582,7.561752346199107 L 9.192210046715514,7.577718173835278 L 9.241242382819314,7.602074147076532 L 9.356856225808022,7.70405563051933 L 9.415446431078683,7.749013476253894 L 9.431412258714902,7.769820547927387 L 9.47247006874394,7.806037113914274 L 9.557749715400208,7.9344667270059155 L 9.602708083074562,7.996219780838766 L 9.612744099965488,8.017287280516154 L 9.643029362017527,8.062896340089335 L 9.692163145352994,8.209021816949171 L 9.720424828662628,8.277251556089471 L 9.723848105151076,8.303253922555134 L 9.741296928666026,8.355147293752477 L 9.750936462543804,8.509010424626345 L 9.760575996414753,8.582229953671115 L 9.757152719926312,8.608232320137104 L 9.760575996417183,8.662873555430513 L 9.730064362533577,8.813988822209398 L 9.720424828662628,8.887208351254316 L 9.710388289832748,8.91143869941666 L 9.699552728663908,8.96510408891945 L 9.630969244445241,9.103173235901656 L 9.602707561135608,9.1714029750432 L 9.58674173349939,9.19221004671711 L 9.562385760257891,9.241242382820873 L 9.46040427681409,9.356856225809485 L 9.415446431078683,9.41544643108012 L 9.394639359404751,9.43141225871633 L 9.358422793416848,9.472470068745341 L 9.229993180312233,9.557749715401542 L 9.171402975041582,9.602707561136924 L 9.14717262687921,9.612744099966788 L 9.101563567266274,9.643029362018822 L 8.955438090393956,9.69216314535424 L 8.88720835125235,9.72042482866387 L 8.86120598478625,9.723848105152307 L 8.809312613588377,9.741296928667253 L 8.655449482713445,9.750936462545006 L 8.582229953668405,9.760575996415964 L 8.556227587202303,9.757152719927511 L 8.501586351908772,9.760575996418385 L 8.350471085129508,9.730064362534769 L 8.277251556084464,9.720424828663822 L 8.25302120792208,9.710388289833944 L 8.199355818419233,9.69955272866511 L 8.061286671436838,9.630969244446435 L 7.993056932295234,9.602707561136825 L 7.972249860621298,9.586741733500608 L 7.923217524517499,9.562385760259122 L 7.807603681528784,9.460404276815336 L 7.749013476258126,9.415446431079951 L 7.733047648621907,9.394639359406021 L 7.691989838592866,9.35842279341816 L 7.606710191936601,9.229993180313585 L 7.561752346201201,9.171402975042986 L 7.5517158073713215,9.147172626880609 L 7.521430545319285,9.101563567267718 M 3.5405419862499055,13.681559730530932 L 3.5079267451514347,13.656533175876906 L 3.4829001904371384,13.62391792108658 L 3.4671678404524537,13.585936682250338 L 3.4618018288499086,13.545177777653198 L 3.4671678404524555,13.504418873057567 L 3.4829001904371366,13.466437620454238 L 3.5079267451514347,13.433822379440745 L 3.540541986249909,13.408795810473812 L 3.5785232389509267,13.393063460489127 L 3.6192821436499076,13.38769744888658 L 3.6600410483488868,13.393063460489127 L 3.698022301049908,13.408795810473812 L 3.730637542148379,13.433822365188108 L 3.7556640968626787,13.466437606286581 L 3.7713964468473598,13.504418858987599 L 3.7767624584499084,13.545177763686581 L 3.7713964468473598,13.58593666838556 L 3.7556640968626787,13.62391792108658 L 3.730637542148379,13.656533162185054 L 3.698022301049908,13.68155971689935 L 3.6600410483488868,13.697292066884032 L 3.6192821436499076,13.702658078486582 L 3.5785232389509267,13.697292066884035 L 3.5405419862499055,13.681559730530932 M 13.681559716899509,13.623917921086734 L 13.65653316218521,13.656533162185205 L 13.623917921086738,13.681559716899503 L 13.585936668385722,13.697292066884188 L 13.545177763686736,13.702658078486738 L 13.504418858987753,13.697292066884195 L 13.466437606286737,13.681559716899503 L 13.433822365188265,13.656533162185209 L 13.40879581047397,13.623917921086734 L 13.393063460489286,13.58593666838572 L 13.387697448886739,13.545177763686736 L 13.393063460489286,13.504418858987759 L 13.40879581047397,13.466437606286735 L 13.433822365188265,13.433822365188268 L 13.466437606286737,13.408795810473967 L 13.504418858987753,13.393063460489286 L 13.545177763686736,13.38769744888674 L 13.585936668385722,13.393063460489277 L 13.623917921086738,13.40879581047397 L 13.65653316218521,13.433822365188265 L 13.681559716899509,13.466437606286735 L 13.69729206688419,13.504418858987755 L 13.702658078486737,13.545177763686741 L 13.697292066884193,13.585936668385717 L 13.681559716899509,13.623917921086734 M 4.312483111413629,12.691750576413572 L 4.353330103931633,12.69639875831764 L 4.391582230929142,12.711460536862887 L 4.424632673165892,12.735909476732221 L 4.450229097621895,12.768079423077332 L 4.466627150270568,12.805778047218151 L 4.47270933092296,12.8464362502194 L 4.468061149018894,12.887283242737407 L 4.452999370473647,12.925535369734908 L 4.428550430604313,12.958585811971663 L 4.396380484259204,12.984182236427666 L 4.358681860118384,13.00058028907634 L 4.318023657117134,13.006662469728731 L 4.277176664599127,13.002014287824665 L 4.2389245376016245,12.98695250927942 L 4.205874095364871,12.962503569410082 L 4.180277670908868,12.930333623064971 L 4.163879618260195,12.892634998924155 L 4.157797437607803,12.851976795922905 L 4.162445619511869,12.8111298034049 L 4.177507398057115,12.772877676407393 L 4.20195633792645,12.739827234170644 L 4.234126284271561,12.714230809714639 L 4.271824908412379,12.697832757065967 L 4.312483111413629,12.691750576413572 M 12.737851124572815,12.73785112457281 L 12.770466365671284,12.712824569858515 L 12.808447618372304,12.69709221987383 L 12.84920652307129,12.69172620827128 L 12.889965427770262,12.69709221987383 L 12.927946680471285,12.712824569858515 L 12.960561921569754,12.737851124572819 L 12.985588476284052,12.770466365671293 L 13.001320826268737,12.808447618372305 L 13.006686837871284,12.849206523071288 L 13.001320826268737,12.889965427770267 L 12.985588476284056,12.92794668047129 L 12.960561921569754,12.96056192156976 L 12.927946680471285,12.985588476284057 L 12.889965427770262,13.001320826268739 L 12.849206523071283,13.006686837871285 L 12.808447618372304,13.001320826268735 L 12.770466365671284,12.985588476284054 L 12.737851124572815,12.960561921569758 L 12.712824569858517,12.92794668047128 L 12.697092219873836,12.889965427770264 L 12.691726208271286,12.849206523071285 L 12.697092219873836,12.808447618372304 L 12.712824569858517,12.770466365671286 L 12.737851124572815,12.73785112457281 " />
  <path
     id="face0-interior"
     style="fill:none;stroke:#FF0000;stroke-width:.05;stroke-miterlimit:4;stroke-dasharray:none;stroke-linejoin:round;stroke-linecap:round"
     d="M 0.019582042434190622,7.996219780838766 M 0.00717629001442391,8.220564583639778 M 0.000647451042229659,8.445157253820001 M 5.7720524263307526e-11,8.669843866781767 M 0.0052343807914670155,8.894470433543898 M 0.016347005860374547,9.11888300627788 M 0.03333025922630875,9.342927783816023 M 0.05617250141574595,9.566451217059088 M 0.0848580774968837,9.789300114211173 M 0.11936732780875262,10.011321745769722 M 0.15967660143496645,10.232363949198692 M 0.2057582724128735,10.45227523321316 M 0.25758075866701585,10.670904881603871 M 0.31510854365390767,10.888103056530618 M 0.37830220070329507,11.103720901213594 M 0.44711842003922936,11.317610641952406 M 0.5215100384624232,11.52962568940278 M 0.6014260716735573,11.739620739041584 M 0.6868117492153618,11.947451870751284 M 0.7776085520095584,12.152976647455601 M 0.8737542524629158,12.356054212738771 M 0.9751829571149258,12.556545387381504 M 1.081825151797895,12.754312764747457 M 1.1936077492784913,12.94922080495488 M 1.310454139348058,13.141135927768897 M 1.4322842413274564,13.329926604150696 M 1.5590145589503357,13.51546344640099 M 1.690558237587314,13.697619296835882 M 1.8268251237718132,13.876269314934362 M 1.967721826986725,14.051291062897803 M 2.113151783669609,14.222564589562671 M 2.263015323392547,14.389972512609102 M 2.41720973717126,14.553400099008844 M 2.5756293478567325,14.712735343657577 M 2.7381655825610305,14.867869046137592 M 2.9047070470677556,15.0186948855583 M 3.0751396021760704,15.165109493423293 M 3.2493464419259968,15.307012524473906 M 3.4272081736513953,15.444306725460873 M 3.608602899805733,15.576898001796835 M 3.793406301504573,15.704695482044077 M 3.981491723727529,15.82761158019326 M 4.1727302621212825,15.945562055690514 M 4.366990851344202,16.058466071171683 M 4.5641403548919595,16.16624624786424 M 4.764043656342663,16.26882871861883 M 4.966563751958896,16.3661431785341 M 5.17156184458322,16.458122933140178 M 5.378897438762841,16.544704944107767 M 5.5884284370381465,16.6258298724514 M 5.800011237329228,16.70144211919749 M 6.013500831353566,16.771489863489013 M 6.22875090400745,16.835925098101015 M 6.4456139336430756,16.894703662342287 M 6.663941293172476,16.947785272320974 M 6.883583351929117,16.995133548553053 M 7.104389578217303,17.036716040895115 M 7.326208642479051,17.072504250783997 M 7.54888852100782,17.1024736507683 M 7.772276600137976,17.126603701318277 M 7.996219780838574,17.144877864902607 M 8.220564583639769,17.15728361732238 M 8.445157253819994,17.163812456294583 M 8.66984386678176,17.164459907279085 M 8.894470433543885,17.159225526545345 M 9.118883006277864,17.148112901476434 M 9.342927783816007,17.131129648110505 M 9.566451217059077,17.108287405921068 M 9.789300114211157,17.079601829839927 M 10.011321745769704,17.045092579528056 M 10.232363949198676,17.00478330590185 M 10.452275233213145,16.958701634923937 M 10.670904881603855,16.9068791486698 M 10.888103056530598,16.849351363682906 M 11.103720901213576,16.78615770663352 M 11.31761064195239,16.717341487297585 M 11.529625689402758,16.642949868874393 M 11.739620739041564,16.56303383566326 M 11.947451870751268,16.47764815812145 M 12.152976647455587,16.386851355327256 M 12.356054212738757,16.2907056548739 M 12.556545387381496,16.189276950221892 M 12.754312764747441,16.082634755538923 M 12.949220804954871,15.970852158058324 M 13.141135927768888,15.854005767988756 M 13.329926604150684,15.732175666009356 M 13.51546344640098,15.605445348386482 M 13.697619296835873,15.473901669749495 M 13.876269314934357,15.337634783565003 M 14.051291062897798,15.196738080350084 M 14.222564589562664,15.051308123667201 M 14.389972512609097,14.901444583944267 M 14.553400099008842,14.747250170165549 M 14.712735343657572,14.588830559480085 M 14.86786904613759,14.42629432477578 M 15.018694885558302,14.259752860269057 M 15.165109493423293,14.089320305160737 M 15.307012524473903,13.91511346541081 M 15.444306725460875,13.737251733685408 M 15.576898001796836,13.555857007531078 M 15.704695482044082,13.37105360583223 M 15.827611580193265,13.18296818360928 M 15.945562055690518,12.991729645215518 M 16.058466071171697,12.797469055992607 M 16.166246247864255,12.600319552444837 M 16.26882871861884,12.400416250994127 M 16.3661431785341,12.1978961553779 M 16.458122933140192,11.992898062753586 M 16.544704944107767,11.78556246857396 M 16.62582987245141,11.576031470298641 M 16.701442119197498,11.364448670007544 M 16.771489863489027,11.150959075983213 M 16.835925098101026,10.935709003329329 M 16.894703662342298,10.718845973693703 M 16.947785272320974,10.500518614164307 M 16.995133548553067,10.280876555407652 M 17.03671604089512,10.060070329119474 M 17.072504250784004,9.838251264857739 M 17.102473650768307,9.61557138632892 M 17.126603701318285,9.39218330719878 M 17.144877864902615,9.168240126498237 M 17.15728361732238,8.943895323696994 M 17.163812456294583,8.719302653516772 M 17.164459907279085,8.494616040554922 M 17.159225526545345,8.26998947379275 M 17.148112901476434,8.045576901058196 M 17.131129648110498,7.821532123520848 M 17.108287405921057,7.598008690277734 M 17.07960182983992,7.37515979312561 M 17.04509257952805,7.1531381615670355 M 17.004783305901835,6.9320959581380395 M 16.958701634923923,6.712184674123613 M 16.906879148669784,6.493555025732907 M 16.84935136368289,6.276356850806128 M 16.786157706633507,6.0607390061231765 M 16.717341487297563,5.846849265384362 M 16.642949868874364,5.634834217933966 M 16.563033835663237,5.424839168295165 M 16.47764815812143,5.217008036585448 M 16.386851355327227,5.0114832598811585 M 16.29070565487387,4.808405694597978 M 16.189276950221856,4.607914519955248 M 16.082634755538887,4.410147142589291 M 15.970852158058287,4.2152391023818705 M 15.854005767988715,4.023323979567861 M 15.732175666009317,3.834533303186063 M 15.605445348386437,3.6489964609357615 M 15.473901669749457,3.466840610500868 M 15.337634783564953,3.28819059240239 M 15.196738080350043,3.1131688444389494 M 15.05130812366716,2.941895317774089 M 14.901444583944214,2.774487394727656 M 14.747250170165499,2.6110598083279073 M 14.588830559480032,2.4517245636791887 M 14.42629432477573,2.2965908611991686 M 14.259752860268998,2.1457650217784585 M 14.089320305160681,1.9993504139134646 M 13.915113465410757,1.857447382862857 M 13.737251733685357,1.7201531818758968 M 13.555857007531015,1.587561905539927 M 13.371053605832175,1.4597644252926911 M 13.18296818360921,1.3368483271435045 M 12.991729645215463,1.2188978516462554 M 12.797469055992542,1.1059938361650876 M 12.600319552444775,0.9982136594725239 M 12.400416250994072,0.8956311887179358 M 12.197896155377839,0.7983167288026753 M 11.992898062753506,0.7063369741965944 M 11.785562468573884,0.6197549632290129 M 11.576031470298576,0.5386300348853754 M 11.364448670007489,0.463017788139291 M 11.15095907598315,0.3929700438477624 M 10.935709003329263,0.3285348092357672 M 10.718845973693634,0.2697562449944911 M 10.500518614164237,0.21667463501581666 M 10.280876555407586,0.16932635878373728 M 10.060070329119403,0.12774386644167682 M 9.838251264857655,0.0919556565528015 M 9.61557138632888,0.061986256568501236 M 9.392183307198719,0.03785620601852149 M 9.168240126498121,0.01958204243419684 M 8.943895323696923,0.007176290014420357 M 8.719302653516701,0.0006474510422261062 M 8.494616040554936,5.7720524263307526e-11 M 8.269989473792803,0.005234380791470568 M 8.045576901058817,0.016347005860379876 M 7.8215321235206705,0.03333025922631763 M 7.598008690277611,0.05617250141575572 M 7.375159793125524,0.08485807749690147 M 7.153138161566977,0.11936732780877393 M 6.932095958138001,0.15967660143498777 M 6.712184674123533,0.20575827241289926 M 6.493555025732819,0.25758075866704516 M 6.276356850806076,0.31510854365394053 M 6.0607390061231,0.3783022007033306 M 5.846849265384286,0.4471184200392702 M 5.634834217933912,0.5215100384624676 M 5.424839168295106,0.6014260716736053 M 5.217008036585407,0.6868117492154124 M 5.011483259881091,0.7776085520096117 M 4.808405694597921,0.8737542524629744 M 4.607914519955184,0.9751829571149853 M 4.410147142589237,1.0818251517979616 M 4.215239102381814,1.193607749278557 M 4.023323979567799,1.31045413934813 M 3.8345333031860007,1.4322842413275283 M 3.6489964609357037,1.5590145589504112 M 3.466840610500817,1.6905582375873958 M 3.288190592402335,1.8268251237718993 M 3.1131688444388987,1.9677218269868137 M 2.941895317774033,2.1131517836697014 M 2.7744873947276036,2.263015323392642 M 2.611059808327862,2.4172097371713597 M 2.45172456367913,2.575629347856831 M 2.2965908611991206,2.7381655825611353 M 2.1457650217784106,2.9047070470678666 M 1.9993504139134237,3.075139602176183 M 1.85744738286281,3.2493464419261113 M 1.7201531818758453,3.4272081736515125 M 1.5875619055398853,3.6086028998058546 M 1.4597644252926485,3.7934063015046995 M 1.3368483271434655,3.9814917237276592 M 1.2188978516462163,4.172730262121416 M 1.1059938361650477,4.366990851344337 M 0.9982136594724884,4.564140354892098 M 0.8956311887179065,4.764043656342807 M 0.7983167288026443,4.966563751959043 M 0.7063369741965668,5.171561844583373 M 0.6197549632289827,5.378897438762995 M 0.5386300348853488,5.588428437038306 M 0.46301778813926614,5.800011237329391 M 0.39297004384774287,6.0135008313537295 M 0.3285348092357459,6.22875090400762 M 0.2697562449944751,6.445613933643246 M 0.2166746350157989,6.663941293172647 M 0.16932635878371863,6.883583351929294 M 0.1277438664416635,7.104389578217482 M 0.09195565655278551,7.326208642479233 M 0.06198625656848969,7.548888521008005 M 0.03785620601851705,7.772276600138167 M 4.87675934437403,1.7771891295402384 M 4.829282778497783,1.757523692059451 M 4.788513727124705,1.726240498666646 M 4.757230533731821,1.6854714472936156 M 4.73756509625094,1.637994881417392 M 4.730857581747706,1.5870462505437088 M 4.7375650962508296,1.5360976196700071 M 4.757230533731612,1.4886210537937408 M 4.788513727124405,1.4478520024206394 M 4.829282778497419,1.4165688090277402 M 4.876759344373621,1.3969033715468453 M 4.927707975247285,1.3901958570436057 M 4.978656606120962,1.396903371546729 M 5.0261331719972056,1.416568809027511 M 5.0669022233702865,1.4478520024203143 M 5.098185416763167,1.4886210537933438 M 5.11785085424405,1.5360976196695666 M 5.124558368747284,1.5870462505432497 M 5.117850854244159,1.6379948814169514 M 5.098185416763377,1.6854714472932213 M 5.066902223370583,1.7262404986663227 M 5.026133171997573,1.7575236920592228 M 4.978656606121369,1.7771891295401177 M 4.927707975247705,1.7838966440433572 M 1.501796864117066,5.1051424993427466 M 1.4587783985598821,5.07703261923245 M 1.4245011239989664,5.038746561882732 M 1.4013009800497822,4.992893458831272 M 1.3907590181824072,4.942598123275192 M 1.3935936556766921,4.89128809921567 M 1.4096117166718556,4.842460079998536 M 1.4377215967821804,4.799441614441323 M 1.476007654131919,4.765164339880377 M 1.5218607571833878,4.741964195931155 M 1.5721560927394633,4.731422234063743 M 1.6234661167989741,4.7342568715579905 M 1.6722941360160877,4.750274932553123 M 1.7153126015732734,4.77838481266342 M 1.7495898761341837,4.816670870013137 M 1.7727900200833715,4.862523973064594 M 1.7833319819507465,4.9128193086206675 M 1.7804973444564651,4.964129332680186 M 1.7644792834612981,5.012957351897317 M 1.7363694033509733,5.055975817454529 M 1.6980833460012348,5.090253092015475 M 1.6522302429497677,5.113453235964702 M 1.6019349073936904,5.1239951978321185 M 1.5506248833341796,5.121160560337875 M 15.71660803503759,5.066902319342149 M 15.675838983908621,5.098185512694581 M 15.628362418278607,5.117850950199559 M 15.5774137876365,5.1245584647897955 M 15.526465156963953,5.117850950430653 M 15.478988591244727,5.098185513141024 M 15.438219539973849,5.066902319973533 M 15.40693634662137,5.026133268844598 M 15.387270909116358,4.978656703214623 M 15.380563394526094,4.927708072572569 M 15.387270908885233,4.876759441900104 M 15.406936346174861,4.829282876180912 M 15.43821953934239,4.788513824910099 M 15.478988590471362,4.7572306315576585 M 15.526465156101372,4.737565194052674 M 15.57741378674348,4.730857679462437 M 15.628362417416023,4.737565193821572 M 15.675838983135248,4.7572306311112005 M 15.71660803440613,4.78851382427869 M 15.74789122775861,4.829282875407637 M 15.767556665263621,4.876759441037614 M 15.774264179853882,4.927708071679679 M 15.76755666549475,4.978656702352156 M 15.747891228205114,5.02613326807133 M 12.236751828755706,1.3901957262849964 M 12.287700459629425,1.3969032407881792 M 12.335177025505695,1.4165686782690172 M 12.375946076878789,1.4478518716618765 M 12.407229270271655,1.4886209230349565 M 12.426894707752508,1.5360974889112176 M 12.433602222255695,1.5870461197849273 M 12.426894707752508,1.6379947506586476 M 12.407229270271658,1.685471316534914 M 12.375946076878789,1.7262403679079976 M 12.335177025505699,1.7575235613008666 M 12.287700459629425,1.7771889987817224 M 12.236751828755699,1.7838965132849052 M 12.18580319788198,1.7771889987817278 M 12.138326632005706,1.7575235613008888 M 12.09755758063262,1.7262403679080305 M 12.066274387239746,1.685471316534953 M 12.046608949758893,1.6379947506586938 M 12.03990143525571,1.587046119784978 M 12.046608949758893,1.5360974889112602 M 12.066274387239746,1.4886209230349956 M 12.09755758063262,1.4478518716619155 M 12.138326632005706,1.4165686782690403 M 12.185803197881976,1.3969032407881854 M 7.521430545319285,9.101563567267718 M 7.472296761983818,8.95543809039551 M 7.444035078674181,8.887208351253985 M 7.440611802185737,8.86120598478791 M 7.423162978670783,8.809312613590103 M 7.413523444793006,8.655449482715408 M 7.403883910922056,8.582229953670563 M 7.407307187410501,8.55622758720454 M 7.40388391091963,8.501586351911206 M 7.434395544803236,8.350471085132629 M 7.444035078674181,8.277251556088343 M 7.454071617504065,8.25302120792626 M 7.4649071786728936,8.19935581842445 M 7.533490662891568,8.061286671451548 M 7.561753009379833,7.996219780838766 M 7.577718173837427,7.972249860582725 M 7.6020741470789215,7.9232175245048895 M 7.704055630522719,7.80760368152438 M 7.749013476258126,7.749013476254782 M 7.769820547932062,7.733047648618831 M 7.806037113919961,7.691989838590234 M 7.934466727024569,7.6067101919347 M 7.993056932295234,7.561752346199498 M 8.01728728045761,7.5517158073696775 M 8.062896340070536,7.521430545317741 M 8.209021816942846,7.472296761982484 M 8.27725155608446,7.444035078672885 M 8.303253922550558,7.440611802184454 M 8.355147293748436,7.423162978669532 M 8.50901042462336,7.413523444791814 M 8.582229953668405,7.403883910920807 M 8.608232320134507,7.407307187409267 M 8.66287355542804,7.403883910918362 M 8.813988822207305,7.434395544801885 M 8.88720835125235,7.444035078672744 M 8.91143869941473,7.454071617502617 M 8.965104088917576,7.464907178671336 M 9.103173235899964,7.533490662889692 M 9.171402975041582,7.561752346199107 M 9.192210046715514,7.577718173835278 M 9.241242382819314,7.602074147076532 M 9.356856225808022,7.70405563051933 M 9.415446431078683,7.749013476253894 M 9.431412258714902,7.769820547927387 M 9.47247006874394,7.806037113914274 M 9.557749715400208,7.9344667270059155 M 9.602708083074562,7.996219780838766 M 9.612744099965488,8.017287280516154 M 9.643029362017527,8.062896340089335 M 9.692163145352994,8.209021816949171 M 9.720424828662628,8.277251556089471 M 9.723848105151076,8.303253922555134 M 9.741296928666026,8.355147293752477 M 9.750936462543804,8.509010424626345 M 9.760575996414753,8.582229953671115 M 9.757152719926312,8.608232320137104 M 9.760575996417183,8.662873555430513 M 9.730064362533577,8.813988822209398 M 9.720424828662628,8.887208351254316 M 9.710388289832748,8.91143869941666 M 9.699552728663908,8.96510408891945 M 9.630969244445241,9.103173235901656 M 9.602707561135608,9.1714029750432 M 9.58674173349939,9.19221004671711 M 9.562385760257891,9.241242382820873 M 9.46040427681409,9.356856225809485 M 9.415446431078683,9.41544643108012 M 9.394639359404751,9.43141225871633 M 9.358422793416848,9.472470068745341 M 9.229993180312233,9.557749715401542 M 9.171402975041582,9.602707561136924 M 9.14717262687921,9.612744099966788 M 9.101563567266274,9.643029362018822 M 8.955438090393956,9.69216314535424 M 8.88720835125235,9.72042482866387 M 8.86120598478625,9.723848105152307 M 8.809312613588377,9.741296928667253 M 8.655449482713445,9.750936462545006 M 8.582229953668405,9.760575996415964 M 8.556227587202303,9.757152719927511 M 8.501586351908772,9.760575996418385 M 8.350471085129508,9.730064362534769 M 8.277251556084464,9.720424828663822 M 8.25302120792208,9.710388289833944 M 8.199355818419233,9.69955272866511 M 8.061286671436838,9.630969244446435 M 7.993056932295234,9.602707561136825 M 7.972249860621298,9.586741733500608 M 7.923217524517499,9.562385760259122 M 7.807603681528784,9.460404276815336 M 7.749013476258126,9.415446431079951 M 7.733047648621907,9.394639359406021 M 7.691989838592866,9.35842279341816 M 7.606710191936601,9.229993180313585 M 7.561752346201201,9.171402975042986 M 7.5517158073713215,9.147172626880609 M 3.5405419862499055,13.681559730530932 M 3.5079267451514347,13.656533175876906 M 3.4829001904371384,13.62391792108658 M 3.4671678404524537,13.585936682250338 M 3.4618018288499086,13.545177777653198 M 3.4671678404524555,13.504418873057567 M 3.4829001904371366,13.466437620454238 M 3.5079267451514347,13.433822379440745 M 3.540541986249909,13.408795810473812 M 3.5785232389509267,13.393063460489127 M 3.6192821436499076,13.38769744888658 M 3.6600410483488868,13.393063460489127 M 3.698022301049908,13.408795810473812 M 3.730637542148379,13.433822365188108 M 3.7556640968626787,13.466437606286581 M 3.7713964468473598,13.504418858987599 M 3.7767624584499084,13.545177763686581 M 3.7713964468473598,13.58593666838556 M 3.7556640968626787,13.62391792108658 M 3.730637542148379,13.656533162185054 M 3.698022301049908,13.68155971689935 M 3.6600410483488868,13.697292066884032 M 3.6192821436499076,13.702658078486582 M 3.5785232389509267,13.697292066884035 M 13.681559716899509,13.623917921086734 M 13.65653316218521,13.656533162185205 M 13.623917921086738,13.681559716899503 M 13.585936668385722,13.697292066884188 M 13.545177763686736,13.702658078486738 M 13.504418858987753,13.697292066884195 M 13.466437606286737,13.681559716899503 M 13.433822365188265,13.656533162185209 M 13.40879581047397,13.623917921086734 M 13.393063460489286,13.58593666838572 M 13.387697448886739,13.545177763686736 M 13.393063460489286,13.504418858987759 M 13.40879581047397,13.466437606286735 M 13.433822365188265,13.433822365188268 M 13.466437606286737,13.408795810473967 M 13.504418858987753,13.393063460489286 M 13.545177763686736,13.38769744888674 M 13.585936668385722,13.393063460489277 M 13.623917921086738,13.40879581047397 M 13.65653316218521,13.433822365188265 M 13.681559716899509,13.466437606286735 M 13.69729206688419,13.504418858987755 M 13.702658078486737,13.545177763686741 M 13.697292066884193,13.585936668385717 M 4.312483111413629,12.691750576413572 M 4.353330103931633,12.69639875831764 M 4.391582230929142,12.711460536862887 M 4.424632673165892,12.735909476732221 M 4.450229097621895,12.768079423077332 M 4.466627150270568,12.805778047218151 M 4.47270933092296,12.8464362502194 M 4.468061149018894,12.887283242737407 M 4.452999370473647,12.925535369734908 M 4.428550430604313,12.958585811971663 M 4.396380484259204,12.984182236427666 M 4.358681860118384,13.00058028907634 M 4.318023657117134,13.006662469728731 M 4.277176664599127,13.002014287824665 M 4.2389245376016245,12.98695250927942 M 4.205874095364871,12.962503569410082 M 4.180277670908868,12.930333623064971 M 4.163879618260195,12.892634998924155 M 4.157797437607803,12.851976795922905 M 4.162445619511869,12.8111298034049 M 4.177507398057115,12.772877676407393 M 4.20195633792645,12.739827234170644 M 4.234126284271561,12.714230809714639 M 4.271824908412379,12.697832757065967 M 12.737851124572815,12.73785112457281 M 12.770466365671284,12.712824569858515 M 12.808447618372304,12.69709221987383 M 12.84920652307129,12.69172620827128 M 12.889965427770262,12.69709221987383 M 12.927946680471285,12.712824569858515 M 12.960561921569754,12.737851124572819 M 12.985588476284052,12.770466365671293 M 13.001320826268737,12.808447618372305 M 13.006686837871284,12.849206523071288 M 13.001320826268737,12.889965427770267 M 12.985588476284056,12.92794668047129 M 12.960561921569754,12.96056192156976 M 12.927946680471285,12.985588476284057 M 12.889965427770262,13.001320826268739 M 12.849206523071283,13.006686837871285 M 12.808447618372304,13.001320826268735 M 12.770466365671284,12.985588476284054 M 12.737851124572815,12.960561921569758 M 12.712824569858517,12.92794668047128 M 12.697092219873836,12.889965427770264 M 12.691726208271286,12.849206523071285 M 12.697092219873836,12.808447618372304 M 12.712824569858517,12.770466365671286 " />
  <path
     id="path8"
     style="fill:none;stroke:#00FF00;stroke-width:.05;stroke-miterlimit:4;stroke-dasharray:none;stroke-linejoin:round;stroke-linecap:round"
     d="M 0.019582042434190622,7.996219780838766 M 0.00717629001442391,8.220564583639778 M 0.000647451042229659,8.445157253820001 M 5.7720524263307526e-11,8.669843866781767 M 0.0052343807914670155,8.894470433543898 M 0.016347005860374547,9.11888300627788 M 0.03333025922630875,9.342927783816023 M 0.05617250141574595,9.566451217059088 M 0.0848580774968837,9.789300114211173 M 0.11936732780875262,10.011321745769722 M 0.15967660143496645,10.232363949198692 M 0.2057582724128735,10.45227523321316 M 0.25758075866701585,10.670904881603871 M 0.31510854365390767,10.888103056530618 M 0.37830220070329507,11.103720901213594 M 0.44711842003922936,11.317610641952406 M 0.5215100384624232,11.52962568940278 M 0.6014260716735573,11.739620739041584 M 0.6868117492153618,11.947451870751284 M 0.7776085520095584,12.152976647455601 M 0.8737542524629158,12.356054212738771 M 0.9751829571149258,12.556545387381504 M 1.081825151797895,12.754312764747457 M 1.1936077492784913,12.94922080495488 M 1.310454139348058,13.141135927768897 M 1.4322842413274564,13.329926604150696 M 1.5590145589503357,13.51546344640099 M 1.690558237587314,13.697619296835882 M 1.8268251237718132,13.876269314934362 M 1.967721826986725,14.051291062897803 M 2.113151783669609,14.222564589562671 M 2.263015323392547,14.389972512609102 M 2.41720973717126,14.553400099008844 M 2.5756293478567325,14.712735343657577 M 2.7381655825610305,14.867869046137592 M 2.9047070470677556,15.0186948855583 M 3.0751396021760704,15.165109493423293 M 3.2493464419259968,15.307012524473906 M 3.4272081736513953,15.444306725460873 M 3.608602899805733,15.576898001796835 M 3.793406301504573,15.704695482044077 M 3.981491723727529,15.82761158019326 M 4.1727302621212825,15.945562055690514 M 4.366990851344202,16.058466071171683 M 4.5641403548919595,16.16624624786424 M 4.764043656342663,16.26882871861883 M 4.966563751958896,16.3661431785341 M 5.17156184458322,16.458122933140178 M 5.378897438762841,16.544704944107767 M 5.5884284370381465,16.6258298724514 M 5.800011237329228,16.70144211919749 M 6.013500831353566,16.771489863489013 M 6.22875090400745,16.835925098101015 M 6.4456139336430756,16.894703662342287 M 6.663941293172476,16.947785272320974 M 6.883583351929117,16.995133548553053 M 7.104389578217303,17.036716040895115 M 7.326208642479051,17.072504250783997 M 7.54888852100782,17.1024736507683 M 7.772276600137976,17.126603701318277 M 7.996219780838574,17.144877864902607 M 8.220564583639769,17.15728361732238 M 8.445157253819994,17.163812456294583 M 8.66984386678176,17.164459907279085 M 8.894470433543885,17.159225526545345 M 9.118883006277864,17.148112901476434 M 9.342927783816007,17.131129648110505 M 9.566451217059077,17.108287405921068 M 9.789300114211157,17.079601829839927 M 10.011321745769704,17.045092579528056 M 10.232363949198676,17.00478330590185 M 10.452275233213145,16.958701634923937 M 10.670904881603855,16.9068791486698 M 10.888103056530598,16.849351363682906 M 11.103720901213576,16.78615770663352 M 11.31761064195239,16.717341487297585 M 11.529625689402758,16.642949868874393 M 11.739620739041564,16.56303383566326 M 11.947451870751268,16.47764815812145 M 12.152976647455587,16.386851355327256 M 12.356054212738757,16.2907056548739 M 12.556545387381496,16.189276950221892 M 12.754312764747441,16.082634755538923 M 12.949220804954871,15.970852158058324 M 13.141135927768888,15.854005767988756 M 13.329926604150684,15.732175666009356 M 13.51546344640098,15.605445348386482 M 13.697619296835873,15.473901669749495 M 13.876269314934357,15.337634783565003 M 14.051291062897798,15.196738080350084 M 14.222564589562664,15.051308123667201 M 14.389972512609097,14.901444583944267 M 14.553400099008842,14.747250170165549 M 14.712735343657572,14.588830559480085 M 14.86786904613759,14.42629432477578 M 15.018694885558302,14.259752860269057 M 15.165109493423293,14.089320305160737 M 15.307012524473903,13.91511346541081 M 15.444306725460875,13.737251733685408 M 15.576898001796836,13.555857007531078 M 15.704695482044082,13.37105360583223 M 15.827611580193265,13.18296818360928 M 15.945562055690518,12.991729645215518 M 16.058466071171697,12.797469055992607 M 16.166246247864255,12.600319552444837 M 16.26882871861884,12.400416250994127 M 16.3661431785341,12.1978961553779 M 16.458122933140192,11.992898062753586 M 16.544704944107767,11.78556246857396 M 16.62582987245141,11.576031470298641 M 16.701442119197498,11.364448670007544 M 16.771489863489027,11.150959075983213 M 16.835925098101026,10.935709003329329 M 16.894703662342298,10.718845973693703 M 16.947785272320974,10.500518614164307 M 16.995133548553067,10.280876555407652 M 17.03671604089512,10.060070329119474 M 17.072504250784004,9.838251264857739 M 17.102473650768307,9.61557138632892 M 17.126603701318285,9.39218330719878 M 17.144877864902615,9.168240126498237 M 17.15728361732238,8.943895323696994 M 17.163812456294583,8.719302653516772 M 17.164459907279085,8.494616040554922 M 17.159225526545345,8.26998947379275 M 17.148112901476434,8.045576901058196 M 17.131129648110498,7.821532123520848 M 17.108287405921057,7.598008690277734 M 17.07960182983992,7.37515979312561 M 17.04509257952805,7.1531381615670355 M 17.004783305901835,6.9320959581380395 M 16.958701634923923,6.712184674123613 M 16.906879148669784,6.493555025732907 M 16.84935136368289,6.276356850806128 M 16.786157706633507,6.0607390061231765 M 16.717341487297563,5.846849265384362 M 16.642949868874364,5.634834217933966 M 16.563033835663237,5.424839168295165 M 16.47764815812143,5.217008036585448 M 16.386851355327227,5.0114832598811585 M 16.29070565487387,4.808405694597978 M 16.189276950221856,4.607914519955248 M 16.082634755538887,4.410147142589291 M 15.970852158058287,4.2152391023818705 M 15.854005767988715,4.023323979567861 M 15.732175666009317,3.834533303186063 M 15.605445348386437,3.6489964609357615 M 15.473901669749457,3.466840610500868 M 15.337634783564953,3.28819059240239 M 15.196738080350043,3.1131688444389494 M 15.05130812366716,2.941895317774089 M 14.901444583944214,2.774487394727656 M 14.747250170165499,2.6110598083279073 M 14.588830559480032,2.4517245636791887 M 14.42629432477573,2.2965908611991686 M 14.259752860268998,2.1457650217784585 M 14.089320305160681,1.9993504139134646 M 13.915113465410757,1.857447382862857 M 13.737251733685357,1.7201531818758968 M 13.555857007531015,1.587561905539927 M 13.371053605832175,1.4597644252926911 M 13.18296818360921,1.3368483271435045 M 12.991729645215463,1.2188978516462554 M 12.797469055992542,1.1059938361650876 M 12.600319552444775,0.9982136594725239 M 12.400416250994072,0.8956311887179358 M 12.197896155377839,0.7983167288026753 M 11.992898062753506,0.7063369741965944 M 11.785562468573884,0.6197549632290129 M 11.576031470298576,0.5386300348853754 M 11.364448670007489,0.463017788139291 M 11.15095907598315,0.3929700438477624 M 10.935709003329263,0.3285348092357672 M 10.718845973693634,0.2697562449944911 M 10.500518614164237,0.21667463501581666 M 10.280876555407586,0.16932635878373728 M 10.060070329119403,0.12774386644167682 M 9.838251264857655,0.0919556565528015 M 9.61557138632888,0.061986256568501236 M 9.392183307198719,0.03785620601852149 M 9.168240126498121,0.01958204243419684 M 8.943895323696923,0.007176290014420357 M 8.719302653516701,0.0006474510422261062 M 8.494616040554936,5.7720524263307526e-11 M 8.269989473792803,0.005234380791470568 M 8.045576901058817,0.016347005860379876 M 7.8215321235206705,0.03333025922631763 M 7.598008690277611,0.05617250141575572 M 7.375159793125524,0.08485807749690147 M 7.153138161566977,0.11936732780877393 M 6.932095958138001,0.15967660143498777 M 6.712184674123533,0.20575827241289926 M 6.493555025732819,0.25758075866704516 M 6.276356850806076,0.31510854365394053 M 6.0607390061231,0.3783022007033306 M 5.846849265384286,0.4471184200392702 M 5.634834217933912,0.5215100384624676 M 5.424839168295106,0.6014260716736053 M 5.217008036585407,0.6868117492154124 M 5.011483259881091,0.7776085520096117 M 4.808405694597921,0.8737542524629744 M 4.607914519955184,0.9751829571149853 M 4.410147142589237,1.0818251517979616 M 4.215239102381814,1.193607749278557 M 4.023323979567799,1.31045413934813 M 3.8345333031860007,1.4322842413275283 M 3.6489964609357037,1.5590145589504112 M 3.466840610500817,1.6905582375873958 M 3.288190592402335,1.8268251237718993 M 3.1131688444388987,1.9677218269868137 M 2.941895317774033,2.1131517836697014 M 2.7744873947276036,2.263015323392642 M 2.611059808327862,2.4172097371713597 M 2.45172456367913,2.575629347856831 M 2.2965908611991206,2.7381655825611353 M 2.1457650217784106,2.9047070470678666 M 1.9993504139134237,3.075139602176183 M 1.85744738286281,3.2493464419261113 M 1.7201531818758453,3.4272081736515125 M 1.5875619055398853,3.6086028998058546 M 1.4597644252926485,3.7934063015046995 M 1.3368483271434655,3.9814917237276592 M 1.2188978516462163,4.172730262121416 M 1.1059938361650477,4.366990851344337 M 0.9982136594724884,4.564140354892098 M 0.8956311887179065,4.764043656342807 M 0.7983167288026443,4.966563751959043 M 0.7063369741965668,5.171561844583373 M 0.6197549632289827,5.378897438762995 M 0.5386300348853488,5.588428437038306 M 0.46301778813926614,5.800011237329391 M 0.39297004384774287,6.0135008313537295 M 0.3285348092357459,6.22875090400762 M 0.2697562449944751,6.445613933643246 M 0.2166746350157989,6.663941293172647 M 0.16932635878371863,6.883583351929294 M 0.1277438664416635,7.104389578217482 M 0.09195565655278551,7.326208642479233 M 0.06198625656848969,7.548888521008005 M 0.03785620601851705,7.772276600138167 M 4.87675934437403,1.7771891295402384 M 4.829282778497783,1.757523692059451 M 4.788513727124705,1.726240498666646 M 4.757230533731821,1.6854714472936156 M 4.73756509625094,1.637994881417392 M 4.730857581747706,1.5870462505437088 M 4.7375650962508296,1.5360976196700071 M 4.757230533731612,1.4886210537937408 M 4.788513727124405,1.4478520024206394 M 4.829282778497419,1.4165688090277402 M 4.876759344373621,1.3969033715468453 M 4.927707975247285,1.3901958570436057 M 4.978656606120962,1.396903371546729 M 5.0261331719972056,1.416568809027511 M 5.0669022233702865,1.4478520024203143 M 5.098185416763167,1.4886210537933438 M 5.11785085424405,1.5360976196695666 M 5.124558368747284,1.5870462505432497 M 5.117850854244159,1.6379948814169514 M 5.098185416763377,1.6854714472932213 M 5.066902223370583,1.7262404986663227 M 5.026133171997573,1.7575236920592228 M 4.978656606121369,1.7771891295401177 M 4.927707975247705,1.7838966440433572 M 1.501796864117066,5.1051424993427466 M 1.4587783985598821,5.07703261923245 M 1.4245011239989664,5.038746561882732 M 1.4013009800497822,4.992893458831272 M 1.3907590181824072,4.942598123275192 M 1.3935936556766921,4.89128809921567 M 1.4096117166718556,4.842460079998536 M 1.4377215967821804,4.799441614441323 M 1.476007654131919,4.765164339880377 M 1.5218607571833878,4.741964195931155 M 1.5721560927394633,4.731422234063743 M 1.6234661167989741,4.7342568715579905 M 1.6722941360160877,4.750274932553123 M 1.7153126015732734,4.77838481266342 M 1.7495898761341837,4.816670870013137 M 1.7727900200833715,4.862523973064594 M 1.7833319819507465,4.9128193086206675 M 1.7804973444564651,4.964129332680186 M 1.7644792834612981,5.012957351897317 M 1.7363694033509733,5.055975817454529 M 1.6980833460012348,5.090253092015475 M 1.6522302429497677,5.113453235964702 M 1.6019349073936904,5.1239951978321185 M 1.5506248833341796,5.121160560337875 M 15.71660803503759,5.066902319342149 M 15.675838983908621,5.098185512694581 M 15.628362418278607,5.117850950199559 M 15.5774137876365,5.1245584647897955 M 15.526465156963953,5.117850950430653 M 15.478988591244727,5.098185513141024 M 15.438219539973849,5.066902319973533 M 15.40693634662137,5.026133268844598 M 15.387270909116358,4.978656703214623 M 15.380563394526094,4.927708072572569 M 15.387270908885233,4.876759441900104 M 15.406936346174861,4.829282876180912 M 15.43821953934239,4.788513824910099 M 15.478988590471362,4.7572306315576585 M 15.526465156101372,4.737565194052674 M 15.57741378674348,4.730857679462437 M 15.628362417416023,4.737565193821572 M 15.675838983135248,4.7572306311112005 M 15.71660803440613,4.78851382427869 M 15.74789122775861,4.829282875407637 M 15.767556665263621,4.876759441037614 M 15.774264179853882,4.927708071679679 M 15.76755666549475,4.978656702352156 M 15.747891228205114,5.02613326807133 M 12.236751828755706,1.3901957262849964 M 12.287700459629425,1.3969032407881792 M 12.335177025505695,1.4165686782690172 M 12.375946076878789,1.4478518716618765 M 12.407229270271655,1.4886209230349565 M 12.426894707752508,1.5360974889112176 M 12.433602222255695,1.5870461197849273 M 12.426894707752508,1.6379947506586476 M 12.407229270271658,1.685471316534914 M 12.375946076878789,1.7262403679079976 M 12.335177025505699,1.7575235613008666 M 12.287700459629425,1.7771889987817224 M 12.236751828755699,1.7838965132849052 M 12.18580319788198,1.7771889987817278 M 12.138326632005706,1.7575235613008888 M 12.09755758063262,1.7262403679080305 M 12.066274387239746,1.685471316534953 M 12.046608949758893,1.6379947506586938 M 12.03990143525571,1.587046119784978 M 12.046608949758893,1.5360974889112602 M 12.066274387239746,1.4886209230349956 M 12.09755758063262,1.4478518716619155 M 12.138326632005706,1.4165686782690403 M 12.185803197881976,1.3969032407881854 M 7.521430545319285,9.101563567267718 M 7.472296761983818,8.95543809039551 M 7.444035078674181,8.887208351253985 M 7.440611802185737,8.86120598478791 M 7.423162978670783,8.809312613590103 M 7.413523444793006,8.655449482715408 M 7.403883910922056,8.582229953670563 M 7.407307187410501,8.55622758720454 M 7.40388391091963,8.501586351911206 M 7.434395544803236,8.350471085132629 M 7.444035078674181,8.277251556088343 M 7.454071617504065,8.25302120792626 M 7.4649071786728936,8.19935581842445 M 7.533490662891568,8.061286671451548 M 7.561753009379833,7.996219780838766 M 7.577718173837427,7.972249860582725 M 7.6020741470789215,7.9232175245048895 M 7.704055630522719,7.80760368152438 M 7.749013476258126,7.749013476254782 M 7.769820547932062,7.733047648618831 M 7.806037113919961,7.691989838590234 M 7.934466727024569,7.6067101919347 M 7.993056932295234,7.561752346199498 M 8.01728728045761,7.5517158073696775 M 8.062896340070536,7.521430545317741 M 8.209021816942846,7.472296761982484 M 8.27725155608446,7.444035078672885 M 8.303253922550558,7.440611802184454 M 8.355147293748436,7.423162978669532 M 8.50901042462336,7.413523444791814 M 8.582229953668405,7.403883910920807 M 8.608232320134507,7.407307187409267 M 8.66287355542804,7.403883910918362 M 8.813988822207305,7.434395544801885 M 8.88720835125235,7.444035078672744 M 8.91143869941473,7.454071617502617 M 8.965104088917576,7.464907178671336 M 9.103173235899964,7.533490662889692 M 9.171402975041582,7.561752346199107 M 9.192210046715514,7.577718173835278 M 9.241242382819314,7.602074147076532 M 9.356856225808022,7.70405563051933 M 9.415446431078683,7.749013476253894 M 9.431412258714902,7.769820547927387 M 9.47247006874394,7.806037113914274 M 9.557749715400208,7.9344667270059155 M 9.602708083074562,7.996219780838766 M 9.612744099965488,8.017287280516154 M 9.643029362017527,8.062896340089335 M 9.692163145352994,8.209021816949171 M 9.720424828662628,8.277251556089471 M 9.723848105151076,8.303253922555134 M 9.741296928666026,8.355147293752477 M 9.750936462543804,8.509010424626345 M 9.760575996414753,8.582229953671115 M 9.757152719926312,8.608232320137104 M 9.760575996417183,8.662873555430513 M 9.730064362533577,8.813988822209398 M 9.720424828662628,8.887208351254316 M 9.710388289832748,8.91143869941666 M 9.699552728663908,8.96510408891945 M 9.630969244445241,9.103173235901656 M 9.602707561135608,9.1714029750432 M 9.58674173349939,9.19221004671711 M 9.562385760257891,9.241242382820873 M 9.46040427681409,9.356856225809485 M 9.415446431078683,9.41544643108012 M 9.394639359404751,9.43141225871633 M 9.358422793416848,9.472470068745341 M 9.229993180312233,9.557749715401542 M 9.171402975041582,9.602707561136924 M 9.14717262687921,9.612744099966788 M 9.101563567266274,9.643029362018822 M 8.955438090393956,9.69216314535424 M 8.88720835125235,9.72042482866387 M 8.86120598478625,9.723848105152307 M 8.809312613588377,9.741296928667253 M 8.655449482713445,9.750936462545006 M 8.582229953668405,9.760575996415964 M 8.556227587202303,9.757152719927511 M 8.501586351908772,9.760575996418385 M 8.350471085129508,9.730064362534769 M 8.277251556084464,9.720424828663822 M 8.25302120792208,9.710388289833944 M 8.199355818419233,9.69955272866511 M 8.061286671436838,9.630969244446435 M 7.993056932295234,9.602707561136825 M 7.972249860621298,9.586741733500608 M 7.923217524517499,9.562385760259122 M 7.807603681528784,9.460404276815336 M 7.749013476258126,9.415446431079951 M 7.733047648621907,9.394639359406021 M 7.691989838592866,9.35842279341816 M 7.606710191936601,9.229993180313585 M 7.561752346201201,9.171402975042986 M 7.5517158073713215,9.147172626880609 M 3.5405419862499055,13.681559730530932 M 3.5079267451514347,13.656533175876906 M 3.4829001904371384,13.62391792108658 M 3.4671678404524537,13.585936682250338 M 3.4618018288499086,13.545177777653198 M 3.4671678404524555,13.504418873057567 M 3.4829001904371366,13.466437620454238 M 3.5079267451514347,13.433822379440745 M 3.540541986249909,13.408795810473812 M 3.5785232389509267,13.393063460489127 M 3.6192821436499076,13.38769744888658 M 3.6600410483488868,13.393063460489127 M 3.698022301049908,13.408795810473812 M 3.730637542148379,13.433822365188108 M 3.7556640968626787,13.466437606286581 M 3.7713964468473598,13.504418858987599 M 3.7767624584499084,13.545177763686581 M 3.7713964468473598,13.58593666838556 M 3.7556640968626787,13.62391792108658 M 3.730637542148379,13.656533162185054 M 3.698022301049908,13.68155971689935 M 3.6600410483488868,13.697292066884032 M 3.6192821436499076,13.702658078486582 M 3.5785232389509267,13.697292066884035 M 13.681559716899509,13.623917921086734 M 13.65653316218521,13.656533162185205 M 13.623917921086738,13.681559716899503 M 13.585936668385722,13.697292066884188 M 13.545177763686736,13.702658078486738 M 13.504418858987753,13.697292066884195 M 13.466437606286737,13.681559716899503 M 13.433822365188265,13.656533162185209 M 13.40879581047397,13.623917921086734 M 13.393063460489286,13.58593666838572 M 13.387697448886739,13.545177763686736 M 13.393063460489286,13.504418858987759 M 13.40879581047397,13.466437606286735 M 13.433822365188265,13.433822365188268 M 13.466437606286737,13.408795810473967 M 13.504418858987753,13.393063460489286 M 13.545177763686736,13.38769744888674 M 13.585936668385722,13.393063460489277 M 13.623917921086738,13.40879581047397 M 13.65653316218521,13.433822365188265 M 13.681559716899509,13.466437606286735 M 13.69729206688419,13.504418858987755 M 13.702658078486737,13.545177763686741 M 13.697292066884193,13.585936668385717 M 4.312483111413629,12.691750576413572 M 4.353330103931633,12.69639875831764 M 4.391582230929142,12.711460536862887 M 4.424632673165892,12.735909476732221 M 4.450229097621895,12.768079423077332 M 4.466627150270568,12.805778047218151 M 4.47270933092296,12.8464362502194 M 4.468061149018894,12.887283242737407 M 4.452999370473647,12.925535369734908 M 4.428550430604313,12.958585811971663 M 4.396380484259204,12.984182236427666 M 4.358681860118384,13.00058028907634 M 4.318023657117134,13.006662469728731 M 4.277176664599127,13.002014287824665 M 4.2389245376016245,12.98695250927942 M 4.205874095364871,12.962503569410082 M 4.180277670908868,12.930333623064971 M 4.163879618260195,12.892634998924155 M 4.157797437607803,12.851976795922905 M 4.162445619511869,12.8111298034049 M 4.177507398057115,12.772877676407393 M 4.20195633792645,12.739827234170644 M 4.234126284271561,12.714230809714639 M 4.271824908412379,12.697832757065967 M 12.737851124572815,12.73785112457281 M 12.770466365671284,12.712824569858515 M 12.808447618372304,12.69709221987383 M 12.84920652307129,12.69172620827128 M 12.889965427770262,12.69709221987383 M 12.927946680471285,12.712824569858515 M 12.960561921569754,12.737851124572819 M 12.985588476284052,12.770466365671293 M 13.001320826268737,12.808447618372305 M 13.006686837871284,12.849206523071288 M 13.001320826268737,12.889965427770267 M 12.985588476284056,12.92794668047129 M 12.960561921569754,12.96056192156976 M 12.927946680471285,12.985588476284057 M 12.889965427770262,13.001320826268739 M 12.849206523071283,13.006686837871285 M 12.808447618372304,13.001320826268735 M 12.770466365671284,12.985588476284054 M 12.737851124572815,12.960561921569758 M 12.712824569858517,12.92794668047128 M 12.697092219873836,12.889965427770264 M 12.691726208271286,12.849206523071285 M 12.697092219873836,12.808447618372304 M 12.712824569858517,12.770466365671286 " />
</svg>
