<?xml version="1.0" standalone="no"?>
<!DOCTYPE svg PUBLIC "-//W3C//DTD SVG 1.1//EN" "http://www.w3.org/Graphics/SVG/1.1/DTD/svg11.dtd">
<svg width="8.464566920500156in" height="10.984251957300167in"
 viewBox="0 0 8.464566920500156 10.984251957300167"
 xmlns="http://www.w3.org/2000/svg" version="1.1"
 xmlns:xlink="http://www.w3.org/1999/xlink">
<desc>Output from Flights of Ideas SVG Sketchup Plugin</desc>

<g id="text_annotations" font-size="0.393700787402" stroke="#000000" stroke-width=".05">
</g>
  <path id="face0-cut"
 style="fill:none;stroke:#0000FF;stroke-width:.05;stroke-miterlimit:4;stroke-dasharray:none;stroke-linejoin:round;stroke-linecap:round"
        d="M 3.555280901196739,0.7125773201756587 L 3.555153878859039,0.7086614166000913 M 3.307086610800083,0.7086614166000913 M 3.3198308883561256,0.8054638152601583 M 3.357195219569751,0.8956692904250871 M 3.416633287016212,0.9731304880339635 M 3.494094484625083,1.0325685554804138 M 3.584299959789997,1.0699328866940447 M 3.6811023584500835,1.08267716425009 M 3.6811023584500835,0.8346098961911366 L 3.6686195216597777,0.8350148088963862 L 3.6363421996693828,0.8274786255600801 L 3.607115208530232,0.811845245787876 L 3.58293031938858,0.7891800585758488 L 3.5654356924719957,0.7610276589765348 L 3.5558235576936155,0.7293065864985706 L 3.555280901196739,0.7125773201756587 "
  />
  <path id="face1-cut"
 style="fill:none;stroke:#0000FF;stroke-width:.05;stroke-miterlimit:4;stroke-dasharray:none;stroke-linejoin:round;stroke-linecap:round"
        d="M 3.806923815703421,0.7047455130245168 L 3.807050838041128,0.7086614166000913 M 4.0551181061000845,0.7086614166000842 M 4.0423738285440285,0.6118590179400101 M 4.005009497330409,0.5216535427750884 M 3.945571429883955,0.4441923451662191 M 3.8681102322750838,0.38475427771975457 M 3.7779047571101567,0.34738994650613786 M 3.6811023584500835,0.3346456689500925 M 3.6811023584500835,0.582712937009046 L 3.6935851952403813,0.5823080243037893 L 3.725862517230778,0.5898442076400954 L 3.7550895083699207,0.6054775874123066 L 3.7792743975115877,0.6281427746243124 L 3.796769024428164,0.6562951742236336 L 3.8063811592065453,0.6880162467015978 L 3.806923815703421,0.7047455130245168 "
  />
  <path id="face2-cut"
 style="fill:none;stroke:#0000FF;stroke-width:.05;stroke-miterlimit:4;stroke-dasharray:none;stroke-linejoin:round;stroke-linecap:round"
        d="M 6.756121446408678,2.095404502259424 L 6.752156338074374,2.0950139307849196 M 6.7519684970500755,2.342519682650089 M 6.848770895710154,2.329775405094044 M 6.938976370875074,2.29241107388042 M 7.016437568483945,2.2329730064339626 M 7.075875635930408,2.1555118088250933 M 7.113239967144026,2.0653063336601716 M 7.125984244700077,1.9685039350000906 M 6.878478492834904,1.968316093975784 L 6.875619894723946,1.9973367776003712 L 6.863944086730611,2.028357658984572 L 6.844637327348958,2.0552996079921866 L 6.819015340324921,2.076326575322018 L 6.788824221731848,2.0900056078992617 L 6.756121446408678,2.095404502259424 "
  />
  <path id="face3-cut"
 style="fill:none;stroke:#0000FF;stroke-width:.05;stroke-miterlimit:4;stroke-dasharray:none;stroke-linejoin:round;stroke-linecap:round"
        d="M 2.2568957605542663,1.8417221747081285 L 2.26377952525008,1.8422508979935983 M 2.26377952525008,1.5960902788481348 M 2.1808588028822586,1.603795923993762 M 2.0892908788305617,1.6376845102970108 M 2.0096140676762313,1.6941178936888306 M 1.9472582124272746,1.769250232351635 M 1.906472761571004,1.8579613815676168 M 1.8900371761821089,1.9542058231198112 M 1.8913658690981294,1.9685039350000906 M 2.137526488243593,1.9685039350000906 L 2.1387188717576024,1.9529795808376391 L 2.1395360992764014,1.942339606966695 L 2.1505414177528235,1.9110745699543557 L 2.1692637261203696,1.8837232492633802 L 2.19442713000385,1.862149592198638 L 2.2243167850131154,1.8478238078369713 L 2.2568957605542663,1.8417221747081285 "
  />
  <path id="face4-cut"
 style="fill:none;stroke:#0000FF;stroke-width:.05;stroke-miterlimit:4;stroke-dasharray:none;stroke-linejoin:round;stroke-linecap:round"
        d="M 2.2706632899458916,2.0952856952920453 L 2.26377952525008,2.0947569720065755 M 2.26377952525008,2.340917591152039 M 2.3467002476179,2.3332119460064047 M 2.438268171669597,2.299323359703163 M 2.5179449828239266,2.2428899763113503 M 2.5803008380728847,2.167757637648539 M 2.621086288929155,2.079046488432557 M 2.63752187431805,1.9828020468803558 M 2.6361931814020294,1.9685039350000906 M 2.390032562256565,1.9685039350000906 L 2.3888401787425573,1.9840282891625278 L 2.3880229512237565,1.9946682630334862 L 2.3770176327473345,2.0259333000458253 L 2.3582953243797893,2.0532846207368007 L 2.3331319204963097,2.074858277801536 L 2.3032422654870426,2.0891840621632025 L 2.2706632899458916,2.0952856952920453 "
  />
  <path id="face5-cut"
 style="fill:none;stroke:#0000FF;stroke-width:.05;stroke-miterlimit:4;stroke-dasharray:none;stroke-linejoin:round;stroke-linecap:round"
        d="M 3.3198308883561256,0.6118590179400101 M 3.307086610800083,0.7086614166000913 M 3.555153878859039,0.7086614166000913 L 3.554748966153783,0.6961785798097864 L 3.562285149490091,0.663901257819387 L 3.5779185292623006,0.6346742666802327 L 3.600583716474316,0.6104893775385818 L 3.6287361160736276,0.5929947506220017 L 3.6604571885515944,0.5833826158436224 L 3.67718645487451,0.5828399593467466 L 3.6811023584500835,0.582712937009046 M 3.6811023584500835,0.3346456689500925 M 3.584299959789997,0.34738994650613786 M 3.494094484625083,0.38475427771975457 M 3.416633287016212,0.4441923451662191 M 3.357195219569751,0.5216535427750884 "
  />
  <path id="face6-cut"
 style="fill:none;stroke:#0000FF;stroke-width:.05;stroke-miterlimit:4;stroke-dasharray:none;stroke-linejoin:round;stroke-linecap:round"
        d="M 4.803591611112127,0.8340245007005052 L 4.783464562050075,0.8345940839231119 M 4.783464562050075,1.0810364627614575 M 4.865975830568202,1.0734622801650147 M 4.957581738432052,1.0396765044419538 M 5.037321848467719,0.9833325975107641 M 5.099762003953013,0.9082703035160875 M 5.140647011478871,0.8196049937473802 M 5.15719062534806,0.7233790625390355 M 5.155839608211447,0.7086614166000273 M 4.909397229373102,0.7086614166000131 L 4.909488047366754,0.7125773201756587 L 4.909765266264897,0.7216665338220565 L 4.902095702108829,0.7539124228593479 L 4.8863416218049895,0.7830745306009035 L 4.863576639891237,0.8071655075967967 L 4.835352152264079,0.8245435935769592 L 4.803591611112127,0.8340245007005052 "
  />
  <path id="face7-cut"
 style="fill:none;stroke:#0000FF;stroke-width:.05;stroke-miterlimit:4;stroke-dasharray:none;stroke-linejoin:round;stroke-linecap:round"
        d="M 6.655166098389994,2.329775405094044 M 6.7519684970500755,2.342519682650089 M 6.752156338074374,2.0950139307849196 L 6.723135654449794,2.092155332673958 L 6.692114773065594,2.0804795246806234 L 6.665172824057976,2.061172765298974 L 6.64414585672814,2.0355507782749283 L 6.630466824150909,2.005359659681855 L 6.625067929790747,1.972656884358696 L 6.6254585012652445,1.96869177602439 M 6.377952749400074,1.9685039350000906 M 6.390697026956123,2.0653063336601716 M 6.4280613581697486,2.1555118088250933 M 6.487499425616203,2.2329730064339626 M 6.564960623225075,2.29241107388042 "
  />
  <path id="face8-cut"
 style="fill:none;stroke:#0000FF;stroke-width:.05;stroke-miterlimit:4;stroke-dasharray:none;stroke-linejoin:round;stroke-linecap:round"
        d="M 6.848770895710154,1.60723246490613 M 6.7519684970500755,1.5944881873500847 M 6.751780656025775,1.8419939392152542 L 6.780801339650355,1.8448525373262086 L 6.8118222210345545,1.8565283453195505 L 6.838764170042173,1.8758351047011999 L 6.859791137372009,1.9014570917252385 L 6.873470169949239,1.931648210318319 L 6.878869064309403,1.964350985641478 L 6.878478492834904,1.968316093975784 M 7.125984244700077,1.9685039350000906 M 7.1132399671440245,1.8717015363400094 M 7.075875635930406,1.7814960611750876 M 7.016437568483945,1.7040348635662184 M 6.938976370875074,1.6445967961197538 "
  />
  <path id="face9-cut"
 style="fill:none;stroke:#0000FF;stroke-width:.05;stroke-miterlimit:4;stroke-dasharray:none;stroke-linejoin:round;stroke-linecap:round"
        d="M 2.249481413369803,2.342246284068058 M 2.26377952525008,2.340917591152039 M 2.26377952525008,2.0947569720065755 L 2.248255171087632,2.093564588492566 L 2.2376151972166762,2.0927473609737572 L 2.206350160204345,2.081742042497336 L 2.178998839513365,2.0630197341297998 L 2.157425182448637,2.0378563302463104 L 2.143099398086966,2.007966675237054 L 2.136997764958116,1.975387699695898 L 2.137526488243593,1.9685039350000906 M 1.8913658690981294,1.9685039350000906 M 1.8990715142437553,2.0514246573679142 M 1.9329601005470058,2.1429925814196022 M 1.9893934839388243,2.222669392573931 M 2.064525822601626,2.2850252478228836 M 2.1532369718176034,2.325810698679167 "
  />
  <path id="face10-cut"
 style="fill:none;stroke:#0000FF;stroke-width:.05;stroke-miterlimit:4;stroke-dasharray:none;stroke-linejoin:round;stroke-linecap:round"
        d="M 4.0423738285440285,0.8054638152601725 M 4.0551181061000845,0.7086614166000842 M 3.807050838041128,0.7086614166000913 L 3.8074557507463758,0.7211442533903891 L 3.799919567410076,0.7534215753807814 L 3.7842861876378664,0.7826485665199285 L 3.761621000425851,0.8068334556615937 L 3.7334686008265323,0.8243280825781667 L 3.7017475283485726,0.8339402173565531 L 3.68501826202565,0.8344828738534289 L 3.6811023584500835,0.8346098961911366 M 3.6811023584500835,1.08267716425009 M 3.7779047571101567,1.0699328866940447 M 3.8681102322750838,1.0325685554804138 M 3.945571429883955,0.9731304880339635 M 4.005009497330409,0.8956692904250871 "
  />
  <path id="face11-cut"
 style="fill:none;stroke:#0000FF;stroke-width:.05;stroke-miterlimit:4;stroke-dasharray:none;stroke-linejoin:round;stroke-linecap:round"
        d="M 8.464566920500053,10.984251957300078 L 8.464566920500067,2.7559055090000837 M 5.708661411500071,2.7559055090000837 M 4.23228346025008,1.3779527545000831 M 2.755905509000088,2.7559055090000837 M 8.9466991542303e-14,2.7559055090000837 L 9.035516996200312e-14,10.984251957300078 L 8.464566920500053,10.984251957300078 "
  />
  <path id="face12-cut"
 style="fill:none;stroke:#0000FF;stroke-width:.05;stroke-miterlimit:4;stroke-dasharray:none;stroke-linejoin:round;stroke-linecap:round"
        d="M 6.747815547691469,1.8416033677407568 L 6.751780656025775,1.8419939392152542 M 6.7519684970500755,1.5944881873500847 M 6.655166098389994,1.60723246490613 M 6.564960623225075,1.644596796119761 M 6.487499425616203,1.7040348635662184 M 6.4280613581697486,1.7814960611750876 M 6.390697026956123,1.8717015363400022 M 6.377952749400074,1.9685039350000906 M 6.6254585012652445,1.96869177602439 L 6.628317099376203,1.9396710923998028 L 6.639992907369537,1.908650211015609 L 6.659299666751191,1.8817082620079872 L 6.684921653775228,1.860681294678156 L 6.7151127723683,1.8470022621009192 L 6.747815547691469,1.8416033677407568 "
  />
  <path id="face13-cut"
 style="fill:none;stroke:#0000FF;stroke-width:.05;stroke-miterlimit:4;stroke-dasharray:none;stroke-linejoin:round;stroke-linecap:round"
        d="M 2.278077637130355,1.594761585932109 M 2.26377952525008,1.5960902788481348 M 2.26377952525008,1.8422508979935983 L 2.279303879412527,1.843443281507615 L 2.2899438532834826,1.8442605090264095 L 2.321208890295813,1.8552658275028377 L 2.348560210986793,1.8739881358703812 L 2.370133868051522,1.8991515397538563 L 2.384459652413192,1.9290411947631199 L 2.390561285542043,1.9616201703042762 L 2.390032562256565,1.9685039350000906 M 2.6361931814020294,1.9685039350000906 M 2.628487536256403,1.8855832126322667 M 2.5945989499531525,1.7940152885805716 M 2.5381655665613345,1.7143384774262358 M 2.4630332278985327,1.651982622177283 M 2.3743220786825563,1.6111971713210138 "
  />
  <path id="face14-cut"
 style="fill:none;stroke:#0000FF;stroke-width:.05;stroke-miterlimit:4;stroke-dasharray:none;stroke-linejoin:round;stroke-linecap:round"
        d="M 4.798182207989,0.33493535330211155 M 4.783464562050075,0.3362863704387251 M 4.783464562050075,0.5827287492770565 L 4.786667108242887,0.58263811917151 L 4.796469679272033,0.582360712385271 L 4.828715568309339,0.5900302765413385 L 4.857877676050893,0.6057843568451744 L 4.881968653046783,0.6285493387589198 L 4.8993467390269485,0.6567738263860903 L 4.908827646150502,0.6885343675380298 L 4.909397229373102,0.7086614166000131 M 5.155839608211447,0.7086614166000273 M 5.148265425615013,0.6261501480819589 M 5.114479649891938,0.5345442402181078 M 5.05813574296075,0.4548041301824426 M 4.983073448966083,0.39236397469714457 M 4.8944081391973695,0.35147896717129323 "
  />
  <path id="face15-cut"
 style="fill:none;stroke:#0000FF;stroke-width:.05;stroke-miterlimit:4;stroke-dasharray:none;stroke-linejoin:round;stroke-linecap:round"
        d="M 4.76333751298803,0.5832983324996632 L 4.783464562050075,0.5827287492770565 M 4.783464562050075,0.3362863704387251 M 4.7009532935319545,0.3438605530351537 M 4.609347385668098,0.3776463287582288 M 4.529607275632439,0.4339902356894185 M 4.467167120147137,0.509052529684088 M 4.426282112621287,0.5977178394527953 M 4.4097384987521036,0.6939437706611684 M 4.411089515888704,0.70866141660007 M 4.657531894727047,0.7086614166000487 L 4.657441264621493,0.7054588704072955 L 4.6571638578352665,0.6956562993781403 L 4.664833421991321,0.6634104103408347 L 4.680587502295159,0.634248302599272 L 4.70335248420892,0.6101573256033859 L 4.731576971836085,0.5927792396232163 L 4.76333751298803,0.5832983324996632 "
  />
  <path id="face16-cut"
 style="fill:none;stroke:#0000FF;stroke-width:.05;stroke-miterlimit:4;stroke-dasharray:none;stroke-linejoin:round;stroke-linecap:round"
        d="M 4.768746916111157,1.082387479898064 M 4.783464562050075,1.0810364627614575 M 4.783464562050075,0.8345940839231119 L 4.780262015857271,0.8346847140286726 L 4.7704594448281235,0.8349621208148974 L 4.738213555790825,0.827292556658844 L 4.709051448049263,0.8115384763550082 L 4.6849604710533805,0.7887734944412415 L 4.667582385073207,0.7605490068140852 L 4.658101477949662,0.7287884656621386 L 4.657531894727047,0.7086614166000487 M 4.411089515888704,0.70866141660007 M 4.418663698485151,0.7911726851182095 M 4.452449474208213,0.8827785929820606 M 4.508793381139414,0.9625187030177258 M 4.583855675134081,1.024958858503031 M 4.672520984902787,1.0658438660288823 "
  />
  <path id="face17-cut"
 style="fill:none;stroke:#0000FF;stroke-width:.05;stroke-miterlimit:4;stroke-dasharray:none;stroke-linejoin:round;stroke-linecap:round"
        d="M 8.9466991542303e-14,8.9466991542303e-14 L 8.9466991542303e-14,2.7559055090000837 M 2.755905509000088,2.7559055090000837 M 4.23228346025008,1.3779527545000831 M 5.708661411500071,2.7559055090000837 M 8.464566920500067,2.7559055090000837 L 8.464566920500067,8.9466991542303e-14 L 8.9466991542303e-14,8.9466991542303e-14 M 7.016437568483945,2.2329730064339626 M 6.938976370875074,2.29241107388042 M 6.848770895710154,2.329775405094044 M 6.7519684970500755,2.342519682650089 M 6.655166098389994,2.329775405094044 M 6.564960623225075,2.29241107388042 M 6.487499425616203,2.2329730064339626 M 6.4280613581697486,2.1555118088250933 M 6.390697026956123,2.0653063336601716 M 6.377952749400074,1.9685039350000906 M 6.390697026956123,1.8717015363400022 M 6.4280613581697486,1.7814960611750876 M 6.487499425616203,1.7040348635662184 M 6.564960623225075,1.644596796119761 M 6.655166098389994,1.60723246490613 M 6.7519684970500755,1.5944881873500847 M 6.848770895710154,1.60723246490613 M 6.938976370875074,1.6445967961197538 M 7.016437568483945,1.7040348635662184 M 7.075875635930406,1.7814960611750876 M 7.1132399671440245,1.8717015363400094 M 7.125984244700077,1.9685039350000906 M 7.113239967144026,2.0653063336601716 M 7.075875635930408,2.1555118088250933 M 4.672520984902787,1.0658438660288823 M 4.583855675134081,1.024958858503031 M 4.508793381139414,0.9625187030177258 M 4.452449474208213,0.8827785929820606 M 4.418663698485151,0.7911726851182095 M 4.411089515888704,0.70866141660007 M 4.4097384987521036,0.6939437706611684 M 4.426282112621287,0.5977178394527953 M 4.467167120147137,0.509052529684088 M 4.529607275632439,0.4339902356894185 M 4.609347385668098,0.3776463287582288 M 4.7009532935319545,0.3438605530351537 M 4.783464562050075,0.3362863704387251 M 4.798182207989,0.33493535330211155 M 4.8944081391973695,0.35147896717129323 M 4.983073448966083,0.39236397469714457 M 5.05813574296075,0.4548041301824426 M 5.114479649891938,0.5345442402181078 M 5.148265425615013,0.6261501480819589 M 5.155839608211447,0.7086614166000273 M 5.15719062534806,0.7233790625390355 M 5.140647011478871,0.8196049937473802 M 5.099762003953013,0.9082703035160875 M 5.037321848467719,0.9833325975107641 M 4.957581738432052,1.0396765044419538 M 4.865975830568202,1.0734622801650147 M 4.783464562050075,1.0810364627614575 M 4.768746916111157,1.082387479898064 M 4.005009497330409,0.5216535427750884 M 4.0423738285440285,0.6118590179400101 M 4.0551181061000845,0.7086614166000842 M 4.0423738285440285,0.8054638152601725 M 4.005009497330409,0.8956692904250871 M 3.945571429883955,0.9731304880339635 M 3.8681102322750838,1.0325685554804138 M 3.7779047571101567,1.0699328866940447 M 3.6811023584500835,1.08267716425009 M 3.584299959789997,1.0699328866940447 M 3.494094484625083,1.0325685554804138 M 3.416633287016212,0.9731304880339635 M 3.357195219569751,0.8956692904250871 M 3.3198308883561256,0.8054638152601583 M 3.307086610800083,0.7086614166000913 M 3.3198308883561256,0.6118590179400101 M 3.357195219569751,0.5216535427750884 M 3.416633287016212,0.4441923451662191 M 3.494094484625083,0.38475427771975457 M 3.584299959789997,0.34738994650613786 M 3.6811023584500835,0.3346456689500925 M 3.7779047571101567,0.34738994650613786 M 3.8681102322750838,0.38475427771975457 M 3.945571429883955,0.4441923451662191 M 1.8913658690981294,1.9685039350000906 M 1.8900371761821089,1.9542058231198112 M 1.906472761571004,1.8579613815676168 M 1.9472582124272746,1.769250232351635 M 2.0096140676762313,1.6941178936888306 M 2.0892908788305617,1.6376845102970108 M 2.1808588028822586,1.603795923993762 M 2.26377952525008,1.5960902788481348 M 2.278077637130355,1.594761585932109 M 2.3743220786825563,1.6111971713210138 M 2.4630332278985327,1.651982622177283 M 2.5381655665613345,1.7143384774262358 M 2.5945989499531525,1.7940152885805716 M 2.628487536256403,1.8855832126322667 M 2.6361931814020294,1.9685039350000906 M 2.63752187431805,1.9828020468803558 M 2.621086288929155,2.079046488432557 M 2.5803008380728847,2.167757637648539 M 2.5179449828239266,2.2428899763113503 M 2.438268171669597,2.299323359703163 M 2.3467002476179,2.3332119460064047 M 2.26377952525008,2.340917591152039 M 2.249481413369803,2.342246284068058 M 2.1532369718176034,2.325810698679167 M 2.064525822601626,2.2850252478228836 M 1.9893934839388243,2.222669392573931 M 1.9329601005470058,2.1429925814196022 M 1.8990715142437553,2.0514246573679142 "
  />
  <path id="face0-interior"
 style="fill:none;stroke:#FF0000;stroke-width:.05;stroke-miterlimit:4;stroke-dasharray:none;stroke-linejoin:round;stroke-linecap:round"
        d="M 3.555280901196739,0.7125773201756587 M 3.555153878859039,0.7086614166000913 L 3.307086610800083,0.7086614166000913 L 3.3198308883561256,0.8054638152601583 L 3.357195219569751,0.8956692904250871 L 3.416633287016212,0.9731304880339635 L 3.494094484625083,1.0325685554804138 L 3.584299959789997,1.0699328866940447 L 3.6811023584500835,1.08267716425009 L 3.6811023584500835,0.8346098961911366 M 3.6686195216597777,0.8350148088963862 M 3.6363421996693828,0.8274786255600801 M 3.607115208530232,0.811845245787876 M 3.58293031938858,0.7891800585758488 M 3.5654356924719957,0.7610276589765348 M 3.5558235576936155,0.7293065864985706 "
  />
  <path id="face1-interior"
 style="fill:none;stroke:#FF0000;stroke-width:.05;stroke-miterlimit:4;stroke-dasharray:none;stroke-linejoin:round;stroke-linecap:round"
        d="M 3.806923815703421,0.7047455130245168 M 3.807050838041128,0.7086614166000913 L 4.0551181061000845,0.7086614166000842 L 4.0423738285440285,0.6118590179400101 L 4.005009497330409,0.5216535427750884 L 3.945571429883955,0.4441923451662191 L 3.8681102322750838,0.38475427771975457 L 3.7779047571101567,0.34738994650613786 L 3.6811023584500835,0.3346456689500925 L 3.6811023584500835,0.582712937009046 M 3.6935851952403813,0.5823080243037893 M 3.725862517230778,0.5898442076400954 M 3.7550895083699207,0.6054775874123066 M 3.7792743975115877,0.6281427746243124 M 3.796769024428164,0.6562951742236336 M 3.8063811592065453,0.6880162467015978 "
  />
  <path id="face2-interior"
 style="fill:none;stroke:#FF0000;stroke-width:.05;stroke-miterlimit:4;stroke-dasharray:none;stroke-linejoin:round;stroke-linecap:round"
        d="M 6.756121446408678,2.095404502259424 M 6.752156338074374,2.0950139307849196 L 6.7519684970500755,2.342519682650089 L 6.848770895710154,2.329775405094044 L 6.938976370875074,2.29241107388042 L 7.016437568483945,2.2329730064339626 L 7.075875635930408,2.1555118088250933 L 7.113239967144026,2.0653063336601716 L 7.125984244700077,1.9685039350000906 L 6.878478492834904,1.968316093975784 M 6.875619894723946,1.9973367776003712 M 6.863944086730611,2.028357658984572 M 6.844637327348958,2.0552996079921866 M 6.819015340324921,2.076326575322018 M 6.788824221731848,2.0900056078992617 "
  />
  <path id="face3-interior"
 style="fill:none;stroke:#FF0000;stroke-width:.05;stroke-miterlimit:4;stroke-dasharray:none;stroke-linejoin:round;stroke-linecap:round"
        d="M 2.2568957605542663,1.8417221747081285 M 2.26377952525008,1.8422508979935983 L 2.26377952525008,1.5960902788481348 L 2.1808588028822586,1.603795923993762 L 2.0892908788305617,1.6376845102970108 L 2.0096140676762313,1.6941178936888306 L 1.9472582124272746,1.769250232351635 L 1.906472761571004,1.8579613815676168 L 1.8900371761821089,1.9542058231198112 L 1.8913658690981294,1.9685039350000906 L 2.137526488243593,1.9685039350000906 M 2.1387188717576024,1.9529795808376391 M 2.1395360992764014,1.942339606966695 M 2.1505414177528235,1.9110745699543557 M 2.1692637261203696,1.8837232492633802 M 2.19442713000385,1.862149592198638 M 2.2243167850131154,1.8478238078369713 "
  />
  <path id="face4-interior"
 style="fill:none;stroke:#FF0000;stroke-width:.05;stroke-miterlimit:4;stroke-dasharray:none;stroke-linejoin:round;stroke-linecap:round"
        d="M 2.2706632899458916,2.0952856952920453 M 2.26377952525008,2.0947569720065755 L 2.26377952525008,2.340917591152039 L 2.3467002476179,2.3332119460064047 L 2.438268171669597,2.299323359703163 L 2.5179449828239266,2.2428899763113503 L 2.5803008380728847,2.167757637648539 L 2.621086288929155,2.079046488432557 L 2.63752187431805,1.9828020468803558 L 2.6361931814020294,1.9685039350000906 L 2.390032562256565,1.9685039350000906 M 2.3888401787425573,1.9840282891625278 M 2.3880229512237565,1.9946682630334862 M 2.3770176327473345,2.0259333000458253 M 2.3582953243797893,2.0532846207368007 M 2.3331319204963097,2.074858277801536 M 2.3032422654870426,2.0891840621632025 "
  />
  <path id="face5-interior"
 style="fill:none;stroke:#FF0000;stroke-width:.05;stroke-miterlimit:4;stroke-dasharray:none;stroke-linejoin:round;stroke-linecap:round"
        d="M 3.3198308883561256,0.6118590179400101 L 3.307086610800083,0.7086614166000913 M 3.555153878859039,0.7086614166000913 M 3.554748966153783,0.6961785798097864 M 3.562285149490091,0.663901257819387 M 3.5779185292623006,0.6346742666802327 M 3.600583716474316,0.6104893775385818 M 3.6287361160736276,0.5929947506220017 M 3.6604571885515944,0.5833826158436224 M 3.67718645487451,0.5828399593467466 M 3.6811023584500835,0.582712937009046 M 3.6811023584500835,0.3346456689500925 L 3.584299959789997,0.34738994650613786 L 3.494094484625083,0.38475427771975457 L 3.416633287016212,0.4441923451662191 L 3.357195219569751,0.5216535427750884 L 3.3198308883561256,0.6118590179400101 "
  />
  <path id="face6-interior"
 style="fill:none;stroke:#FF0000;stroke-width:.05;stroke-miterlimit:4;stroke-dasharray:none;stroke-linejoin:round;stroke-linecap:round"
        d="M 4.803591611112127,0.8340245007005052 M 4.783464562050075,0.8345940839231119 L 4.783464562050075,1.0810364627614575 L 4.865975830568202,1.0734622801650147 L 4.957581738432052,1.0396765044419538 L 5.037321848467719,0.9833325975107641 L 5.099762003953013,0.9082703035160875 L 5.140647011478871,0.8196049937473802 L 5.15719062534806,0.7233790625390355 L 5.155839608211447,0.7086614166000273 L 4.909397229373102,0.7086614166000131 M 4.909488047366754,0.7125773201756587 M 4.909765266264897,0.7216665338220565 M 4.902095702108829,0.7539124228593479 M 4.8863416218049895,0.7830745306009035 M 4.863576639891237,0.8071655075967967 M 4.835352152264079,0.8245435935769592 "
  />
  <path id="face7-interior"
 style="fill:none;stroke:#FF0000;stroke-width:.05;stroke-miterlimit:4;stroke-dasharray:none;stroke-linejoin:round;stroke-linecap:round"
        d="M 6.655166098389994,2.329775405094044 L 6.7519684970500755,2.342519682650089 M 6.752156338074374,2.0950139307849196 M 6.723135654449794,2.092155332673958 M 6.692114773065594,2.0804795246806234 M 6.665172824057976,2.061172765298974 M 6.64414585672814,2.0355507782749283 M 6.630466824150909,2.005359659681855 M 6.625067929790747,1.972656884358696 M 6.6254585012652445,1.96869177602439 L 6.377952749400074,1.9685039350000906 L 6.390697026956123,2.0653063336601716 L 6.4280613581697486,2.1555118088250933 L 6.487499425616203,2.2329730064339626 L 6.564960623225075,2.29241107388042 L 6.655166098389994,2.329775405094044 "
  />
  <path id="face8-interior"
 style="fill:none;stroke:#FF0000;stroke-width:.05;stroke-miterlimit:4;stroke-dasharray:none;stroke-linejoin:round;stroke-linecap:round"
        d="M 6.848770895710154,1.60723246490613 L 6.7519684970500755,1.5944881873500847 L 6.751780656025775,1.8419939392152542 M 6.780801339650355,1.8448525373262086 M 6.8118222210345545,1.8565283453195505 M 6.838764170042173,1.8758351047011999 M 6.859791137372009,1.9014570917252385 M 6.873470169949239,1.931648210318319 M 6.878869064309403,1.964350985641478 M 6.878478492834904,1.968316093975784 M 7.125984244700077,1.9685039350000906 L 7.1132399671440245,1.8717015363400094 L 7.075875635930406,1.7814960611750876 L 7.016437568483945,1.7040348635662184 L 6.938976370875074,1.6445967961197538 L 6.848770895710154,1.60723246490613 "
  />
  <path id="face9-interior"
 style="fill:none;stroke:#FF0000;stroke-width:.05;stroke-miterlimit:4;stroke-dasharray:none;stroke-linejoin:round;stroke-linecap:round"
        d="M 2.249481413369803,2.342246284068058 L 2.26377952525008,2.340917591152039 M 2.26377952525008,2.0947569720065755 M 2.248255171087632,2.093564588492566 M 2.2376151972166762,2.0927473609737572 M 2.206350160204345,2.081742042497336 M 2.178998839513365,2.0630197341297998 M 2.157425182448637,2.0378563302463104 M 2.143099398086966,2.007966675237054 M 2.136997764958116,1.975387699695898 M 2.137526488243593,1.9685039350000906 M 1.8913658690981294,1.9685039350000906 L 1.8990715142437553,2.0514246573679142 L 1.9329601005470058,2.1429925814196022 L 1.9893934839388243,2.222669392573931 L 2.064525822601626,2.2850252478228836 L 2.1532369718176034,2.325810698679167 L 2.249481413369803,2.342246284068058 "
  />
  <path id="face10-interior"
 style="fill:none;stroke:#FF0000;stroke-width:.05;stroke-miterlimit:4;stroke-dasharray:none;stroke-linejoin:round;stroke-linecap:round"
        d="M 4.0423738285440285,0.8054638152601725 L 4.0551181061000845,0.7086614166000842 M 3.807050838041128,0.7086614166000913 M 3.8074557507463758,0.7211442533903891 M 3.799919567410076,0.7534215753807814 M 3.7842861876378664,0.7826485665199285 M 3.761621000425851,0.8068334556615937 M 3.7334686008265323,0.8243280825781667 M 3.7017475283485726,0.8339402173565531 M 3.68501826202565,0.8344828738534289 M 3.6811023584500835,0.8346098961911366 M 3.6811023584500835,1.08267716425009 L 3.7779047571101567,1.0699328866940447 L 3.8681102322750838,1.0325685554804138 L 3.945571429883955,0.9731304880339635 L 4.005009497330409,0.8956692904250871 L 4.0423738285440285,0.8054638152601725 "
  />
  <path id="face11-interior"
 style="fill:none;stroke:#FF0000;stroke-width:.05;stroke-miterlimit:4;stroke-dasharray:none;stroke-linejoin:round;stroke-linecap:round"
        d="M 8.464566920500053,10.984251957300078 M 8.464566920500067,2.7559055090000837 L 5.708661411500071,2.7559055090000837 L 4.23228346025008,1.3779527545000831 L 2.755905509000088,2.7559055090000837 L 8.9466991542303e-14,2.7559055090000837 M 9.035516996200312e-14,10.984251957300078 "
  />
  <path id="face12-interior"
 style="fill:none;stroke:#FF0000;stroke-width:.05;stroke-miterlimit:4;stroke-dasharray:none;stroke-linejoin:round;stroke-linecap:round"
        d="M 6.747815547691469,1.8416033677407568 M 6.751780656025775,1.8419939392152542 M 6.7519684970500755,1.5944881873500847 L 6.655166098389994,1.60723246490613 L 6.564960623225075,1.644596796119761 L 6.487499425616203,1.7040348635662184 L 6.4280613581697486,1.7814960611750876 L 6.390697026956123,1.8717015363400022 L 6.377952749400074,1.9685039350000906 M 6.6254585012652445,1.96869177602439 M 6.628317099376203,1.9396710923998028 M 6.639992907369537,1.908650211015609 M 6.659299666751191,1.8817082620079872 M 6.684921653775228,1.860681294678156 M 6.7151127723683,1.8470022621009192 "
  />
  <path id="face13-interior"
 style="fill:none;stroke:#FF0000;stroke-width:.05;stroke-miterlimit:4;stroke-dasharray:none;stroke-linejoin:round;stroke-linecap:round"
        d="M 2.278077637130355,1.594761585932109 L 2.26377952525008,1.5960902788481348 M 2.26377952525008,1.8422508979935983 M 2.279303879412527,1.843443281507615 M 2.2899438532834826,1.8442605090264095 M 2.321208890295813,1.8552658275028377 M 2.348560210986793,1.8739881358703812 M 2.370133868051522,1.8991515397538563 M 2.384459652413192,1.9290411947631199 M 2.390561285542043,1.9616201703042762 M 2.390032562256565,1.9685039350000906 M 2.6361931814020294,1.9685039350000906 L 2.628487536256403,1.8855832126322667 L 2.5945989499531525,1.7940152885805716 L 2.5381655665613345,1.7143384774262358 L 2.4630332278985327,1.651982622177283 L 2.3743220786825563,1.6111971713210138 L 2.278077637130355,1.594761585932109 "
  />
  <path id="face14-interior"
 style="fill:none;stroke:#FF0000;stroke-width:.05;stroke-miterlimit:4;stroke-dasharray:none;stroke-linejoin:round;stroke-linecap:round"
        d="M 4.798182207989,0.33493535330211155 L 4.783464562050075,0.3362863704387251 L 4.783464562050075,0.5827287492770565 M 4.786667108242887,0.58263811917151 M 4.796469679272033,0.582360712385271 M 4.828715568309339,0.5900302765413385 M 4.857877676050893,0.6057843568451744 M 4.881968653046783,0.6285493387589198 M 4.8993467390269485,0.6567738263860903 M 4.908827646150502,0.6885343675380298 M 4.909397229373102,0.7086614166000131 M 5.155839608211447,0.7086614166000273 L 5.148265425615013,0.6261501480819589 L 5.114479649891938,0.5345442402181078 L 5.05813574296075,0.4548041301824426 L 4.983073448966083,0.39236397469714457 L 4.8944081391973695,0.35147896717129323 L 4.798182207989,0.33493535330211155 "
  />
  <path id="face15-interior"
 style="fill:none;stroke:#FF0000;stroke-width:.05;stroke-miterlimit:4;stroke-dasharray:none;stroke-linejoin:round;stroke-linecap:round"
        d="M 4.76333751298803,0.5832983324996632 M 4.783464562050075,0.5827287492770565 M 4.783464562050075,0.3362863704387251 L 4.7009532935319545,0.3438605530351537 L 4.609347385668098,0.3776463287582288 L 4.529607275632439,0.4339902356894185 L 4.467167120147137,0.509052529684088 L 4.426282112621287,0.5977178394527953 L 4.4097384987521036,0.6939437706611684 L 4.411089515888704,0.70866141660007 L 4.657531894727047,0.7086614166000487 M 4.657441264621493,0.7054588704072955 M 4.6571638578352665,0.6956562993781403 M 4.664833421991321,0.6634104103408347 M 4.680587502295159,0.634248302599272 M 4.70335248420892,0.6101573256033859 M 4.731576971836085,0.5927792396232163 "
  />
  <path id="face16-interior"
 style="fill:none;stroke:#FF0000;stroke-width:.05;stroke-miterlimit:4;stroke-dasharray:none;stroke-linejoin:round;stroke-linecap:round"
        d="M 4.768746916111157,1.082387479898064 L 4.783464562050075,1.0810364627614575 M 4.783464562050075,0.8345940839231119 M 4.780262015857271,0.8346847140286726 M 4.7704594448281235,0.8349621208148974 M 4.738213555790825,0.827292556658844 M 4.709051448049263,0.8115384763550082 M 4.6849604710533805,0.7887734944412415 M 4.667582385073207,0.7605490068140852 M 4.658101477949662,0.7287884656621386 M 4.657531894727047,0.7086614166000487 M 4.411089515888704,0.70866141660007 L 4.418663698485151,0.7911726851182095 L 4.452449474208213,0.8827785929820606 L 4.508793381139414,0.9625187030177258 L 4.583855675134081,1.024958858503031 L 4.672520984902787,1.0658438660288823 L 4.768746916111157,1.082387479898064 "
  />
  <path id="face17-interior"
 style="fill:none;stroke:#FF0000;stroke-width:.05;stroke-miterlimit:4;stroke-dasharray:none;stroke-linejoin:round;stroke-linecap:round"
        d="M 8.9466991542303e-14,8.9466991542303e-14 M 8.9466991542303e-14,2.7559055090000837 M 2.755905509000088,2.7559055090000837 M 4.23228346025008,1.3779527545000831 M 5.708661411500071,2.7559055090000837 M 8.464566920500067,2.7559055090000837 M 8.464566920500067,8.9466991542303e-14 M 7.016437568483945,2.2329730064339626 M 6.938976370875074,2.29241107388042 M 6.848770895710154,2.329775405094044 M 6.7519684970500755,2.342519682650089 M 6.655166098389994,2.329775405094044 M 6.564960623225075,2.29241107388042 M 6.487499425616203,2.2329730064339626 M 6.4280613581697486,2.1555118088250933 M 6.390697026956123,2.0653063336601716 M 6.377952749400074,1.9685039350000906 M 6.390697026956123,1.8717015363400022 M 6.4280613581697486,1.7814960611750876 M 6.487499425616203,1.7040348635662184 M 6.564960623225075,1.644596796119761 M 6.655166098389994,1.60723246490613 M 6.7519684970500755,1.5944881873500847 M 6.848770895710154,1.60723246490613 M 6.938976370875074,1.6445967961197538 M 7.016437568483945,1.7040348635662184 M 7.075875635930406,1.7814960611750876 M 7.1132399671440245,1.8717015363400094 M 7.125984244700077,1.9685039350000906 M 7.113239967144026,2.0653063336601716 M 7.075875635930408,2.1555118088250933 M 4.672520984902787,1.0658438660288823 M 4.583855675134081,1.024958858503031 M 4.508793381139414,0.9625187030177258 M 4.452449474208213,0.8827785929820606 M 4.418663698485151,0.7911726851182095 M 4.411089515888704,0.70866141660007 M 4.4097384987521036,0.6939437706611684 M 4.426282112621287,0.5977178394527953 M 4.467167120147137,0.509052529684088 M 4.529607275632439,0.4339902356894185 M 4.609347385668098,0.3776463287582288 M 4.7009532935319545,0.3438605530351537 M 4.783464562050075,0.3362863704387251 M 4.798182207989,0.33493535330211155 M 4.8944081391973695,0.35147896717129323 M 4.983073448966083,0.39236397469714457 M 5.05813574296075,0.4548041301824426 M 5.114479649891938,0.5345442402181078 M 5.148265425615013,0.6261501480819589 M 5.155839608211447,0.7086614166000273 M 5.15719062534806,0.7233790625390355 M 5.140647011478871,0.8196049937473802 M 5.099762003953013,0.9082703035160875 M 5.037321848467719,0.9833325975107641 M 4.957581738432052,1.0396765044419538 M 4.865975830568202,1.0734622801650147 M 4.783464562050075,1.0810364627614575 M 4.768746916111157,1.082387479898064 M 4.005009497330409,0.5216535427750884 M 4.0423738285440285,0.6118590179400101 M 4.0551181061000845,0.7086614166000842 M 4.0423738285440285,0.8054638152601725 M 4.005009497330409,0.8956692904250871 M 3.945571429883955,0.9731304880339635 M 3.8681102322750838,1.0325685554804138 M 3.7779047571101567,1.0699328866940447 M 3.6811023584500835,1.08267716425009 M 3.584299959789997,1.0699328866940447 M 3.494094484625083,1.0325685554804138 M 3.416633287016212,0.9731304880339635 M 3.357195219569751,0.8956692904250871 M 3.3198308883561256,0.8054638152601583 M 3.307086610800083,0.7086614166000913 M 3.3198308883561256,0.6118590179400101 M 3.357195219569751,0.5216535427750884 M 3.416633287016212,0.4441923451662191 M 3.494094484625083,0.38475427771975457 M 3.584299959789997,0.34738994650613786 M 3.6811023584500835,0.3346456689500925 M 3.7779047571101567,0.34738994650613786 M 3.8681102322750838,0.38475427771975457 M 3.945571429883955,0.4441923451662191 M 1.8913658690981294,1.9685039350000906 M 1.8900371761821089,1.9542058231198112 M 1.906472761571004,1.8579613815676168 M 1.9472582124272746,1.769250232351635 M 2.0096140676762313,1.6941178936888306 M 2.0892908788305617,1.6376845102970108 M 2.1808588028822586,1.603795923993762 M 2.26377952525008,1.5960902788481348 M 2.278077637130355,1.594761585932109 M 2.3743220786825563,1.6111971713210138 M 2.4630332278985327,1.651982622177283 M 2.5381655665613345,1.7143384774262358 M 2.5945989499531525,1.7940152885805716 M 2.628487536256403,1.8855832126322667 M 2.6361931814020294,1.9685039350000906 M 2.63752187431805,1.9828020468803558 M 2.621086288929155,2.079046488432557 M 2.5803008380728847,2.167757637648539 M 2.5179449828239266,2.2428899763113503 M 2.438268171669597,2.299323359703163 M 2.3467002476179,2.3332119460064047 M 2.26377952525008,2.340917591152039 M 2.249481413369803,2.342246284068058 M 2.1532369718176034,2.325810698679167 M 2.064525822601626,2.2850252478228836 M 1.9893934839388243,2.222669392573931 M 1.9329601005470058,2.1429925814196022 M 1.8990715142437553,2.0514246573679142 "
  />
  <path id="face0-interior"
 style="fill:none;stroke:#00FF00;stroke-width:.05;stroke-miterlimit:4;stroke-dasharray:none;stroke-linejoin:round;stroke-linecap:round"
        d="M 3.555280901196739,0.7125773201756587 M 3.555153878859039,0.7086614166000913 M 3.307086610800083,0.7086614166000913 M 3.3198308883561256,0.8054638152601583 M 3.357195219569751,0.8956692904250871 M 3.416633287016212,0.9731304880339635 M 3.494094484625083,1.0325685554804138 M 3.584299959789997,1.0699328866940447 M 3.6811023584500835,1.08267716425009 M 3.6811023584500835,0.8346098961911366 M 3.6686195216597777,0.8350148088963862 M 3.6363421996693828,0.8274786255600801 M 3.607115208530232,0.811845245787876 M 3.58293031938858,0.7891800585758488 M 3.5654356924719957,0.7610276589765348 M 3.5558235576936155,0.7293065864985706 "
  />
  <path id="face1-interior"
 style="fill:none;stroke:#00FF00;stroke-width:.05;stroke-miterlimit:4;stroke-dasharray:none;stroke-linejoin:round;stroke-linecap:round"
        d="M 3.806923815703421,0.7047455130245168 M 3.807050838041128,0.7086614166000913 M 4.0551181061000845,0.7086614166000842 M 4.0423738285440285,0.6118590179400101 M 4.005009497330409,0.5216535427750884 M 3.945571429883955,0.4441923451662191 M 3.8681102322750838,0.38475427771975457 M 3.7779047571101567,0.34738994650613786 M 3.6811023584500835,0.3346456689500925 M 3.6811023584500835,0.582712937009046 M 3.6935851952403813,0.5823080243037893 M 3.725862517230778,0.5898442076400954 M 3.7550895083699207,0.6054775874123066 M 3.7792743975115877,0.6281427746243124 M 3.796769024428164,0.6562951742236336 M 3.8063811592065453,0.6880162467015978 "
  />
  <path id="face2-interior"
 style="fill:none;stroke:#00FF00;stroke-width:.05;stroke-miterlimit:4;stroke-dasharray:none;stroke-linejoin:round;stroke-linecap:round"
        d="M 6.756121446408678,2.095404502259424 M 6.752156338074374,2.0950139307849196 M 6.7519684970500755,2.342519682650089 M 6.848770895710154,2.329775405094044 M 6.938976370875074,2.29241107388042 M 7.016437568483945,2.2329730064339626 M 7.075875635930408,2.1555118088250933 M 7.113239967144026,2.0653063336601716 M 7.125984244700077,1.9685039350000906 M 6.878478492834904,1.968316093975784 M 6.875619894723946,1.9973367776003712 M 6.863944086730611,2.028357658984572 M 6.844637327348958,2.0552996079921866 M 6.819015340324921,2.076326575322018 M 6.788824221731848,2.0900056078992617 "
  />
  <path id="face3-interior"
 style="fill:none;stroke:#00FF00;stroke-width:.05;stroke-miterlimit:4;stroke-dasharray:none;stroke-linejoin:round;stroke-linecap:round"
        d="M 2.2568957605542663,1.8417221747081285 M 2.26377952525008,1.8422508979935983 M 2.26377952525008,1.5960902788481348 M 2.1808588028822586,1.603795923993762 M 2.0892908788305617,1.6376845102970108 M 2.0096140676762313,1.6941178936888306 M 1.9472582124272746,1.769250232351635 M 1.906472761571004,1.8579613815676168 M 1.8900371761821089,1.9542058231198112 M 1.8913658690981294,1.9685039350000906 M 2.137526488243593,1.9685039350000906 M 2.1387188717576024,1.9529795808376391 M 2.1395360992764014,1.942339606966695 M 2.1505414177528235,1.9110745699543557 M 2.1692637261203696,1.8837232492633802 M 2.19442713000385,1.862149592198638 M 2.2243167850131154,1.8478238078369713 "
  />
  <path id="face4-interior"
 style="fill:none;stroke:#00FF00;stroke-width:.05;stroke-miterlimit:4;stroke-dasharray:none;stroke-linejoin:round;stroke-linecap:round"
        d="M 2.2706632899458916,2.0952856952920453 M 2.26377952525008,2.0947569720065755 M 2.26377952525008,2.340917591152039 M 2.3467002476179,2.3332119460064047 M 2.438268171669597,2.299323359703163 M 2.5179449828239266,2.2428899763113503 M 2.5803008380728847,2.167757637648539 M 2.621086288929155,2.079046488432557 M 2.63752187431805,1.9828020468803558 M 2.6361931814020294,1.9685039350000906 M 2.390032562256565,1.9685039350000906 M 2.3888401787425573,1.9840282891625278 M 2.3880229512237565,1.9946682630334862 M 2.3770176327473345,2.0259333000458253 M 2.3582953243797893,2.0532846207368007 M 2.3331319204963097,2.074858277801536 M 2.3032422654870426,2.0891840621632025 "
  />
  <path id="face5-interior"
 style="fill:none;stroke:#00FF00;stroke-width:.05;stroke-miterlimit:4;stroke-dasharray:none;stroke-linejoin:round;stroke-linecap:round"
        d="M 3.3198308883561256,0.6118590179400101 M 3.307086610800083,0.7086614166000913 M 3.555153878859039,0.7086614166000913 M 3.554748966153783,0.6961785798097864 M 3.562285149490091,0.663901257819387 M 3.5779185292623006,0.6346742666802327 M 3.600583716474316,0.6104893775385818 M 3.6287361160736276,0.5929947506220017 M 3.6604571885515944,0.5833826158436224 M 3.67718645487451,0.5828399593467466 M 3.6811023584500835,0.582712937009046 M 3.6811023584500835,0.3346456689500925 M 3.584299959789997,0.34738994650613786 M 3.494094484625083,0.38475427771975457 M 3.416633287016212,0.4441923451662191 M 3.357195219569751,0.5216535427750884 "
  />
  <path id="face6-interior"
 style="fill:none;stroke:#00FF00;stroke-width:.05;stroke-miterlimit:4;stroke-dasharray:none;stroke-linejoin:round;stroke-linecap:round"
        d="M 4.803591611112127,0.8340245007005052 M 4.783464562050075,0.8345940839231119 M 4.783464562050075,1.0810364627614575 M 4.865975830568202,1.0734622801650147 M 4.957581738432052,1.0396765044419538 M 5.037321848467719,0.9833325975107641 M 5.099762003953013,0.9082703035160875 M 5.140647011478871,0.8196049937473802 M 5.15719062534806,0.7233790625390355 M 5.155839608211447,0.7086614166000273 M 4.909397229373102,0.7086614166000131 M 4.909488047366754,0.7125773201756587 M 4.909765266264897,0.7216665338220565 M 4.902095702108829,0.7539124228593479 M 4.8863416218049895,0.7830745306009035 M 4.863576639891237,0.8071655075967967 M 4.835352152264079,0.8245435935769592 "
  />
  <path id="face7-interior"
 style="fill:none;stroke:#00FF00;stroke-width:.05;stroke-miterlimit:4;stroke-dasharray:none;stroke-linejoin:round;stroke-linecap:round"
        d="M 6.655166098389994,2.329775405094044 M 6.7519684970500755,2.342519682650089 M 6.752156338074374,2.0950139307849196 M 6.723135654449794,2.092155332673958 M 6.692114773065594,2.0804795246806234 M 6.665172824057976,2.061172765298974 M 6.64414585672814,2.0355507782749283 M 6.630466824150909,2.005359659681855 M 6.625067929790747,1.972656884358696 M 6.6254585012652445,1.96869177602439 M 6.377952749400074,1.9685039350000906 M 6.390697026956123,2.0653063336601716 M 6.4280613581697486,2.1555118088250933 M 6.487499425616203,2.2329730064339626 M 6.564960623225075,2.29241107388042 "
  />
  <path id="face8-interior"
 style="fill:none;stroke:#00FF00;stroke-width:.05;stroke-miterlimit:4;stroke-dasharray:none;stroke-linejoin:round;stroke-linecap:round"
        d="M 6.848770895710154,1.60723246490613 M 6.7519684970500755,1.5944881873500847 M 6.751780656025775,1.8419939392152542 M 6.780801339650355,1.8448525373262086 M 6.8118222210345545,1.8565283453195505 M 6.838764170042173,1.8758351047011999 M 6.859791137372009,1.9014570917252385 M 6.873470169949239,1.931648210318319 M 6.878869064309403,1.964350985641478 M 6.878478492834904,1.968316093975784 M 7.125984244700077,1.9685039350000906 M 7.1132399671440245,1.8717015363400094 M 7.075875635930406,1.7814960611750876 M 7.016437568483945,1.7040348635662184 M 6.938976370875074,1.6445967961197538 "
  />
  <path id="face9-interior"
 style="fill:none;stroke:#00FF00;stroke-width:.05;stroke-miterlimit:4;stroke-dasharray:none;stroke-linejoin:round;stroke-linecap:round"
        d="M 2.249481413369803,2.342246284068058 M 2.26377952525008,2.340917591152039 M 2.26377952525008,2.0947569720065755 M 2.248255171087632,2.093564588492566 M 2.2376151972166762,2.0927473609737572 M 2.206350160204345,2.081742042497336 M 2.178998839513365,2.0630197341297998 M 2.157425182448637,2.0378563302463104 M 2.143099398086966,2.007966675237054 M 2.136997764958116,1.975387699695898 M 2.137526488243593,1.9685039350000906 M 1.8913658690981294,1.9685039350000906 M 1.8990715142437553,2.0514246573679142 M 1.9329601005470058,2.1429925814196022 M 1.9893934839388243,2.222669392573931 M 2.064525822601626,2.2850252478228836 M 2.1532369718176034,2.325810698679167 "
  />
  <path id="face10-interior"
 style="fill:none;stroke:#00FF00;stroke-width:.05;stroke-miterlimit:4;stroke-dasharray:none;stroke-linejoin:round;stroke-linecap:round"
        d="M 4.0423738285440285,0.8054638152601725 M 4.0551181061000845,0.7086614166000842 M 3.807050838041128,0.7086614166000913 M 3.8074557507463758,0.7211442533903891 M 3.799919567410076,0.7534215753807814 M 3.7842861876378664,0.7826485665199285 M 3.761621000425851,0.8068334556615937 M 3.7334686008265323,0.8243280825781667 M 3.7017475283485726,0.8339402173565531 M 3.68501826202565,0.8344828738534289 M 3.6811023584500835,0.8346098961911366 M 3.6811023584500835,1.08267716425009 M 3.7779047571101567,1.0699328866940447 M 3.8681102322750838,1.0325685554804138 M 3.945571429883955,0.9731304880339635 M 4.005009497330409,0.8956692904250871 "
  />
  <path id="face11-interior"
 style="fill:none;stroke:#00FF00;stroke-width:.05;stroke-miterlimit:4;stroke-dasharray:none;stroke-linejoin:round;stroke-linecap:round"
        d="M 8.464566920500053,10.984251957300078 M 8.464566920500067,2.7559055090000837 M 5.708661411500071,2.7559055090000837 M 4.23228346025008,1.3779527545000831 M 2.755905509000088,2.7559055090000837 M 8.9466991542303e-14,2.7559055090000837 M 9.035516996200312e-14,10.984251957300078 "
  />
  <path id="face12-interior"
 style="fill:none;stroke:#00FF00;stroke-width:.05;stroke-miterlimit:4;stroke-dasharray:none;stroke-linejoin:round;stroke-linecap:round"
        d="M 6.747815547691469,1.8416033677407568 M 6.751780656025775,1.8419939392152542 M 6.7519684970500755,1.5944881873500847 M 6.655166098389994,1.60723246490613 M 6.564960623225075,1.644596796119761 M 6.487499425616203,1.7040348635662184 M 6.4280613581697486,1.7814960611750876 M 6.390697026956123,1.8717015363400022 M 6.377952749400074,1.9685039350000906 M 6.6254585012652445,1.96869177602439 M 6.628317099376203,1.9396710923998028 M 6.639992907369537,1.908650211015609 M 6.659299666751191,1.8817082620079872 M 6.684921653775228,1.860681294678156 M 6.7151127723683,1.8470022621009192 "
  />
  <path id="face13-interior"
 style="fill:none;stroke:#00FF00;stroke-width:.05;stroke-miterlimit:4;stroke-dasharray:none;stroke-linejoin:round;stroke-linecap:round"
        d="M 2.278077637130355,1.594761585932109 M 2.26377952525008,1.5960902788481348 M 2.26377952525008,1.8422508979935983 M 2.279303879412527,1.843443281507615 M 2.2899438532834826,1.8442605090264095 M 2.321208890295813,1.8552658275028377 M 2.348560210986793,1.8739881358703812 M 2.370133868051522,1.8991515397538563 M 2.384459652413192,1.9290411947631199 M 2.390561285542043,1.9616201703042762 M 2.390032562256565,1.9685039350000906 M 2.6361931814020294,1.9685039350000906 M 2.628487536256403,1.8855832126322667 M 2.5945989499531525,1.7940152885805716 M 2.5381655665613345,1.7143384774262358 M 2.4630332278985327,1.651982622177283 M 2.3743220786825563,1.6111971713210138 "
  />
  <path id="face14-interior"
 style="fill:none;stroke:#00FF00;stroke-width:.05;stroke-miterlimit:4;stroke-dasharray:none;stroke-linejoin:round;stroke-linecap:round"
        d="M 4.798182207989,0.33493535330211155 M 4.783464562050075,0.3362863704387251 M 4.783464562050075,0.5827287492770565 M 4.786667108242887,0.58263811917151 M 4.796469679272033,0.582360712385271 M 4.828715568309339,0.5900302765413385 M 4.857877676050893,0.6057843568451744 M 4.881968653046783,0.6285493387589198 M 4.8993467390269485,0.6567738263860903 M 4.908827646150502,0.6885343675380298 M 4.909397229373102,0.7086614166000131 M 5.155839608211447,0.7086614166000273 M 5.148265425615013,0.6261501480819589 M 5.114479649891938,0.5345442402181078 M 5.05813574296075,0.4548041301824426 M 4.983073448966083,0.39236397469714457 M 4.8944081391973695,0.35147896717129323 "
  />
  <path id="face15-interior"
 style="fill:none;stroke:#00FF00;stroke-width:.05;stroke-miterlimit:4;stroke-dasharray:none;stroke-linejoin:round;stroke-linecap:round"
        d="M 4.76333751298803,0.5832983324996632 M 4.783464562050075,0.5827287492770565 M 4.783464562050075,0.3362863704387251 M 4.7009532935319545,0.3438605530351537 M 4.609347385668098,0.3776463287582288 M 4.529607275632439,0.4339902356894185 M 4.467167120147137,0.509052529684088 M 4.426282112621287,0.5977178394527953 M 4.4097384987521036,0.6939437706611684 M 4.411089515888704,0.70866141660007 M 4.657531894727047,0.7086614166000487 M 4.657441264621493,0.7054588704072955 M 4.6571638578352665,0.6956562993781403 M 4.664833421991321,0.6634104103408347 M 4.680587502295159,0.634248302599272 M 4.70335248420892,0.6101573256033859 M 4.731576971836085,0.5927792396232163 "
  />
  <path id="face16-interior"
 style="fill:none;stroke:#00FF00;stroke-width:.05;stroke-miterlimit:4;stroke-dasharray:none;stroke-linejoin:round;stroke-linecap:round"
        d="M 4.768746916111157,1.082387479898064 M 4.783464562050075,1.0810364627614575 M 4.783464562050075,0.8345940839231119 M 4.780262015857271,0.8346847140286726 M 4.7704594448281235,0.8349621208148974 M 4.738213555790825,0.827292556658844 M 4.709051448049263,0.8115384763550082 M 4.6849604710533805,0.7887734944412415 M 4.667582385073207,0.7605490068140852 M 4.658101477949662,0.7287884656621386 M 4.657531894727047,0.7086614166000487 M 4.411089515888704,0.70866141660007 M 4.418663698485151,0.7911726851182095 M 4.452449474208213,0.8827785929820606 M 4.508793381139414,0.9625187030177258 M 4.583855675134081,1.024958858503031 M 4.672520984902787,1.0658438660288823 "
  />
  <path id="face17-interior"
 style="fill:none;stroke:#00FF00;stroke-width:.05;stroke-miterlimit:4;stroke-dasharray:none;stroke-linejoin:round;stroke-linecap:round"
        d="M 8.9466991542303e-14,8.9466991542303e-14 M 8.9466991542303e-14,2.7559055090000837 M 2.755905509000088,2.7559055090000837 M 4.23228346025008,1.3779527545000831 M 5.708661411500071,2.7559055090000837 M 8.464566920500067,2.7559055090000837 M 8.464566920500067,8.9466991542303e-14 M 7.016437568483945,2.2329730064339626 M 6.938976370875074,2.29241107388042 M 6.848770895710154,2.329775405094044 M 6.7519684970500755,2.342519682650089 M 6.655166098389994,2.329775405094044 M 6.564960623225075,2.29241107388042 M 6.487499425616203,2.2329730064339626 M 6.4280613581697486,2.1555118088250933 M 6.390697026956123,2.0653063336601716 M 6.377952749400074,1.9685039350000906 M 6.390697026956123,1.8717015363400022 M 6.4280613581697486,1.7814960611750876 M 6.487499425616203,1.7040348635662184 M 6.564960623225075,1.644596796119761 M 6.655166098389994,1.60723246490613 M 6.7519684970500755,1.5944881873500847 M 6.848770895710154,1.60723246490613 M 6.938976370875074,1.6445967961197538 M 7.016437568483945,1.7040348635662184 M 7.075875635930406,1.7814960611750876 M 7.1132399671440245,1.8717015363400094 M 7.125984244700077,1.9685039350000906 M 7.113239967144026,2.0653063336601716 M 7.075875635930408,2.1555118088250933 M 4.672520984902787,1.0658438660288823 M 4.583855675134081,1.024958858503031 M 4.508793381139414,0.9625187030177258 M 4.452449474208213,0.8827785929820606 M 4.418663698485151,0.7911726851182095 M 4.411089515888704,0.70866141660007 M 4.4097384987521036,0.6939437706611684 M 4.426282112621287,0.5977178394527953 M 4.467167120147137,0.509052529684088 M 4.529607275632439,0.4339902356894185 M 4.609347385668098,0.3776463287582288 M 4.7009532935319545,0.3438605530351537 M 4.783464562050075,0.3362863704387251 M 4.798182207989,0.33493535330211155 M 4.8944081391973695,0.35147896717129323 M 4.983073448966083,0.39236397469714457 M 5.05813574296075,0.4548041301824426 M 5.114479649891938,0.5345442402181078 M 5.148265425615013,0.6261501480819589 M 5.155839608211447,0.7086614166000273 M 5.15719062534806,0.7233790625390355 M 5.140647011478871,0.8196049937473802 M 5.099762003953013,0.9082703035160875 M 5.037321848467719,0.9833325975107641 M 4.957581738432052,1.0396765044419538 M 4.865975830568202,1.0734622801650147 M 4.783464562050075,1.0810364627614575 M 4.768746916111157,1.082387479898064 M 4.005009497330409,0.5216535427750884 M 4.0423738285440285,0.6118590179400101 M 4.0551181061000845,0.7086614166000842 M 4.0423738285440285,0.8054638152601725 M 4.005009497330409,0.8956692904250871 M 3.945571429883955,0.9731304880339635 M 3.8681102322750838,1.0325685554804138 M 3.7779047571101567,1.0699328866940447 M 3.6811023584500835,1.08267716425009 M 3.584299959789997,1.0699328866940447 M 3.494094484625083,1.0325685554804138 M 3.416633287016212,0.9731304880339635 M 3.357195219569751,0.8956692904250871 M 3.3198308883561256,0.8054638152601583 M 3.307086610800083,0.7086614166000913 M 3.3198308883561256,0.6118590179400101 M 3.357195219569751,0.5216535427750884 M 3.416633287016212,0.4441923451662191 M 3.494094484625083,0.38475427771975457 M 3.584299959789997,0.34738994650613786 M 3.6811023584500835,0.3346456689500925 M 3.7779047571101567,0.34738994650613786 M 3.8681102322750838,0.38475427771975457 M 3.945571429883955,0.4441923451662191 M 1.8913658690981294,1.9685039350000906 M 1.8900371761821089,1.9542058231198112 M 1.906472761571004,1.8579613815676168 M 1.9472582124272746,1.769250232351635 M 2.0096140676762313,1.6941178936888306 M 2.0892908788305617,1.6376845102970108 M 2.1808588028822586,1.603795923993762 M 2.26377952525008,1.5960902788481348 M 2.278077637130355,1.594761585932109 M 2.3743220786825563,1.6111971713210138 M 2.4630332278985327,1.651982622177283 M 2.5381655665613345,1.7143384774262358 M 2.5945989499531525,1.7940152885805716 M 2.628487536256403,1.8855832126322667 M 2.6361931814020294,1.9685039350000906 M 2.63752187431805,1.9828020468803558 M 2.621086288929155,2.079046488432557 M 2.5803008380728847,2.167757637648539 M 2.5179449828239266,2.2428899763113503 M 2.438268171669597,2.299323359703163 M 2.3467002476179,2.3332119460064047 M 2.26377952525008,2.340917591152039 M 2.249481413369803,2.342246284068058 M 2.1532369718176034,2.325810698679167 M 2.064525822601626,2.2850252478228836 M 1.9893934839388243,2.222669392573931 M 1.9329601005470058,2.1429925814196022 M 1.8990715142437553,2.0514246573679142 "
  />
</svg>
