<?xml version="1.0" standalone="no"?>
<!DOCTYPE svg PUBLIC "-//W3C//DTD SVG 1.1//EN" "http://www.w3.org/Graphics/SVG/1.1/DTD/svg11.dtd">
<svg width="8.464566920504522in" height="2.7559055090045463in"
 viewBox="0 0 8.464566920504522 2.7559055090045463"
 xmlns="http://www.w3.org/2000/svg" version="1.1"
 xmlns:xlink="http://www.w3.org/1999/xlink">
<desc>Output from Flights of Ideas SVG Sketchup Plugin</desc>

<g id="text_annotations" font-size="0.393700787402" stroke="#000000" stroke-width=".05">
</g>
  <path id="face0-cut"
 style="fill:none;stroke:#0000FF;stroke-width:.05;stroke-miterlimit:4;stroke-dasharray:none;stroke-linejoin:round;stroke-linecap:round"
        d="M 6.848770895712338,1.60723246490832 M 6.751968497052258,1.5944881873522747 M 6.751780656027957,1.8419939392174443 L 6.780801339652538,1.8448525373283986 L 6.8118222210367385,1.8565283453217334 L 6.838764170044357,1.8758351047033899 L 6.8597911373741915,1.9014570917274214 L 6.873470169951424,1.9316482103204948 L 6.878869064311586,1.964350985643668 L 6.878478492837089,1.968316093977974 M 7.125984244702257,1.9685039350022735 M 7.113239967146209,1.8717015363421923 M 7.07587563593259,1.7814960611772706 M 7.016437568486129,1.7040348635684013 M 6.938976370877257,1.6445967961219439 "
  />
  <path id="face1-cut"
 style="fill:none;stroke:#0000FF;stroke-width:.05;stroke-miterlimit:4;stroke-dasharray:none;stroke-linejoin:round;stroke-linecap:round"
        d="M 4.76874691611334,1.0823874799002469 M 4.783464562052258,1.0810364627636404 M 4.783464562052258,0.8345940839252949 L 4.780262015859453,0.8346847140308556 L 4.770459444830306,0.8349621208170875 L 4.738213555793007,0.8272925566610271 L 4.709051448051446,0.811538476357177 L 4.684960471055563,0.7887734944434316 L 4.667582385075391,0.7605490068162682 L 4.658101477951845,0.7287884656643216 L 4.657531894729229,0.7086614166022601 M 4.411089515890886,0.7086614166022601 M 4.418663698487334,0.7911726851203925 M 4.452449474210395,0.8827785929842437 M 4.508793381141596,0.9625187030199088 M 4.583855675136264,1.0249588585052138 M 4.6725209849049705,1.0658438660310652 "
  />
  <path id="face2-cut"
 style="fill:none;stroke:#0000FF;stroke-width:.05;stroke-miterlimit:4;stroke-dasharray:none;stroke-linejoin:round;stroke-linecap:round"
        d="M 6.655166098392178,2.32977540509622 M 6.751968497052258,2.3425196826522723 M 6.752156338076557,2.0950139307871027 L 6.723135654451977,2.0921553326761413 L 6.692114773067777,2.0804795246828136 L 6.66517282406016,2.061172765301157 L 6.644145856730325,2.0355507782771185 L 6.630466824153093,2.005359659684045 L 6.62506792979293,1.9726568843608718 L 6.625458501267427,1.968691776026573 M 6.377952749402257,1.9685039350022735 M 6.390697026958307,2.0653063336623547 M 6.428061358171933,2.1555118088272693 M 6.487499425618386,2.2329730064361457 M 6.5649606232272575,2.292411073882596 "
  />
  <path id="face3-cut"
 style="fill:none;stroke:#0000FF;stroke-width:.05;stroke-miterlimit:4;stroke-dasharray:none;stroke-linejoin:round;stroke-linecap:round"
        d="M 4.798182207991182,0.3349353533042874 M 4.783464562052258,0.3362863704408939 M 4.783464562052258,0.5827287492792467 L 4.7866671082450685,0.5826381191736788 L 4.7964696792742165,0.582360712387454 L 4.828715568311522,0.5900302765435216 L 4.857877676053076,0.6057843568473503 L 4.8819686530489665,0.62854933876111 L 4.899346739029132,0.6567738263882733 L 4.908827646152685,0.6885343675402199 L 4.909397229375286,0.7086614166022601 M 5.155839608213629,0.7086614166022743 M 5.148265425617195,0.6261501480841419 M 5.114479649894121,0.5345442402202908 M 5.058135742962933,0.45480413018462557 M 4.983073448968266,0.39236397469933465 M 4.894408139199552,0.3514789671734833 "
  />
  <path id="face4-cut"
 style="fill:none;stroke:#0000FF;stroke-width:.05;stroke-miterlimit:4;stroke-dasharray:none;stroke-linejoin:round;stroke-linecap:round"
        d="M 6.747815547693654,1.8416033677429398 L 6.751780656027957,1.8419939392174443 M 6.751968497052258,1.5944881873522747 M 6.655166098392178,1.60723246490832 M 6.5649606232272575,1.6445967961219439 M 6.487499425618386,1.7040348635684013 M 6.428061358171933,1.7814960611772706 M 6.390697026958307,1.8717015363421923 M 6.377952749402257,1.9685039350022735 M 6.625458501267427,1.968691776026573 L 6.628317099378386,1.9396710924019929 L 6.63999290737172,1.9086502110177777 L 6.659299666753372,1.8817082620101773 L 6.68492165377741,1.8606812946803388 L 6.715112772370484,1.8470022621031092 L 6.747815547693654,1.8416033677429398 "
  />
  <path id="face5-cut"
 style="fill:none;stroke:#0000FF;stroke-width:.05;stroke-miterlimit:4;stroke-dasharray:none;stroke-linejoin:round;stroke-linecap:round"
        d="M 6.756121446410862,2.095404502261593 L 6.752156338076557,2.0950139307871027 M 6.751968497052258,2.3425196826522723 M 6.848770895712338,2.32977540509622 M 6.938976370877257,2.292411073882596 M 7.016437568486129,2.2329730064361457 M 7.07587563593259,2.1555118088272693 M 7.113239967146209,2.0653063336623547 M 7.125984244702257,1.9685039350022735 M 6.878478492837089,1.968316093977974 L 6.875619894726129,1.9973367776025541 L 6.863944086732795,2.028357658986755 L 6.844637327351142,2.0552996079943697 L 6.8190153403271045,2.076326575324208 L 6.788824221734031,2.0900056079014377 L 6.756121446410862,2.095404502261593 "
  />
  <path id="face6-cut"
 style="fill:none;stroke:#0000FF;stroke-width:.05;stroke-miterlimit:4;stroke-dasharray:none;stroke-linejoin:round;stroke-linecap:round"
        d="M 2.272461585172042e-12,2.272461585172042e-12 L 2.272461585172042e-12,2.7559055090022597 L 2.755905509002271,2.755905509002274 L 4.232283460252263,1.3779527545022732 L 5.708661411502248,2.755905509002274 L 8.464566920502243,2.755905509002274 L 8.46456692050225,2.272461585172042e-12 L 2.272461585172042e-12,2.272461585172042e-12 M 7.016437568486129,2.2329730064361457 M 6.938976370877257,2.292411073882596 M 6.848770895712338,2.32977540509622 M 6.751968497052258,2.3425196826522723 M 6.655166098392178,2.32977540509622 M 6.5649606232272575,2.292411073882596 M 6.487499425618386,2.2329730064361457 M 6.428061358171933,2.1555118088272693 M 6.390697026958307,2.0653063336623547 M 6.377952749402257,1.9685039350022735 M 6.390697026958307,1.8717015363421923 M 6.428061358171933,1.7814960611772706 M 6.487499425618386,1.7040348635684013 M 6.5649606232272575,1.6445967961219439 M 6.655166098392178,1.60723246490832 M 6.751968497052258,1.5944881873522747 M 6.848770895712338,1.60723246490832 M 6.938976370877257,1.6445967961219439 M 7.016437568486129,1.7040348635684013 M 7.07587563593259,1.7814960611772706 M 7.113239967146209,1.8717015363421923 M 7.125984244702257,1.9685039350022735 M 7.113239967146209,2.0653063336623547 M 7.07587563593259,2.1555118088272693 M 4.6725209849049705,1.0658438660310652 M 4.583855675136264,1.0249588585052138 M 4.508793381141596,0.9625187030199088 M 4.452449474210395,0.8827785929842437 M 4.418663698487334,0.7911726851203925 M 4.411089515890886,0.7086614166022601 M 4.409738498754287,0.6939437706633514 M 4.426282112623469,0.5977178394549855 M 4.46716712014932,0.509052529686271 M 4.529607275634621,0.4339902356916015 M 4.60934738567028,0.37764632876041176 M 4.700953293534138,0.3438605530373438 M 4.783464562052258,0.3362863704408939 M 4.798182207991182,0.3349353533042874 M 4.894408139199552,0.3514789671734833 M 4.983073448968266,0.39236397469933465 M 5.058135742962933,0.45480413018462557 M 5.114479649894121,0.5345442402202908 M 5.148265425617195,0.6261501480841419 M 5.155839608213629,0.7086614166022743 M 5.157190625350243,0.7233790625411901 M 5.140647011481053,0.8196049937495632 M 5.099762003955196,0.9082703035182705 M 5.037321848469901,0.98333259751294 M 4.957581738434235,1.0396765044441367 M 4.8659758305703855,1.0734622801671976 M 4.783464562052258,1.0810364627636404 M 4.76874691611334,1.0823874799002469 M 4.005009497332592,0.5216535427772643 M 4.04237382854621,0.6118590179421931 M 4.055118106102267,0.7086614166022601 M 4.04237382854621,0.8054638152623484 M 4.005009497332592,0.8956692904272702 M 3.945571429886138,0.9731304880361465 M 3.868110232277266,1.0325685554826038 M 3.777904757112339,1.0699328866962134 M 3.6811023584522666,1.082677164252266 M 3.5842999597921796,1.0699328866962206 M 3.494094484627267,1.0325685554826038 M 3.4166332870183953,0.9731304880361465 M 3.3571952195719335,0.8956692904272702 M 3.319830888358308,0.8054638152623413 M 3.3070866108022656,0.7086614166022601 M 3.319830888358308,0.6118590179421931 M 3.3571952195719343,0.5216535427772643 M 3.4166332870183944,0.44419234516839495 M 3.494094484627266,0.38475427772194465 M 3.5842999597921796,0.34738994650832083 M 3.6811023584522666,0.3346456689522613 M 3.777904757112339,0.34738994650832083 M 3.868110232277266,0.38475427772194465 M 3.945571429886138,0.44419234516839495 M 1.891365869100312,1.9685039350022664 M 1.8900371761842913,1.9542058231220154 M 1.9064727615731865,1.8579613815697997 M 1.9472582124294568,1.769250232353818 M 2.0096140676784144,1.6941178936910206 M 2.0892908788327444,1.6376845102991013 M 2.1808575378850574,1.60723246490832 M 2.263779525252262,1.5960902788502538 M 2.2780776371325375,1.5947615859341853 M 2.374320322167398,1.60723246490832 M 2.463033227900715,1.6519826221794234 M 2.5381655665635168,1.7143384774284471 M 2.5945989499553357,1.7940152885827403 M 2.6284875362585858,1.8855832126344425 M 2.6361931814042117,1.9685039350022735 M 2.6375218743202327,1.9828020468825458 M 2.621086288931337,2.079046488434733 M 2.580300838075067,2.167757637650722 M 2.5179449828261093,2.2428899763135264 M 2.4382681716717793,2.299323359705346 M 2.3467002476200824,2.333211946008595 M 2.263779525252262,2.340917591154222 M 2.2494814133719863,2.342246284070241 M 2.1532369718197857,2.3258106986813503 M 2.064525822603809,2.2850252478250668 M 1.989393483941007,2.222669392576114 M 1.9329601005491883,2.1429925814217854 M 1.899071514245938,2.051424657370083 "
  />
  <path id="face7-cut"
 style="fill:none;stroke:#0000FF;stroke-width:.05;stroke-miterlimit:4;stroke-dasharray:none;stroke-linejoin:round;stroke-linecap:round"
        d="M 3.5552809011989215,0.7125773201778417 L 3.5551538788612222,0.7086614166022743 M 3.3070866108022656,0.7086614166022601 M 3.319830888358308,0.8054638152623413 M 3.3571952195719335,0.8956692904272702 M 3.4166332870183953,0.9731304880361465 M 3.494094484627267,1.0325685554826038 M 3.5842999597921796,1.0699328866962206 M 3.6811023584522666,1.082677164252266 M 3.6811023584522666,0.8346098961933196 L 3.668619521661961,0.8350148088985693 L 3.636342199671564,0.8274786255622631 L 3.607115208532415,0.811845245790059 L 3.5829303193907625,0.789180058578039 L 3.5654356924741784,0.7610276589787178 L 3.5558235576957977,0.7293065865007536 L 3.5552809011989215,0.7125773201778417 "
  />
  <path id="face8-cut"
 style="fill:none;stroke:#0000FF;stroke-width:.05;stroke-miterlimit:4;stroke-dasharray:none;stroke-linejoin:round;stroke-linecap:round"
        d="M 4.763337512990213,0.5832983325018534 L 4.783464562052258,0.5827287492792467 M 4.783464562052258,0.3362863704408939 M 4.700953293534138,0.3438605530373438 M 4.60934738567028,0.37764632876041176 M 4.529607275634621,0.4339902356916015 M 4.46716712014932,0.509052529686271 M 4.426282112623469,0.5977178394549855 M 4.409738498754287,0.6939437706633514 M 4.411089515890886,0.7086614166022601 M 4.657531894729229,0.7086614166022601 L 4.657441264623675,0.7054588704094643 L 4.657163857837451,0.6956562993803163 L 4.664833421993503,0.6634104103430035 L 4.680587502297342,0.634248302601455 L 4.703352484211102,0.6101573256055618 L 4.731576971838268,0.5927792396253994 L 4.763337512990213,0.5832983325018534 "
  />
  <path id="face9-cut"
 style="fill:none;stroke:#0000FF;stroke-width:.05;stroke-miterlimit:4;stroke-dasharray:none;stroke-linejoin:round;stroke-linecap:round"
        d="M 3.319830888358308,0.6118590179421931 M 3.3070866108022656,0.7086614166022601 M 3.5551538788612222,0.7086614166022743 L 3.5547489661559664,0.6961785798119694 L 3.562285149492274,0.6639012578215701 L 3.5779185292644837,0.6346742666824229 L 3.6005837164764984,0.6104893775407648 L 3.6287361160758107,0.5929947506241847 L 3.6604571885537776,0.5833826158457983 L 3.677186454876693,0.5828399593489296 L 3.6811023584522657,0.582712937011222 M 3.6811023584522666,0.3346456689522613 M 3.5842999597921796,0.34738994650832083 M 3.494094484627266,0.38475427772194465 M 3.4166332870183944,0.44419234516839495 M 3.3571952195719343,0.5216535427772643 "
  />
  <path id="face10-cut"
 style="fill:none;stroke:#0000FF;stroke-width:.05;stroke-miterlimit:4;stroke-dasharray:none;stroke-linejoin:round;stroke-linecap:round"
        d="M 3.8069238157056042,0.7047455130266999 L 3.80705083804331,0.7086614166022601 M 4.055118106102267,0.7086614166022601 M 4.04237382854621,0.6118590179421931 M 4.005009497332592,0.5216535427772643 M 3.945571429886138,0.44419234516839495 M 3.868110232277266,0.38475427772194465 M 3.777904757112339,0.34738994650832083 M 3.6811023584522666,0.3346456689522613 M 3.6811023584522657,0.582712937011222 L 3.6935851952425653,0.5823080243059723 L 3.7258625172329602,0.5898442076422784 L 3.755089508372104,0.6054775874144825 L 3.77927439751377,0.6281427746265026 L 3.7967690244303474,0.6562951742258166 L 3.8063811592087275,0.6880162467037879 L 3.8069238157056042,0.7047455130266999 "
  />
  <path id="face11-cut"
 style="fill:none;stroke:#0000FF;stroke-width:.05;stroke-miterlimit:4;stroke-dasharray:none;stroke-linejoin:round;stroke-linecap:round"
        d="M 2.2494814133719863,2.342246284070241 M 2.263779525252262,2.340917591154222 M 2.263779525252262,2.0947569720087658 L 2.248255171089814,2.093564588494742 L 2.237615197218859,2.0927473609759404 L 2.206350160206528,2.081742042499519 L 2.1789988395155477,2.06301973413199 L 2.1574251824508193,2.0378563302485007 L 2.143099398089149,2.007966675239223 L 2.1369977649602983,1.9753876996980808 L 2.137526488245776,1.9685039350022735 M 1.891365869100312,1.9685039350022664 M 1.899071514245938,2.051424657370083 M 1.9329601005491883,2.1429925814217854 M 1.989393483941007,2.222669392576114 M 2.064525822603809,2.2850252478250668 M 2.1532369718197857,2.3258106986813503 "
  />
  <path id="face12-cut"
 style="fill:none;stroke:#0000FF;stroke-width:.05;stroke-miterlimit:4;stroke-dasharray:none;stroke-linejoin:round;stroke-linecap:round"
        d="M 4.04237382854621,0.8054638152623484 M 4.055118106102267,0.7086614166022601 M 3.80705083804331,0.7086614166022601 L 3.807455750748559,0.7211442533925793 L 3.799919567412259,0.7534215753829644 L 3.7842861876400486,0.7826485665221187 L 3.761621000428034,0.8068334556637838 L 3.7334686008287146,0.8243280825803497 L 3.701747528350755,0.8339402173587361 L 3.6850182620278322,0.8344828738556048 L 3.6811023584522666,0.8346098961933196 M 3.6811023584522666,1.082677164252266 M 3.777904757112339,1.0699328866962134 M 3.868110232277266,1.0325685554826038 M 3.945571429886138,0.9731304880361465 M 4.005009497332592,0.8956692904272702 "
  />
  <path id="face13-cut"
 style="fill:none;stroke:#0000FF;stroke-width:.05;stroke-miterlimit:4;stroke-dasharray:none;stroke-linejoin:round;stroke-linecap:round"
        d="M 4.80359161111431,0.8340245007026882 L 4.783464562052258,0.8345940839252949 M 4.783464562052258,1.0810364627636404 M 4.8659758305703855,1.0734622801671976 M 4.957581738434235,1.0396765044441367 M 5.037321848469901,0.98333259751294 M 5.099762003955196,0.9082703035182705 M 5.140647011481053,0.8196049937495632 M 5.157190625350243,0.7233790625411901 M 5.155839608213629,0.7086614166022743 M 4.909397229375286,0.7086614166022601 L 4.909487859480846,0.7118639627950772 L 4.90976526626708,0.7216665338242253 L 4.902095702111012,0.7539124228615309 L 4.886341621807173,0.7830745306030865 L 4.86357663989342,0.8071655075989727 L 4.835352152266261,0.8245435935791351 L 4.80359161111431,0.8340245007026882 "
  />
  <path id="face14-cut"
 style="fill:none;stroke:#0000FF;stroke-width:.05;stroke-miterlimit:4;stroke-dasharray:none;stroke-linejoin:round;stroke-linecap:round"
        d="M 2.2568957605564477,1.8417221747102972 L 2.263779525252262,1.8422508979957883 M 2.263779525252262,1.5960902788502538 M 2.1808575378850574,1.60723246490832 M 2.0892908788327444,1.6376845102991013 M 2.0096140676784144,1.6941178936910206 M 1.9472582124294568,1.769250232353818 M 1.9064727615731865,1.8579613815697997 M 1.8900371761842913,1.9542058231220154 M 1.891365869100312,1.9685039350022664 M 2.137526488245776,1.9685039350022735 L 2.1387188717597847,1.952979580839822 L 2.1395360992785837,1.9423396069688779 L 2.150541417755006,1.9110745699565386 L 2.1692637261225522,1.8837232492655631 L 2.1944271300060323,1.8621495922008209 L 2.224316785015298,1.8478238078391613 L 2.2568957605564477,1.8417221747102972 "
  />
  <path id="face15-cut"
 style="fill:none;stroke:#0000FF;stroke-width:.05;stroke-miterlimit:4;stroke-dasharray:none;stroke-linejoin:round;stroke-linecap:round"
        d="M 2.2780776371325375,1.5947615859341853 M 2.263779525252262,1.5960902788502538 M 2.263779525252262,1.8422508979957883 L 2.279303879414709,1.8434432815097979 L 2.289943853285665,1.8442605090286137 L 2.321208890297996,1.8552658275050278 L 2.348560210988976,1.8739881358725499 L 2.3701338680537045,1.8991515397560321 L 2.3844596524153747,1.9290411947653028 L 2.3905612855442255,1.961620170306459 L 2.3900325622587477,1.9685039350022664 M 2.6361931814042117,1.9685039350022735 M 2.6284875362585858,1.8855832126344425 M 2.5945989499553357,1.7940152885827403 M 2.5381655665635168,1.7143384774284471 M 2.463033227900715,1.6519826221794234 M 2.374320322167398,1.60723246490832 "
  />
  <path id="face16-cut"
 style="fill:none;stroke:#0000FF;stroke-width:.05;stroke-miterlimit:4;stroke-dasharray:none;stroke-linejoin:round;stroke-linecap:round"
        d="M 2.2706632899480748,2.0952856952942356 L 2.263779525252262,2.0947569720087658 M 2.263779525252262,2.340917591154222 M 2.3467002476200824,2.333211946008595 M 2.4382681716717793,2.299323359705346 M 2.5179449828261093,2.2428899763135264 M 2.580300838075067,2.167757637650722 M 2.621086288931337,2.079046488434733 M 2.6375218743202327,1.9828020468825458 M 2.6361931814042117,1.9685039350022735 M 2.3900325622587477,1.9685039350022664 L 2.3888401787447395,1.984028289164732 L 2.38802295122594,1.9946682630356691 L 2.3770176327495176,2.0259333000480013 L 2.3582953243819715,2.053284620738984 L 2.333131920498491,2.074858277803712 L 2.3032422654892257,2.0891840621653786 L 2.2706632899480748,2.0952856952942356 "
  />
  <path id="face0-interior"
 style="fill:none;stroke:#FF0000;stroke-width:.05;stroke-miterlimit:4;stroke-dasharray:none;stroke-linejoin:round;stroke-linecap:round"
        d="M 6.848770895712338,1.60723246490832 L 6.751968497052258,1.5944881873522747 L 6.751780656027957,1.8419939392174443 M 6.780801339652538,1.8448525373283986 M 6.8118222210367385,1.8565283453217334 M 6.838764170044357,1.8758351047033899 M 6.8597911373741915,1.9014570917274214 M 6.873470169951424,1.9316482103204948 M 6.878869064311586,1.964350985643668 M 6.878478492837089,1.968316093977974 L 7.125984244702257,1.9685039350022735 L 7.113239967146209,1.8717015363421923 L 7.07587563593259,1.7814960611772706 L 7.016437568486129,1.7040348635684013 L 6.938976370877257,1.6445967961219439 L 6.848770895712338,1.60723246490832 "
  />
  <path id="face1-interior"
 style="fill:none;stroke:#FF0000;stroke-width:.05;stroke-miterlimit:4;stroke-dasharray:none;stroke-linejoin:round;stroke-linecap:round"
        d="M 4.76874691611334,1.0823874799002469 L 4.783464562052258,1.0810364627636404 L 4.783464562052258,0.8345940839252949 M 4.780262015859453,0.8346847140308556 M 4.770459444830306,0.8349621208170875 M 4.738213555793007,0.8272925566610271 M 4.709051448051446,0.811538476357177 M 4.684960471055563,0.7887734944434316 M 4.667582385075391,0.7605490068162682 M 4.658101477951845,0.7287884656643216 M 4.657531894729229,0.7086614166022601 L 4.411089515890886,0.7086614166022601 L 4.418663698487334,0.7911726851203925 L 4.452449474210395,0.8827785929842437 L 4.508793381141596,0.9625187030199088 L 4.583855675136264,1.0249588585052138 L 4.6725209849049705,1.0658438660310652 L 4.76874691611334,1.0823874799002469 "
  />
  <path id="face2-interior"
 style="fill:none;stroke:#FF0000;stroke-width:.05;stroke-miterlimit:4;stroke-dasharray:none;stroke-linejoin:round;stroke-linecap:round"
        d="M 6.655166098392178,2.32977540509622 L 6.751968497052258,2.3425196826522723 L 6.752156338076557,2.0950139307871027 M 6.723135654451977,2.0921553326761413 M 6.692114773067777,2.0804795246828136 M 6.66517282406016,2.061172765301157 M 6.644145856730325,2.0355507782771185 M 6.630466824153093,2.005359659684045 M 6.62506792979293,1.9726568843608718 M 6.625458501267427,1.968691776026573 L 6.377952749402257,1.9685039350022735 L 6.390697026958307,2.0653063336623547 L 6.428061358171933,2.1555118088272693 L 6.487499425618386,2.2329730064361457 L 6.5649606232272575,2.292411073882596 L 6.655166098392178,2.32977540509622 "
  />
  <path id="face3-interior"
 style="fill:none;stroke:#FF0000;stroke-width:.05;stroke-miterlimit:4;stroke-dasharray:none;stroke-linejoin:round;stroke-linecap:round"
        d="M 4.798182207991182,0.3349353533042874 L 4.783464562052258,0.3362863704408939 L 4.783464562052258,0.5827287492792467 M 4.7866671082450685,0.5826381191736788 M 4.7964696792742165,0.582360712387454 M 4.828715568311522,0.5900302765435216 M 4.857877676053076,0.6057843568473503 M 4.8819686530489665,0.62854933876111 M 4.899346739029132,0.6567738263882733 M 4.908827646152685,0.6885343675402199 M 4.909397229375286,0.7086614166022601 L 5.155839608213629,0.7086614166022743 L 5.148265425617195,0.6261501480841419 L 5.114479649894121,0.5345442402202908 L 5.058135742962933,0.45480413018462557 L 4.983073448968266,0.39236397469933465 L 4.894408139199552,0.3514789671734833 L 4.798182207991182,0.3349353533042874 "
  />
  <path id="face4-interior"
 style="fill:none;stroke:#FF0000;stroke-width:.05;stroke-miterlimit:4;stroke-dasharray:none;stroke-linejoin:round;stroke-linecap:round"
        d="M 6.747815547693654,1.8416033677429398 M 6.751780656027957,1.8419939392174443 M 6.751968497052258,1.5944881873522747 L 6.655166098392178,1.60723246490832 L 6.5649606232272575,1.6445967961219439 L 6.487499425618386,1.7040348635684013 L 6.428061358171933,1.7814960611772706 L 6.390697026958307,1.8717015363421923 L 6.377952749402257,1.9685039350022735 M 6.625458501267427,1.968691776026573 M 6.628317099378386,1.9396710924019929 M 6.63999290737172,1.9086502110177777 M 6.659299666753372,1.8817082620101773 M 6.68492165377741,1.8606812946803388 M 6.715112772370484,1.8470022621031092 "
  />
  <path id="face5-interior"
 style="fill:none;stroke:#FF0000;stroke-width:.05;stroke-miterlimit:4;stroke-dasharray:none;stroke-linejoin:round;stroke-linecap:round"
        d="M 6.756121446410862,2.095404502261593 M 6.752156338076557,2.0950139307871027 M 6.751968497052258,2.3425196826522723 L 6.848770895712338,2.32977540509622 L 6.938976370877257,2.292411073882596 L 7.016437568486129,2.2329730064361457 L 7.07587563593259,2.1555118088272693 L 7.113239967146209,2.0653063336623547 L 7.125984244702257,1.9685039350022735 M 6.878478492837089,1.968316093977974 M 6.875619894726129,1.9973367776025541 M 6.863944086732795,2.028357658986755 M 6.844637327351142,2.0552996079943697 M 6.8190153403271045,2.076326575324208 M 6.788824221734031,2.0900056079014377 "
  />
  <path id="face6-interior"
 style="fill:none;stroke:#FF0000;stroke-width:.05;stroke-miterlimit:4;stroke-dasharray:none;stroke-linejoin:round;stroke-linecap:round"
        d="M 2.272461585172042e-12,2.272461585172042e-12 M 2.272461585172042e-12,2.7559055090022597 M 2.755905509002271,2.755905509002274 M 4.232283460252263,1.3779527545022732 M 5.708661411502248,2.755905509002274 M 8.464566920502243,2.755905509002274 M 8.46456692050225,2.272461585172042e-12 M 7.016437568486129,2.2329730064361457 M 6.938976370877257,2.292411073882596 M 6.848770895712338,2.32977540509622 M 6.751968497052258,2.3425196826522723 M 6.655166098392178,2.32977540509622 M 6.5649606232272575,2.292411073882596 M 6.487499425618386,2.2329730064361457 M 6.428061358171933,2.1555118088272693 M 6.390697026958307,2.0653063336623547 M 6.377952749402257,1.9685039350022735 M 6.390697026958307,1.8717015363421923 M 6.428061358171933,1.7814960611772706 M 6.487499425618386,1.7040348635684013 M 6.5649606232272575,1.6445967961219439 M 6.655166098392178,1.60723246490832 M 6.751968497052258,1.5944881873522747 M 6.848770895712338,1.60723246490832 M 6.938976370877257,1.6445967961219439 M 7.016437568486129,1.7040348635684013 M 7.07587563593259,1.7814960611772706 M 7.113239967146209,1.8717015363421923 M 7.125984244702257,1.9685039350022735 M 7.113239967146209,2.0653063336623547 M 7.07587563593259,2.1555118088272693 M 4.6725209849049705,1.0658438660310652 M 4.583855675136264,1.0249588585052138 M 4.508793381141596,0.9625187030199088 M 4.452449474210395,0.8827785929842437 M 4.418663698487334,0.7911726851203925 M 4.411089515890886,0.7086614166022601 L 4.409738498754287,0.6939437706633514 L 4.426282112623469,0.5977178394549855 L 4.46716712014932,0.509052529686271 L 4.529607275634621,0.4339902356916015 L 4.60934738567028,0.37764632876041176 L 4.700953293534138,0.3438605530373438 L 4.783464562052258,0.3362863704408939 M 4.798182207991182,0.3349353533042874 M 4.894408139199552,0.3514789671734833 M 4.983073448968266,0.39236397469933465 M 5.058135742962933,0.45480413018462557 M 5.114479649894121,0.5345442402202908 M 5.148265425617195,0.6261501480841419 M 5.155839608213629,0.7086614166022743 L 5.157190625350243,0.7233790625411901 L 5.140647011481053,0.8196049937495632 L 5.099762003955196,0.9082703035182705 L 5.037321848469901,0.98333259751294 L 4.957581738434235,1.0396765044441367 L 4.8659758305703855,1.0734622801671976 L 4.783464562052258,1.0810364627636404 M 4.76874691611334,1.0823874799002469 M 4.005009497332592,0.5216535427772643 L 4.04237382854621,0.6118590179421931 L 4.055118106102267,0.7086614166022601 L 4.04237382854621,0.8054638152623484 L 4.005009497332592,0.8956692904272702 L 3.945571429886138,0.9731304880361465 L 3.868110232277266,1.0325685554826038 L 3.777904757112339,1.0699328866962134 L 3.6811023584522666,1.082677164252266 L 3.5842999597921796,1.0699328866962206 L 3.494094484627267,1.0325685554826038 L 3.4166332870183953,0.9731304880361465 L 3.3571952195719335,0.8956692904272702 L 3.319830888358308,0.8054638152623413 L 3.3070866108022656,0.7086614166022601 L 3.319830888358308,0.6118590179421931 L 3.3571952195719343,0.5216535427772643 L 3.4166332870183944,0.44419234516839495 L 3.494094484627266,0.38475427772194465 L 3.5842999597921796,0.34738994650832083 L 3.6811023584522666,0.3346456689522613 L 3.777904757112339,0.34738994650832083 L 3.868110232277266,0.38475427772194465 L 3.945571429886138,0.44419234516839495 L 4.005009497332592,0.5216535427772643 M 1.891365869100312,1.9685039350022664 L 1.8900371761842913,1.9542058231220154 L 1.9064727615731865,1.8579613815697997 L 1.9472582124294568,1.769250232353818 L 2.0096140676784144,1.6941178936910206 L 2.0892908788327444,1.6376845102991013 L 2.1808575378850574,1.60723246490832 L 2.263779525252262,1.5960902788502538 L 2.2780776371325375,1.5947615859341853 L 2.374320322167398,1.60723246490832 L 2.463033227900715,1.6519826221794234 L 2.5381655665635168,1.7143384774284471 L 2.5945989499553357,1.7940152885827403 L 2.6284875362585858,1.8855832126344425 L 2.6361931814042117,1.9685039350022735 L 2.6375218743202327,1.9828020468825458 L 2.621086288931337,2.079046488434733 L 2.580300838075067,2.167757637650722 L 2.5179449828261093,2.2428899763135264 L 2.4382681716717793,2.299323359705346 L 2.3467002476200824,2.333211946008595 L 2.263779525252262,2.340917591154222 L 2.2494814133719863,2.342246284070241 L 2.1532369718197857,2.3258106986813503 L 2.064525822603809,2.2850252478250668 L 1.989393483941007,2.222669392576114 L 1.9329601005491883,2.1429925814217854 L 1.899071514245938,2.051424657370083 L 1.891365869100312,1.9685039350022664 "
  />
  <path id="face7-interior"
 style="fill:none;stroke:#FF0000;stroke-width:.05;stroke-miterlimit:4;stroke-dasharray:none;stroke-linejoin:round;stroke-linecap:round"
        d="M 3.5552809011989215,0.7125773201778417 M 3.5551538788612222,0.7086614166022743 L 3.3070866108022656,0.7086614166022601 M 3.319830888358308,0.8054638152623413 M 3.3571952195719335,0.8956692904272702 M 3.4166332870183953,0.9731304880361465 M 3.494094484627267,1.0325685554826038 M 3.5842999597921796,1.0699328866962206 M 3.6811023584522666,1.082677164252266 L 3.6811023584522666,0.8346098961933196 M 3.668619521661961,0.8350148088985693 M 3.636342199671564,0.8274786255622631 M 3.607115208532415,0.811845245790059 M 3.5829303193907625,0.789180058578039 M 3.5654356924741784,0.7610276589787178 M 3.5558235576957977,0.7293065865007536 "
  />
  <path id="face8-interior"
 style="fill:none;stroke:#FF0000;stroke-width:.05;stroke-miterlimit:4;stroke-dasharray:none;stroke-linejoin:round;stroke-linecap:round"
        d="M 4.763337512990213,0.5832983325018534 M 4.783464562052258,0.5827287492792467 M 4.783464562052258,0.3362863704408939 M 4.700953293534138,0.3438605530373438 M 4.60934738567028,0.37764632876041176 M 4.529607275634621,0.4339902356916015 M 4.46716712014932,0.509052529686271 M 4.426282112623469,0.5977178394549855 M 4.409738498754287,0.6939437706633514 M 4.411089515890886,0.7086614166022601 M 4.657531894729229,0.7086614166022601 M 4.657441264623675,0.7054588704094643 M 4.657163857837451,0.6956562993803163 M 4.664833421993503,0.6634104103430035 M 4.680587502297342,0.634248302601455 M 4.703352484211102,0.6101573256055618 M 4.731576971838268,0.5927792396253994 "
  />
  <path id="face9-interior"
 style="fill:none;stroke:#FF0000;stroke-width:.05;stroke-miterlimit:4;stroke-dasharray:none;stroke-linejoin:round;stroke-linecap:round"
        d="M 3.319830888358308,0.6118590179421931 M 3.3070866108022656,0.7086614166022601 M 3.5551538788612222,0.7086614166022743 M 3.5547489661559664,0.6961785798119694 M 3.562285149492274,0.6639012578215701 M 3.5779185292644837,0.6346742666824229 M 3.6005837164764984,0.6104893775407648 M 3.6287361160758107,0.5929947506241847 M 3.6604571885537776,0.5833826158457983 M 3.677186454876693,0.5828399593489296 M 3.6811023584522657,0.582712937011222 L 3.6811023584522666,0.3346456689522613 M 3.5842999597921796,0.34738994650832083 M 3.494094484627266,0.38475427772194465 M 3.4166332870183944,0.44419234516839495 M 3.3571952195719343,0.5216535427772643 "
  />
  <path id="face10-interior"
 style="fill:none;stroke:#FF0000;stroke-width:.05;stroke-miterlimit:4;stroke-dasharray:none;stroke-linejoin:round;stroke-linecap:round"
        d="M 3.8069238157056042,0.7047455130266999 M 3.80705083804331,0.7086614166022601 L 4.055118106102267,0.7086614166022601 M 4.04237382854621,0.6118590179421931 M 4.005009497332592,0.5216535427772643 M 3.945571429886138,0.44419234516839495 M 3.868110232277266,0.38475427772194465 M 3.777904757112339,0.34738994650832083 M 3.6811023584522666,0.3346456689522613 M 3.6811023584522657,0.582712937011222 M 3.6935851952425653,0.5823080243059723 M 3.7258625172329602,0.5898442076422784 M 3.755089508372104,0.6054775874144825 M 3.77927439751377,0.6281427746265026 M 3.7967690244303474,0.6562951742258166 M 3.8063811592087275,0.6880162467037879 "
  />
  <path id="face11-interior"
 style="fill:none;stroke:#FF0000;stroke-width:.05;stroke-miterlimit:4;stroke-dasharray:none;stroke-linejoin:round;stroke-linecap:round"
        d="M 2.2494814133719863,2.342246284070241 M 2.263779525252262,2.340917591154222 L 2.263779525252262,2.0947569720087658 M 2.248255171089814,2.093564588494742 M 2.237615197218859,2.0927473609759404 M 2.206350160206528,2.081742042499519 M 2.1789988395155477,2.06301973413199 M 2.1574251824508193,2.0378563302485007 M 2.143099398089149,2.007966675239223 M 2.1369977649602983,1.9753876996980808 M 2.137526488245776,1.9685039350022735 L 1.891365869100312,1.9685039350022664 M 1.899071514245938,2.051424657370083 M 1.9329601005491883,2.1429925814217854 M 1.989393483941007,2.222669392576114 M 2.064525822603809,2.2850252478250668 M 2.1532369718197857,2.3258106986813503 "
  />
  <path id="face12-interior"
 style="fill:none;stroke:#FF0000;stroke-width:.05;stroke-miterlimit:4;stroke-dasharray:none;stroke-linejoin:round;stroke-linecap:round"
        d="M 4.04237382854621,0.8054638152623484 M 4.055118106102267,0.7086614166022601 M 3.80705083804331,0.7086614166022601 M 3.807455750748559,0.7211442533925793 M 3.799919567412259,0.7534215753829644 M 3.7842861876400486,0.7826485665221187 M 3.761621000428034,0.8068334556637838 M 3.7334686008287146,0.8243280825803497 M 3.701747528350755,0.8339402173587361 M 3.6850182620278322,0.8344828738556048 M 3.6811023584522666,0.8346098961933196 M 3.6811023584522666,1.082677164252266 M 3.777904757112339,1.0699328866962134 M 3.868110232277266,1.0325685554826038 M 3.945571429886138,0.9731304880361465 M 4.005009497332592,0.8956692904272702 "
  />
  <path id="face13-interior"
 style="fill:none;stroke:#FF0000;stroke-width:.05;stroke-miterlimit:4;stroke-dasharray:none;stroke-linejoin:round;stroke-linecap:round"
        d="M 4.80359161111431,0.8340245007026882 M 4.783464562052258,0.8345940839252949 M 4.783464562052258,1.0810364627636404 M 4.8659758305703855,1.0734622801671976 M 4.957581738434235,1.0396765044441367 M 5.037321848469901,0.98333259751294 M 5.099762003955196,0.9082703035182705 M 5.140647011481053,0.8196049937495632 M 5.157190625350243,0.7233790625411901 M 5.155839608213629,0.7086614166022743 M 4.909397229375286,0.7086614166022601 M 4.909487859480846,0.7118639627950772 M 4.90976526626708,0.7216665338242253 M 4.902095702111012,0.7539124228615309 M 4.886341621807173,0.7830745306030865 M 4.86357663989342,0.8071655075989727 M 4.835352152266261,0.8245435935791351 "
  />
  <path id="face14-interior"
 style="fill:none;stroke:#FF0000;stroke-width:.05;stroke-miterlimit:4;stroke-dasharray:none;stroke-linejoin:round;stroke-linecap:round"
        d="M 2.2568957605564477,1.8417221747102972 M 2.263779525252262,1.8422508979957883 L 2.263779525252262,1.5960902788502538 M 2.1808575378850574,1.60723246490832 M 2.0892908788327444,1.6376845102991013 M 2.0096140676784144,1.6941178936910206 M 1.9472582124294568,1.769250232353818 M 1.9064727615731865,1.8579613815697997 M 1.8900371761842913,1.9542058231220154 M 1.891365869100312,1.9685039350022664 M 2.137526488245776,1.9685039350022735 M 2.1387188717597847,1.952979580839822 M 2.1395360992785837,1.9423396069688779 M 2.150541417755006,1.9110745699565386 M 2.1692637261225522,1.8837232492655631 M 2.1944271300060323,1.8621495922008209 M 2.224316785015298,1.8478238078391613 "
  />
  <path id="face15-interior"
 style="fill:none;stroke:#FF0000;stroke-width:.05;stroke-miterlimit:4;stroke-dasharray:none;stroke-linejoin:round;stroke-linecap:round"
        d="M 2.2780776371325375,1.5947615859341853 M 2.263779525252262,1.5960902788502538 M 2.263779525252262,1.8422508979957883 M 2.279303879414709,1.8434432815097979 M 2.289943853285665,1.8442605090286137 M 2.321208890297996,1.8552658275050278 M 2.348560210988976,1.8739881358725499 M 2.3701338680537045,1.8991515397560321 M 2.3844596524153747,1.9290411947653028 M 2.3905612855442255,1.961620170306459 M 2.3900325622587477,1.9685039350022664 L 2.6361931814042117,1.9685039350022735 M 2.6284875362585858,1.8855832126344425 M 2.5945989499553357,1.7940152885827403 M 2.5381655665635168,1.7143384774284471 M 2.463033227900715,1.6519826221794234 M 2.374320322167398,1.60723246490832 "
  />
  <path id="face16-interior"
 style="fill:none;stroke:#FF0000;stroke-width:.05;stroke-miterlimit:4;stroke-dasharray:none;stroke-linejoin:round;stroke-linecap:round"
        d="M 2.2706632899480748,2.0952856952942356 M 2.263779525252262,2.0947569720087658 M 2.263779525252262,2.340917591154222 M 2.3467002476200824,2.333211946008595 M 2.4382681716717793,2.299323359705346 M 2.5179449828261093,2.2428899763135264 M 2.580300838075067,2.167757637650722 M 2.621086288931337,2.079046488434733 M 2.6375218743202327,1.9828020468825458 M 2.6361931814042117,1.9685039350022735 M 2.3900325622587477,1.9685039350022664 M 2.3888401787447395,1.984028289164732 M 2.38802295122594,1.9946682630356691 M 2.3770176327495176,2.0259333000480013 M 2.3582953243819715,2.053284620738984 M 2.333131920498491,2.074858277803712 M 2.3032422654892257,2.0891840621653786 "
  />
  <path id="face0-interior"
 style="fill:none;stroke:#00FF00;stroke-width:.05;stroke-miterlimit:4;stroke-dasharray:none;stroke-linejoin:round;stroke-linecap:round"
        d="M 6.848770895712338,1.60723246490832 M 6.751968497052258,1.5944881873522747 M 6.751780656027957,1.8419939392174443 M 6.780801339652538,1.8448525373283986 M 6.8118222210367385,1.8565283453217334 M 6.838764170044357,1.8758351047033899 M 6.8597911373741915,1.9014570917274214 M 6.873470169951424,1.9316482103204948 M 6.878869064311586,1.964350985643668 M 6.878478492837089,1.968316093977974 M 7.125984244702257,1.9685039350022735 M 7.113239967146209,1.8717015363421923 M 7.07587563593259,1.7814960611772706 M 7.016437568486129,1.7040348635684013 M 6.938976370877257,1.6445967961219439 "
  />
  <path id="face1-interior"
 style="fill:none;stroke:#00FF00;stroke-width:.05;stroke-miterlimit:4;stroke-dasharray:none;stroke-linejoin:round;stroke-linecap:round"
        d="M 4.76874691611334,1.0823874799002469 M 4.783464562052258,1.0810364627636404 M 4.783464562052258,0.8345940839252949 M 4.780262015859453,0.8346847140308556 M 4.770459444830306,0.8349621208170875 M 4.738213555793007,0.8272925566610271 M 4.709051448051446,0.811538476357177 M 4.684960471055563,0.7887734944434316 M 4.667582385075391,0.7605490068162682 M 4.658101477951845,0.7287884656643216 M 4.657531894729229,0.7086614166022601 M 4.411089515890886,0.7086614166022601 M 4.418663698487334,0.7911726851203925 M 4.452449474210395,0.8827785929842437 M 4.508793381141596,0.9625187030199088 M 4.583855675136264,1.0249588585052138 M 4.6725209849049705,1.0658438660310652 "
  />
  <path id="face2-interior"
 style="fill:none;stroke:#00FF00;stroke-width:.05;stroke-miterlimit:4;stroke-dasharray:none;stroke-linejoin:round;stroke-linecap:round"
        d="M 6.655166098392178,2.32977540509622 M 6.751968497052258,2.3425196826522723 M 6.752156338076557,2.0950139307871027 M 6.723135654451977,2.0921553326761413 M 6.692114773067777,2.0804795246828136 M 6.66517282406016,2.061172765301157 M 6.644145856730325,2.0355507782771185 M 6.630466824153093,2.005359659684045 M 6.62506792979293,1.9726568843608718 M 6.625458501267427,1.968691776026573 M 6.377952749402257,1.9685039350022735 M 6.390697026958307,2.0653063336623547 M 6.428061358171933,2.1555118088272693 M 6.487499425618386,2.2329730064361457 M 6.5649606232272575,2.292411073882596 "
  />
  <path id="face3-interior"
 style="fill:none;stroke:#00FF00;stroke-width:.05;stroke-miterlimit:4;stroke-dasharray:none;stroke-linejoin:round;stroke-linecap:round"
        d="M 4.798182207991182,0.3349353533042874 M 4.783464562052258,0.3362863704408939 M 4.783464562052258,0.5827287492792467 M 4.7866671082450685,0.5826381191736788 M 4.7964696792742165,0.582360712387454 M 4.828715568311522,0.5900302765435216 M 4.857877676053076,0.6057843568473503 M 4.8819686530489665,0.62854933876111 M 4.899346739029132,0.6567738263882733 M 4.908827646152685,0.6885343675402199 M 4.909397229375286,0.7086614166022601 M 5.155839608213629,0.7086614166022743 M 5.148265425617195,0.6261501480841419 M 5.114479649894121,0.5345442402202908 M 5.058135742962933,0.45480413018462557 M 4.983073448968266,0.39236397469933465 M 4.894408139199552,0.3514789671734833 "
  />
  <path id="face4-interior"
 style="fill:none;stroke:#00FF00;stroke-width:.05;stroke-miterlimit:4;stroke-dasharray:none;stroke-linejoin:round;stroke-linecap:round"
        d="M 6.747815547693654,1.8416033677429398 M 6.751780656027957,1.8419939392174443 M 6.751968497052258,1.5944881873522747 M 6.655166098392178,1.60723246490832 M 6.5649606232272575,1.6445967961219439 M 6.487499425618386,1.7040348635684013 M 6.428061358171933,1.7814960611772706 M 6.390697026958307,1.8717015363421923 M 6.377952749402257,1.9685039350022735 M 6.625458501267427,1.968691776026573 M 6.628317099378386,1.9396710924019929 M 6.63999290737172,1.9086502110177777 M 6.659299666753372,1.8817082620101773 M 6.68492165377741,1.8606812946803388 M 6.715112772370484,1.8470022621031092 "
  />
  <path id="face5-interior"
 style="fill:none;stroke:#00FF00;stroke-width:.05;stroke-miterlimit:4;stroke-dasharray:none;stroke-linejoin:round;stroke-linecap:round"
        d="M 6.756121446410862,2.095404502261593 M 6.752156338076557,2.0950139307871027 M 6.751968497052258,2.3425196826522723 M 6.848770895712338,2.32977540509622 M 6.938976370877257,2.292411073882596 M 7.016437568486129,2.2329730064361457 M 7.07587563593259,2.1555118088272693 M 7.113239967146209,2.0653063336623547 M 7.125984244702257,1.9685039350022735 M 6.878478492837089,1.968316093977974 M 6.875619894726129,1.9973367776025541 M 6.863944086732795,2.028357658986755 M 6.844637327351142,2.0552996079943697 M 6.8190153403271045,2.076326575324208 M 6.788824221734031,2.0900056079014377 "
  />
  <path id="face6-interior"
 style="fill:none;stroke:#00FF00;stroke-width:.05;stroke-miterlimit:4;stroke-dasharray:none;stroke-linejoin:round;stroke-linecap:round"
        d="M 2.272461585172042e-12,2.272461585172042e-12 M 2.272461585172042e-12,2.7559055090022597 M 2.755905509002271,2.755905509002274 M 4.232283460252263,1.3779527545022732 M 5.708661411502248,2.755905509002274 M 8.464566920502243,2.755905509002274 M 8.46456692050225,2.272461585172042e-12 M 7.016437568486129,2.2329730064361457 M 6.938976370877257,2.292411073882596 M 6.848770895712338,2.32977540509622 M 6.751968497052258,2.3425196826522723 M 6.655166098392178,2.32977540509622 M 6.5649606232272575,2.292411073882596 M 6.487499425618386,2.2329730064361457 M 6.428061358171933,2.1555118088272693 M 6.390697026958307,2.0653063336623547 M 6.377952749402257,1.9685039350022735 M 6.390697026958307,1.8717015363421923 M 6.428061358171933,1.7814960611772706 M 6.487499425618386,1.7040348635684013 M 6.5649606232272575,1.6445967961219439 M 6.655166098392178,1.60723246490832 M 6.751968497052258,1.5944881873522747 M 6.848770895712338,1.60723246490832 M 6.938976370877257,1.6445967961219439 M 7.016437568486129,1.7040348635684013 M 7.07587563593259,1.7814960611772706 M 7.113239967146209,1.8717015363421923 M 7.125984244702257,1.9685039350022735 M 7.113239967146209,2.0653063336623547 M 7.07587563593259,2.1555118088272693 M 4.6725209849049705,1.0658438660310652 M 4.583855675136264,1.0249588585052138 M 4.508793381141596,0.9625187030199088 M 4.452449474210395,0.8827785929842437 M 4.418663698487334,0.7911726851203925 M 4.411089515890886,0.7086614166022601 M 4.409738498754287,0.6939437706633514 M 4.426282112623469,0.5977178394549855 M 4.46716712014932,0.509052529686271 M 4.529607275634621,0.4339902356916015 M 4.60934738567028,0.37764632876041176 M 4.700953293534138,0.3438605530373438 M 4.783464562052258,0.3362863704408939 M 4.798182207991182,0.3349353533042874 M 4.894408139199552,0.3514789671734833 M 4.983073448968266,0.39236397469933465 M 5.058135742962933,0.45480413018462557 M 5.114479649894121,0.5345442402202908 M 5.148265425617195,0.6261501480841419 M 5.155839608213629,0.7086614166022743 M 5.157190625350243,0.7233790625411901 M 5.140647011481053,0.8196049937495632 M 5.099762003955196,0.9082703035182705 M 5.037321848469901,0.98333259751294 M 4.957581738434235,1.0396765044441367 M 4.8659758305703855,1.0734622801671976 M 4.783464562052258,1.0810364627636404 M 4.76874691611334,1.0823874799002469 M 4.005009497332592,0.5216535427772643 M 4.04237382854621,0.6118590179421931 M 4.055118106102267,0.7086614166022601 M 4.04237382854621,0.8054638152623484 M 4.005009497332592,0.8956692904272702 M 3.945571429886138,0.9731304880361465 M 3.868110232277266,1.0325685554826038 M 3.777904757112339,1.0699328866962134 M 3.6811023584522666,1.082677164252266 M 3.5842999597921796,1.0699328866962206 M 3.494094484627267,1.0325685554826038 M 3.4166332870183953,0.9731304880361465 M 3.3571952195719335,0.8956692904272702 M 3.319830888358308,0.8054638152623413 M 3.3070866108022656,0.7086614166022601 M 3.319830888358308,0.6118590179421931 M 3.3571952195719343,0.5216535427772643 M 3.4166332870183944,0.44419234516839495 M 3.494094484627266,0.38475427772194465 M 3.5842999597921796,0.34738994650832083 M 3.6811023584522666,0.3346456689522613 M 3.777904757112339,0.34738994650832083 M 3.868110232277266,0.38475427772194465 M 3.945571429886138,0.44419234516839495 M 1.891365869100312,1.9685039350022664 M 1.8900371761842913,1.9542058231220154 M 1.9064727615731865,1.8579613815697997 M 1.9472582124294568,1.769250232353818 M 2.0096140676784144,1.6941178936910206 M 2.0892908788327444,1.6376845102991013 M 2.1808575378850574,1.60723246490832 M 2.263779525252262,1.5960902788502538 M 2.2780776371325375,1.5947615859341853 M 2.374320322167398,1.60723246490832 M 2.463033227900715,1.6519826221794234 M 2.5381655665635168,1.7143384774284471 M 2.5945989499553357,1.7940152885827403 M 2.6284875362585858,1.8855832126344425 M 2.6361931814042117,1.9685039350022735 M 2.6375218743202327,1.9828020468825458 M 2.621086288931337,2.079046488434733 M 2.580300838075067,2.167757637650722 M 2.5179449828261093,2.2428899763135264 M 2.4382681716717793,2.299323359705346 M 2.3467002476200824,2.333211946008595 M 2.263779525252262,2.340917591154222 M 2.2494814133719863,2.342246284070241 M 2.1532369718197857,2.3258106986813503 M 2.064525822603809,2.2850252478250668 M 1.989393483941007,2.222669392576114 M 1.9329601005491883,2.1429925814217854 M 1.899071514245938,2.051424657370083 "
  />
  <path id="face7-interior"
 style="fill:none;stroke:#00FF00;stroke-width:.05;stroke-miterlimit:4;stroke-dasharray:none;stroke-linejoin:round;stroke-linecap:round"
        d="M 3.5552809011989215,0.7125773201778417 M 3.5551538788612222,0.7086614166022743 M 3.3070866108022656,0.7086614166022601 M 3.319830888358308,0.8054638152623413 M 3.3571952195719335,0.8956692904272702 M 3.4166332870183953,0.9731304880361465 M 3.494094484627267,1.0325685554826038 M 3.5842999597921796,1.0699328866962206 M 3.6811023584522666,1.082677164252266 M 3.6811023584522666,0.8346098961933196 M 3.668619521661961,0.8350148088985693 M 3.636342199671564,0.8274786255622631 M 3.607115208532415,0.811845245790059 M 3.5829303193907625,0.789180058578039 M 3.5654356924741784,0.7610276589787178 M 3.5558235576957977,0.7293065865007536 "
  />
  <path id="face8-interior"
 style="fill:none;stroke:#00FF00;stroke-width:.05;stroke-miterlimit:4;stroke-dasharray:none;stroke-linejoin:round;stroke-linecap:round"
        d="M 4.763337512990213,0.5832983325018534 M 4.783464562052258,0.5827287492792467 M 4.783464562052258,0.3362863704408939 M 4.700953293534138,0.3438605530373438 M 4.60934738567028,0.37764632876041176 M 4.529607275634621,0.4339902356916015 M 4.46716712014932,0.509052529686271 M 4.426282112623469,0.5977178394549855 M 4.409738498754287,0.6939437706633514 M 4.411089515890886,0.7086614166022601 M 4.657531894729229,0.7086614166022601 M 4.657441264623675,0.7054588704094643 M 4.657163857837451,0.6956562993803163 M 4.664833421993503,0.6634104103430035 M 4.680587502297342,0.634248302601455 M 4.703352484211102,0.6101573256055618 M 4.731576971838268,0.5927792396253994 "
  />
  <path id="face9-interior"
 style="fill:none;stroke:#00FF00;stroke-width:.05;stroke-miterlimit:4;stroke-dasharray:none;stroke-linejoin:round;stroke-linecap:round"
        d="M 3.319830888358308,0.6118590179421931 M 3.3070866108022656,0.7086614166022601 M 3.5551538788612222,0.7086614166022743 M 3.5547489661559664,0.6961785798119694 M 3.562285149492274,0.6639012578215701 M 3.5779185292644837,0.6346742666824229 M 3.6005837164764984,0.6104893775407648 M 3.6287361160758107,0.5929947506241847 M 3.6604571885537776,0.5833826158457983 M 3.677186454876693,0.5828399593489296 M 3.6811023584522657,0.582712937011222 M 3.6811023584522666,0.3346456689522613 M 3.5842999597921796,0.34738994650832083 M 3.494094484627266,0.38475427772194465 M 3.4166332870183944,0.44419234516839495 M 3.3571952195719343,0.5216535427772643 "
  />
  <path id="face10-interior"
 style="fill:none;stroke:#00FF00;stroke-width:.05;stroke-miterlimit:4;stroke-dasharray:none;stroke-linejoin:round;stroke-linecap:round"
        d="M 3.8069238157056042,0.7047455130266999 M 3.80705083804331,0.7086614166022601 M 4.055118106102267,0.7086614166022601 M 4.04237382854621,0.6118590179421931 M 4.005009497332592,0.5216535427772643 M 3.945571429886138,0.44419234516839495 M 3.868110232277266,0.38475427772194465 M 3.777904757112339,0.34738994650832083 M 3.6811023584522666,0.3346456689522613 M 3.6811023584522657,0.582712937011222 M 3.6935851952425653,0.5823080243059723 M 3.7258625172329602,0.5898442076422784 M 3.755089508372104,0.6054775874144825 M 3.77927439751377,0.6281427746265026 M 3.7967690244303474,0.6562951742258166 M 3.8063811592087275,0.6880162467037879 "
  />
  <path id="face11-interior"
 style="fill:none;stroke:#00FF00;stroke-width:.05;stroke-miterlimit:4;stroke-dasharray:none;stroke-linejoin:round;stroke-linecap:round"
        d="M 2.2494814133719863,2.342246284070241 M 2.263779525252262,2.340917591154222 M 2.263779525252262,2.0947569720087658 M 2.248255171089814,2.093564588494742 M 2.237615197218859,2.0927473609759404 M 2.206350160206528,2.081742042499519 M 2.1789988395155477,2.06301973413199 M 2.1574251824508193,2.0378563302485007 M 2.143099398089149,2.007966675239223 M 2.1369977649602983,1.9753876996980808 M 2.137526488245776,1.9685039350022735 M 1.891365869100312,1.9685039350022664 M 1.899071514245938,2.051424657370083 M 1.9329601005491883,2.1429925814217854 M 1.989393483941007,2.222669392576114 M 2.064525822603809,2.2850252478250668 M 2.1532369718197857,2.3258106986813503 "
  />
  <path id="face12-interior"
 style="fill:none;stroke:#00FF00;stroke-width:.05;stroke-miterlimit:4;stroke-dasharray:none;stroke-linejoin:round;stroke-linecap:round"
        d="M 4.04237382854621,0.8054638152623484 M 4.055118106102267,0.7086614166022601 M 3.80705083804331,0.7086614166022601 M 3.807455750748559,0.7211442533925793 M 3.799919567412259,0.7534215753829644 M 3.7842861876400486,0.7826485665221187 M 3.761621000428034,0.8068334556637838 M 3.7334686008287146,0.8243280825803497 M 3.701747528350755,0.8339402173587361 M 3.6850182620278322,0.8344828738556048 M 3.6811023584522666,0.8346098961933196 M 3.6811023584522666,1.082677164252266 M 3.777904757112339,1.0699328866962134 M 3.868110232277266,1.0325685554826038 M 3.945571429886138,0.9731304880361465 M 4.005009497332592,0.8956692904272702 "
  />
  <path id="face13-interior"
 style="fill:none;stroke:#00FF00;stroke-width:.05;stroke-miterlimit:4;stroke-dasharray:none;stroke-linejoin:round;stroke-linecap:round"
        d="M 4.80359161111431,0.8340245007026882 M 4.783464562052258,0.8345940839252949 M 4.783464562052258,1.0810364627636404 M 4.8659758305703855,1.0734622801671976 M 4.957581738434235,1.0396765044441367 M 5.037321848469901,0.98333259751294 M 5.099762003955196,0.9082703035182705 M 5.140647011481053,0.8196049937495632 M 5.157190625350243,0.7233790625411901 M 5.155839608213629,0.7086614166022743 M 4.909397229375286,0.7086614166022601 M 4.909487859480846,0.7118639627950772 M 4.90976526626708,0.7216665338242253 M 4.902095702111012,0.7539124228615309 M 4.886341621807173,0.7830745306030865 M 4.86357663989342,0.8071655075989727 M 4.835352152266261,0.8245435935791351 "
  />
  <path id="face14-interior"
 style="fill:none;stroke:#00FF00;stroke-width:.05;stroke-miterlimit:4;stroke-dasharray:none;stroke-linejoin:round;stroke-linecap:round"
        d="M 2.2568957605564477,1.8417221747102972 M 2.263779525252262,1.8422508979957883 M 2.263779525252262,1.5960902788502538 M 2.1808575378850574,1.60723246490832 M 2.0892908788327444,1.6376845102991013 M 2.0096140676784144,1.6941178936910206 M 1.9472582124294568,1.769250232353818 M 1.9064727615731865,1.8579613815697997 M 1.8900371761842913,1.9542058231220154 M 1.891365869100312,1.9685039350022664 M 2.137526488245776,1.9685039350022735 M 2.1387188717597847,1.952979580839822 M 2.1395360992785837,1.9423396069688779 M 2.150541417755006,1.9110745699565386 M 2.1692637261225522,1.8837232492655631 M 2.1944271300060323,1.8621495922008209 M 2.224316785015298,1.8478238078391613 "
  />
  <path id="face15-interior"
 style="fill:none;stroke:#00FF00;stroke-width:.05;stroke-miterlimit:4;stroke-dasharray:none;stroke-linejoin:round;stroke-linecap:round"
        d="M 2.2780776371325375,1.5947615859341853 M 2.263779525252262,1.5960902788502538 M 2.263779525252262,1.8422508979957883 M 2.279303879414709,1.8434432815097979 M 2.289943853285665,1.8442605090286137 M 2.321208890297996,1.8552658275050278 M 2.348560210988976,1.8739881358725499 M 2.3701338680537045,1.8991515397560321 M 2.3844596524153747,1.9290411947653028 M 2.3905612855442255,1.961620170306459 M 2.3900325622587477,1.9685039350022664 M 2.6361931814042117,1.9685039350022735 M 2.6284875362585858,1.8855832126344425 M 2.5945989499553357,1.7940152885827403 M 2.5381655665635168,1.7143384774284471 M 2.463033227900715,1.6519826221794234 M 2.374320322167398,1.60723246490832 "
  />
  <path id="face16-interior"
 style="fill:none;stroke:#00FF00;stroke-width:.05;stroke-miterlimit:4;stroke-dasharray:none;stroke-linejoin:round;stroke-linecap:round"
        d="M 2.2706632899480748,2.0952856952942356 M 2.263779525252262,2.0947569720087658 M 2.263779525252262,2.340917591154222 M 2.3467002476200824,2.333211946008595 M 2.4382681716717793,2.299323359705346 M 2.5179449828261093,2.2428899763135264 M 2.580300838075067,2.167757637650722 M 2.621086288931337,2.079046488434733 M 2.6375218743202327,1.9828020468825458 M 2.6361931814042117,1.9685039350022735 M 2.3900325622587477,1.9685039350022664 M 2.3888401787447395,1.984028289164732 M 2.38802295122594,1.9946682630356691 M 2.3770176327495176,2.0259333000480013 M 2.3582953243819715,2.053284620738984 M 2.333131920498491,2.074858277803712 M 2.3032422654892257,2.0891840621653786 "
  />
</svg>
