<?xml version="1.0" encoding="utf-8"?>
<!-- Generator: Adobe Illustrator 13.0.2, SVG Export Plug-In . SVG Version: 6.00 Build 14948)  -->
<!DOCTYPE svg PUBLIC "-//W3C//DTD SVG 1.1//EN" "http://www.w3.org/Graphics/SVG/1.1/DTD/svg11.dtd">
<svg version="1.1" id="Layer_1" xmlns="http://www.w3.org/2000/svg" xmlns:xlink="http://www.w3.org/1999/xlink" x="0px" y="0px"
	 width="2539.924px" height="1270.316px" viewBox="0 0 2539.924 1270.316" enable-background="new 0 0 2539.924 1270.316"
	 xml:space="preserve">
<g id="BLOCK_x5F_RECORD">
	<g id="LWPOLYLINE">
		<polyline fill="none" stroke="#000000" stroke-width="0.7087" stroke-linecap="round" stroke-linejoin="round" points="
			2539.57,1269.962 0.354,1269.962 0.354,0.354 2539.57,0.354 2539.57,1269.962 		"/>
	</g>
	<g id="LWPOLYLINE_1_">
		<polyline fill="none" stroke="#000000" stroke-width="0.7087" stroke-linecap="round" stroke-linejoin="round" points="
			1440.696,417.175 1449.187,408.654 1459.496,418.963 1459.605,419.717 1459.9,420.427 1460.369,421.037 1460.979,421.504 
			1461.69,421.798 1462.441,421.908 1463.214,421.797 1463.924,421.502 1464.534,421.033 1465.001,420.423 1465.295,419.712 
			1465.395,418.95 1547.8,336.414 1548.562,336.313 1549.272,336.019 1549.882,335.55 1550.349,334.939 1550.643,334.229 
			1550.743,333.467 1550.642,332.705 1550.347,331.994 1549.878,331.385 1549.268,330.917 1548.557,330.624 1547.795,330.523 
			1537.478,320.223 1545.941,311.747 1546.259,311.448 1546.596,311.171 1546.95,310.917 1547.32,310.687 1547.705,310.481 
			1548.101,310.301 1548.509,310.147 1548.926,310.02 1549.351,309.92 1549.781,309.849 1550.214,309.806 1550.651,309.792 
			1795.898,309.597 1838.167,308.689 1880.361,306.033 1922.41,301.633 1964.24,295.497 2005.781,287.636 2046.96,278.062 
			2087.709,266.794 2127.957,253.849 2167.634,239.25 2206.673,223.021 2245.008,205.191 2282.572,185.791 2159.25,309.31 
			2011.495,457.298 2008.241,457.422 2005.146,458.437 2002.451,460.264 2000.362,462.763 1999.042,465.74 1998.591,468.965 
			1999.046,472.189 2000.372,475.165 2002.464,477.66 2005.163,479.483 2008.259,480.493 2011.513,480.611 2152.771,621.646 
			2099.67,621.688 2093.074,621.256 2086.5,620.561 2079.958,619.602 2073.46,618.383 2067.017,616.904 2060.637,615.168 
			2054.333,613.179 2048.113,610.938 2041.988,608.451 2035.967,605.72 2030.061,602.75 2024.278,599.545 1938.085,549.506 
			1932.838,546.724 1914.17,536.713 1889.423,525.614 1863.964,516.262 1837.917,508.704 1811.407,502.974 1784.563,499.102 
			1757.515,497.105 1730.393,496.995 1703.33,498.77 1676.455,502.423 1649.899,507.936 1623.791,515.281 1614.093,517.985 
			1604.222,519.96 1594.232,521.198 1584.177,521.689 1574.114,521.433 1564.097,520.429 1554.183,518.685 1544.425,516.208 
			1534.878,513.014 1525.595,509.12 1516.627,504.547 1508.024,499.32 1441.753,433.131 1440.789,432.044 1439.959,430.849 
			1439.281,429.563 1438.76,428.205 1438.406,426.795 1438.222,425.353 1438.213,423.898 1438.378,422.453 1438.715,421.039 
			1439.219,419.675 1439.882,418.38 1440.696,417.175 		"/>
	</g>
	<g id="LWPOLYLINE_2_">
		<polyline fill="none" stroke="#000000" stroke-width="0.7087" stroke-linecap="round" stroke-linejoin="round" points="
			1512.607,440.197 1511.669,437.938 1510.178,435.998 1508.236,434.51 1505.975,433.575 1503.548,433.258 1501.124,433.579 
			1498.864,434.517 1496.923,436.008 1495.436,437.95 1494.501,440.211 1494.184,442.637 1494.505,445.063 1495.444,447.322 
			1496.934,449.262 1498.876,450.75 1501.138,451.685 1503.564,452.002 1505.989,451.681 1508.249,450.743 1510.189,449.252 
			1511.676,447.31 1512.611,445.048 1512.928,442.623 1512.607,440.197 		"/>
	</g>
	<g id="LWPOLYLINE_3_">
		<polyline fill="none" stroke="#000000" stroke-width="0.7087" stroke-linecap="round" stroke-linejoin="round" points="
			788.279,157.833 762.61,187.549 739.299,219.148 718.485,252.446 700.292,287.245 684.827,323.338 672.18,360.514 
			662.428,398.551 655.627,437.225 651.818,476.307 651.024,515.566 653.248,554.771 658.479,593.688 696.043,574.288 
			734.377,556.458 773.417,540.23 813.094,525.63 853.342,512.686 894.09,501.417 935.27,491.843 976.811,483.982 1018.642,477.847 
			1060.69,473.446 1102.885,470.79 1145.153,469.882 1390.836,469.673 1391.27,469.63 1391.7,469.559 1392.125,469.459 
			1392.542,469.333 1392.95,469.179 1393.346,468.999 1393.731,468.792 1394.101,468.562 1394.455,468.308 1394.792,468.031 
			1403.573,459.256 1393.255,448.956 1392.494,448.856 1391.783,448.562 1391.172,448.095 1390.704,447.485 1390.409,446.775 
			1390.308,446.013 1390.408,445.25 1390.702,444.54 1391.169,443.929 1391.779,443.461 1392.489,443.166 1393.251,443.065 
			1475.656,360.529 1475.755,359.767 1476.049,359.056 1476.517,358.446 1477.126,357.978 1477.836,357.683 1478.599,357.582 
			1479.362,357.682 1480.072,357.975 1480.682,358.442 1481.151,359.052 1481.446,359.762 1481.546,360.524 1491.864,370.825 
			1500.355,362.304 1501.168,361.099 1501.832,359.805 1502.335,358.44 1502.672,357.026 1502.837,355.581 1502.829,354.127 
			1502.646,352.685 1502.292,351.274 1501.771,349.916 1501.091,348.63 1500.263,347.436 1499.297,346.348 1433.027,280.159 
			1424.423,274.933 1415.456,270.359 1406.172,266.465 1396.625,263.271 1386.869,260.795 1376.954,259.05 1366.937,258.047 
			1356.874,257.79 1346.819,258.282 1336.829,259.519 1326.958,261.495 1317.26,264.198 1291.152,271.544 1264.596,277.057 
			1237.722,280.709 1210.658,282.484 1183.536,282.374 1156.488,280.377 1129.644,276.505 1103.134,270.776 1077.086,263.217 
			1051.628,253.865 1026.881,242.766 1008.212,232.755 1002.966,229.973 916.773,179.934 910.99,176.729 905.083,173.76 
			899.063,171.028 892.938,168.541 886.718,166.3 880.414,164.311 874.034,162.575 867.591,161.097 861.093,159.877 
			854.552,158.919 847.978,158.223 841.38,157.792 788.279,157.833 		"/>
	</g>
	<g id="LWPOLYLINE_4_">
		<polyline fill="none" stroke="#000000" stroke-width="0.7087" stroke-linecap="round" stroke-linejoin="round" points="
			1431.191,343.184 1429.7,341.244 1428.762,338.984 1428.441,336.559 1428.758,334.133 1429.693,331.872 1431.18,329.929 
			1433.121,328.438 1435.38,327.5 1437.805,327.179 1440.231,327.497 1442.493,328.431 1444.434,329.919 1445.925,331.858 
			1446.864,334.118 1447.185,336.543 1446.868,338.97 1445.933,341.23 1444.445,343.173 1442.505,344.664 1440.246,345.602 
			1437.82,345.923 1435.394,345.605 1433.133,344.671 1431.191,343.184 		"/>
	</g>
	<g id="LWPOLYLINE_5_">
		<polyline fill="none" stroke="#000000" stroke-width="0.7087" stroke-linecap="round" stroke-linejoin="round" points="
			1395.016,837.538 1403.507,829.017 1413.816,839.325 1413.925,840.08 1414.22,840.79 1414.689,841.399 1415.299,841.867 
			1416.009,842.161 1416.761,842.271 1417.535,842.159 1418.245,841.864 1418.854,841.396 1419.322,840.786 1419.616,840.075 
			1419.715,839.312 1502.12,756.777 1502.882,756.676 1503.592,756.382 1504.202,755.913 1504.669,755.303 1504.963,754.592 
			1505.063,753.829 1504.962,753.067 1504.667,752.357 1504.199,751.747 1503.588,751.28 1502.877,750.986 1502.116,750.887 
			1491.798,740.586 1500.261,732.109 1500.58,731.812 1500.917,731.534 1501.27,731.28 1501.64,731.05 1502.025,730.844 
			1502.421,730.663 1502.83,730.51 1503.247,730.383 1503.671,730.283 1504.101,730.212 1504.535,730.169 1504.97,730.154 
			1750.218,729.96 1792.487,729.052 1834.681,726.396 1876.73,721.996 1918.56,715.86 1960.101,707.999 2001.281,698.426 
			2042.03,687.156 2082.277,674.212 2121.955,659.612 2160.994,643.384 2199.329,625.554 2236.892,606.154 2113.57,729.672 
			1965.815,877.661 1962.561,877.785 1959.466,878.8 1956.771,880.627 1954.682,883.125 1953.362,886.103 1952.912,889.328 
			1953.367,892.553 1954.692,895.527 1956.785,898.022 1959.483,899.846 1962.579,900.855 1965.833,900.975 2107.091,1042.009 
			2053.991,1042.051 2047.394,1041.619 2040.819,1040.924 2034.278,1039.965 2027.781,1038.745 2021.336,1037.267 
			2014.958,1035.531 2008.653,1033.542 2002.433,1031.302 1996.308,1028.813 1990.288,1026.082 1984.381,1023.112 
			1978.598,1019.908 1892.406,969.869 1887.159,967.087 1868.49,957.076 1843.744,945.977 1818.285,936.625 1792.238,929.066 
			1765.727,923.337 1738.883,919.465 1711.835,917.469 1684.713,917.357 1657.65,919.133 1630.775,922.786 1604.219,928.299 
			1578.111,935.645 1568.414,938.348 1558.542,940.323 1548.552,941.561 1538.498,942.052 1528.434,941.795 1518.417,940.792 
			1508.502,939.048 1498.746,936.571 1489.199,933.377 1479.916,929.482 1470.948,924.909 1462.344,919.683 1396.074,853.494 
			1395.108,852.407 1394.28,851.212 1393.6,849.926 1393.08,848.568 1392.725,847.158 1392.542,845.715 1392.534,844.261 
			1392.699,842.816 1393.036,841.401 1393.54,840.037 1394.203,838.743 1395.016,837.538 		"/>
	</g>
	<g id="LWPOLYLINE_6_">
		<polyline fill="none" stroke="#000000" stroke-width="0.7087" stroke-linecap="round" stroke-linejoin="round" points="
			1466.927,860.56 1465.989,858.3 1464.499,856.36 1462.556,854.873 1460.294,853.938 1457.869,853.621 1455.444,853.942 
			1453.184,854.88 1451.244,856.371 1449.756,858.313 1448.822,860.574 1448.504,863 1448.826,865.426 1449.763,867.686 
			1451.254,869.625 1453.197,871.113 1455.458,872.048 1457.883,872.365 1460.309,872.044 1462.569,871.105 1464.508,869.614 
			1465.997,867.673 1466.931,865.411 1467.249,862.985 1466.927,860.56 		"/>
	</g>
	<g id="LWPOLYLINE_7_">
		<polyline fill="none" stroke="#000000" stroke-width="0.7087" stroke-linecap="round" stroke-linejoin="round" points="
			742.6,578.196 716.93,607.912 693.619,639.512 672.806,672.809 654.612,707.607 639.147,743.701 626.5,780.876 616.748,818.913 
			609.947,857.588 606.138,896.67 605.344,935.93 607.568,975.134 612.799,1014.051 650.363,994.65 688.698,976.821 
			727.737,960.593 767.415,945.993 807.662,933.048 848.411,921.779 889.59,912.206 931.131,904.345 972.962,898.209 
			1015.01,893.81 1057.205,891.153 1099.473,890.245 1345.157,890.036 1345.59,889.993 1346.02,889.922 1346.445,889.822 
			1346.862,889.695 1347.27,889.541 1347.667,889.361 1348.051,889.155 1348.421,888.925 1348.775,888.671 1349.112,888.394 
			1357.893,879.619 1347.576,869.318 1346.814,869.219 1346.103,868.925 1345.493,868.457 1345.024,867.848 1344.729,867.138 
			1344.628,866.375 1344.728,865.613 1345.022,864.902 1345.489,864.292 1346.099,863.823 1346.809,863.528 1347.572,863.428 
			1429.976,780.893 1430.076,780.13 1430.37,779.419 1430.837,778.809 1431.447,778.34 1432.157,778.046 1432.919,777.944 
			1433.681,778.044 1434.392,778.338 1435.002,778.806 1435.471,779.415 1435.766,780.125 1435.867,780.888 1446.184,791.188 
			1454.675,782.667 1455.489,781.462 1456.152,780.168 1456.656,778.804 1456.993,777.389 1457.158,775.944 1457.149,774.49 
			1456.965,773.047 1456.611,771.637 1456.09,770.279 1455.412,768.993 1454.583,767.798 1453.618,766.711 1387.347,700.521 
			1378.744,695.295 1369.776,690.723 1360.493,686.828 1350.946,683.634 1341.188,681.157 1331.274,679.413 1321.257,678.409 
			1311.194,678.153 1301.139,678.645 1291.149,679.882 1281.278,681.857 1271.581,684.561 1245.472,691.906 1218.917,697.419 
			1192.042,701.072 1164.978,702.848 1137.856,702.736 1110.808,700.74 1083.964,696.868 1057.454,691.139 1031.407,683.58 
			1005.948,674.229 981.201,663.129 962.532,653.118 957.286,650.336 871.093,600.296 865.31,597.092 859.404,594.123 
			853.383,591.392 847.258,588.904 841.038,586.663 834.733,584.673 828.354,582.938 821.911,581.459 815.413,580.24 
			808.872,579.282 802.297,578.586 795.701,578.154 742.6,578.196 		"/>
	</g>
	<g id="LWPOLYLINE_8_">
		<polyline fill="none" stroke="#000000" stroke-width="0.7087" stroke-linecap="round" stroke-linejoin="round" points="
			1385.511,763.546 1384.02,761.606 1383.082,759.347 1382.761,756.921 1383.079,754.495 1384.013,752.234 1385.5,750.292 
			1387.441,748.801 1389.7,747.863 1392.125,747.542 1394.551,747.859 1396.812,748.794 1398.754,750.281 1400.246,752.222 
			1401.184,754.481 1401.505,756.906 1401.188,759.332 1400.253,761.594 1398.765,763.536 1396.826,765.026 1394.566,765.965 
			1392.14,766.286 1389.714,765.969 1387.454,765.034 1385.511,763.546 		"/>
	</g>
	<g id="LWPOLYLINE_9_">
		<polyline fill="none" stroke="#000000" stroke-width="0.7087" stroke-linecap="round" stroke-linejoin="round" points="
			192.366,622.113 192.694,616.179 193.177,610.255 193.815,604.347 194.608,598.457 195.555,592.59 196.655,586.75 197.907,580.94 
			199.311,575.165 200.866,569.429 202.57,563.736 204.423,558.089 206.423,552.492 208.569,546.95 210.859,541.466 
			213.292,536.044 215.866,530.688 218.579,525.4 221.43,520.185 224.416,515.047 227.536,509.989 230.787,505.014 234.167,500.125 
			237.674,495.328 241.306,490.623 245.059,486.016 248.932,481.508 252.921,477.103 257.024,472.803 261.239,468.613 
			265.562,464.535 269.99,460.571 274.52,456.724 279.149,452.998 283.875,449.393 288.692,445.914 293.6,442.562 298.594,439.339 
			303.67,436.249 308.825,433.292 314.056,430.471 319.359,427.789 324.73,425.246 330.167,422.844 335.664,420.585 
			341.218,418.472 346.826,416.504 352.483,414.684 358.187,413.012 363.932,411.491 369.714,410.12 375.531,408.901 
			381.377,407.835 387.25,406.922 393.145,406.163 399.057,405.559 404.983,405.11 410.918,404.816 416.86,404.678 422.803,404.695 
			428.744,404.867 434.677,405.195 440.601,405.679 446.509,406.317 452.399,407.11 458.267,408.057 464.107,409.156 
			469.917,410.409 475.691,411.812 481.427,413.367 487.121,415.072 492.768,416.924 498.364,418.924 503.906,421.07 509.39,423.36 
			514.812,425.793 520.169,428.367 525.457,431.081 530.671,433.931 535.81,436.917 540.868,440.038 545.843,443.289 
			550.73,446.669 555.529,450.176 560.233,453.807 564.841,457.561 569.349,461.434 573.754,465.423 578.053,469.526 
			582.243,473.741 586.322,478.063 590.286,482.491 594.132,487.021 597.859,491.651 601.463,496.376 604.942,501.194 
			608.294,506.102 611.517,511.095 614.608,516.171 617.564,521.327 620.385,526.558 623.068,531.861 625.611,537.232 
			628.013,542.668 630.271,548.166 632.385,553.72 634.353,559.328 636.173,564.985 637.844,570.688 639.366,576.433 
			640.736,582.216 641.955,588.033 643.021,593.879 643.934,599.752 644.693,605.646 645.297,611.559 645.747,617.484 
			646.041,623.42 646.179,629.361 646.162,635.305 645.989,641.245 645.661,647.179 645.177,653.103 644.539,659.011 
			643.747,664.901 642.8,670.768 641.7,676.608 640.448,682.418 639.043,688.192 637.489,693.929 635.785,699.622 633.932,705.27 
			631.932,710.865 629.786,716.407 627.496,721.892 625.063,727.313 622.489,732.671 619.776,737.958 616.925,743.173 
			613.939,748.311 610.819,753.369 607.568,758.344 604.188,763.232 600.681,768.03 597.049,772.734 593.295,777.343 
			589.423,781.851 585.434,786.256 581.33,790.555 577.116,794.745 572.793,798.823 568.365,802.787 563.835,806.634 
			559.206,810.36 554.48,813.965 549.662,817.444 544.755,820.796 539.761,824.019 534.685,827.109 529.53,830.065 524.299,832.887 
			518.996,835.569 513.624,838.112 508.188,840.514 502.691,842.772 497.137,844.887 491.529,846.854 485.871,848.674 
			480.168,850.346 474.423,851.867 468.641,853.238 462.824,854.457 456.977,855.523 451.104,856.436 445.21,857.194 
			439.298,857.799 433.372,858.248 427.436,858.542 421.495,858.681 415.552,858.663 409.611,858.49 403.677,858.162 
			397.754,857.679 391.845,857.041 385.956,856.248 380.088,855.302 374.248,854.201 368.438,852.949 362.664,851.545 
			356.927,849.99 351.234,848.286 345.587,846.434 339.991,844.434 334.449,842.288 328.965,839.998 323.542,837.564 
			318.186,834.991 312.898,832.277 307.684,829.427 302.545,826.44 297.487,823.32 292.512,820.069 287.624,816.689 
			282.826,813.182 278.122,809.551 273.514,805.797 269.006,801.925 264.601,797.936 260.302,793.832 256.112,789.617 
			252.033,785.295 248.069,780.867 244.223,776.337 240.496,771.707 236.892,766.981 233.412,762.164 230.06,757.256 
			226.838,752.263 223.747,747.187 220.791,742.031 217.97,736.8 215.287,731.497 212.744,726.126 210.342,720.689 208.084,715.192 
			205.97,709.638 204.002,704.03 202.182,698.373 200.511,692.67 198.989,686.925 197.618,681.142 196.399,675.325 195.333,669.479 
			194.42,663.606 193.662,657.712 193.058,651.8 192.608,645.873 192.314,639.938 192.176,633.996 192.193,628.053 192.366,622.113 
					"/>
	</g>
	<g id="LWPOLYLINE_10_">
		<polyline fill="none" stroke="#000000" stroke-width="0.7087" stroke-linecap="round" stroke-linejoin="round" points="
			319.911,451.165 321.167,451.685 322.515,451.862 323.862,451.685 325.118,451.165 326.196,450.337 327.024,449.259 
			327.544,448.003 327.721,446.655 327.544,445.308 327.024,444.052 326.196,442.974 325.118,442.146 323.862,441.626 
			322.515,441.448 321.167,441.626 319.911,442.146 318.833,442.974 318.005,444.052 317.485,445.308 317.308,446.655 
			317.485,448.003 318.005,449.259 318.833,450.337 319.911,451.165 		"/>
	</g>
	<g id="LWPOLYLINE_11_">
		<polyline fill="none" stroke="#000000" stroke-width="0.7087" stroke-linecap="round" stroke-linejoin="round" points="
			230.761,538.966 231.899,539.709 233.19,540.133 234.547,540.208 235.878,539.929 237.091,539.315 238.103,538.409 
			238.847,537.271 239.271,535.979 239.345,534.623 239.066,533.292 238.453,532.079 237.546,531.066 236.409,530.323 
			235.117,529.899 233.76,529.824 232.43,530.104 231.217,530.717 230.204,531.624 229.46,532.761 229.037,534.053 228.962,535.41 
			229.241,536.74 229.854,537.953 230.761,538.966 		"/>
	</g>
	<g id="LWPOLYLINE_12_">
		<polyline fill="none" stroke="#000000" stroke-width="0.7087" stroke-linecap="round" stroke-linejoin="round" points="
			606.805,539.525 607.883,538.698 608.71,537.62 609.23,536.364 609.408,535.016 609.23,533.668 608.71,532.413 607.883,531.334 
			606.805,530.507 605.549,529.987 604.201,529.81 602.854,529.987 601.598,530.507 600.52,531.334 599.692,532.413 
			599.172,533.668 598.995,535.016 599.172,536.364 599.692,537.62 600.52,538.698 601.598,539.525 602.854,540.045 
			604.201,540.223 605.549,540.045 606.805,539.525 		"/>
	</g>
	<g id="LWPOLYLINE_13_">
		<polyline fill="none" stroke="#000000" stroke-width="0.7087" stroke-linecap="round" stroke-linejoin="round" points="
			517.188,441.626 515.84,441.448 514.493,441.626 513.237,442.146 512.158,442.974 511.331,444.052 510.811,445.308 
			510.633,446.655 510.811,448.003 511.331,449.259 512.158,450.337 513.237,451.165 514.493,451.685 515.84,451.862 
			517.188,451.685 518.443,451.165 519.522,450.337 520.349,449.259 520.87,448.003 521.047,446.655 520.87,445.308 
			520.349,444.052 519.522,442.974 518.443,442.146 517.188,441.626 		"/>
	</g>
	<g id="LWPOLYLINE_14_">
		<polyline fill="none" stroke="#000000" stroke-width="0.7087" stroke-linecap="round" stroke-linejoin="round" points="
			389.819,641.551 391.119,645.415 391.92,646.622 392.186,647.263 393.375,648.812 395.63,652.209 396.716,653.167 
			397.139,653.718 398.688,654.907 401.747,657.604 403.043,658.248 403.594,658.671 405.398,659.418 409.05,661.232 
			410.47,661.519 411.111,661.784 413.047,662.039 417.044,662.847 418.49,662.756 419.177,662.847 421.114,662.592 
			425.184,662.337 426.556,661.875 427.244,661.784 429.049,661.037 432.914,659.737 434.12,658.937 434.761,658.671 
			436.311,657.481 439.708,655.226 440.666,654.14 441.216,653.718 442.405,652.168 445.103,649.11 445.747,647.812 
			446.169,647.263 446.917,645.458 448.731,641.806 449.018,640.387 449.283,639.746 449.538,637.809 450.345,633.812 
			450.254,632.367 450.345,631.679 450.09,629.742 449.835,625.673 449.374,624.3 449.283,623.612 448.535,621.808 447.236,617.942 
			446.435,616.736 446.169,616.179 444.98,614.545 442.725,611.148 441.638,610.19 441.216,609.64 439.667,608.451 436.608,605.754 
			435.312,605.109 434.761,604.687 432.957,603.939 429.305,602.125 427.885,601.839 427.244,601.573 425.308,601.318 
			421.311,600.512 419.865,600.602 419.177,600.512 417.241,600.767 413.171,601.021 411.798,601.483 411.111,601.573 
			409.306,602.321 405.441,603.621 404.234,604.422 403.594,604.687 402.044,605.876 398.647,608.132 397.689,609.218 
			397.139,609.64 395.95,611.19 393.252,614.248 392.608,615.545 392.186,616.179 391.438,617.9 389.624,621.552 389.337,622.971 
			389.072,623.612 388.817,625.549 388.01,629.546 388.101,630.991 388.01,631.679 388.265,633.616 388.52,637.686 388.981,639.058 
			389.072,639.746 389.819,641.551 		"/>
	</g>
	<g id="LWPOLYLINE_15_">
		<polyline fill="none" stroke="#000000" stroke-width="0.7087" stroke-linecap="round" stroke-linejoin="round" points="
			284.961,765.896 285.824,766.557 286.829,766.974 287.907,767.115 288.985,766.974 289.989,766.557 290.852,765.896 
			291.514,765.032 291.93,764.027 292.072,762.949 291.93,761.872 291.514,760.867 290.852,760.004 289.989,759.343 
			288.985,758.927 287.907,758.784 286.829,758.927 285.824,759.343 284.961,760.004 284.299,760.867 283.883,761.872 
			283.741,762.949 283.883,764.027 284.299,765.032 284.961,765.896 		"/>
	</g>
	<g id="LWPOLYLINE_16_">
		<polyline fill="none" stroke="#000000" stroke-width="0.7087" stroke-linecap="round" stroke-linejoin="round" points="
			553.394,765.896 554.056,765.032 554.472,764.027 554.614,762.949 554.472,761.872 554.056,760.867 553.394,760.004 
			552.531,759.343 551.526,758.927 550.448,758.784 549.37,758.927 548.366,759.343 547.503,760.004 546.841,760.867 
			546.425,761.872 546.283,762.949 546.425,764.027 546.841,765.032 547.503,765.896 548.366,766.557 549.37,766.974 
			550.448,767.115 551.526,766.974 552.531,766.557 553.394,765.896 		"/>
	</g>
	<g id="LWPOLYLINE_17_">
		<polyline fill="none" stroke="#000000" stroke-width="0.7087" stroke-linecap="round" stroke-linejoin="round" points="
			307.322,740.499 306.242,740.377 305.167,740.537 304.169,740.971 303.318,741.648 302.672,742.522 302.273,743.534 
			302.15,744.614 302.312,745.689 302.745,746.688 303.422,747.538 304.296,748.185 305.308,748.583 306.388,748.706 
			307.464,748.545 308.461,748.111 309.312,747.435 309.958,746.561 310.357,745.548 310.48,744.468 310.319,743.393 
			309.885,742.396 309.208,741.545 308.334,740.897 307.322,740.499 		"/>
	</g>
	<g id="LWPOLYLINE_18_">
		<polyline fill="none" stroke="#000000" stroke-width="0.7087" stroke-linecap="round" stroke-linejoin="round" points="
			529.957,740.934 529.094,741.596 528.432,742.458 528.016,743.463 527.874,744.541 528.016,745.619 528.432,746.624 
			529.094,747.486 529.957,748.148 530.961,748.564 532.04,748.707 533.118,748.564 534.123,748.148 534.985,747.486 
			535.647,746.624 536.063,745.619 536.205,744.541 536.063,743.463 535.647,742.458 534.985,741.596 534.123,740.934 
			533.118,740.518 532.04,740.376 530.961,740.518 529.957,740.934 		"/>
	</g>
	<g id="LWPOLYLINE_19_">
		<polyline fill="none" stroke="#000000" stroke-width="0.7087" stroke-linecap="round" stroke-linejoin="round" points="
			261.139,877.556 386.101,877.556 388.14,877.689 390.144,878.088 392.078,878.744 393.911,879.648 395.609,880.783 
			397.146,882.131 398.493,883.667 399.628,885.365 400.532,887.198 401.188,889.133 401.587,891.137 401.721,893.176 
			401.587,895.215 401.188,897.219 400.532,899.153 399.628,900.985 398.493,902.685 397.146,904.221 395.609,905.568 
			393.911,906.703 392.078,907.606 390.144,908.264 388.14,908.662 386.101,908.796 261.139,908.796 259.1,908.662 257.096,908.264 
			255.162,907.606 253.329,906.703 251.63,905.568 250.094,904.221 248.747,902.685 247.612,900.985 246.708,899.153 
			246.051,897.219 245.653,895.215 245.519,893.176 245.653,891.137 246.051,889.133 246.708,887.198 247.612,885.365 
			248.747,883.667 250.094,882.131 251.63,880.783 253.329,879.648 255.162,878.744 257.096,878.088 259.1,877.689 261.139,877.556 
					"/>
	</g>
	<g id="LWPOLYLINE_20_">
		<polyline fill="none" stroke="#000000" stroke-width="0.7087" stroke-linecap="round" stroke-linejoin="round" points="
			260.331,896.193 261.139,896.3 261.948,896.193 262.701,895.881 263.348,895.385 263.845,894.737 264.157,893.984 
			264.263,893.176 264.157,892.367 263.845,891.613 263.348,890.967 262.701,890.47 261.948,890.158 261.139,890.052 
			260.331,890.158 259.577,890.47 258.93,890.967 258.434,891.613 258.122,892.367 258.015,893.176 258.122,893.984 
			258.434,894.737 258.93,895.385 259.577,895.881 260.331,896.193 		"/>
	</g>
	<g id="LWPOLYLINE_21_">
		<polyline fill="none" stroke="#000000" stroke-width="0.7087" stroke-linecap="round" stroke-linejoin="round" points="
			384.539,895.881 385.292,896.193 386.101,896.3 386.909,896.193 387.663,895.881 388.31,895.385 388.806,894.737 389.118,893.984 
			389.225,893.176 389.118,892.367 388.806,891.613 388.31,890.967 387.663,890.47 386.909,890.158 386.101,890.052 
			385.292,890.158 384.539,890.47 383.892,890.967 383.395,891.613 383.083,892.367 382.977,893.176 383.083,893.984 
			383.395,894.737 383.892,895.385 384.539,895.881 		"/>
	</g>
	<g id="LWPOLYLINE_22_">
		<polyline fill="none" stroke="#000000" stroke-width="0.7087" stroke-linecap="round" stroke-linejoin="round" points="
			429.012,877.661 553.974,877.661 556.013,877.795 558.017,878.193 559.951,878.851 561.784,879.754 563.483,880.89 
			565.019,882.236 566.366,883.772 567.501,885.472 568.405,887.304 569.062,889.239 569.46,891.243 569.594,893.281 569.46,895.32 
			569.062,897.324 568.405,899.259 567.501,901.092 566.366,902.791 565.019,904.327 563.483,905.674 561.784,906.81 
			559.951,907.713 558.017,908.37 556.013,908.769 553.974,908.902 429.012,908.902 426.974,908.769 424.97,908.37 423.035,907.713 
			421.202,906.81 419.503,905.674 417.967,904.327 416.62,902.791 415.485,901.092 414.581,899.259 413.924,897.324 413.526,895.32 
			413.392,893.281 413.526,891.243 413.924,889.239 414.581,887.304 415.485,885.472 416.62,883.772 417.967,882.236 
			419.503,880.89 421.202,879.754 423.035,878.851 424.97,878.193 426.974,877.795 429.012,877.661 		"/>
	</g>
	<g id="LWPOLYLINE_23_">
		<polyline fill="none" stroke="#000000" stroke-width="0.7087" stroke-linecap="round" stroke-linejoin="round" points="
			428.204,896.299 429.012,896.405 429.821,896.299 430.574,895.987 431.221,895.491 431.718,894.844 432.03,894.09 
			432.136,893.281 432.03,892.474 431.718,891.72 431.221,891.072 430.574,890.576 429.821,890.264 429.012,890.157 
			428.204,890.264 427.45,890.576 426.803,891.072 426.307,891.72 425.995,892.474 425.888,893.281 425.995,894.09 426.307,894.844 
			426.803,895.491 427.45,895.987 428.204,896.299 		"/>
	</g>
	<g id="LWPOLYLINE_24_">
		<polyline fill="none" stroke="#000000" stroke-width="0.7087" stroke-linecap="round" stroke-linejoin="round" points="
			552.412,895.987 553.165,896.299 553.974,896.405 554.782,896.299 555.536,895.987 556.183,895.491 556.679,894.844 
			556.991,894.09 557.098,893.281 556.991,892.474 556.679,891.72 556.183,891.072 555.536,890.576 554.782,890.264 
			553.974,890.157 553.165,890.264 552.412,890.576 551.765,891.072 551.268,891.72 550.956,892.474 550.85,893.281 550.956,894.09 
			551.268,894.844 551.765,895.491 552.412,895.987 		"/>
	</g>
	<g id="LWPOLYLINE_25_">
		<polyline fill="none" stroke="#000000" stroke-width="0.7087" stroke-linecap="round" stroke-linejoin="round" points="
			2026.915,925.976 1988.714,887.774 2263.31,613.074 2396.132,745.896 2026.915,925.976 		"/>
	</g>
	<g id="LWPOLYLINE_26_">
		<polyline fill="none" stroke="#000000" stroke-width="0.7087" stroke-linecap="round" stroke-linejoin="round" points="
			2404.468,761.979 2442.668,800.179 2168.072,1074.88 2035.25,942.058 2404.468,761.979 		"/>
	</g>
	<g id="LWPOLYLINE_27_">
		<polyline fill="none" stroke="#000000" stroke-width="0.7087" stroke-linecap="round" stroke-linejoin="round" points="
			1005.949,522.113 1005.949,623.789 953.882,623.789 898.976,566.827 898.976,514.633 1005.949,522.113 		"/>
	</g>
	<g id="LWPOLYLINE_28_">
		<polyline fill="none" stroke="#000000" stroke-width="0.7087" stroke-linecap="round" stroke-linejoin="round" points="
			1133.759,499.442 1133.759,601.118 1081.691,601.118 1026.786,544.156 1026.786,491.962 1133.759,499.442 		"/>
	</g>
	<g id="LWPOLYLINE_29_">
		<polyline fill="none" stroke="#000000" stroke-width="0.7087" stroke-linecap="round" stroke-linejoin="round" points="
			2213.473,297.824 2186.241,590.727 2042.212,446.698 2213.473,297.824 		"/>
	</g>
	<g id="LWPOLYLINE_30_">
		<polyline fill="none" stroke="#000000" stroke-width="0.7087" stroke-linecap="round" stroke-linejoin="round" points="
			2203.411,588.794 2230.643,295.891 2374.671,439.92 2203.411,588.794 		"/>
	</g>
	<g id="LWPOLYLINE_31_">
		<polyline fill="none" stroke="#000000" stroke-width="0.7087" stroke-linecap="round" stroke-linejoin="round" points="
			1864.814,549.665 1739.2,709.898 1696.265,549.665 1864.814,549.665 		"/>
	</g>
	<g id="LWPOLYLINE_32_">
		<polyline fill="none" stroke="#000000" stroke-width="0.7087" stroke-linecap="round" stroke-linejoin="round" points="
			1770.692,701.162 1896.306,540.929 1939.241,701.162 1770.692,701.162 		"/>
	</g>
	<g id="LWPOLYLINE_33_">
		<polyline fill="none" stroke="#000000" stroke-width="0.7087" stroke-linecap="round" stroke-linejoin="round" points="
			1315.749,607.975 1261.844,607.975 1151.509,541.828 1151.509,489.76 1284.073,489.76 1315.749,607.975 		"/>
	</g>
	<g id="LWPOLYLINE_34_">
		<polyline fill="none" stroke="#000000" stroke-width="0.7087" stroke-linecap="round" stroke-linejoin="round" points="
			1309.468,485.388 1363.372,485.388 1473.707,551.535 1473.707,603.603 1341.143,603.603 1309.468,485.388 		"/>
	</g>
	<g id="LWPOLYLINE_35_">
		<polyline fill="none" stroke="#000000" stroke-width="0.7087" stroke-linecap="round" stroke-linejoin="round" points="
			572.921,181.832 363.786,388.704 346.034,185.792 572.921,181.832 		"/>
	</g>
	<g id="LWPOLYLINE_36_">
		<polyline fill="none" stroke="#000000" stroke-width="0.7087" stroke-linecap="round" stroke-linejoin="round" points="
			424.996,369.652 634.132,162.779 651.884,365.691 424.996,369.652 		"/>
	</g>
	<g id="LWPOLYLINE_37_">
		<polyline fill="none" stroke="#000000" stroke-width="0.7087" stroke-linecap="round" stroke-linejoin="round" points="
			939.125,968.365 939.125,914.341 1327.536,914.268 1327.536,1102.106 939.125,968.365 		"/>
	</g>
	<g id="LWPOLYLINE_38_">
		<polyline fill="none" stroke="#000000" stroke-width="0.7087" stroke-linecap="round" stroke-linejoin="round" points="
			1745.621,1044.32 1745.621,1098.344 1357.208,1098.417 1357.208,910.579 1745.621,1044.32 		"/>
	</g>
	<g id="LWPOLYLINE_39_">
		<polyline fill="none" stroke="#000000" stroke-width="0.7087" stroke-linecap="round" stroke-linejoin="round" points="
			1554.638,709.708 1680.251,549.474 1723.186,709.708 1554.638,709.708 		"/>
	</g>
	<g id="LWPOLYLINE_40_">
		<polyline fill="none" stroke="#000000" stroke-width="0.7087" stroke-linecap="round" stroke-linejoin="round" points="
			1660.835,545.206 1535.221,705.439 1492.287,545.206 1660.835,545.206 		"/>
	</g>
	<g id="LWPOLYLINE_41_">
		<polyline fill="none" stroke="#000000" stroke-width="0.7087" stroke-linecap="round" stroke-linejoin="round" points="
			1181.685,577.168 1253.581,649.064 1216.764,685.881 1137.661,684.428 1100.754,647.521 1181.685,577.168 		"/>
	</g>
	<g id="LWPOLYLINE_42_">
		<polyline fill="none" stroke="#000000" stroke-width="0.7087" stroke-linecap="round" stroke-linejoin="round" points="
			1487.162,614.812 1496.023,716.101 1444.154,720.639 1384.493,668.68 1379.943,616.684 1487.162,614.812 		"/>
	</g>
	<g id="LWPOLYLINE_43_">
		<polyline fill="none" stroke="#000000" stroke-width="0.7087" stroke-linecap="round" stroke-linejoin="round" points="
			1889.043,1085.411 1835.14,1085.411 1724.805,1019.264 1724.805,967.197 1857.369,967.197 1889.043,1085.411 		"/>
	</g>
	<g id="LWPOLYLINE_44_">
		<polyline fill="none" stroke="#000000" stroke-width="0.7087" stroke-linecap="round" stroke-linejoin="round" points="
			815.126,943.875 869.03,943.875 979.365,1010.022 979.365,1062.09 846.802,1062.09 815.126,943.875 		"/>
	</g>
	<g id="LWPOLYLINE_45_">
		<polyline fill="none" stroke="#000000" stroke-width="0.7087" stroke-linecap="round" stroke-linejoin="round" points="
			620.66,1052.499 620.112,1056.393 618.509,1059.983 615.977,1062.991 612.713,1065.184 608.97,1066.389 605.04,1066.514 
			441.861,1066.514 441.861,941.539 584.213,941.539 584.213,1031.195 584.316,1032.131 584.533,1033.047 584.861,1033.93 
			585.294,1034.766 585.827,1035.542 586.45,1036.247 587.155,1036.871 587.932,1037.403 588.768,1037.837 589.65,1038.164 
			590.566,1038.382 591.502,1038.484 605.04,1038.484 608.97,1038.609 612.713,1039.814 615.977,1042.006 618.509,1045.015 
			620.112,1048.605 620.66,1052.499 		"/>
	</g>
	<g id="LWPOLYLINE_46_">
		<polyline fill="none" stroke="#000000" stroke-width="0.7087" stroke-linecap="round" stroke-linejoin="round" points="
			518.344,1059.516 520.383,1059.494 522.347,1058.946 524.102,1057.908 525.528,1056.393 526.529,1054.675 527.036,1052.7 
			527.015,1050.662 526.466,1048.698 525.429,1046.943 523.972,1045.517 522.195,1044.516 520.221,1044.009 518.182,1044.03 
			516.218,1044.578 514.463,1045.616 513.037,1047.073 512.036,1048.85 511.529,1050.824 511.55,1052.863 512.099,1054.826 
			513.137,1056.582 514.593,1058.008 516.37,1059.009 518.344,1059.516 		"/>
	</g>
	<g id="LWPOLYLINE_47_">
		<polyline fill="none" stroke="#000000" stroke-width="0.7087" stroke-linecap="round" stroke-linejoin="round" points="
			456.614,1043.407 454.705,1044.121 453.044,1045.304 451.747,1046.877 450.9,1048.731 450.563,1050.742 450.758,1052.772 
			451.471,1054.682 452.654,1056.393 454.227,1057.64 456.082,1058.486 458.093,1058.823 460.123,1058.629 462.032,1057.915 
			463.693,1056.732 464.99,1055.159 465.836,1053.305 466.174,1051.294 465.979,1049.264 465.266,1047.354 464.083,1045.693 
			462.51,1044.396 460.655,1043.55 458.644,1043.213 456.614,1043.407 		"/>
	</g>
	<g id="LWPOLYLINE_48_">
		<polyline fill="none" stroke="#000000" stroke-width="0.7087" stroke-linecap="round" stroke-linejoin="round" points="
			612.588,1047.431 611.074,1046.065 609.258,1045.139 607.264,1044.713 605.228,1044.818 603.289,1045.447 601.578,1046.557 
			600.212,1048.07 599.286,1049.887 598.86,1051.88 598.965,1053.916 599.594,1055.856 600.703,1057.566 602.217,1058.932 
			604.033,1059.859 606.027,1060.284 608.063,1060.18 610.003,1059.551 611.713,1058.441 613.079,1056.928 614.006,1055.111 
			614.431,1053.117 614.326,1051.081 613.697,1049.142 612.588,1047.431 		"/>
	</g>
	<g id="LWPOLYLINE_49_">
		<polyline fill="none" stroke="#000000" stroke-width="0.7087" stroke-linecap="round" stroke-linejoin="round" points="
			423.719,1056.842 423.17,1060.735 421.568,1064.326 419.036,1067.335 415.771,1069.526 412.029,1070.731 408.099,1070.856 
			244.92,1070.856 244.92,945.883 387.272,945.883 387.272,1035.538 387.375,1036.474 387.592,1037.39 387.919,1038.272 
			388.353,1039.108 388.885,1039.885 389.509,1040.59 390.214,1041.214 390.991,1041.746 391.827,1042.18 392.709,1042.507 
			393.625,1042.725 394.561,1042.827 408.099,1042.827 412.029,1042.952 415.771,1044.157 419.036,1046.349 421.568,1049.357 
			423.17,1052.948 423.719,1056.842 		"/>
	</g>
	<g id="LWPOLYLINE_50_">
		<polyline fill="none" stroke="#000000" stroke-width="0.7087" stroke-linecap="round" stroke-linejoin="round" points="
			321.403,1063.858 323.442,1063.838 325.406,1063.289 327.161,1062.251 328.587,1060.735 329.588,1059.019 330.095,1057.043 
			330.073,1055.005 329.525,1053.041 328.487,1051.286 327.031,1049.859 325.254,1048.858 323.279,1048.352 321.241,1048.373 
			319.277,1048.921 317.522,1049.959 316.096,1051.416 315.095,1053.192 314.588,1055.167 314.609,1057.206 315.157,1059.17 
			316.195,1060.925 317.652,1062.351 319.428,1063.352 321.403,1063.858 		"/>
	</g>
	<g id="LWPOLYLINE_51_">
		<polyline fill="none" stroke="#000000" stroke-width="0.7087" stroke-linecap="round" stroke-linejoin="round" points="
			259.673,1047.75 257.763,1048.464 256.103,1049.647 254.805,1051.22 253.959,1053.074 253.622,1055.085 253.816,1057.115 
			254.53,1059.025 255.713,1060.735 257.286,1061.982 259.141,1062.829 261.152,1063.166 263.181,1062.972 265.091,1062.258 
			266.751,1061.075 268.049,1059.502 268.895,1057.647 269.232,1055.637 269.038,1053.607 268.325,1051.697 267.141,1050.037 
			265.568,1048.739 263.713,1047.893 261.703,1047.556 259.673,1047.75 		"/>
	</g>
	<g id="LWPOLYLINE_52_">
		<polyline fill="none" stroke="#000000" stroke-width="0.7087" stroke-linecap="round" stroke-linejoin="round" points="
			415.647,1051.774 414.133,1050.408 412.317,1049.481 410.323,1049.057 408.287,1049.161 406.347,1049.79 404.637,1050.899 
			403.271,1052.413 402.344,1054.229 401.919,1056.224 402.024,1058.26 402.653,1060.199 403.762,1061.909 405.276,1063.275 
			407.092,1064.202 409.086,1064.627 411.122,1064.522 413.062,1063.894 414.772,1062.784 416.138,1061.271 417.064,1059.454 
			417.49,1057.46 417.385,1055.424 416.756,1053.484 415.647,1051.774 		"/>
	</g>
	<g id="LWPOLYLINE_53_">
		<polyline fill="none" stroke="#000000" stroke-width="0.7087" stroke-linecap="round" stroke-linejoin="round" points="
			1497.12,122.673 1655.821,122.673 1655.821,281.375 1497.12,281.375 1497.12,122.673 		"/>
	</g>
	<g id="LWPOLYLINE_54_">
		<polyline fill="none" stroke="#000000" stroke-width="0.7087" stroke-linecap="round" stroke-linejoin="round" points="
			1530.657,175.574 1525.373,188.332 1523.57,202.024 1525.373,215.715 1530.657,228.474 1539.064,239.43 1550.02,247.837 
			1562.779,253.122 1576.47,254.924 1590.162,253.122 1602.92,247.837 1613.876,239.43 1622.283,228.474 1627.568,215.715 
			1629.371,202.024 1627.568,188.332 1622.283,175.574 1613.876,164.618 1602.92,156.211 1590.162,150.926 1576.47,149.124 
			1562.779,150.926 1550.02,156.211 1539.064,164.618 1530.657,175.574 		"/>
	</g>
	<g id="LINE">
		
			<line fill="none" stroke="#000000" stroke-width="0.7087" stroke-linecap="round" stroke-linejoin="round" x1="2404.468" y1="761.979" x2="2035.25" y2="942.058"/>
	</g>
</g>
</svg>
