<?xml version="1.0" encoding="utf-8"?>
<!-- Generator: Adobe Illustrator 13.0.2, SVG Export Plug-In . SVG Version: 6.00 Build 14948)  -->
<!DOCTYPE svg PUBLIC "-//W3C//DTD SVG 1.1//EN" "http://www.w3.org/Graphics/SVG/1.1/DTD/svg11.dtd">
<svg version="1.1" id="Layer_1" xmlns="http://www.w3.org/2000/svg" xmlns:xlink="http://www.w3.org/1999/xlink" x="0px" y="0px"
	 width="1498.748px" height="829.371px" viewBox="0 0 1498.748 829.371" enable-background="new 0 0 1498.748 829.371"
	 xml:space="preserve">
<g id="BLOCK_x5F_RECORD">
	<g id="LWPOLYLINE">
		<polyline fill="none" stroke="#000000" stroke-width="0.7087" stroke-linecap="round" stroke-linejoin="round" points="
			384.006,753.677 384.006,603.332 619.189,603.332 756.907,603.332 756.907,655.27 412.364,773.905 384.006,753.677 		"/>
	</g>
	<g id="LWPOLYLINE_1_">
		<polyline fill="none" stroke="#000000" stroke-width="0.7087" stroke-linecap="round" stroke-linejoin="round" points="
			1167.074,609.71 1281.658,621.123 1109.981,755.252 1000.63,593.131 1115.218,604.521 1115.422,604.565 1115.96,604.684 
			1116.684,604.916 1117.382,605.214 1118.05,605.576 1118.681,605.999 1119.27,606.479 1119.812,607.012 1120.301,607.592 
			1120.734,608.216 1121.107,608.878 1121.385,609.498 1121.412,610.362 1122.922,615.359 1125.674,619.795 1129.479,623.367 
			1134.08,625.833 1139.162,627.024 1144.379,626.859 1149.376,625.35 1153.812,622.598 1157.384,618.792 1159.85,614.191 
			1160.157,613.495 1160.538,612.836 1160.989,612.223 1161.504,611.662 1162.077,611.16 1162.701,610.725 1163.369,610.359 
			1164.073,610.068 1164.804,609.856 1165.554,609.725 1166.313,609.676 1167.074,609.71 		"/>
	</g>
	<g id="LWPOLYLINE_2_">
		<polyline fill="none" stroke="#000000" stroke-width="0.7087" stroke-linecap="round" stroke-linejoin="round" points="
			975.476,89.529 975.393,89.479 975.051,89.138 971.661,87.181 967.88,86.167 963.965,86.167 960.183,87.181 956.793,89.138 
			954.024,91.906 952.067,95.297 951.054,99.078 951.054,102.993 952.067,106.774 952.257,107.313 952.386,107.869 952.454,108.436 
			952.461,109.007 952.404,109.575 952.287,110.134 952.109,110.677 951.874,111.197 951.583,111.688 951.24,112.145 
			950.851,112.562 950.417,112.933 888.666,160.316 888.666,0.354 1043.178,41.755 981.431,89.144 981.369,89.183 980.948,89.448 
			980.438,89.704 979.905,89.907 979.354,90.056 978.792,90.149 978.223,90.186 977.652,90.166 977.087,90.089 976.532,89.956 
			975.993,89.769 975.476,89.529 		"/>
	</g>
	<g id="LWPOLYLINE_3_">
		<polyline fill="none" stroke="#000000" stroke-width="0.7087" stroke-linecap="round" stroke-linejoin="round" points="
			811.623,433.311 691.652,433.311 689.694,433.183 687.771,432.8 685.913,432.17 684.153,431.302 682.522,430.212 681.048,428.919 
			679.754,427.443 678.665,425.812 677.797,424.054 677.167,422.196 676.784,420.271 676.655,418.314 676.784,416.357 
			677.167,414.433 677.797,412.576 678.665,410.816 679.754,409.186 681.048,407.71 682.522,406.417 684.153,405.327 
			685.913,404.459 687.771,403.829 689.694,403.446 691.652,403.318 811.623,403.318 813.581,403.446 815.505,403.829 
			817.362,404.459 819.121,405.327 820.752,406.417 822.228,407.71 823.521,409.186 824.61,410.816 825.479,412.576 
			826.108,414.433 826.491,416.357 826.619,418.314 826.491,420.271 826.108,422.196 825.479,424.054 824.61,425.812 
			823.521,427.443 822.228,428.919 820.752,430.212 819.121,431.302 817.362,432.17 815.505,432.8 813.581,433.183 811.623,433.311 
					"/>
	</g>
	<g id="LWPOLYLINE_4_">
		<polyline fill="none" stroke="#000000" stroke-width="0.7087" stroke-linecap="round" stroke-linejoin="round" points="
			1431.201,657.672 1427.837,659.385 1424.13,660.102 1420.37,659.767 1416.849,658.407 1413.84,656.127 1411.578,653.104 
			1321.72,524.774 1420.005,455.954 1498.394,567.905 1427.885,617.276 1427.205,617.873 1426.604,618.548 1426.091,619.292 
			1425.672,620.093 1425.354,620.939 1425.144,621.818 1425.041,622.716 1425.05,623.62 1425.17,624.516 1425.397,625.391 
			1425.731,626.23 1426.166,627.023 1433.621,637.67 1435.688,640.829 1436.801,644.437 1436.874,648.211 1435.902,651.858 
			1433.961,655.096 1431.201,657.672 		"/>
	</g>
	<g id="LWPOLYLINE_5_">
		<polyline fill="none" stroke="#000000" stroke-width="0.7087" stroke-linecap="round" stroke-linejoin="round" points="
			1369.34,581.07 1370.479,582.662 1371.992,583.904 1373.774,584.713 1375.752,585 1377.654,584.842 1379.486,584.152 
			1381.078,583.014 1382.32,581.501 1383.129,579.718 1383.448,577.787 1383.258,575.839 1382.568,574.007 1381.429,572.415 
			1379.917,571.173 1378.134,570.364 1376.203,570.044 1374.255,570.235 1372.423,570.924 1370.831,572.063 1369.589,573.576 
			1368.78,575.358 1368.46,577.29 1368.651,579.238 1369.34,581.07 		"/>
	</g>
	<g id="LWPOLYLINE_6_">
		<polyline fill="none" stroke="#000000" stroke-width="0.7087" stroke-linecap="round" stroke-linejoin="round" points="
			1348.016,523.652 1346.402,522.544 1344.558,521.89 1342.606,521.735 1340.682,522.091 1338.914,522.934 1337.426,524.204 
			1336.316,525.816 1335.623,527.689 1335.508,529.612 1335.864,531.537 1336.706,533.305 1337.977,534.794 1339.589,535.902 
			1341.435,536.557 1343.386,536.711 1345.311,536.355 1347.077,535.514 1348.566,534.242 1349.676,532.63 1350.33,530.785 
			1350.484,528.834 1350.128,526.909 1349.286,525.142 1348.016,523.652 		"/>
	</g>
	<g id="LWPOLYLINE_7_">
		<polyline fill="none" stroke="#000000" stroke-width="0.7087" stroke-linecap="round" stroke-linejoin="round" points="
			1430.741,648.533 1430.981,646.59 1430.711,644.651 1429.947,642.85 1428.743,641.306 1427.181,640.127 1425.366,639.393 
			1423.424,639.152 1421.485,639.423 1419.683,640.187 1418.14,641.391 1416.96,642.953 1416.226,644.768 1415.985,646.71 
			1416.257,648.648 1417.021,650.451 1418.224,651.994 1419.786,653.174 1421.601,653.908 1423.543,654.148 1425.481,653.877 
			1427.284,653.113 1428.828,651.909 1430.007,650.348 1430.741,648.533 		"/>
	</g>
	<g id="LWPOLYLINE_8_">
		
			<line fill="none" stroke="#000000" stroke-width="0.7087" stroke-linecap="round" stroke-linejoin="round" x1="972.06" y1="594.281" x2="1085.528" y2="756.331"/>
		<polyline fill="none" stroke="#000000" stroke-width="0.7087" stroke-linecap="round" stroke-linejoin="round" points="
			1085.528,756.331 1085.799,756.805 1085.979,757.318 1086.063,757.856 1086.05,758.401 1085.938,758.935 1085.73,759.438 
			1085.436,759.896 1085.062,760.294 1084.624,760.617 1084.135,760.856 1083.609,761.002 1083.067,761.051 1082.524,761.001 		"/>
		<polyline fill="none" stroke="#000000" stroke-width="0.7087" stroke-linecap="round" stroke-linejoin="round" points="
			1082.524,761.001 1040.039,753.129 1033.808,751.825 1027.643,750.236 1021.557,748.365 1015.564,746.216 1009.677,743.793 
			1003.906,741.102 998.267,738.146 992.769,734.937 987.425,731.476 982.245,727.773 977.242,723.836 972.425,719.673 
			899.23,658.043 894.731,654.541 874.134,639.546 852.613,625.907 830.261,613.682 807.169,602.918 783.432,593.663 
			759.148,585.954 734.419,579.822 709.347,575.295 684.036,572.389 658.59,571.117 633.115,571.485 607.716,573.491 
			598.113,574.221 588.482,574.274 578.872,573.651 569.329,572.354 559.9,570.39 550.633,567.769 541.573,564.502 532.765,560.607 
			524.252,556.104 516.077,551.014 508.279,545.361 500.897,539.176 494.007,531.981 487.58,524.37 481.642,516.371 
			476.215,508.017 471.323,499.339 466.983,490.372 463.212,481.151 460.026,471.713 457.437,462.094 455.454,452.331 
			454.086,442.464 453.338,432.53 560.363,450.017 560.314,451.574 560.671,453.092 561.408,454.465 562.475,455.601 563.8,456.422 
			565.292,456.871 566.85,456.92 568.367,456.563 569.74,455.826 570.876,454.759 571.697,453.435 572.146,451.942 575.048,434.182 
			628.354,441.702 681.855,447.681 735.507,452.113 789.264,454.996 843.081,456.327 896.915,456.104 950.72,454.328 
			1004.451,451.001 1058.063,446.125 1111.514,439.704 1164.756,431.743 1204.343,424.651 		"/>
		<polyline fill="none" stroke="#000000" stroke-width="0.7087" stroke-linecap="round" stroke-linejoin="round" points="
			1204.343,424.651 1204.92,424.604 1205.495,424.67 1206.048,424.845 1206.557,425.122 1207.002,425.492 1207.368,425.94 
			1207.641,426.452 1207.811,427.006 1207.871,427.582 1207.819,428.158 1207.657,428.715 1207.392,429.229 1207.032,429.684 
			1206.592,430.061 		"/>
		<polyline fill="none" stroke="#000000" stroke-width="0.7087" stroke-linecap="round" stroke-linejoin="round" points="
			1206.592,430.061 977.762,590.289 977.147,589.619 976.382,589.131 975.515,588.857 974.607,588.818 973.72,589.015 
			972.914,589.434 972.244,590.048 971.756,590.814 971.482,591.681 971.443,592.589 971.543,593.544 972.06,594.281 		"/>
	</g>
	<g id="LWPOLYLINE_9_">
		<polyline fill="none" stroke="#000000" stroke-width="0.7087" stroke-linecap="round" stroke-linejoin="round" points="
			0.537,435.354 0.852,429.658 1.315,423.971 1.929,418.298 2.689,412.644 3.598,407.011 4.654,401.404 5.856,395.826 
			7.205,390.282 8.697,384.775 10.333,379.309 12.112,373.887 14.032,368.515 16.092,363.194 18.291,357.929 20.627,352.723 
			23.098,347.58 25.703,342.504 28.44,337.498 31.307,332.564 34.302,327.708 37.423,322.932 40.669,318.239 44.036,313.632 
			47.522,309.116 51.126,304.692 54.844,300.364 58.674,296.135 62.613,292.008 66.66,287.985 70.81,284.069 75.061,280.264 
			79.41,276.57 83.854,272.993 88.391,269.532 93.017,266.192 97.729,262.974 102.522,259.88 107.396,256.913 112.346,254.074 
			117.368,251.366 122.459,248.79 127.616,246.349 132.835,244.043 138.112,241.875 143.445,239.845 148.829,237.956 
			154.261,236.209 159.736,234.604 165.251,233.143 170.803,231.827 176.388,230.657 182.001,229.633 187.639,228.757 
			193.298,228.028 198.974,227.449 204.664,227.017 210.362,226.735 216.066,226.602 221.772,226.619 227.475,226.784 
			233.172,227.1 238.859,227.563 244.532,228.176 250.187,228.938 255.819,229.846 261.427,230.902 267.004,232.104 
			272.548,233.452 278.055,234.945 283.521,236.581 288.943,238.36 294.315,240.28 299.636,242.34 304.901,244.539 310.107,246.875 
			315.25,249.346 320.326,251.951 325.333,254.688 330.266,257.555 335.122,260.55 339.898,263.671 344.591,266.917 
			349.198,270.284 353.714,273.77 358.138,277.374 362.466,281.092 366.695,284.922 370.822,288.861 374.845,292.907 
			378.761,297.058 382.566,301.309 386.26,305.658 389.837,310.103 393.298,314.639 396.638,319.265 399.856,323.976 
			402.95,328.771 405.917,333.644 408.756,338.593 411.464,343.615 414.04,348.707 416.481,353.863 418.787,359.083 420.955,364.36 
			422.985,369.693 424.874,375.077 426.621,380.508 428.226,385.984 429.687,391.499 431.003,397.051 432.173,402.635 
			433.197,408.249 434.073,413.887 434.801,419.546 435.381,425.222 435.813,430.911 436.095,436.61 436.228,442.314 
			436.211,448.02 436.046,453.723 435.73,459.42 435.267,465.106 434.654,470.779 433.893,476.435 432.984,482.067 431.928,487.674 
			430.726,493.252 429.378,498.796 427.885,504.303 426.249,509.77 424.47,515.19 422.55,520.563 420.49,525.884 418.291,531.149 
			415.956,536.355 413.484,541.498 410.879,546.574 408.143,551.58 405.275,556.514 402.28,561.37 399.159,566.146 395.914,570.839 
			392.546,575.445 389.06,579.962 385.457,584.386 381.738,588.714 377.908,592.942 373.969,597.07 369.923,601.093 
			365.772,605.009 361.521,608.814 357.172,612.508 352.728,616.085 348.191,619.546 343.565,622.886 338.854,626.104 
			334.06,629.198 329.187,632.165 324.237,635.004 319.215,637.712 314.124,640.288 308.966,642.729 303.748,645.035 
			298.47,647.203 293.137,649.232 287.753,651.122 282.322,652.869 276.846,654.474 271.331,655.935 265.779,657.251 
			260.194,658.421 254.582,659.444 248.943,660.321 243.284,661.049 237.608,661.629 231.919,662.061 226.22,662.343 
			220.516,662.476 214.811,662.459 209.107,662.294 203.41,661.979 197.723,661.515 192.05,660.901 186.396,660.141 
			180.763,659.231 175.156,658.176 169.578,656.974 164.034,655.626 158.527,654.133 153.061,652.497 147.64,650.718 
			142.267,648.798 136.946,646.737 131.681,644.539 126.475,642.203 121.332,639.732 116.256,637.127 111.25,634.39 
			106.316,631.523 101.46,628.527 96.684,625.406 91.991,622.161 87.385,618.794 82.868,615.308 78.444,611.704 74.116,607.986 
			69.887,604.156 65.76,600.217 61.737,596.171 57.821,592.021 54.016,587.77 50.323,583.42 46.745,578.976 43.284,574.438 
			39.944,569.813 36.726,565.102 33.632,560.308 30.665,555.434 27.826,550.484 25.118,545.463 22.542,540.371 20.101,535.214 
			17.795,529.995 15.627,524.718 13.598,519.385 11.708,514.001 9.961,508.569 8.356,503.094 6.896,497.579 5.58,492.026 
			4.409,486.442 3.386,480.829 2.509,475.191 1.781,469.532 1.201,463.856 0.77,458.167 0.487,452.468 0.354,446.764 0.371,441.059 
			0.537,435.354 		"/>
	</g>
	<g id="LWPOLYLINE_10_">
		<polyline fill="none" stroke="#000000" stroke-width="0.7087" stroke-linecap="round" stroke-linejoin="round" points="
			122.989,271.232 124.195,271.732 125.488,271.902 126.782,271.732 127.988,271.232 129.023,270.438 129.817,269.403 
			130.317,268.197 130.487,266.903 130.317,265.61 129.817,264.404 129.023,263.369 127.988,262.574 126.782,262.075 
			125.488,261.905 124.195,262.075 122.989,262.574 121.954,263.369 121.159,264.404 120.66,265.61 120.49,266.903 120.66,268.197 
			121.159,269.403 121.954,270.438 122.989,271.232 		"/>
	</g>
	<g id="LWPOLYLINE_11_">
		<polyline fill="none" stroke="#000000" stroke-width="0.7087" stroke-linecap="round" stroke-linejoin="round" points="
			37.398,355.528 38.491,356.242 39.731,356.649 41.034,356.721 42.311,356.453 43.476,355.864 44.448,354.993 45.162,353.901 
			45.568,352.661 45.64,351.358 45.373,350.081 44.783,348.917 43.913,347.944 42.821,347.23 41.581,346.824 40.278,346.752 
			39,347.02 37.836,347.608 36.864,348.479 36.15,349.571 35.743,350.812 35.671,352.114 35.939,353.392 36.528,354.556 
			37.398,355.528 		"/>
	</g>
	<g id="LWPOLYLINE_12_">
		<polyline fill="none" stroke="#000000" stroke-width="0.7087" stroke-linecap="round" stroke-linejoin="round" points="
			398.426,356.065 399.461,355.271 400.256,354.235 400.755,353.03 400.925,351.736 400.755,350.442 400.256,349.237 
			399.461,348.202 398.426,347.407 397.22,346.908 395.927,346.737 394.633,346.908 393.427,347.407 392.392,348.202 
			391.598,349.237 391.098,350.442 390.928,351.736 391.098,353.03 391.598,354.235 392.392,355.271 393.427,356.065 
			394.633,356.564 395.927,356.735 397.22,356.564 398.426,356.065 		"/>
	</g>
	<g id="LWPOLYLINE_13_">
		<polyline fill="none" stroke="#000000" stroke-width="0.7087" stroke-linecap="round" stroke-linejoin="round" points="
			312.388,262.075 311.094,261.905 309.8,262.075 308.595,262.574 307.559,263.369 306.765,264.404 306.266,265.61 306.095,266.903 
			306.266,268.197 306.765,269.403 307.559,270.438 308.595,271.232 309.8,271.732 311.094,271.902 312.388,271.732 
			313.593,271.232 314.628,270.438 315.423,269.403 315.922,268.197 316.093,266.903 315.922,265.61 315.423,264.404 
			314.628,263.369 313.593,262.574 312.388,262.075 		"/>
	</g>
	<g id="LWPOLYLINE_14_">
		<polyline fill="none" stroke="#000000" stroke-width="0.7087" stroke-linecap="round" stroke-linejoin="round" points="
			190.105,454.017 191.353,457.727 192.122,458.885 192.377,459.5 193.519,460.988 195.685,464.25 196.727,465.169 197.132,465.697 
			198.62,466.839 201.556,469.429 202.801,470.048 203.33,470.453 205.062,471.171 208.568,472.912 209.931,473.188 
			210.546,473.442 212.406,473.688 216.243,474.462 217.631,474.375 218.291,474.462 220.15,474.217 224.058,473.973 
			225.375,473.529 226.036,473.442 227.769,472.725 231.479,471.477 232.637,470.708 233.252,470.453 234.74,469.312 
			238.002,467.146 238.921,466.104 239.45,465.697 240.591,464.21 243.181,461.273 243.8,460.028 244.205,459.5 244.923,457.768 
			246.665,454.262 246.939,452.898 247.194,452.283 247.439,450.424 248.214,446.587 248.127,445.199 248.214,444.539 
			247.969,442.68 247.725,438.772 247.281,437.455 247.194,436.794 246.477,435.062 245.229,431.351 244.46,430.192 
			244.205,429.658 243.063,428.09 240.898,424.828 239.855,423.908 239.45,423.38 237.962,422.238 235.026,419.648 233.781,419.03 
			233.252,418.625 231.52,417.907 228.014,416.166 226.651,415.891 226.036,415.636 224.176,415.391 220.339,414.616 
			218.952,414.703 218.291,414.616 216.432,414.861 212.524,415.105 211.207,415.549 210.546,415.636 208.814,416.354 
			205.103,417.601 203.945,418.37 203.33,418.625 201.842,419.767 198.581,421.933 197.661,422.975 197.132,423.38 195.991,424.868 
			193.401,427.804 192.783,429.049 192.377,429.658 191.66,431.311 189.918,434.816 189.643,436.179 189.388,436.794 
			189.143,438.653 188.368,442.491 188.455,443.879 188.368,444.539 188.613,446.398 188.858,450.306 189.301,451.623 
			189.388,452.283 190.105,454.017 		"/>
	</g>
	<g id="LWPOLYLINE_15_">
		<polyline fill="none" stroke="#000000" stroke-width="0.7087" stroke-linecap="round" stroke-linejoin="round" points="
			89.435,573.396 90.263,574.031 91.227,574.431 92.262,574.566 93.297,574.431 94.262,574.031 95.09,573.396 95.726,572.567 
			96.125,571.603 96.261,570.567 96.125,569.533 95.726,568.568 95.09,567.74 94.262,567.104 93.297,566.705 92.262,566.568 
			91.227,566.705 90.263,567.104 89.435,567.74 88.799,568.568 88.399,569.533 88.263,570.567 88.399,571.603 88.799,572.567 
			89.435,573.396 		"/>
	</g>
	<g id="LWPOLYLINE_16_">
		<polyline fill="none" stroke="#000000" stroke-width="0.7087" stroke-linecap="round" stroke-linejoin="round" points="
			347.148,573.396 347.783,572.567 348.183,571.603 348.319,570.567 348.183,569.533 347.783,568.568 347.148,567.74 
			346.319,567.104 345.355,566.705 344.32,566.568 343.285,566.705 342.32,567.104 341.492,567.74 340.857,568.568 340.457,569.533 
			340.321,570.567 340.457,571.603 340.857,572.567 341.492,573.396 342.32,574.031 343.285,574.431 344.32,574.566 
			345.355,574.431 346.319,574.031 347.148,573.396 		"/>
	</g>
	<g id="LWPOLYLINE_17_">
		<polyline fill="none" stroke="#000000" stroke-width="0.7087" stroke-linecap="round" stroke-linejoin="round" points="
			110.903,549.014 109.865,548.896 108.833,549.051 107.875,549.467 107.059,550.117 106.438,550.956 106.055,551.928 
			105.938,552.965 106.092,553.997 106.508,554.954 107.158,555.771 107.998,556.393 108.969,556.774 110.006,556.893 
			111.039,556.738 111.996,556.322 112.813,555.672 113.434,554.833 113.816,553.861 113.934,552.824 113.78,551.792 
			113.363,550.834 112.713,550.018 111.874,549.396 110.903,549.014 		"/>
	</g>
	<g id="LWPOLYLINE_18_">
		<polyline fill="none" stroke="#000000" stroke-width="0.7087" stroke-linecap="round" stroke-linejoin="round" points="
			324.647,549.431 323.819,550.066 323.183,550.895 322.784,551.859 322.647,552.895 322.784,553.93 323.183,554.894 
			323.819,555.722 324.647,556.357 325.611,556.757 326.646,556.894 327.682,556.757 328.646,556.357 329.474,555.722 
			330.11,554.894 330.509,553.93 330.646,552.895 330.509,551.859 330.11,550.895 329.474,550.066 328.646,549.431 327.682,549.031 
			326.646,548.896 325.611,549.031 324.647,549.431 		"/>
	</g>
	<g id="LWPOLYLINE_19_">
		
			<line fill="none" stroke="#000000" stroke-width="0.7087" stroke-linecap="round" stroke-linejoin="round" x1="969.789" y1="243.887" x2="1083.258" y2="81.837"/>
		<polyline fill="none" stroke="#000000" stroke-width="0.7087" stroke-linecap="round" stroke-linejoin="round" points="
			1083.258,81.837 1083.528,81.364 1083.709,80.85 1083.794,80.312 1083.779,79.767 1083.667,79.234 1083.46,78.73 1083.165,78.271 
			1082.793,77.875 1082.354,77.551 1081.864,77.312 1081.339,77.166 1080.797,77.117 1080.254,77.167 		"/>
		<polyline fill="none" stroke="#000000" stroke-width="0.7087" stroke-linecap="round" stroke-linejoin="round" points="
			1080.254,77.167 1037.769,85.039 1031.537,86.343 1025.372,87.932 1019.286,89.803 1013.294,91.953 1007.406,94.376 
			1001.636,97.067 995.996,100.021 990.499,103.232 985.154,106.692 979.975,110.395 974.972,114.333 970.155,118.496 
			896.96,180.125 892.461,183.627 871.863,198.622 850.343,212.261 827.991,224.487 804.898,235.25 781.161,244.505 
			756.878,252.215 732.149,258.346 707.077,262.874 681.765,265.779 656.319,267.051 630.844,266.683 605.446,264.677 
			595.843,263.947 586.212,263.894 576.602,264.517 567.059,265.814 557.63,267.778 548.363,270.4 539.303,273.666 530.495,277.561 
			521.981,282.064 513.806,287.155 506.008,292.807 498.627,298.993 491.736,306.188 485.309,313.799 479.371,321.797 
			473.945,330.151 469.052,338.829 464.712,347.796 460.942,357.017 457.755,366.455 455.166,376.075 453.184,385.837 
			451.816,395.705 451.068,405.638 558.092,388.152 558.044,386.594 558.4,385.077 559.137,383.704 560.205,382.568 
			561.529,381.747 563.021,381.297 564.579,381.249 566.096,381.605 567.47,382.342 568.605,383.409 569.426,384.734 
			569.876,386.226 572.778,403.986 626.084,396.466 679.585,390.488 733.237,386.055 786.993,383.172 840.812,381.841 
			894.645,382.064 948.449,383.84 1002.181,387.167 1055.794,392.043 1109.243,398.465 1162.485,406.425 1202.072,413.518 		"/>
		<polyline fill="none" stroke="#000000" stroke-width="0.7087" stroke-linecap="round" stroke-linejoin="round" points="
			1202.072,413.518 1202.649,413.564 1203.226,413.499 1203.777,413.324 1204.286,413.046 1204.731,412.676 1205.098,412.228 
			1205.37,411.717 1205.54,411.163 1205.601,410.587 1205.549,410.01 1205.387,409.454 1205.121,408.939 1204.762,408.485 
			1204.321,408.108 		"/>
		<polyline fill="none" stroke="#000000" stroke-width="0.7087" stroke-linecap="round" stroke-linejoin="round" points="
			1204.321,408.108 975.491,247.879 974.877,248.549 974.111,249.038 973.244,249.311 972.337,249.351 971.449,249.154 
			970.644,248.734 969.974,248.121 969.485,247.354 969.212,246.487 969.173,245.58 969.272,244.625 969.789,243.887 		"/>
	</g>
	<g id="LWPOLYLINE_20_">
		<polyline fill="none" stroke="#000000" stroke-width="0.7087" stroke-linecap="round" stroke-linejoin="round" points="
			991.227,433.311 871.255,433.311 869.298,433.183 867.374,432.8 865.516,432.17 863.757,431.302 862.126,430.212 860.65,428.919 
			859.357,427.443 858.268,425.812 857.4,424.054 856.77,422.196 856.387,420.271 856.259,418.314 856.387,416.357 856.77,414.433 
			857.4,412.576 858.268,410.816 859.357,409.186 860.65,407.71 862.126,406.417 863.757,405.327 865.516,404.459 867.374,403.829 
			869.298,403.446 871.255,403.318 991.227,403.318 993.184,403.446 995.107,403.829 996.965,404.459 998.725,405.327 
			1000.355,406.417 1001.83,407.71 1003.124,409.186 1004.214,410.816 1005.081,412.576 1005.712,414.433 1006.095,416.357 
			1006.223,418.314 1006.095,420.271 1005.712,422.196 1005.081,424.054 1004.214,425.812 1003.124,427.443 1001.83,428.919 
			1000.355,430.212 998.725,431.302 996.965,432.17 995.107,432.8 993.184,433.183 991.227,433.311 		"/>
	</g>
	<g id="LWPOLYLINE_21_">
		<polyline fill="none" stroke="#000000" stroke-width="0.7087" stroke-linecap="round" stroke-linejoin="round" points="
			1175.777,585.909 1061.193,574.496 1232.87,440.367 1342.222,602.488 1227.634,591.099 1227.43,591.054 1226.892,590.936 
			1226.168,590.704 1225.47,590.405 1224.802,590.043 1224.171,589.62 1223.582,589.141 1223.04,588.607 1222.551,588.027 
			1222.117,587.403 1221.744,586.741 1221.467,586.121 1221.439,585.257 1219.93,580.26 1217.178,575.824 1213.372,572.252 
			1208.771,569.786 1203.689,568.596 1198.473,568.76 1193.476,570.27 1189.04,573.021 1185.468,576.827 1183.002,581.428 
			1182.694,582.124 1182.312,582.783 1181.862,583.396 1181.347,583.957 1180.774,584.459 1180.15,584.895 1179.482,585.26 
			1178.778,585.551 1178.048,585.763 1177.298,585.895 1176.538,585.943 1175.777,585.909 		"/>
	</g>
	<g id="LWPOLYLINE_22_">
		<polyline fill="none" stroke="#000000" stroke-width="0.7087" stroke-linecap="round" stroke-linejoin="round" points="
			1178.979,251.901 1203.532,364.404 1022.917,242.578 1143.312,88.479 1167.89,200.979 1167.91,201.187 1167.964,201.735 
			1167.967,202.495 1167.898,203.252 1167.761,203.999 1167.554,204.729 1167.279,205.438 1166.94,206.118 1166.539,206.763 
			1166.079,207.368 1165.565,207.927 1165.062,208.382 1164.247,208.676 1159.962,211.655 1156.594,215.643 1154.372,220.367 
			1153.448,225.504 1153.887,230.706 1155.655,235.616 1158.636,239.902 1162.623,243.271 1167.347,245.492 1172.484,246.415 
			1173.241,246.492 1173.986,246.651 1174.709,246.891 1175.401,247.207 1176.055,247.597 1176.662,248.056 1177.216,248.578 
			1177.71,249.157 1178.138,249.787 1178.494,250.459 1178.775,251.167 1178.979,251.901 		"/>
	</g>
	<g id="LWPOLYLINE_23_">
		<polyline fill="none" stroke="#000000" stroke-width="0.7087" stroke-linecap="round" stroke-linejoin="round" points="
			1204.304,252.824 1179.75,140.32 1360.365,262.146 1239.971,416.245 1215.393,303.745 1215.372,303.538 1215.318,302.989 
			1215.315,302.229 1215.384,301.473 1215.521,300.726 1215.729,299.995 1216.003,299.287 1216.342,298.607 1216.743,297.962 
			1217.203,297.356 1217.717,296.797 1218.221,296.342 1219.034,296.049 1223.32,293.069 1226.688,289.082 1228.91,284.358 
			1229.833,279.221 1229.396,274.019 1227.626,269.108 1224.646,264.823 1220.659,261.454 1215.936,259.233 1210.798,258.31 
			1210.041,258.232 1209.296,258.073 1208.573,257.834 1207.881,257.518 1207.228,257.127 1206.62,256.669 1206.065,256.146 
			1205.572,255.567 1205.145,254.938 1204.788,254.265 1204.507,253.558 1204.304,252.824 		"/>
	</g>
	<g id="LWPOLYLINE_24_">
		<polyline fill="none" stroke="#000000" stroke-width="0.7087" stroke-linecap="round" stroke-linejoin="round" points="
			874.247,659.474 874.247,809.818 639.063,809.818 501.345,809.818 501.345,757.882 845.888,639.246 874.247,659.474 		"/>
	</g>
	<g id="LWPOLYLINE_25_">
		<polyline fill="none" stroke="#000000" stroke-width="0.7087" stroke-linecap="round" stroke-linejoin="round" points="
			873.577,175.474 873.577,25.13 638.394,25.13 500.675,25.13 500.675,77.067 845.218,195.703 873.577,175.474 		"/>
	</g>
	<g id="LWPOLYLINE_26_">
		<polyline fill="none" stroke="#000000" stroke-width="0.7087" stroke-linecap="round" stroke-linejoin="round" points="
			362.562,92.105 362.562,242.45 597.745,242.45 735.463,242.45 735.463,190.513 390.92,71.877 362.562,92.105 		"/>
	</g>
	<g id="LWPOLYLINE_27_">
		<polyline fill="none" stroke="#000000" stroke-width="0.7087" stroke-linecap="round" stroke-linejoin="round" points="
			974.359,739.842 974.275,739.892 973.935,740.232 970.544,742.19 966.763,743.203 962.848,743.203 959.066,742.19 
			955.676,740.232 952.907,737.465 950.95,734.074 949.937,730.293 949.937,726.378 950.95,722.597 951.14,722.058 951.27,721.502 
			951.338,720.935 951.344,720.364 951.288,719.796 951.17,719.237 950.993,718.694 950.757,718.175 950.466,717.684 
			950.124,717.227 949.733,716.81 949.3,716.438 887.55,669.055 887.55,829.017 1042.061,787.615 980.313,740.228 980.252,740.188 
			979.832,739.923 979.321,739.668 978.788,739.465 978.237,739.315 977.675,739.223 977.105,739.186 976.535,739.205 
			975.971,739.282 975.415,739.415 974.877,739.603 974.359,739.842 		"/>
	</g>
	<g id="LWPOLYLINE_28_">
		<polyline fill="none" stroke="#000000" stroke-width="0.7087" stroke-linecap="round" stroke-linejoin="round" points="
			1288.533,178.985 1288.557,178.891 1288.783,178.465 1289.664,174.65 1289.527,170.738 1288.383,166.994 1286.308,163.674 
			1283.444,161.004 1279.988,159.166 1276.174,158.286 1272.261,158.422 1268.518,159.567 1265.197,161.641 1264.737,161.98 
			1264.244,162.267 1263.722,162.498 1263.178,162.67 1262.618,162.783 1262.049,162.834 1261.479,162.823 1260.912,162.75 
			1260.357,162.615 1259.82,162.421 1259.308,162.169 1258.825,161.864 1195.459,116.665 1348.431,69.896 1354.014,229.761 
			1290.643,184.567 1290.588,184.52 1290.211,184.195 1289.817,183.782 1289.468,183.331 1289.164,182.848 1288.91,182.337 
			1288.709,181.804 1288.562,181.253 1288.469,180.689 1288.434,180.12 1288.455,179.55 1288.533,178.985 		"/>
	</g>
	<g id="LWPOLYLINE_29_">
		<polyline fill="none" stroke="#000000" stroke-width="0.7087" stroke-linecap="round" stroke-linejoin="round" points="
			1252.012,677.414 1252.035,677.509 1252.262,677.935 1253.142,681.749 1253.005,685.661 1251.86,689.405 1249.786,692.726 
			1246.923,695.396 1243.467,697.233 1239.652,698.114 1235.739,697.978 1231.996,696.833 1228.676,694.758 1228.216,694.42 
			1227.722,694.133 1227.2,693.901 1226.656,693.729 1226.097,693.616 1225.527,693.565 1224.957,693.576 1224.391,693.649 
			1223.836,693.784 1223.299,693.979 1222.786,694.229 1222.304,694.535 1158.938,739.734 1311.909,786.503 1317.492,626.639 
			1254.121,671.832 1254.066,671.88 1253.689,672.204 1253.296,672.617 1252.946,673.068 1252.643,673.551 1252.389,674.062 
			1252.187,674.596 1252.039,675.146 1251.947,675.71 1251.912,676.279 1251.934,676.849 1252.012,677.414 		"/>
	</g>
	<g id="LWPOLYLINE_30_">
		<polyline fill="none" stroke="#000000" stroke-width="0.7087" stroke-linecap="round" stroke-linejoin="round" points="
			1268.272,418.229 1266.56,414.865 1265.842,411.159 1266.177,407.398 1267.537,403.877 1269.816,400.868 1272.839,398.606 
			1401.17,308.748 1469.989,407.032 1358.038,485.422 1308.667,414.913 1308.07,414.233 1307.396,413.632 1306.651,413.119 
			1305.851,412.7 1305.004,412.383 1304.125,412.171 1303.228,412.069 1302.323,412.078 1301.428,412.198 1300.553,412.426 
			1299.713,412.76 1298.92,413.194 1288.273,420.648 1285.114,422.715 1281.507,423.828 1277.733,423.902 1274.085,422.931 
			1270.848,420.989 1268.272,418.229 		"/>
	</g>
	<g id="LWPOLYLINE_31_">
		<polyline fill="none" stroke="#000000" stroke-width="0.7087" stroke-linecap="round" stroke-linejoin="round" points="
			1344.873,356.368 1343.282,357.508 1342.039,359.02 1341.23,360.803 1340.943,362.78 1341.103,364.682 1341.791,366.514 
			1342.931,368.106 1344.443,369.348 1346.226,370.157 1348.156,370.477 1350.104,370.286 1351.938,369.597 1353.528,368.457 
			1354.771,366.945 1355.579,365.162 1355.899,363.231 1355.708,361.283 1355.02,359.451 1353.88,357.859 1352.367,356.617 
			1350.585,355.808 1348.653,355.488 1346.706,355.679 1344.873,356.368 		"/>
	</g>
	<g id="LWPOLYLINE_32_">
		<polyline fill="none" stroke="#000000" stroke-width="0.7087" stroke-linecap="round" stroke-linejoin="round" points="
			1402.291,335.043 1403.4,333.431 1404.054,331.586 1404.208,329.634 1403.853,327.709 1403.011,325.942 1401.74,324.454 
			1400.127,323.344 1398.255,322.651 1396.331,322.536 1394.406,322.892 1392.639,323.734 1391.15,325.004 1390.041,326.617 
			1389.387,328.462 1389.232,330.414 1389.588,332.338 1390.431,334.105 1391.701,335.594 1393.313,336.704 1395.159,337.358 
			1397.11,337.512 1399.035,337.156 1400.802,336.314 1402.291,335.043 		"/>
	</g>
	<g id="LWPOLYLINE_33_">
		<polyline fill="none" stroke="#000000" stroke-width="0.7087" stroke-linecap="round" stroke-linejoin="round" points="
			1277.411,417.77 1279.354,418.01 1281.292,417.738 1283.095,416.975 1284.638,415.771 1285.817,414.208 1286.552,412.395 
			1286.792,410.452 1286.521,408.513 1285.757,406.711 1284.553,405.167 1282.991,403.988 1281.177,403.253 1279.233,403.014 
			1277.295,403.285 1275.493,404.048 1273.949,405.252 1272.771,406.814 1272.035,408.629 1271.796,410.571 1272.066,412.51 
			1272.83,414.312 1274.034,415.855 1275.597,417.035 1277.411,417.77 		"/>
	</g>
	<g id="LINE">
		
			<line fill="none" stroke="#000000" stroke-width="0.7087" stroke-linecap="round" stroke-linejoin="round" x1="871.255" y1="415.315" x2="871.255" y2="421.313"/>
	</g>
	<g id="LINE_1_">
		
			<line fill="none" stroke="#000000" stroke-width="0.7087" stroke-linecap="round" stroke-linejoin="round" x1="874.254" y1="418.314" x2="868.256" y2="418.314"/>
	</g>
	<g id="CIRCLE">
		<path fill="none" stroke="#000000" stroke-width="0.7087" stroke-linecap="round" stroke-linejoin="round" d="M874.754,418.314
			c0-1.933-1.566-3.499-3.499-3.499s-3.499,1.566-3.499,3.499s1.566,3.499,3.499,3.499S874.754,420.247,874.754,418.314
			L874.754,418.314L874.754,418.314z"/>
	</g>
	<g id="LINE_2_">
		
			<line fill="none" stroke="#000000" stroke-width="0.7087" stroke-linecap="round" stroke-linejoin="round" x1="991.227" y1="415.315" x2="991.227" y2="421.313"/>
	</g>
	<g id="LINE_3_">
		
			<line fill="none" stroke="#000000" stroke-width="0.7087" stroke-linecap="round" stroke-linejoin="round" x1="991.227" y1="418.314" x2="994.226" y2="418.314"/>
	</g>
	<g id="LINE_4_">
		
			<line fill="none" stroke="#000000" stroke-width="0.7087" stroke-linecap="round" stroke-linejoin="round" x1="991.227" y1="418.314" x2="988.228" y2="418.314"/>
	</g>
	<g id="CIRCLE_1_">
		<path fill="none" stroke="#000000" stroke-width="0.7087" stroke-linecap="round" stroke-linejoin="round" d="M994.726,418.314
			c0-1.933-1.566-3.499-3.499-3.499s-3.499,1.566-3.499,3.499s1.566,3.499,3.499,3.499S994.726,420.247,994.726,418.314
			L994.726,418.314L994.726,418.314z"/>
	</g>
	<g id="LINE_5_">
		
			<line fill="none" stroke="#000000" stroke-width="0.7087" stroke-linecap="round" stroke-linejoin="round" x1="691.652" y1="415.315" x2="691.652" y2="421.313"/>
	</g>
	<g id="LINE_6_">
		
			<line fill="none" stroke="#000000" stroke-width="0.7087" stroke-linecap="round" stroke-linejoin="round" x1="694.651" y1="418.314" x2="688.652" y2="418.314"/>
	</g>
	<g id="CIRCLE_2_">
		<path fill="none" stroke="#000000" stroke-width="0.7087" stroke-linecap="round" stroke-linejoin="round" d="M695.151,418.314
			c0-1.933-1.566-3.499-3.499-3.499s-3.5,1.566-3.5,3.499s1.567,3.499,3.5,3.499S695.151,420.247,695.151,418.314L695.151,418.314
			L695.151,418.314z"/>
	</g>
	<g id="LINE_7_">
		
			<line fill="none" stroke="#000000" stroke-width="0.7087" stroke-linecap="round" stroke-linejoin="round" x1="811.623" y1="415.315" x2="811.623" y2="421.313"/>
	</g>
	<g id="LINE_8_">
		
			<line fill="none" stroke="#000000" stroke-width="0.7087" stroke-linecap="round" stroke-linejoin="round" x1="814.622" y1="418.314" x2="808.624" y2="418.314"/>
	</g>
	<g id="CIRCLE_3_">
		<path fill="none" stroke="#000000" stroke-width="0.7087" stroke-linecap="round" stroke-linejoin="round" d="M815.122,418.314
			c0-1.933-1.566-3.499-3.499-3.499s-3.499,1.566-3.499,3.499s1.566,3.499,3.499,3.499S815.122,420.247,815.122,418.314
			L815.122,418.314L815.122,418.314z"/>
	</g>
</g>
</svg>