<?xml version="1.0" standalone="no"?>
<!DOCTYPE svg PUBLIC "-//W3C//DTD SVG 1.1//EN" "http://www.w3.org/Graphics/SVG/1.1/DTD/svg11.dtd">
<svg width="8.558350719721773in" height="7.700787396652197in"
 viewBox="0 0 8.558350719721773 7.700787396652197"
 xmlns="http://www.w3.org/2000/svg" version="1.1"
 xmlns:xlink="http://www.w3.org/1999/xlink">
<desc>Output from Flights of Ideas SVG Sketchup Plugin</desc>

  <path id="face0-cut"
 style="fill:none;stroke:#0000FF;stroke-width:.05;stroke-miterlimit:4;stroke-dasharray:none;stroke-linejoin:round;stroke-linecap:round"
        d="M 8.55835071825567,7.102329214065683 L 5.068837499589907,4.2064825152312615 L 5.044758771305228,4.188623988812506 L 5.01887895687685,4.173492983333396 L 4.991505698032422,4.161269365951775 L 4.962964389556592,4.152098442762479 L 4.933594311217912,4.146089231496759 L 4.903744594640432,4.143313165593242 L 4.873770073063159,4.143803245045535 L 4.844027063322481,4.147553644120623 L 4.814869130198711,4.154519780611236 L 4.786642883477081,4.164618845798977 L 4.759683857685135,4.177730788828359 L 4.734312523485197,4.193699743790142 L 4.552503770358942,4.289604056029786 L 4.352068137753807,4.335184940199132 L 4.146664982796284,4.3273361343680135 L 3.9502921910519535,4.266592521683058 L 3.7763322437568223,4.157093678965169 L 3.6366402238366535,4.00630177139019 L 3.540735911597007,3.8244930182639405 L 3.49515502742766,3.624057385658802 L 3.5030038332587767,3.4186542307012764 L 3.563747445943736,3.2222814389569456 L 3.581898134282983,3.193445583631965 L 3.5865045779115294,3.1671036763067684 L 3.5888878533854256,3.1372835316543477 L 3.588480525165781,3.107371074169255 L 3.5852861416405193,3.0776268824174333 L 3.5793325302751557,3.048310069139284 L 3.5706715551972468,3.019676024022051 L 3.5593786653887878,2.991974188905044 L 3.5455522374219117,2.965445884798823 L 3.5293127184639235,2.9403222096479102 L 3.5108015770171366,2.9168220251504775 L 3.4958346357014096,2.9010926613448995 L 3.4901800705340906,2.895150050172522 L 1.4661013162864277e-09,1.4661013162864277e-09 L 1.4669539675693398e-09,7.700787395186096 L 8.55835071825567,7.102329214065683 "
  />
  <path id="face0-interior"
 style="fill:none;stroke:#FF0000;stroke-width:.05;stroke-miterlimit:4;stroke-dasharray:none;stroke-linejoin:round;stroke-linecap:round"
        d="M 8.55835071825567,7.102329214065683 M 5.068837499589907,4.2064825152312615 M 5.044758771305228,4.188623988812506 M 5.01887895687685,4.173492983333396 M 4.991505698032422,4.161269365951775 M 4.962964389556592,4.152098442762479 M 4.933594311217912,4.146089231496759 M 4.903744594640432,4.143313165593242 M 4.873770073063159,4.143803245045535 M 4.844027063322481,4.147553644120623 M 4.814869130198711,4.154519780611236 M 4.786642883477081,4.164618845798977 M 4.759683857685135,4.177730788828359 M 4.734312523485197,4.193699743790142 M 4.552503770358942,4.289604056029786 M 4.352068137753807,4.335184940199132 M 4.146664982796284,4.3273361343680135 M 3.9502921910519535,4.266592521683058 M 3.7763322437568223,4.157093678965169 M 3.6366402238366535,4.00630177139019 M 3.540735911597007,3.8244930182639405 M 3.49515502742766,3.624057385658802 M 3.5030038332587767,3.4186542307012764 M 3.563747445943736,3.2222814389569456 M 3.581898134282983,3.193445583631965 M 3.5865045779115294,3.1671036763067684 M 3.5888878533854256,3.1372835316543477 M 3.588480525165781,3.107371074169255 M 3.5852861416405193,3.0776268824174333 M 3.5793325302751557,3.048310069139284 M 3.5706715551972468,3.019676024022051 M 3.5593786653887878,2.991974188905044 M 3.5455522374219117,2.965445884798823 M 3.5293127184639235,2.9403222096479102 M 3.5108015770171366,2.9168220251504775 M 3.4958346357014096,2.9010926613448995 M 3.4901800705340906,2.895150050172522 M 1.4661013162864277e-09,1.4661013162864277e-09 M 1.4669539675693398e-09,7.700787395186096 "
  />
  <path id="face0-interior"
 style="fill:none;stroke:#00FF00;stroke-width:.05;stroke-miterlimit:4;stroke-dasharray:none;stroke-linejoin:round;stroke-linecap:round"
        d="M 8.55835071825567,7.102329214065683 M 5.068837499589907,4.2064825152312615 M 5.044758771305228,4.188623988812506 M 5.01887895687685,4.173492983333396 M 4.991505698032422,4.161269365951775 M 4.962964389556592,4.152098442762479 M 4.933594311217912,4.146089231496759 M 4.903744594640432,4.143313165593242 M 4.873770073063159,4.143803245045535 M 4.844027063322481,4.147553644120623 M 4.814869130198711,4.154519780611236 M 4.786642883477081,4.164618845798977 M 4.759683857685135,4.177730788828359 M 4.734312523485197,4.193699743790142 M 4.552503770358942,4.289604056029786 M 4.352068137753807,4.335184940199132 M 4.146664982796284,4.3273361343680135 M 3.9502921910519535,4.266592521683058 M 3.7763322437568223,4.157093678965169 M 3.6366402238366535,4.00630177139019 M 3.540735911597007,3.8244930182639405 M 3.49515502742766,3.624057385658802 M 3.5030038332587767,3.4186542307012764 M 3.563747445943736,3.2222814389569456 M 3.581898134282983,3.193445583631965 M 3.5865045779115294,3.1671036763067684 M 3.5888878533854256,3.1372835316543477 M 3.588480525165781,3.107371074169255 M 3.5852861416405193,3.0776268824174333 M 3.5793325302751557,3.048310069139284 M 3.5706715551972468,3.019676024022051 M 3.5593786653887878,2.991974188905044 M 3.5455522374219117,2.965445884798823 M 3.5293127184639235,2.9403222096479102 M 3.5108015770171366,2.9168220251504775 M 3.4958346357014096,2.9010926613448995 M 3.4901800705340906,2.895150050172522 M 1.4661013162864277e-09,1.4661013162864277e-09 M 1.4669539675693398e-09,7.700787395186096 "
  />
</svg>
