<?xml version="1.0" standalone="no"?>
<!DOCTYPE svg PUBLIC "-//W3C//DTD SVG 1.1//EN" "http://www.w3.org/Graphics/SVG/1.1/DTD/svg11.dtd">
<svg width="6.084572128013562in" height="6.299212592115445in"
 viewBox="0 0 6.084572128013562 6.299212592115445"
 xmlns="http://www.w3.org/2000/svg" version="1.1"
 xmlns:xlink="http://www.w3.org/1999/xlink">
<desc>Output from Flights of Ideas SVG Sketchup Plugin</desc>

  <path id="face0-cut"
 style="fill:none;stroke:#0000FF;stroke-width:.05;stroke-miterlimit:4;stroke-dasharray:none;stroke-linejoin:round;stroke-linecap:round"
        d="M 3.4152294473638736,3.5097072411874204 L 3.4185182345407017,3.5116517985096105 L 3.438897809288125,3.5211024117695895 L 3.4601173044846294,3.5284762968705112 L 3.4819657086539766,3.5337001262253405 L 3.504225756306386,3.536721952889383 L 3.526676088475884,3.53751172713245 L 3.5490934539640366,3.5360615952602212 L 3.5712549294005416,3.532385977713161 L 3.5929401360439246,3.52652142566637 L 3.613933431277633,3.518526257556427 L 3.634026053009197,3.5084799791495977 L 3.6505897036100694,3.4980165904840237 L 3.65301819564792,3.496482492918474 L 6.084572127955841,1.630356188016774 L 5.7720524263307526e-11,5.7720524263307526e-11 L 5.842396157171003e-11,6.299212592057724 L 2.431704448864696,4.433300141699906 L 2.448769439777482,4.418660754636981 L 2.464139257836766,4.402250566909338 L 2.47763119704226,4.384264651728095 L 2.489084874347259,4.3649168134864595 L 2.4983641361837416,4.344437046197704 L 2.5053586769639113,4.3230687994819235 L 2.5099853503183627,4.301066084601647 L 2.5121891574839768,4.278690454947746 L 2.5119439010919,4.256207896869675 L 2.5092524965842418,4.233885667809659 L 2.504146937557184,4.211989119327008 L 2.4966879154428088,4.190778542778286 L 2.4567871307221654,4.041866786939014 L 2.4567871307221654,3.887701993135568 L 2.4966879154427803,3.738790237296296 L 2.573770312344496,3.6052796094933153 L 2.682781283463132,3.496268638374676 L 2.8162919112660947,3.419186241472939 L 2.9652036671053597,3.379285456752292 L 3.1193684609088055,3.379285456752281 L 3.2682802167480847,3.4191862414729033 L 3.4017908445510616,3.496268638374612 L 3.4152294473638736,3.5097072411874204 "
  />
  <path id="face0-interior"
 style="fill:none;stroke:#FF0000;stroke-width:.05;stroke-miterlimit:4;stroke-dasharray:none;stroke-linejoin:round;stroke-linecap:round"
        d="M 3.4152294473638736,3.5097072411874204 M 3.4185182345407017,3.5116517985096105 M 3.438897809288125,3.5211024117695895 M 3.4601173044846294,3.5284762968705112 M 3.4819657086539766,3.5337001262253405 M 3.504225756306386,3.536721952889383 M 3.526676088475884,3.53751172713245 M 3.5490934539640366,3.5360615952602212 M 3.5712549294005416,3.532385977713161 M 3.5929401360439246,3.52652142566637 M 3.613933431277633,3.518526257556427 M 3.634026053009197,3.5084799791495977 M 3.6505897036100694,3.4980165904840237 M 3.65301819564792,3.496482492918474 M 6.084572127955841,1.630356188016774 M 5.7720524263307526e-11,5.7720524263307526e-11 M 5.842396157171003e-11,6.299212592057724 M 2.431704448864696,4.433300141699906 M 2.448769439777482,4.418660754636981 M 2.464139257836766,4.402250566909338 M 2.47763119704226,4.384264651728095 M 2.489084874347259,4.3649168134864595 M 2.4983641361837416,4.344437046197704 M 2.5053586769639113,4.3230687994819235 M 2.5099853503183627,4.301066084601647 M 2.5121891574839768,4.278690454947746 M 2.5119439010919,4.256207896869675 M 2.5092524965842418,4.233885667809659 M 2.504146937557184,4.211989119327008 M 2.4966879154428088,4.190778542778286 M 2.4567871307221654,4.041866786939014 M 2.4567871307221654,3.887701993135568 M 2.4966879154427803,3.738790237296296 M 2.573770312344496,3.6052796094933153 M 2.682781283463132,3.496268638374676 M 2.8162919112660947,3.419186241472939 M 2.9652036671053597,3.379285456752292 M 3.1193684609088055,3.379285456752281 M 3.2682802167480847,3.4191862414729033 M 3.4017908445510616,3.496268638374612 "
  />
  <path id="face0-interior"
 style="fill:none;stroke:#00FF00;stroke-width:.05;stroke-miterlimit:4;stroke-dasharray:none;stroke-linejoin:round;stroke-linecap:round"
        d="M 3.4152294473638736,3.5097072411874204 M 3.4185182345407017,3.5116517985096105 M 3.438897809288125,3.5211024117695895 M 3.4601173044846294,3.5284762968705112 M 3.4819657086539766,3.5337001262253405 M 3.504225756306386,3.536721952889383 M 3.526676088475884,3.53751172713245 M 3.5490934539640366,3.5360615952602212 M 3.5712549294005416,3.532385977713161 M 3.5929401360439246,3.52652142566637 M 3.613933431277633,3.518526257556427 M 3.634026053009197,3.5084799791495977 M 3.6505897036100694,3.4980165904840237 M 3.65301819564792,3.496482492918474 M 6.084572127955841,1.630356188016774 M 5.7720524263307526e-11,5.7720524263307526e-11 M 5.842396157171003e-11,6.299212592057724 M 2.431704448864696,4.433300141699906 M 2.448769439777482,4.418660754636981 M 2.464139257836766,4.402250566909338 M 2.47763119704226,4.384264651728095 M 2.489084874347259,4.3649168134864595 M 2.4983641361837416,4.344437046197704 M 2.5053586769639113,4.3230687994819235 M 2.5099853503183627,4.301066084601647 M 2.5121891574839768,4.278690454947746 M 2.5119439010919,4.256207896869675 M 2.5092524965842418,4.233885667809659 M 2.504146937557184,4.211989119327008 M 2.4966879154428088,4.190778542778286 M 2.4567871307221654,4.041866786939014 M 2.4567871307221654,3.887701993135568 M 2.4966879154427803,3.738790237296296 M 2.573770312344496,3.6052796094933153 M 2.682781283463132,3.496268638374676 M 2.8162919112660947,3.419186241472939 M 2.9652036671053597,3.379285456752292 M 3.1193684609088055,3.379285456752281 M 3.2682802167480847,3.4191862414729033 M 3.4017908445510616,3.496268638374612 "
  />
</svg>
