<?xml version="1.0" standalone="no"?>
<!DOCTYPE svg PUBLIC "-//W3C//DTD SVG 1.1//EN" "http://www.w3.org/Graphics/SVG/1.1/DTD/svg11.dtd">
<svg width="25.01312508528892in" height="25.87102586651516in"
 viewBox="0 0 25.01312508528892 25.87102586651516"
 xmlns="http://www.w3.org/2000/svg" version="1.1"
 xmlns:xlink="http://www.w3.org/1999/xlink">
<desc>Output from Flights of Ideas SVG Sketchup Plugin</desc>

  <path id="face0-cut"
 style="fill:none;stroke:#0000FF;stroke-width:.05;stroke-miterlimit:4;stroke-dasharray:none;stroke-linejoin:round;stroke-linecap:round"
        d="M 2.272461585172042e-12,14.060002256512908 L 8.078969473320624,14.060002256512908 L 8.1144459871835,14.060002256512908 L 8.147502238731759,14.078365555659778 L 8.175889439631929,14.100147821023981 L 8.197671704995853,14.128535021923847 L 8.211364609435831,14.161592617531257 L 8.216035004142865,14.197067787335099 L 8.211364609435831,14.232542957138834 L 8.197671704995853,14.26560055274616 L 8.175889439631929,14.293987753646405 L 8.147502238731759,14.315770019010328 L 8.11444464312447,14.329462923450274 L 8.078969473320624,14.334133318157347 L 8.078969473320653,25.871025866512888 L 8.969633260025374,23.947243843652977 L 9.915431816735916,22.049960432417194 L 10.915577643724871,20.180755366839083 L 11.969237990127509,18.34118500209493 L 13.075535547314471,16.532781018636456 L 14.23354917936467,14.757049146868612 L 15.442314690030484,13.015467913434167 L 16.700825625555694,11.309487410148801 L 18.0080341126787,9.640528086612141 L 19.362851731122134,8.009979567499252 L 20.764150419844725,6.419199495518667 L 22.21076341629697,4.869512400998654 L 21.703403605509436,4.374752837396959 L 21.665433053662213,4.32653616691262 L 21.641235709607173,4.270134937662982 L 21.63246058235393,4.2093928002139895 L 21.63970568232304,4.148449230851692 L 21.662477267924714,4.0914574331140505 L 21.69922349323207,4.0423013038335265 L 21.747440163716448,4.004330751986237 L 21.803841392966035,3.9801334079312887 L 21.864583530415047,3.9713582806779817 L 21.925527099777355,3.9786033806471033 L 21.982518897515035,4.001374966248798 L 22.03167502679554,4.038121191556157 L 25.013125085286646,0.9807413067947245 L 24.67579688945301,0.7804841629538709 L 24.32659958307167,0.6017260118678959 L 23.96690161339879,0.44516737755828434 L 23.598112578076382,0.3114217877632571 L 23.22167770114899,0.20101336962244037 L 22.83907216946676,0.11437479570839099 L 22.451795351668864,0.051845588453177494 L 22.061364922402106,0.013670789615587044 L 21.669310914802395,2.272461585172042e-12 L 21.277169724543825,0.010886793206716096 L 20.8864780889553,0.04628850566298276 L 20.49876706479745,0.10606640383748417 L 20.13249378330275,0.20444787829713335 L 19.774036488444466,0.32831635296551515 L 19.425166287654662,0.47705980409748566 L 19.087606919337503,0.6499433027753178 L 18.76302623602251,0.846112646130918 L 18.45302796364504,1.064598577890378 L 18.159143777671176,1.3043215773881847 L 17.88282573521701,1.5640971933880867 L 17.625439100557344,1.8426418963574656 L 17.388255599468067,2.1385794202790023 L 17.17244713573683,2.45044756266574 L 16.979080000884267,2.776705409180868 L 16.47010422433226,3.641313307090807 L 15.906566372143827,4.471390560962827 L 15.290800637805772,5.263498961789375 L 14.62535754451872,6.014357568879582 L 13.91299338084107,6.720856299630564 L 13.156658784045247,7.38006881159818 L 12.359486518475022,7.9892646235096745 L 11.52477849952592,8.545920425012762 L 10.655992116996542,9.047730528315192 L 9.756725914458682,9.49261641842424 L 8.830704683964568,9.87873536242851 L 7.881764037827337,10.204488042161941 L 7.667174058836877,10.270513893437224 L 4.025871622289997,11.239585282419453 L 3.7827738775709734,11.300927126617966 L 3.5427575034495633,11.373394191486991 L 3.306331348341955,11.456832842711675 L 3.073996649195236,11.55106618558766 L 2.846245968836341,11.655894440048016 L 2.623562151710415,11.771095364208353 L 2.4064173002236076,11.896424725532322 L 2.1952717738581655,12.031616818618533 L 1.990573213185057,12.17638502851111 L 1.792755590839589,12.330422438339921 L 1.6022382914752584,12.493402480001661 L 1.4194252226436945,12.664979626503039 L 2.272461585172042e-12,14.060002256512908 "
  />
  <path id="face0-interior"
 style="fill:none;stroke:#FF0000;stroke-width:.05;stroke-miterlimit:4;stroke-dasharray:none;stroke-linejoin:round;stroke-linecap:round"
        d="M 2.272461585172042e-12,14.060002256512908 M 8.078969473320624,14.060002256512908 M 8.1144459871835,14.060002256512908 M 8.147502238731759,14.078365555659778 M 8.175889439631929,14.100147821023981 M 8.197671704995853,14.128535021923847 M 8.211364609435831,14.161592617531257 M 8.216035004142865,14.197067787335099 M 8.211364609435831,14.232542957138834 M 8.197671704995853,14.26560055274616 M 8.175889439631929,14.293987753646405 M 8.147502238731759,14.315770019010328 M 8.11444464312447,14.329462923450274 M 8.078969473320624,14.334133318157347 M 8.078969473320653,25.871025866512888 M 8.969633260025374,23.947243843652977 M 9.915431816735916,22.049960432417194 M 10.915577643724871,20.180755366839083 M 11.969237990127509,18.34118500209493 M 13.075535547314471,16.532781018636456 M 14.23354917936467,14.757049146868612 M 15.442314690030484,13.015467913434167 M 16.700825625555694,11.309487410148801 M 18.0080341126787,9.640528086612141 M 19.362851731122134,8.009979567499252 M 20.764150419844725,6.419199495518667 M 22.21076341629697,4.869512400998654 M 21.703403605509436,4.374752837396959 M 21.665433053662213,4.32653616691262 M 21.641235709607173,4.270134937662982 M 21.63246058235393,4.2093928002139895 M 21.63970568232304,4.148449230851692 M 21.662477267924714,4.0914574331140505 M 21.69922349323207,4.0423013038335265 M 21.747440163716448,4.004330751986237 M 21.803841392966035,3.9801334079312887 M 21.864583530415047,3.9713582806779817 M 21.925527099777355,3.9786033806471033 M 21.982518897515035,4.001374966248798 M 22.03167502679554,4.038121191556157 M 25.013125085286646,0.9807413067947245 M 24.67579688945301,0.7804841629538709 M 24.32659958307167,0.6017260118678959 M 23.96690161339879,0.44516737755828434 M 23.598112578076382,0.3114217877632571 M 23.22167770114899,0.20101336962244037 M 22.83907216946676,0.11437479570839099 M 22.451795351668864,0.051845588453177494 M 22.061364922402106,0.013670789615587044 M 21.669310914802395,2.272461585172042e-12 M 21.277169724543825,0.010886793206716096 M 20.8864780889553,0.04628850566298276 M 20.49876706479745,0.10606640383748417 M 20.13249378330275,0.20444787829713335 M 19.774036488444466,0.32831635296551515 M 19.425166287654662,0.47705980409748566 M 19.087606919337503,0.6499433027753178 M 18.76302623602251,0.846112646130918 M 18.45302796364504,1.064598577890378 M 18.159143777671176,1.3043215773881847 M 17.88282573521701,1.5640971933880867 M 17.625439100557344,1.8426418963574656 M 17.388255599468067,2.1385794202790023 M 17.17244713573683,2.45044756266574 M 16.979080000884267,2.776705409180868 M 16.47010422433226,3.641313307090807 M 15.906566372143827,4.471390560962827 M 15.290800637805772,5.263498961789375 M 14.62535754451872,6.014357568879582 M 13.91299338084107,6.720856299630564 M 13.156658784045247,7.38006881159818 M 12.359486518475022,7.9892646235096745 M 11.52477849952592,8.545920425012762 M 10.655992116996542,9.047730528315192 M 9.756725914458682,9.49261641842424 M 8.830704683964568,9.87873536242851 M 7.881764037827337,10.204488042161941 M 7.667174058836877,10.270513893437224 M 4.025871622289997,11.239585282419453 M 3.7827738775709734,11.300927126617966 M 3.5427575034495633,11.373394191486991 M 3.306331348341955,11.456832842711675 M 3.073996649195236,11.55106618558766 M 2.846245968836341,11.655894440048016 M 2.623562151710415,11.771095364208353 M 2.4064173002236076,11.896424725532322 M 2.1952717738581655,12.031616818618533 M 1.990573213185057,12.17638502851111 M 1.792755590839589,12.330422438339921 M 1.6022382914752584,12.493402480001661 M 1.4194252226436945,12.664979626503039 "
  />
  <path id="face0-interior"
 style="fill:none;stroke:#00FF00;stroke-width:.05;stroke-miterlimit:4;stroke-dasharray:none;stroke-linejoin:round;stroke-linecap:round"
        d="M 2.272461585172042e-12,14.060002256512908 M 8.078969473320624,14.060002256512908 M 8.1144459871835,14.060002256512908 M 8.147502238731759,14.078365555659778 M 8.175889439631929,14.100147821023981 M 8.197671704995853,14.128535021923847 M 8.211364609435831,14.161592617531257 M 8.216035004142865,14.197067787335099 M 8.211364609435831,14.232542957138834 M 8.197671704995853,14.26560055274616 M 8.175889439631929,14.293987753646405 M 8.147502238731759,14.315770019010328 M 8.11444464312447,14.329462923450274 M 8.078969473320624,14.334133318157347 M 8.078969473320653,25.871025866512888 M 8.969633260025374,23.947243843652977 M 9.915431816735916,22.049960432417194 M 10.915577643724871,20.180755366839083 M 11.969237990127509,18.34118500209493 M 13.075535547314471,16.532781018636456 M 14.23354917936467,14.757049146868612 M 15.442314690030484,13.015467913434167 M 16.700825625555694,11.309487410148801 M 18.0080341126787,9.640528086612141 M 19.362851731122134,8.009979567499252 M 20.764150419844725,6.419199495518667 M 22.21076341629697,4.869512400998654 M 21.703403605509436,4.374752837396959 M 21.665433053662213,4.32653616691262 M 21.641235709607173,4.270134937662982 M 21.63246058235393,4.2093928002139895 M 21.63970568232304,4.148449230851692 M 21.662477267924714,4.0914574331140505 M 21.69922349323207,4.0423013038335265 M 21.747440163716448,4.004330751986237 M 21.803841392966035,3.9801334079312887 M 21.864583530415047,3.9713582806779817 M 21.925527099777355,3.9786033806471033 M 21.982518897515035,4.001374966248798 M 22.03167502679554,4.038121191556157 M 25.013125085286646,0.9807413067947245 M 24.67579688945301,0.7804841629538709 M 24.32659958307167,0.6017260118678959 M 23.96690161339879,0.44516737755828434 M 23.598112578076382,0.3114217877632571 M 23.22167770114899,0.20101336962244037 M 22.83907216946676,0.11437479570839099 M 22.451795351668864,0.051845588453177494 M 22.061364922402106,0.013670789615587044 M 21.669310914802395,2.272461585172042e-12 M 21.277169724543825,0.010886793206716096 M 20.8864780889553,0.04628850566298276 M 20.49876706479745,0.10606640383748417 M 20.13249378330275,0.20444787829713335 M 19.774036488444466,0.32831635296551515 M 19.425166287654662,0.47705980409748566 M 19.087606919337503,0.6499433027753178 M 18.76302623602251,0.846112646130918 M 18.45302796364504,1.064598577890378 M 18.159143777671176,1.3043215773881847 M 17.88282573521701,1.5640971933880867 M 17.625439100557344,1.8426418963574656 M 17.388255599468067,2.1385794202790023 M 17.17244713573683,2.45044756266574 M 16.979080000884267,2.776705409180868 M 16.47010422433226,3.641313307090807 M 15.906566372143827,4.471390560962827 M 15.290800637805772,5.263498961789375 M 14.62535754451872,6.014357568879582 M 13.91299338084107,6.720856299630564 M 13.156658784045247,7.38006881159818 M 12.359486518475022,7.9892646235096745 M 11.52477849952592,8.545920425012762 M 10.655992116996542,9.047730528315192 M 9.756725914458682,9.49261641842424 M 8.830704683964568,9.87873536242851 M 7.881764037827337,10.204488042161941 M 7.667174058836877,10.270513893437224 M 4.025871622289997,11.239585282419453 M 3.7827738775709734,11.300927126617966 M 3.5427575034495633,11.373394191486991 M 3.306331348341955,11.456832842711675 M 3.073996649195236,11.55106618558766 M 2.846245968836341,11.655894440048016 M 2.623562151710415,11.771095364208353 M 2.4064173002236076,11.896424725532322 M 2.1952717738581655,12.031616818618533 M 1.990573213185057,12.17638502851111 M 1.792755590839589,12.330422438339921 M 1.6022382914752584,12.493402480001661 M 1.4194252226436945,12.664979626503039 "
  />
</svg>
