<?xml version="1.0" standalone="no"?>
<!DOCTYPE svg PUBLIC "-//W3C//DTD SVG 1.1//EN" "http://www.w3.org/Graphics/SVG/1.1/DTD/svg11.dtd">
<svg width="25.01312508528892in" height="25.87102586651516in"
 viewBox="0 0 25.01312508528892 25.87102586651516"
 xmlns="http://www.w3.org/2000/svg" version="1.1"
 xmlns:xlink="http://www.w3.org/1999/xlink">
<desc>Output from Flights of Ideas SVG Sketchup Plugin</desc>

  <path id="face0-cut"
 style="fill:none;stroke:#0000FF;stroke-width:.05;stroke-miterlimit:4;stroke-dasharray:none;stroke-linejoin:round;stroke-linecap:round"
        d="M 2.272461585172042e-12,14.060002256512908 L 8.078969473320624,14.060002256512908 L 8.1144459871835,14.060002256512908 L 8.147502238731759,14.078365555659778 L 8.175889439631929,14.100147821023981 L 8.197671704995853,14.128535021923847 L 8.211364609435831,14.161592617531257 L 8.216035004142865,14.197067787335099 L 8.211364609435831,14.232542957138834 L 8.197671704995853,14.26560055274616 L 8.175889439631929,14.293987753646405 L 8.147502238731759,14.315770019010328 L 8.11444464312447,14.329462923450274 L 8.078969473320624,14.334133318157347 L 8.078969473320653,25.871025866512888 L 8.969633260025374,23.947243843652977 L 9.915431816735916,22.049960432417194 L 10.915577643724871,20.180755366839083 L 11.969237990127509,18.34118500209493 L 13.075535547314471,16.532781018636456 L 14.23354917936467,14.757049146868612 L 15.442314690030484,13.015467913434167 L 16.700825625555694,11.309487410148801 L 18.0080341126787,9.640528086612141 L 19.362851731122134,8.009979567499252 L 20.764150419844725,6.419199495518667 L 22.21076341629697,4.869512400998654 L 21.703403605509436,4.374752837396959 L 21.665433053662213,4.32653616691262 L 21.641235709607173,4.270134937662982 L 21.63246058235393,4.2093928002139895 L 21.63970568232304,4.148449230851692 L 21.662477267924714,4.0914574331140505 L 21.69922349323207,4.0423013038335265 L 21.747440163716448,4.004330751986237 L 21.803841392966035,3.9801334079312887 L 21.864583530415047,3.9713582806779817 L 21.925527099777355,3.9786033806471033 L 21.982518897515035,4.001374966248798 L 22.03167502679554,4.038121191556157 L 25.013125085286646,0.9807413067947245 L 24.67579688945301,0.7804841629538709 L 24.32659958307167,0.6017260118678959 L 23.96690161339879,0.44516737755828434 L 23.598112578076382,0.3114217877632571 L 23.22167770114899,0.20101336962244037 L 22.83907216946676,0.11437479570839099 L 22.451795351668864,0.051845588453177494 L 22.061364922402106,0.013670789615587044 L 21.669310914802395,2.272461585172042e-12 L 21.277169724543825,0.010886793206716096 L 20.8864780889553,0.04628850566298276 L 20.49876706479745,0.10606640383748417 L 20.13249378330275,0.20444787829713335 L 19.774036488444466,0.32831635296551515 L 19.425166287654662,0.47705980409748566 L 19.087606919337503,0.6499433027753178 L 18.76302623602251,0.846112646130918 L 18.45302796364504,1.064598577890378 L 18.159143777671176,1.3043215773881847 L 17.88282573521701,1.5640971933880867 L 17.625439100557344,1.8426418963574656 L 17.388255599468067,2.1385794202790023 L 17.17244713573683,2.45044756266574 L 16.979080000884267,2.776705409180868 L 16.47010422433226,3.641313307090807 L 15.906566372143827,4.471390560962827 L 15.290800637805772,5.263498961789375 L 14.62535754451872,6.014357568879582 L 13.91299338084107,6.720856299630564 L 13.156658784045247,7.38006881159818 L 12.359486518475022,7.9892646235096745 L 11.52477849952592,8.545920425012762 L 10.655992116996542,9.047730528315192 L 9.756725914458682,9.49261641842424 L 8.830704683964568,9.87873536242851 L 7.881764037827337,10.204488042161941 L 7.667174058836877,10.270513893437224 L 4.025871622289997,11.239585282419453 L 3.7827738775709734,11.300927126617966 L 3.5427575034495633,11.373394191486991 L 3.306331348341955,11.456832842711675 L 3.073996649195236,11.55106618558766 L 2.846245968836341,11.655894440048016 L 2.623562151710415,11.771095364208353 L 2.4064173002236076,11.896424725532322 L 2.1952717738581655,12.031616818618533 L 1.990573213185057,12.17638502851111 L 1.792755590839589,12.330422438339921 L 1.6022382914752584,12.493402480001661 L 1.4194252226436945,12.664979626503039 L 2.272461585172042e-12,14.060002256512908 "
  />
  <path id="face0-interior"
 style="fill:none;stroke:#FF0000;stroke-width:.05;stroke-miterlimit:4;stroke-dasharray:none;stroke-linejoin:round;stroke-linecap:round"
        d="M 2.272461585172042e-12,14.060002256512908 M 8.078969473320624,14.060002256512908 M 8.1144459871835,14.060002256512908 M 8.147502238731759,14.078365555659778 M 8.175889439631929,14.100147821023981 M 8.197671704995853,14.128535021923847 M 8.211364609435831,14.161592617531257 M 8.216035004142865,14.197067787335099 M 8.211364609435831,14.232542957138834 M 8.197671704995853,14.26560055274616 M 8.175889439631929,14.293987753646405 M 8.147502238731759,14.315770019010328 M 8.11444464312447,14.329462923450274 M 8.078969473320624,14.334133318157347 M 8.078969473320653,25.871025866512888 M 8.969633260025374,23.947243843652977 M 9.915431816735916,22.049960432417194 M 10.915577643724871,20.180755366839083 M 11.969237990127509,18.34118500209493 M 13.075535547314471,16.532781018636456 M 14.23354917936467,14.757049146868612 M 15.442314690030484,13.015467913434167 M 16.700825625555694,11.309487410148801 M 18.0080341126787,9.640528086612141 M 19.362851731122134,8.009979567499252 M 20.764150419844725,6.419199495518667 M 22.21076341629697,4.869512400998654 M 21.703403605509436,4.374752837396959 M 21.665433053662213,4.32653616691262 M 21.641235709607173,4.270134937662982 M 21.63246058235393,4.2093928002139895 M 21.63970568232304,4.148449230851692 M 21.662477267924714,4.0914574331140505 M 21.69922349323207,4.0423013038335265 M 21.747440163716448,4.004330751986237 M 21.803841392966035,3.9801334079312887 M 21.864583530415047,3.9713582806779817 M 21.925527099777355,3.9786033806471033 M 21.982518897515035,4.001374966248798 M 22.03167502679554,4.038121191556157 M 25.013125085286646,0.9807413067947245 M 24.67579688945301,0.7804841629538709 M 24.32659958307167,0.6017260118678959 M 23.96690161339879,0.44516737755828434 M 23.598112578076382,0.3114217877632571 M 23.22167770114899,0.20101336962244037 M 22.83907216946676,0.11437479570839099 M 22.451795351668864,0.051845588453177494 M 22.061364922402106,0.013670789615587044 M 21.669310914802395,2.272461585172042e-12 M 21.277169724543825,0.010886793206716096 M 20.8864780889553,0.04628850566298276 M 20.49876706479745,0.10606640383748417 M 20.13249378330275,0.20444787829713335 M 19.774036488444466,0.32831635296551515 M 19.425166287654662,0.47705980409748566 M 19.087606919337503,0.6499433027753178 M 18.76302623602251,0.846112646130918 M 18.45302796364504,1.064598577890378 M 18.159143777671176,1.3043215773881847 M 17.88282573521701,1.5640971933880867 M 17.625439100557344,1.8426418963574656 M 17.388255599468067,2.1385794202790023 M 17.17244713573683,2.45044756266574 M 16.979080000884267,2.776705409180868 M 16.47010422433226,3.641313307090807 M 15.906566372143827,4.471390560962827 M 15.290800637805772,5.263498961789375 M 14.62535754451872,6.014357568879582 M 13.91299338084107,6.720856299630564 M 13.156658784045247,7.38006881159818 M 12.359486518475022,7.9892646235096745 M 11.52477849952592,8.545920425012762 M 10.655992116996542,9.047730528315192 M 9.756725914458682,9.49261641842424 M 8.830704683964568,9.87873536242851 M 7.881764037827337,10.204488042161941 M 7.667174058836877,10.270513893437224 M 4.025871622289997,11.239585282419453 M 3.7827738775709734,11.300927126617966 M 3.5427575034495633,11.373394191486991 M 3.306331348341955,11.456832842711675 M 3.073996649195236,11.55106618558766 M 2.846245968836341,11.655894440048016 M 2.623562151710415,11.771095364208353 M 2.4064173002236076,11.896424725532322 M 2.1952717738581655,12.031616818618533 M 1.990573213185057,12.17638502851111 M 1.792755590839589,12.330422438339921 M 1.6022382914752584,12.493402480001661 M 1.4194252226436945,12.664979626503039 "
  />
  <path id="face0-interior"
 style="fill:none;stroke:#00FF00;stroke-width:.05;stroke-miterlimit:4;stroke-dasharray:none;stroke-linejoin:round;stroke-linecap:round"
        d="M 2.272461585172042e-12,14.060002256512908 M 8.078969473320624,14.060002256512908 M 8.1144459871835,14.060002256512908 M 8.147502238731759,14.078365555659778 M 8.175889439631929,14.100147821023981 M 8.197671704995853,14.128535021923847 M 8.211364609435831,14.161592617531257 M 8.216035004142865,14.197067787335099 M 8.211364609435831,14.232542957138834 M 8.197671704995853,14.26560055274616 M 8.175889439631929,14.293987753646405 M 8.147502238731759,14.315770019010328 M 8.11444464312447,14.329462923450274 M 8.078969473320624,14.334133318157347 M 8.078969473320653,25.871025866512888 M 8.969633260025374,23.947243843652977 M 9.915431816735916,22.049960432417194 M 10.915577643724871,20.180755366839083 M 11.969237990127509,18.34118500209493 M 13.075535547314471,16.532781018636456 M 14.23354917936467,14.757049146868612 M 15.442314690030484,13.015467913434167 M 16.700825625555694,11.309487410148801 M 18.0080341126787,9.640528086612141 M 19.362851731122134,8.009979567499252 M 20.764150419844725,6.419199495518667 M 22.21076341629697,4.869512400998654 M 21.703403605509436,4.374752837396959 M 21.665433053662213,4.32653616691262 M 21.641235709607173,4.270134937662982 M 21.63246058235393,4.2093928002139895 M 21.63970568232304,4.148449230851692 M 21.662477267924714,4.0914574331140505 M 21.69922349323207,4.0423013038335265 M 21.747440163716448,4.004330751986237 M 21.803841392966035,3.9801334079312887 M 21.864583530415047,3.9713582806779817 M 21.925527099777355,3.9786033806471033 M 21.982518897515035,4.001374966248798 M 22.03167502679554,4.038121191556157 M 25.013125085286646,0.9807413067947245 M 24.67579688945301,0.7804841629538709 M 24.32659958307167,0.6017260118678959 M 23.96690161339879,0.44516737755828434 M 23.598112578076382,0.3114217877632571 M 23.22167770114899,0.20101336962244037 M 22.83907216946676,0.11437479570839099 M 22.451795351668864,0.051845588453177494 M 22.061364922402106,0.013670789615587044 M 21.669310914802395,2.272461585172042e-12 M 21.277169724543825,0.010886793206716096 M 20.8864780889553,0.04628850566298276 M 20.49876706479745,0.10606640383748417 M 20.13249378330275,0.20444787829713335 M 19.774036488444466,0.32831635296551515 M 19.425166287654662,0.47705980409748566 M 19.087606919337503,0.6499433027753178 M 18.76302623602251,0.846112646130918 M 18.45302796364504,1.064598577890378 M 18.159143777671176,1.3043215773881847 M 17.88282573521701,1.5640971933880867 M 17.625439100557344,1.8426418963574656 M 17.388255599468067,2.1385794202790023 M 17.17244713573683,2.45044756266574 M 16.979080000884267,2.776705409180868 M 16.47010422433226,3.641313307090807 M 15.906566372143827,4.471390560962827 M 15.290800637805772,5.263498961789375 M 14.62535754451872,6.014357568879582 M 13.91299338084107,6.720856299630564 M 13.156658784045247,7.38006881159818 M 12.359486518475022,7.9892646235096745 M 11.52477849952592,8.545920425012762 M 10.655992116996542,9.047730528315192 M 9.756725914458682,9.49261641842424 M 8.830704683964568,9.87873536242851 M 7.881764037827337,10.204488042161941 M 7.667174058836877,10.270513893437224 M 4.025871622289997,11.239585282419453 M 3.7827738775709734,11.300927126617966 M 3.5427575034495633,11.373394191486991 M 3.306331348341955,11.456832842711675 M 3.073996649195236,11.55106618558766 M 2.846245968836341,11.655894440048016 M 2.623562151710415,11.771095364208353 M 2.4064173002236076,11.896424725532322 M 2.1952717738581655,12.031616818618533 M 1.990573213185057,12.17638502851111 M 1.792755590839589,12.330422438339921 M 1.6022382914752584,12.493402480001661 M 1.4194252226436945,12.664979626503039 "
  />
</svg>
<?xml version="1.0" encoding="utf-8"?>
<!-- Generator: Adobe Illustrator 13.0.2, SVG Export Plug-In . SVG Version: 6.00 Build 14948)  -->
<!DOCTYPE svg PUBLIC "-//W3C//DTD SVG 1.1//EN" "http://www.w3.org/Graphics/SVG/1.1/DTD/svg11.dtd">
<svg version="1.1" id="Layer_1" xmlns="http://www.w3.org/2000/svg" xmlns:xlink="http://www.w3.org/1999/xlink" x="0px" y="0px"
	 width="632.082px" height="647.6px" viewBox="0 0 632.082 647.6" enable-background="new 0 0 632.082 647.6" xml:space="preserve">
<g id="BLOCK_x5F_RECORD">
	<g id="LWPOLYLINE">
		
			<line fill="none" stroke="#000000" stroke-width="0.7087" stroke-linecap="round" stroke-linejoin="round" x1="201.341" y1="357.692" x2="3.35" y2="357.692"/>
		<polyline fill="none" stroke="#000000" stroke-width="0.<?xml version="1.0" encoding="utf-8"?>
<!-- Generator: Adobe Illustrator 13.0.2, SVG Export Plug-In . SVG Version: 6.00 Build 14948)  -->
<!DOCTYPE svg PUBLIC "-//W3C//DTD SVG 1.1//EN" "http://www.w3.org/Graphics/SVG/1.1/DTD/svg11.dtd">
<svg version="1.1" id="Layer_1" xmlns="http://www.w3.org/2000/svg" xmlns:xlink="http://www.w3.org/1999/xlink" x="0px" y="0px"
	 width="632.082px" height="647.6px" viewBox="0 0 632.082 647.6" enable-background="new 0 0 632.082 647.6" xml:space="preserve">
<g id="BLOCK_x5F_RECORD">
	<g id="LWPOLYLINE">
		
			<line fill="none" stroke="#000000" stroke-width="0.7087" stroke-linecap="round" stroke-linejoin="round" x1="201.341" y1="357.692" x2="3.35" y2="357.692"/>
		<polyline fill="none" stroke="#000000" stroke-width="0.7087" stroke-linecap="round" stroke-linejoin="round" points="
			3.35,357.692 2.806,357.644 2.281,357.496 1.792,357.257 1.353,356.933 0.98,356.534 0.686,356.075 0.479,355.57 0.368,355.037 
			0.354,354.492 0.44,353.953 0.621,353.438 0.893,352.966 1.245,352.55 		"/>
		<polyline fill="none" stroke="#000000" stroke-width="0.7087" stroke-linecap="round" stroke-linejoin="round" points="
			1.245,352.55 32.088,322.238 36.734,317.877 41.576,313.735 46.604,309.82 51.806,306.141 57.172,302.705 62.691,299.52 
			68.351,296.592 74.139,293.928 80.044,291.533 86.053,289.412 92.153,287.57 98.331,286.011 190.875,261.382 196.33,259.704 
			220.447,251.425 243.982,241.612 266.837,230.305 288.917,217.551 310.132,203.404 330.392,187.921 349.615,171.167 
			367.719,153.211 384.631,134.128 400.282,113.996 414.604,92.899 427.54,70.925 432.455,62.633 437.939,54.707 443.967,47.186 
			450.508,40.106 457.532,33.504 465,27.412 472.879,21.859 481.128,16.873 489.708,12.479 498.574,8.699 507.684,5.551 
			516.994,3.05 526.847,1.531 536.777,0.631 546.743,0.354 556.708,0.702 566.63,1.672 576.473,3.262 586.197,5.463 595.764,8.27 
			605.137,11.669 614.279,15.647 623.154,20.191 631.727,25.28 555.953,102.984 554.704,102.05 553.254,101.472 551.706,101.288 
			550.162,101.511 548.729,102.125 547.503,103.091 546.57,104.34 545.991,105.789 545.806,107.337 546.03,108.881 546.644,110.314 
			547.61,111.54 560.504,124.114 523.738,163.5 488.124,203.93 453.691,245.371 420.468,287.788 388.483,331.146 357.761,375.408 
			328.331,420.539 300.213,466.5 273.435,513.253 248.016,560.76 223.978,608.979 207.067,645.505 		"/>
		<polyline fill="none" stroke="#000000" stroke-width="0.7087" stroke-linecap="round" stroke-linejoin="round" points="
			207.067,645.505 206.774,646.005 206.39,646.439 205.93,646.792 205.411,647.05 204.851,647.202 204.273,647.245 203.698,647.176 
			203.146,646.997 202.639,646.715 202.196,646.342 201.833,645.89 201.563,645.377 201.397,644.821 201.341,644.244 		"/>
		<polyline fill="none" stroke="#000000" stroke-width="0.7087" stroke-linecap="round" stroke-linejoin="round" points="
			201.341,644.244 201.341,364.66 202.243,364.541 203.083,364.193 203.805,363.64 204.358,362.918 204.707,362.078 
			204.825,361.177 204.707,360.274 204.358,359.435 203.805,358.713 203.083,358.159 202.243,357.692 201.341,357.692 		"/>
	</g>
</g>
</svg>
7087" stroke-linecap="round" stroke-linejoin="round" points="
			3.35,357.692 2.806,357.644 2.281,357.496 1.792,357.257 1.353,356.933 0.98,356.534 0.686,356.075 0.479,355.57 0.368,355.037 
			0.354,354.492 0.44,353.953 0.621,353.438 0.893,352.966 1.245,352.55 		"/>
		<polyline fill="none" stroke="#000000" stroke-width="0.7087" stroke-linecap="round" stroke-linejoin="round" points="
			1.245,352.55 32.088,322.238 36.734,317.877 41.576,313.735 46.604,309.82 51.806,306.141 57.172,302.705 62.691,299.52 
			68.351,296.592 74.139,293.928 80.044,291.533 86.053,289.412 92.153,287.57 98.331,286.011 190.875,261.382 196.33,259.704 
			220.447,251.425 243.982,241.612 266.837,230.305 288.917,217.551 310.132,203.404 330.392,187.921 349.615,171.167 
			367.719,153.211 384.631,134.128 400.282,113.996 414.604,92.899 427.54,70.925 432.455,62.633 437.939,54.707 443.967,47.186 
			450.508,40.106 457.532,33.504 465,27.412 472.879,21.859 481.128,16.873 489.708,12.479 498.574,8.699 507.684,5.551 
			516.994,3.05 526.847,1.531 536.777,0.631 546.743,0.354 556.708,0.702 566.63,1.672 576.473,3.262 586.197,5.463 595.764,8.27 
			605.137,11.669 614.279,15.647 623.154,20.191 631.727,25.28 555.953,102.984 554.704,102.05 553.254,101.472 551.706,101.288 
			550.162,101.511 548.729,102.125 547.503,103.091 546.57,104.34 545.991,105.789 545.806,107.337 546.03,108.881 546.644,110.314 
			547.61,111.54 560.504,124.114 523.738,163.5 488.124,203.93 453.691,245.371 420.468,287.788 388.483,331.146 357.761,375.408 
			328.331,420.539 300.213,466.5 273.435,513.253 248.016,560.76 223.978,608.979 207.067,645.505 		"/>
		<polyline fill="none" stroke="#000000" stroke-width="0.7087" stroke-linecap="round" stroke-linejoin="round" points="
			207.067,645.505 206.774,646.005 206.39,646.439 205.93,646.792 205.411,647.05 204.851,647.202 204.273,647.245 203.698,647.176 
			203.146,646.997 202.639,646.715 202.196,646.342 201.833,645.89 201.563,645.377 201.397,644.821 201.341,644.244 		"/>
		<polyline fill="none" stroke="#000000" stroke-width="0.7087" stroke-linecap="round" stroke-linejoin="round" points="
			201.341,644.244 201.341,364.66 202.243,364.541 203.083,364.193 203.805,363.64 204.358,362.918 204.707,362.078 
			204.825,361.177 204.707,360.274 204.358,359.435 203.805,358.713 203.083,358.159 202.243,357.692 201.341,357.692 		"/>
	</g>
</g>
</svg>
